<svg width="224" height="34" viewBox="0 0 224 34" fill="none" xmlns="http://www.w3.org/2000/svg">
<path d="M86.3152 0.915768C86.5408 0.0891726 87.2896 -0.0656121 88.3513 0.0222137L88.4382 0.197018C89.1375 0.161547 89.5854 0.330209 89.6023 0.336667L89.5515 0.636472C90.2644 0.564165 90.5464 1.05548 90.9978 1.14331L90.9109 1.35424C91.5725 1.75721 91.4648 2.26368 92.1111 2.61499L91.8493 2.87866L92.0027 3.15796C92.6887 3.13748 93.1237 3.4664 93.1316 3.47241C93.9623 3.35374 94.1726 4.17553 94.1726 4.17553C95.065 4.33569 95.3057 5.33312 95.2185 5.73608C95.9468 5.96856 95.7937 6.84155 95.7937 6.84155C96.2601 7.04841 96.47 7.73473 95.778 8.11694C95.778 8.11694 96.0855 8.92797 97.0085 8.54077C97.9266 8.1533 97.6858 7.4869 97.532 7.34741C96.8857 7.86919 96.4194 7.41418 96.4861 6.82007C95.5381 6.54434 95.782 5.61802 95.7878 5.59643C94.6289 4.97167 95.3397 3.67679 95.3523 3.65405C94.8404 3.15378 95.325 2.53203 95.3366 2.51733C95.3213 1.6959 95.8601 0.941159 95.8601 0.941159C96.6961 1.08066 97.0085 1.62378 97.0085 1.62378C97.8958 1.63927 98.0857 2.53296 98.0857 2.53296C99.0088 2.56912 99.322 3.40557 99.1989 4.10815C99.7528 4.42324 99.8397 5.22892 99.5271 5.78686C100.014 6.34481 99.5988 7.03211 99.0603 7.0476C99.0603 7.0476 99.1681 7.89019 100.122 7.89038C101.076 7.89038 101.44 6.94473 101.199 6.54175C100.486 6.83588 100.158 6.20598 100.297 5.64819C99.4298 4.98175 100.194 4.05151 100.194 4.05151C99.6555 3.2456 100.143 2.63103 100.681 2.12475C100.681 1.60756 101.066 1.54767 101.081 1.54565C101.43 0.584734 102.128 0.197018 102.128 0.197018C102.128 0.197018 102.831 0.584734 103.179 1.54565C103.194 1.5478 103.579 1.60813 103.579 2.12475C104.117 2.63103 104.605 3.24562 104.066 4.05151C104.067 4.05259 104.83 4.98213 103.964 5.64819C104.107 6.20597 103.774 6.841 103.061 6.54175C102.815 6.94472 103.184 7.89038 104.138 7.89038C105.097 7.89016 105.2 7.0476 105.2 7.0476C104.661 7.03211 104.246 6.34998 104.733 5.78686C104.42 5.22896 104.507 4.42329 105.066 4.10815C104.943 3.41074 105.256 2.56912 106.179 2.53296C106.179 2.53296 106.369 1.63927 107.257 1.62378C107.257 1.62378 107.569 1.08071 108.405 0.941159C108.405 0.941159 108.944 1.6959 108.928 2.51733C108.938 2.52937 109.431 3.15267 108.913 3.65405C108.924 3.67383 109.633 4.97096 108.477 5.59643C108.483 5.61672 108.723 6.54395 107.78 6.82007C107.847 7.41418 107.379 7.87436 106.733 7.34741C106.579 7.48696 106.339 8.15849 107.257 8.54077C108.175 8.92297 108.487 8.11694 108.487 8.11694C107.795 7.7346 108.006 7.05333 108.472 6.84155C108.472 6.84155 108.318 5.96339 109.047 5.73608C108.965 5.33315 109.205 4.3358 110.092 4.17553C110.092 4.17553 110.298 3.34873 111.134 3.47241C111.134 3.47241 111.565 3.14246 112.262 3.15796L112.422 2.87866L112.16 2.61499C112.801 2.26369 112.699 1.75715 113.36 1.35424L113.272 1.14331C113.729 1.0555 114.006 0.569565 114.718 0.636472L114.668 0.336667C114.676 0.333426 115.126 0.161234 115.832 0.197018L115.919 0.0222137C116.98 -0.0656121 117.729 0.0943389 117.955 0.915768C118.37 0.951932 119.535 0.512632 119.571 1.77319C121.084 2.00566 121.033 2.53253 120.874 2.87866C120.648 3.36931 121.012 3.34381 120.787 3.73608C120.423 4.37152 120.386 4.49086 120.248 4.43921C120.012 4.35138 119.92 4.87762 119.658 4.78979C119.397 4.70175 119.673 4.22705 119.309 4.15991C118.945 4.08762 118.807 4.55188 119.048 4.66577C119.34 4.80526 119.115 5.05369 119.325 5.12085C119.417 5.15149 119.571 4.96557 119.571 4.96557C119.571 4.96557 120.232 5.4356 119.868 5.91089C119.507 6.38157 118.77 6.4372 118.756 6.43823L119.017 6.73803C119.961 6.55739 120.15 7.06879 120.637 7.66284C120.632 7.66893 120.53 7.78124 120.361 7.76635C120.966 8.46356 120.9 8.88714 121.525 9.35717C121.525 9.35717 121.474 9.58443 121.176 9.56909C121.422 10.039 121.176 10.1996 121.699 10.7419C121.695 10.7498 121.628 10.8814 121.459 10.8816C121.46 10.9011 121.496 11.5712 121.926 12.1414C121.926 12.1414 121.853 12.317 121.628 12.2654C121.628 12.2654 121.766 13.7745 121.838 15.2107C121.909 16.6468 121.961 17.3496 122.987 18.7341C124.013 20.1183 124.166 20.1704 124.602 21.9216C125.038 23.6728 125.736 24.3032 126.551 23.988C127.423 23.6573 127.429 22.3294 127.039 21.6423C126.064 19.9272 124.531 19.2091 123.679 16.5281C123.364 15.5384 123.826 14.3398 123.833 14.322C123.833 14.322 123.469 12.2715 124.546 12.2556C124.546 12.2556 124.982 11.4647 125.536 11.6404C125.546 11.6339 126.053 11.3256 126.895 11.3767C126.895 11.3767 127.069 12.219 126.741 12.7253C126.741 12.7253 127.141 13.5625 126.238 13.9499C126.361 14.1101 126.203 15.1225 124.9 15.071C124.864 16.3316 125.018 17.1529 127.003 19.2039C128.982 21.2497 129.464 23.5749 127.782 24.9646C126.05 26.3951 124.369 25.0468 124.331 25.0369C123.844 25.7188 123.879 26.8601 124.418 26.7361C124.741 26.6586 124.818 26.8758 124.992 27.6453C125.248 28.787 125.284 28.8547 124.382 30.5906C124.382 30.5906 124.92 30.5903 125.459 30.363C125.459 30.363 125.51 30.0484 125.771 29.8572C125.546 29.2941 125.885 28.5964 126.346 28.5085C127.075 28.369 127.597 28.0017 127.597 28.0017C127.597 28.0017 127.807 29.1956 126.848 29.8259C126.848 29.8259 127.962 29.5829 128.572 30.404C127.859 30.652 127.849 31.1642 127.182 31.3347C126.437 31.5251 126.072 30.7772 126.069 30.7712C126.063 30.7754 125.848 30.9308 126.121 31.2976C126.331 31.5765 126.326 31.7011 125.982 31.8044C123.233 32.6259 120.396 32.3982 120.396 32.3982C120.396 32.3982 120.971 32.7135 121.197 33.4675C120.012 33.1731 117.873 34.0313 116.57 32.156C116.545 32.149 115.04 31.7345 112.955 31.3708C112.969 31.3794 113.431 31.6572 113.704 32.1404C113.704 32.1404 111.862 33.0493 109.477 31.6648C109.364 31.5976 109.2 31.789 109.375 31.8562C110.385 32.2592 110.611 32.8738 110.611 32.8738C110.611 32.8738 108.559 33.979 106.523 32.6306C106.523 32.6306 106.841 33.6484 105.795 33.9998C105.783 33.9953 104.798 33.6319 103.743 33.406C103.743 33.4073 103.845 33.6701 103.62 33.7732C103.61 33.7715 102.764 33.6281 102.117 32.863C101.476 33.627 100.632 33.7711 100.62 33.7732C100.394 33.6699 100.497 33.406 100.497 33.406C99.448 33.6316 98.4595 33.9944 98.445 33.9998C97.4039 33.6484 97.7165 32.6306 97.7165 32.6306C95.6804 33.979 93.6286 32.8738 93.6286 32.8738C93.6286 32.8738 93.8546 32.2592 94.865 31.8562C95.0393 31.789 94.8804 31.5977 94.7624 31.6648C92.3826 33.0493 90.5359 32.1404 90.5359 32.1404C90.8139 31.6567 91.2717 31.3788 91.2849 31.3708C89.1821 31.7376 87.6687 32.156 87.6687 32.156C86.3659 34.0256 84.2274 33.1679 83.0427 33.4675C83.2684 32.7135 83.8435 32.3982 83.8435 32.3982C83.8435 32.3982 81.0066 32.6259 78.2575 31.8044C77.914 31.7011 77.9086 31.5766 78.1189 31.2976C78.3912 30.9318 78.1776 30.7762 78.1706 30.7712C78.1693 30.7741 77.8047 31.5255 77.0573 31.3347C76.3906 31.1591 76.3806 30.6469 75.6677 30.404C76.2781 29.5829 77.3913 29.8259 77.3913 29.8259C76.4322 29.1905 76.6423 28.0017 76.6423 28.0017C76.6458 28.0042 77.1675 28.3695 77.8933 28.5085C78.3549 28.5964 78.6932 29.2941 78.4675 29.8572C78.7291 30.0483 78.781 30.363 78.781 30.363C79.3195 30.5903 79.8581 30.5906 79.8581 30.5906C78.9503 28.8547 78.9862 28.7818 79.2478 27.6453C79.4221 26.881 79.4989 26.6638 79.822 26.7361C80.3605 26.8601 80.3961 25.7188 79.9089 25.0369C79.8851 25.0559 78.2094 26.3903 76.4831 24.9646C74.8009 23.5801 75.2827 21.2548 77.2624 19.2039C79.2473 17.1529 79.4067 16.3316 79.3708 15.071C78.0682 15.1227 77.9089 14.1102 78.032 13.9499C77.1293 13.5676 77.529 12.7253 77.529 12.7253C77.1959 12.219 77.3708 11.3767 77.3708 11.3767C78.215 11.3259 78.7153 11.6318 78.7292 11.6404C79.2831 11.4647 79.7195 12.2556 79.7195 12.2556C80.7964 12.2712 80.4323 14.322 80.4323 14.322C80.4381 14.3369 80.9027 15.5372 80.5866 16.5281C79.7301 19.2093 78.2008 19.9272 77.2263 21.6423C76.8366 22.3294 76.8471 23.6572 77.7136 23.988C78.5342 24.3032 79.2269 23.6728 79.6628 21.9216C80.0936 20.1703 80.2532 20.1187 81.279 18.7341C82.3047 17.3497 82.3557 16.6467 82.4275 15.2107C82.4993 13.7745 82.6374 12.2654 82.6374 12.2654C82.4119 12.3169 82.3405 12.1414 82.3405 12.1414C82.7701 11.571 82.8111 10.9004 82.8122 10.8816C82.6416 10.8816 82.5738 10.7477 82.571 10.7419C83.0942 10.1995 82.8483 10.0444 83.0945 9.56909C82.8009 9.58438 82.7472 9.36295 82.7458 9.35717C83.3712 8.88715 83.2997 8.46879 83.9099 7.76635C83.7374 7.7868 83.6347 7.66545 83.6325 7.66284C84.1198 7.06872 84.315 6.56238 85.2536 6.73803L85.5154 6.43823C85.5154 6.43823 84.7662 6.38101 84.4021 5.91089C84.0383 5.43567 84.6999 4.96557 84.6999 4.96557C84.7023 4.9683 84.8595 5.15161 84.946 5.12085C85.1507 5.05356 84.9251 4.8052 85.2224 4.66577C85.4634 4.55211 85.3248 4.08758 84.9607 4.15991C84.5971 4.22736 84.8735 4.702 84.612 4.78979C84.3557 4.87738 84.2581 4.3514 84.0222 4.43921C83.884 4.49049 83.8479 4.36578 83.4841 3.73608C83.2586 3.34359 83.6227 3.36928 83.3972 2.87866C83.2331 2.52736 83.1869 2.0005 84.6999 1.77319C84.7307 0.512632 85.8997 0.951932 86.3152 0.915768ZM100.497 32.321C100.497 32.321 99.4554 32.5333 98.445 32.8123C98.4432 32.8265 98.4005 33.1866 98.737 33.3386C99.8705 32.9512 100.825 32.7751 100.825 32.7751C100.825 32.7602 100.818 32.4071 100.497 32.321ZM103.779 32.321C103.458 32.407 103.451 32.7602 103.451 32.7751C103.458 32.7765 104.409 32.9527 105.533 33.3386C105.874 33.1818 105.833 32.8269 105.831 32.8123C104.828 32.5338 103.783 32.3219 103.779 32.321ZM101.891 32.3259C101.881 32.3045 101.289 31.1393 99.9275 31.7996C99.9478 31.7996 101.231 31.808 101.266 32.8894L101.891 32.3259ZM104.353 31.7937C102.986 31.136 102.395 32.3094 102.389 32.321L103.014 32.8787C103.05 31.802 104.335 31.7938 104.353 31.7937ZM86.9616 32.114C86.3769 31.6542 84.5196 32.3576 84.1862 32.8123C85.8378 32.9879 86.777 32.3568 86.9616 32.114ZM120.094 32.8123C119.761 32.3576 117.899 31.6543 117.319 32.114C117.504 32.3568 118.443 32.9879 120.094 32.8123ZM97.2341 32.2898C96.5518 31.7271 95.1211 32.1145 94.7058 32.5691C95.7467 33.0598 96.9824 32.4965 97.2341 32.2898ZM109.569 32.5691C109.153 32.1094 107.728 31.7267 107.041 32.2898C107.292 32.4964 108.528 33.0595 109.569 32.5691ZM95.9372 31.1121C93.9217 30.4147 92.8598 30.2394 91.1726 30.4822L90.8952 30.8689C90.9116 30.8645 92.7207 30.3867 94.7732 31.1169C97.4502 32.0623 98.8093 32.3415 98.8093 32.3415L99.6609 32.1296C99.6609 32.1296 97.6041 31.6906 95.9372 31.1121ZM113.103 30.4822C111.416 30.2342 110.354 30.4095 108.339 31.1121C106.672 31.6907 104.615 32.1296 104.615 32.1296L105.467 32.3415C105.482 32.3383 106.836 32.0518 109.503 31.1169C111.57 30.3833 113.381 30.8689 113.381 30.8689L113.103 30.4822ZM94.157 31.2927C93.5773 30.8334 91.8706 31.4269 91.5417 31.8298C92.9521 32.1449 93.9774 31.5355 94.157 31.2927ZM112.734 31.8298C112.405 31.4269 110.697 30.833 110.118 31.2927C110.303 31.5355 111.329 32.145 112.734 31.8298ZM102.137 30.6062C101.21 30.6064 101.343 31.4123 102.137 31.8152C102.932 31.4122 103.066 30.6062 102.137 30.6062ZM115.878 30.7146C115.607 30.8661 115.385 30.8548 115.376 30.8542C115.017 31.0627 114.574 31.0803 114.56 31.0808C114.583 31.0875 116.443 31.6245 119.822 31.7683C123.965 31.9377 125.606 31.1988 125.628 31.1892L125.438 30.9109C124.505 31.1381 124.156 31.0136 123.771 31.1892C123.387 31.3648 123.32 30.962 122.571 31.241C122.299 31.3442 122.187 31.2414 122.033 31.0144C121.859 31.0144 121.51 31.1689 121.356 31.3445C121.207 31.5098 120.925 31.5202 120.992 31.3962C121.064 31.2723 120.925 31.0964 120.925 31.0964C120.912 31.0983 120.569 31.1543 120.191 31.4841C119.94 31.7059 119.965 31.4322 119.704 31.2566C117.905 31.2566 116.916 31.0472 116.904 31.0447C116.16 31.2707 115.881 30.721 115.878 30.7146ZM88.3923 30.7087C88.3923 30.7087 88.1155 31.2668 87.3669 31.0398C87.3669 31.0398 86.3766 31.2517 84.5661 31.2517C84.3047 31.4273 84.33 31.696 84.0788 31.4792C83.6942 31.1434 83.3454 31.0915 83.3454 31.0915C83.3418 31.0962 83.2082 31.269 83.279 31.3914C83.3502 31.515 83.0634 31.5046 82.9148 31.3396C82.761 31.1641 82.4125 31.0087 82.238 31.0085C82.0841 31.2359 81.9708 31.3342 81.6989 31.2361C80.9503 30.9572 80.8834 31.36 80.4987 31.1843C80.1142 31.0088 79.7655 31.1325 78.8171 30.9001L78.6267 31.1794C78.6267 31.1794 80.2633 31.9281 84.4382 31.7576C87.8487 31.6181 89.7107 31.0759 89.7107 31.0759C89.7107 31.0759 89.2594 31.0601 88.8952 30.8484C88.8952 30.8484 88.6693 30.8637 88.3923 30.7087ZM89.4538 15.9753C88.9565 16.905 89.2022 17.174 88.9099 17.5408C88.9099 17.5408 88.8387 17.3495 88.6902 17.3337C88.0131 18.1035 88.2799 18.1762 87.9978 18.574C87.9978 18.574 87.8379 18.4552 87.6892 18.5017C87.341 18.693 87.3968 19.1417 87.1765 19.405C87.1679 19.4037 86.9997 19.3757 86.9148 19.2449L86.49 19.7771C86.49 19.7771 86.7305 20.3408 87.1921 20.9246C88.0844 22.0506 88.12 22.1747 88.279 22.9753C88.438 23.7758 88.6337 25.4693 88.6902 25.8679C88.7517 26.2657 88.5826 26.5351 88.3415 26.9587C88.0441 27.4908 87.9253 27.5527 88.0739 28.2292C88.2227 28.906 88.2286 28.9419 88.5466 28.8748C89.849 28.6114 90.198 28.8341 90.8904 30.0583C90.8983 30.0553 91.1884 29.944 91.5779 29.9236C91.5779 29.9236 90.203 29.1697 89.9978 27.5476C90.0079 27.547 90.768 27.5047 91.6696 28.1101C91.6678 28.0977 91.6252 27.8142 91.4948 27.491C91.468 27.4807 89.4756 26.7062 89.6335 23.7761C89.6374 23.7777 90.3022 24.0414 90.8493 24.6287C90.8493 24.6287 90.7768 24.2307 90.7614 23.7761C90.7335 23.7598 88.7751 22.6062 89.1364 20.1033C89.1632 20.1105 90.2561 20.4152 90.8083 21.8591L90.7771 21.239C90.7512 21.2146 89.2037 19.7416 90.5261 17.3748C90.5261 17.3748 92.1771 18.8937 91.0798 21.239L91.1111 21.8855C91.1111 21.8855 91.4289 21.0327 92.1316 20.5574C92.1316 20.5574 93.0906 22.5053 91.3161 24.8972C91.3171 24.9056 91.3745 25.4024 91.5779 25.9197C91.585 25.8987 91.8209 25.2113 92.3259 24.5144C92.3259 24.5144 93.5263 26.1679 92.1931 28.4822C92.1931 28.4822 92.7674 29.2159 93.029 29.9236L93.4392 30.0017C93.4392 30.0017 92.4286 29.1697 92.695 27.8474C92.695 27.8474 94.096 28.142 94.4909 30.1775L95.0652 30.3679C95.0599 30.3642 94.2546 29.7858 94.3005 28.5964C94.3005 28.5964 95.8089 29.0304 96.7937 30.7146C96.6347 30.4201 96.4193 29.9292 96.6296 29.7742C96.6525 29.7763 98.0733 29.9168 99.0603 31.572C99.0603 31.572 99.2501 31.6648 99.5066 31.4685C100.154 30.9742 100.957 31.1483 100.978 31.1531C100.974 31.1408 100.885 30.8723 101.055 30.5847C96.6805 30.1507 93.1106 28.8078 92.9773 23.6003L92.8698 19.488C92.8659 19.4865 92.4125 19.3064 92.2644 19.0749C92.2505 19.0764 91.7223 19.1234 91.4743 18.114C91.2949 17.3858 91.3259 17.3186 90.8904 17.0398C90.4544 16.7608 89.8641 16.2698 89.4538 15.9753ZM114.822 15.9695C114.412 16.2639 113.821 16.7549 113.385 17.0339C112.944 17.3129 112.98 17.3807 112.801 18.1091C112.549 19.1264 112.01 19.0701 112.01 19.0701C111.863 19.3047 111.416 19.4791 111.406 19.4832L111.298 23.5955C111.164 28.8078 107.595 30.151 103.22 30.5798C103.395 30.8743 103.297 31.1482 103.297 31.1482C103.297 31.1482 104.118 30.9625 104.774 31.4636C105.03 31.6598 105.216 31.5671 105.216 31.5671C106.209 29.9069 107.641 29.7698 107.646 29.7693C107.861 29.9244 107.641 30.4143 107.487 30.7087C108.465 29.0369 109.953 28.5968 109.974 28.5906C110.02 29.777 109.22 30.3563 109.211 30.363L109.785 30.1716C110.177 28.1493 111.562 27.8454 111.58 27.8415C111.849 29.1552 110.858 29.9786 110.837 29.9958L111.247 29.9187C111.508 29.2161 112.083 28.4773 112.083 28.4773C110.755 26.1725 111.939 24.5233 111.949 24.5095C112.458 25.2114 112.694 25.9034 112.698 25.9148C112.895 25.4011 112.958 24.9075 112.96 24.8923C111.187 22.5034 112.137 20.5574 112.139 20.5525C112.833 21.0217 113.157 21.8582 113.165 21.8796L113.196 21.2341C112.098 18.8887 113.75 17.3699 113.75 17.3699C115.072 19.7364 113.525 21.2093 113.499 21.2341L113.467 21.8542C114.024 20.3981 115.131 20.0998 115.139 20.0974C115.509 22.6185 113.513 23.7712 113.513 23.7712C113.498 24.2257 113.426 24.6238 113.426 24.6238C113.97 24.0348 114.642 23.7712 114.642 23.7712C114.801 26.7209 112.78 27.4851 112.78 27.4851C112.654 27.8058 112.608 28.0968 112.606 28.1052C113.514 27.4958 114.278 27.5427 114.278 27.5427C114.078 29.1698 112.698 29.9187 112.698 29.9187C113.093 29.9394 113.385 30.0583 113.385 30.0583C114.078 28.834 114.427 28.6116 115.724 28.8699C116.042 28.937 116.047 28.9009 116.196 28.2244C116.35 27.5476 116.227 27.485 115.929 26.9529C115.694 26.5243 115.524 26.2607 115.581 25.863C115.642 25.4649 115.832 23.7712 115.991 22.9705C116.155 22.1697 116.185 22.0449 117.078 20.9187C117.545 20.3349 117.781 19.7722 117.781 19.7722L117.355 19.24C117.268 19.3691 117.093 19.4001 117.093 19.4001C116.873 19.1315 116.929 18.687 116.581 18.4958C116.436 18.4506 116.281 18.5624 116.273 18.5681C115.991 18.1654 116.257 18.0931 115.581 17.3289C115.436 17.344 115.363 17.5261 115.36 17.5349C115.073 17.1682 115.319 16.8992 114.822 15.9695ZM97.1579 30.3992C97.3067 30.8693 97.7888 31.4168 98.3991 31.5046C98.1069 30.7506 97.5067 30.5025 97.1579 30.3992ZM107.118 30.3992C106.769 30.5025 106.169 30.7504 105.877 31.5046C106.487 31.4168 106.974 30.8693 107.118 30.3992ZM69.1433 0.837643C70.1075 3.57564 71.303 6.26225 72.5954 8.9021C72.5954 9.181 72.2725 9.3207 72.0417 9.18139C68.1745 4.40264 65.3222 2.59448 58.4187 2.59448H56.8552V14.9783H60.8601C64.2708 14.9783 66.1535 14.0533 68.1794 11.3152C68.4564 11.2222 68.687 11.362 68.7331 11.5945L66.7995 15.8562L68.7331 20.1238C68.6868 20.4026 68.4101 20.4951 68.1794 20.4021C66.1536 17.6694 64.2656 16.74 60.8601 16.74H56.8552V29.6814H58.696C65.1379 29.6814 69.2357 28.5234 72.8259 23.2332C73.0566 23.1453 73.3285 23.2336 73.3747 23.5124C72.0823 26.1058 70.8878 28.751 69.9236 31.4373C69.0055 31.3443 67.1173 31.2979 66.1941 31.2927H48.3923C48.2538 31.1067 48.2538 30.7863 48.3923 30.6003C50.8283 30.1354 51.1511 29.3914 51.1511 27.2165V5.05346C51.1511 2.87354 50.8334 2.12946 48.3923 1.66967C48.2538 1.48369 48.2538 1.16328 48.3923 0.977292H65.4148C66.2455 0.977292 68.4506 0.930612 69.1433 0.837643ZM135.327 0.843503C136.66 0.936492 138.686 0.983151 139.927 0.983151H154.929V1.21557L138.548 29.6755H141.446C148.857 29.6755 152.031 27.4491 154.975 23.0476C155.201 22.9546 155.478 23.0941 155.524 23.28C154.237 26.0129 153.042 28.7044 152.026 31.4373C150.37 31.3443 148.667 31.2979 147.015 31.2927H131.275V31.0603L147.657 2.60522H145.498C137.492 2.60522 135.373 5.01219 132.567 9.0935C132.382 9.18626 132.06 9.04699 132.013 8.86108C133.255 6.12824 134.404 3.48335 135.327 0.843503ZM177.502 0.843503C178.471 3.57635 179.667 6.2681 180.954 8.90796C180.954 9.18674 180.63 9.32572 180.399 9.18628C176.532 4.41301 173.68 2.60522 166.777 2.60522H165.213V14.9832H169.218C172.624 14.9832 174.512 14.053 176.538 11.3201C176.815 11.2273 177.045 11.367 177.092 11.5994L175.158 15.8611L177.092 20.1287C177.04 20.4024 176.769 20.495 176.538 20.4021C174.512 17.6693 172.624 16.7449 169.218 16.7449H165.213V29.6755H167.054C173.496 29.6755 177.589 28.5181 181.179 23.2332C181.41 23.1456 181.687 23.2337 181.733 23.5124C180.446 26.1058 179.245 28.7509 178.281 31.4373C177.363 31.3443 175.475 31.2976 174.557 31.2976H156.751C156.612 31.1116 156.612 30.7863 156.751 30.6003C159.186 30.1354 159.509 29.3914 159.509 27.2165V5.06421C159.509 2.88422 159.186 2.14538 156.751 1.68042C156.612 1.49445 156.612 1.16915 156.751 0.983151H173.773C174.604 0.983145 176.809 0.936482 177.502 0.843503ZM195.171 0.988034C195.309 1.17402 195.309 1.49933 195.171 1.6853C192.735 2.15026 192.412 2.88905 192.412 5.06909V27.2224C192.412 29.397 192.735 30.1413 195.171 30.6062C195.309 30.7974 195.309 31.1175 195.171 31.3035H183.944C183.806 31.1175 183.806 30.7922 183.944 30.6062C186.38 30.1413 186.703 29.3969 186.703 27.2224V5.06909C186.703 2.88914 186.385 2.15026 183.944 1.6853C183.806 1.49932 183.806 1.17402 183.944 0.988034H195.171ZM218.549 0.848386C219.559 3.48816 220.712 6.08675 222 8.63354C222 8.86597 221.677 9.00571 221.441 8.91284C217.856 4.04643 214.999 2.61021 212.055 2.6101V27.2224C212.055 29.4021 212.373 30.1413 214.814 30.6062C214.953 30.8438 214.953 31.071 214.814 31.3035H203.588C203.449 31.1175 203.449 30.7922 203.588 30.6062C206.029 30.1413 206.351 29.397 206.351 27.2224V2.6101C203.407 2.61025 200.648 4.04651 196.966 8.91284C196.735 9.0056 196.412 8.86592 196.412 8.63354C197.704 6.04017 198.9 3.44693 199.864 0.848386C200.972 0.941354 204.146 0.988026 205.249 0.988034H213.163C214.819 0.988034 216.938 0.941378 218.549 0.848386ZM12.5515 0.983151C16.6033 0.983159 20.0553 1.44214 22.907 2.59936C28.1537 4.73303 31.8824 10.2508 31.8825 16.2332C31.8825 25.4187 24.2402 31.2976 13.7517 31.2976H2.29367C2.1554 31.1167 2.15528 30.7918 2.29367 30.6111C4.96055 30.0067 5.32978 29.5932 5.3298 26.7624V5.52417C5.3298 3.06513 4.77613 2.279 2.10422 1.67456C1.96582 1.4886 1.96584 1.16913 2.10422 0.983151H12.5515ZM45.2585 0.988034C45.3968 1.17405 45.3969 1.4945 45.2585 1.68042C42.8223 2.14538 42.4987 2.88406 42.4987 5.06421V27.2273C42.4988 29.4021 42.8224 30.1461 45.2585 30.6111C45.3968 30.7918 45.3967 31.1116 45.2585 31.2976H34.031C33.8928 31.1168 33.8927 30.7918 34.031 30.6111C36.4671 30.1461 36.7907 29.4021 36.7907 27.2273V5.06421C36.7907 2.88406 36.4723 2.14538 34.031 1.68042C33.8925 1.4945 33.8927 1.17405 34.031 0.988034H45.2585ZM89.9206 30.6423C89.9406 30.8655 89.8223 31.0736 89.8181 31.0808C90.131 31.0446 90.6696 30.905 90.6696 30.905C90.3568 30.6417 89.9206 30.6423 89.9206 30.6423ZM114.355 30.6423C114.355 30.6423 113.919 30.6418 113.606 30.905C113.614 30.9071 114.147 31.0449 114.458 31.0808C114.455 31.0762 114.34 30.867 114.355 30.6423ZM83.6784 30.2908C83.3865 30.3064 83.3506 30.446 83.3454 30.446C83.7635 30.7953 83.9894 31.0062 83.9919 31.0085C84.0789 30.5334 83.6784 30.2908 83.6784 30.2908ZM120.596 30.2908C120.586 30.2972 120.198 30.5397 120.284 31.0085C120.291 31.0019 120.522 30.7917 120.93 30.446C120.93 30.446 120.894 30.3063 120.596 30.2908ZM82.7605 30.3425C82.4633 30.3581 82.4636 30.5339 82.4636 30.5339C82.684 30.7911 82.9728 30.9496 82.9861 30.9568C83.0372 30.6056 82.7605 30.3425 82.7605 30.3425ZM121.52 30.3425C121.52 30.3425 121.244 30.6056 121.295 30.9568C121.308 30.9493 121.592 30.7909 121.817 30.5339C121.817 30.5339 121.817 30.3582 121.52 30.3425ZM119.858 24.5662C119.402 25.3047 119.279 25.2743 118.894 25.3982C118.515 25.5222 118.592 25.636 118.263 26.6999C118.079 27.3044 118.806 27.0724 118.622 27.7234C118.488 28.2039 118.268 28.989 118.032 29.7224C117.805 30.4326 117.445 30.6145 117.432 30.6208C117.704 30.7448 118.166 30.7146 118.166 30.7146C118.797 28.8238 120.361 28.9167 120.361 28.9167C120.376 30.2568 119.18 30.8414 119.166 30.8484C119.489 30.9259 119.812 30.8953 119.812 30.8953C120.551 29.4694 120.412 28.8651 122.377 29.2371C122.558 28.7852 122.65 28.2382 122.653 28.2195C120.781 26.7472 120.274 26.3024 120.181 25.698C120.089 25.0935 119.858 24.5662 119.858 24.5662ZM84.4118 24.5662C84.4118 24.5662 84.1819 25.0935 84.0896 25.698C83.9972 26.3024 83.4838 26.7471 81.6169 28.2195C81.6198 28.2368 81.7126 28.7796 81.8943 29.2371C83.8634 28.8652 83.7248 29.4693 84.4529 30.8845C84.4529 30.8845 84.7714 30.9161 85.0945 30.8386C85.0945 30.8386 83.8838 30.2544 83.8991 28.906C83.8991 28.906 85.4636 28.8183 86.0945 30.7039C86.0945 30.7039 86.5509 30.735 86.8279 30.6111C86.8212 30.6078 86.4618 30.4282 86.2331 29.7117C86.0075 28.9886 85.7815 28.2038 85.6482 27.7234C85.4635 27.0724 86.1922 27.3044 86.0075 26.6999C85.6845 25.6359 85.7612 25.5222 85.3767 25.3982C84.992 25.2742 84.8734 25.3049 84.4118 24.5662ZM77.365 30.1667C76.8323 30.1157 76.5057 30.4085 76.4987 30.4148C76.5086 30.4256 76.8691 30.8179 77.3142 30.8689C77.9243 30.941 77.9034 30.2236 77.365 30.1667ZM126.91 30.1667C126.372 30.2239 126.351 30.9411 126.967 30.8689C127.412 30.8179 127.773 30.4251 127.782 30.4148C127.776 30.4092 127.443 30.1156 126.91 30.1667ZM118.176 6.80542C117.786 6.73845 117.632 7.04237 117.617 7.17163C117.607 7.30595 117.412 7.27495 117.386 7.17163C117.356 7.06829 117.191 6.85657 116.642 6.97534C116.094 7.089 115.925 7.59057 115.925 7.59057C116.329 7.44606 116.488 7.55917 116.253 7.7605C115.387 8.49909 115.432 9.0495 115.432 9.05737C115.796 8.71678 115.95 8.85606 115.77 9.10913C115.329 9.7239 115.365 10.406 115.365 10.406C115.365 10.406 115.637 10.2924 115.77 10.1736C115.986 9.97726 116.185 10.2042 115.98 10.447C114.878 11.7592 115.099 12.3228 114.668 13.0564C114.237 13.79 112.688 15.4013 112.349 15.7165C112.037 16.0058 111.749 15.4689 111.698 14.8904C111.662 14.4875 111.529 14.0794 111.098 14.3787C111.548 14.9077 111.152 15.3118 111.139 15.324C111.519 15.9955 111.36 15.9444 110.903 16.0994C111.644 16.6707 111.026 17.4677 111.021 17.4734C111.507 17.708 111.438 18.2847 111.436 18.2996C111.764 18.2892 111.934 18.5896 111.934 18.5896C111.934 18.5896 112.206 18.3512 112.349 18.0515C112.559 17.6125 112.247 17.3181 112.729 16.9617C113.986 16.0369 115.294 14.9161 115.658 14.4822C116.022 14.0484 116.048 14.2499 116.166 14.5496C116.638 13.7385 116.801 13.0668 116.934 13.5007C117.006 13.7331 117.145 13.7898 117.145 13.7898C117.366 12.7928 117.304 11.8731 117.822 12.529C117.909 11.7854 118.186 11.7697 118.145 10.9177C118.13 10.6181 118.494 10.4837 118.509 10.866C118.561 11.9298 118.135 12.1366 118.212 13.03C118.248 13.5 118.063 13.5678 117.715 13.5007C117.507 14.2662 117.174 14.7242 117.166 14.7351C117.038 14.4975 116.852 14.4197 116.852 14.4197C116.473 14.802 116.303 15.2206 115.939 15.5203C115.873 15.2985 115.781 15.221 115.535 15.4167C115.289 15.6131 115.365 15.7067 115.365 15.8513C115.365 15.9961 115.56 16.3367 115.56 16.3367C115.625 16.1349 115.764 16.0663 115.77 16.0632C115.991 16.3475 115.848 17.0961 116.432 17.53C116.457 17.2863 116.581 17.2056 116.591 17.1999C116.97 17.4996 116.786 17.83 117.191 18.1296C117.216 18.014 117.314 18.0254 117.319 18.0261C117.319 18.0261 117.735 18.8007 118.894 20.0974C119.458 20.7328 119.258 21.4098 120.053 23.3884C120.361 24.1478 120.484 24.3184 120.73 25.3152C120.976 26.3071 121.13 26.2199 123.033 27.8318C123.335 28.0847 123.253 28.1312 123.217 28.3015C123.176 28.472 122.905 29.3767 122.905 29.3767C123.269 29.5061 123.043 29.9596 122.771 29.8718C121.069 29.3346 120.74 29.8572 120.74 29.8572C121.024 29.7653 121.333 30.0965 121.341 30.1042C121.992 29.7534 122.238 30.5388 122.238 30.5388C122.382 30.3528 122.561 30.4871 122.561 30.4871C122.3 30.8177 122.684 30.9621 123.017 30.7761C123.422 30.5488 123.628 30.9983 123.839 30.616C123.952 30.4139 124.244 29.6443 124.413 29.1589C124.582 28.6737 124.633 28.637 124.386 27.7693C124.274 27.3666 124.269 27.2426 123.997 27.2839C123.546 27.3508 123.725 26.8239 123.479 26.4314C123.336 26.2041 123.31 26.023 123.464 25.5271C123.617 25.0269 123.812 24.6348 123.812 24.6335C123.807 24.6206 123.539 23.9395 123.423 23.2283C123.341 22.7428 123.807 22.5882 123.889 23.0066C124.084 24.0036 124.726 25.0671 126.182 25.0671C127.341 25.0669 128.213 23.9517 128.213 22.7068C128.213 21.3687 126.946 20.0511 126.361 19.4001C124.71 17.5095 124.494 16.6983 124.423 15.8201C124.347 14.9023 124.611 14.6088 124.618 14.6013C125.582 14.9162 125.802 14.0994 125.802 14.0994C125.659 13.9188 125.438 13.9031 125.438 13.9031C125.633 13.614 126.089 13.8256 126.259 13.1697C126.117 13.0634 125.788 13.151 125.777 13.154C126.003 12.6275 126.587 12.839 126.469 11.8679C125.377 11.8421 125.479 12.6792 125.131 12.7722C125.151 12.5346 124.997 12.3796 124.997 12.3796C124.556 12.736 124.854 13.1133 124.556 13.3767C124.505 13.1959 124.361 13.1023 124.361 13.1023C123.889 13.6912 124.269 14.322 124.269 14.322C123.136 17.0807 126.172 19.5189 127.29 21.1824C128.126 22.4274 127.705 24.1581 126.613 24.4734C125.521 24.7885 124.659 24.1739 123.971 21.7458C123.659 20.6609 123.525 20.4072 122.602 19.281C121.679 18.1497 121.458 17.2459 121.325 16.4607C121.197 15.6754 121.027 12.9989 120.961 12.4099C120.899 11.8213 120.366 11.5576 120.156 11.2839C119.946 11.0101 120.099 10.8142 120.284 11.0105C120.663 11.403 121.053 11.532 121.053 11.532C121.012 10.4472 120.022 10.3542 119.724 9.74975C119.617 9.52791 119.735 9.40907 119.909 9.57885C120.283 9.94049 120.807 10.1369 120.822 10.1423C120.694 9.18677 119.782 9.09346 119.546 8.70092C119.407 8.46844 119.505 8.29789 119.689 8.45288C120.11 8.81443 120.484 8.87182 120.484 8.87182C120.484 8.87182 120.258 8.24146 119.519 7.823C119.273 7.6887 119.345 7.54912 119.53 7.57495C119.713 7.60562 119.957 7.53989 119.961 7.53882C119.555 6.93953 118.93 7.11005 118.735 7.34253C118.622 7.47666 118.54 7.3684 118.54 7.24975C118.54 7.13093 118.565 6.87258 118.176 6.80542ZM86.6589 7.156C86.6484 7.02667 86.4888 6.72269 86.0993 6.78979C85.71 6.85191 85.7351 7.11535 85.7351 7.23413C85.7349 7.3528 85.6534 7.46097 85.5407 7.3269C85.3458 7.08926 84.7196 6.91837 84.2888 7.51245C84.2888 7.51245 84.5358 7.57441 84.7204 7.54858C84.9048 7.52302 84.9811 7.65725 84.7351 7.79663C83.9992 8.21074 83.7758 8.83256 83.7712 8.84546C83.7759 8.8448 84.1483 8.79187 84.5661 8.42749C84.7508 8.26733 84.8482 8.44305 84.7097 8.67553C84.4735 9.06793 83.5657 9.16142 83.4323 10.1169C83.4323 10.1169 83.9659 9.9202 84.3454 9.55346C84.5249 9.38298 84.6377 9.50221 84.53 9.72436C84.2271 10.3284 83.2378 10.4168 83.2019 11.5066C83.2019 11.5066 83.5919 11.3768 83.9714 10.9841C84.1559 10.7883 84.3095 10.9849 84.0993 11.2585C83.8941 11.5323 83.3613 11.7958 83.2946 12.3845C83.228 12.9735 83.0586 15.65 82.9304 16.4353C82.797 17.2256 82.5761 18.1296 81.653 19.2556C80.73 20.3817 80.5964 20.6298 80.2888 21.7195C79.6015 24.1476 78.7396 24.7631 77.6472 24.448C76.5548 24.1328 76.1345 22.402 76.9704 21.157C78.0937 19.4883 81.1244 17.0492 79.9909 14.2957C79.9981 14.2834 80.3611 13.66 79.8991 13.0769C79.8991 13.0769 79.7552 13.1645 79.7038 13.3503C79.4067 13.0869 79.7034 12.7045 79.2624 12.3533C79.2582 12.3576 79.1094 12.5118 79.1345 12.7458C78.7809 12.6525 78.8829 11.8167 77.7907 11.8425C77.6781 12.8133 78.2626 12.6069 78.4831 13.1287C78.4756 13.1267 78.1437 13.0423 78.0017 13.1443C78.171 13.7999 78.6271 13.5884 78.822 13.8777C78.822 13.8777 78.6013 13.888 78.4577 14.074C78.4604 14.0838 78.684 14.8881 79.6423 14.5749C79.6423 14.5749 79.9146 14.8648 79.8376 15.7947C79.7658 16.6728 79.5494 17.4894 77.8982 19.3748C77.3184 20.0362 76.0525 21.3534 76.0525 22.6912C76.0525 23.9362 76.9246 25.0525 78.0837 25.0525C79.545 25.0523 80.1808 23.9879 80.3757 22.991C80.4577 22.5726 80.9192 22.7272 80.8425 23.2126C80.7258 23.9282 80.4585 24.6037 80.4529 24.6179C80.4529 24.6179 80.6474 25.0106 80.8064 25.5115C80.9602 26.0072 80.9351 26.1886 80.7917 26.4158C80.5455 26.8084 80.7245 27.3355 80.2732 27.2683C80.0016 27.2271 80.0014 27.3511 79.8835 27.7537C79.6374 28.6214 79.689 28.658 79.8581 29.1433C80.0273 29.6288 80.3245 30.3985 80.4323 30.6003C80.6426 30.9825 80.8477 30.5388 81.2527 30.7605C81.586 30.9413 81.9711 30.7968 81.7097 30.4714C81.7169 30.4662 81.8923 30.3411 82.0329 30.5232C82.036 30.5136 82.2831 29.7405 82.9304 30.0896C82.9304 30.0896 83.2428 29.7486 83.53 29.8415C83.53 29.8415 83.2015 29.3199 81.4987 29.8572C81.222 29.9444 81.002 29.4902 81.3659 29.3611C81.3659 29.3611 81.0884 28.4564 81.0525 28.2859C81.0165 28.1157 80.9408 28.0691 81.238 27.8162C83.1353 26.2047 83.2946 26.2972 83.5407 25.3005C83.7869 24.3035 83.9098 24.1322 84.2175 23.3728C85.0123 21.3944 84.8125 20.7172 85.3767 20.0818C86.5315 18.7899 86.948 18.016 86.9509 18.0105C86.9509 18.0105 87.059 17.9952 87.0847 18.114C87.4896 17.8145 87.3052 17.4839 87.6843 17.1843C87.6843 17.1843 87.8129 17.2666 87.8386 17.5144C88.4282 17.0856 88.2851 16.3369 88.5056 16.0476C88.514 16.0516 88.6461 16.1161 88.7107 16.321C88.7168 16.3102 88.9049 15.978 88.905 15.8357C88.905 15.6911 88.9819 15.5983 88.7361 15.4021C88.49 15.2059 88.3974 15.2827 88.3308 15.5046C87.9668 15.205 87.7971 14.7872 87.4177 14.405C87.4096 14.4086 87.2354 14.4876 87.1052 14.7195C87.1025 14.7158 86.7658 14.2568 86.5564 13.4851C86.2076 13.5523 86.0231 13.4845 86.0642 13.0144C86.146 12.1211 85.7151 11.9143 85.7663 10.8503C85.7817 10.468 86.146 10.6025 86.1306 10.9021C86.0896 11.7542 86.3615 11.7646 86.4538 12.5134C86.9767 11.8579 86.9101 12.7773 87.1306 13.7742C87.132 13.7736 87.2742 13.7162 87.3405 13.4851C87.4739 13.0511 87.6433 13.7177 88.1101 14.5339C88.228 14.2291 88.2538 14.0326 88.6179 14.4665C88.982 14.9005 90.2901 16.0213 91.5466 16.946C92.0287 17.3025 91.7162 17.5977 91.9265 18.0369C92.0702 18.3363 92.3415 18.574 92.3415 18.574C92.3415 18.574 92.5107 18.2688 92.8386 18.2839C92.8362 18.2646 92.7706 17.6914 93.2546 17.4578C93.2546 17.4578 92.6291 16.6624 93.3728 16.0837C92.9163 15.9236 92.7569 15.9748 93.1364 15.3083C93.1261 15.2981 92.7268 14.8934 93.1775 14.363C92.7468 14.0636 92.6137 14.4718 92.5779 14.8748C92.5266 15.4533 92.2393 15.9902 91.9265 15.7009C91.588 15.3858 90.0391 13.7745 89.6081 13.0408C89.1773 12.3072 89.4025 11.7436 88.2946 10.4314C88.0899 10.1887 88.2903 9.96688 88.5056 10.158C88.6361 10.269 88.8984 10.3853 88.9099 10.3904C88.9099 10.3904 88.9466 9.70826 88.5056 9.0935C88.3261 8.84558 88.4795 8.70105 88.8435 9.04175C88.8446 9.02877 88.8846 8.48496 88.0232 7.74487C87.7823 7.54346 87.9413 7.43032 88.3464 7.57495C88.3464 7.57495 88.1822 7.07861 87.6335 6.95971C87.0852 6.84099 86.9152 7.05258 86.8894 7.156C86.8689 7.25933 86.6743 7.29032 86.6589 7.156ZM84.3659 29.4226C84.5198 30.0581 85.1409 30.6312 85.7409 30.781C85.6074 30.2077 84.9659 29.5776 84.3659 29.4226ZM119.909 29.4226C119.314 29.5726 118.668 30.2026 118.535 30.781C119.135 30.6311 119.755 30.058 119.909 29.4226ZM86.0896 20.3406C86.0896 20.3406 85.6792 20.5627 85.4792 21.4978C85.1099 23.1975 84.6433 23.9675 84.6433 23.9675C84.6527 23.9803 84.9904 24.4408 85.2331 24.6853C85.5818 25.0364 85.8949 24.8454 86.0847 25.3152C86.2744 25.7904 86.464 26.5037 86.5359 26.948C86.6384 27.5937 86.0482 27.3668 86.2224 27.9089C86.3968 28.4514 86.5199 29.1856 86.7097 29.6609C86.8994 30.1359 87.366 30.6265 87.5251 30.7146C87.8147 30.8681 87.9743 30.6465 87.9773 30.6423C87.9773 30.6423 87.823 30.0842 88.6384 30.4148C88.4179 29.9602 88.6796 29.531 89.4538 29.7478C89.4569 29.7376 89.5308 29.4991 89.7517 29.4333C89.4696 29.2215 89.1054 29.2579 88.3669 29.449C88.0643 29.5265 87.8745 29.4124 87.7566 28.9939C87.3411 27.5215 87.4075 27.4182 87.8435 26.7156C88.2127 26.1266 88.1306 25.9456 88.0896 25.5271C88.0023 24.5973 87.7405 23.7756 87.6892 23.1248C87.6379 22.4741 87.5305 22.2516 87.2536 21.9675C86.4278 21.1151 86.0935 20.3496 86.0896 20.3406ZM118.202 20.3406C118.202 20.3406 117.868 21.1099 117.037 21.9675C116.76 22.2516 116.653 22.4793 116.601 23.1248C116.55 23.7756 116.288 24.5973 116.201 25.5271C116.16 25.9455 116.078 26.1267 116.442 26.7156C116.878 27.4182 116.944 27.5215 116.529 28.9939C116.411 29.4071 116.216 29.5265 115.919 29.449C115.17 29.2579 114.806 29.2216 114.529 29.4333C114.753 29.5 114.821 29.7441 114.837 29.7478C115.611 29.5308 115.867 29.9602 115.652 30.4148C116.468 30.0842 116.314 30.6423 116.314 30.6423C116.321 30.6516 116.474 30.8662 116.765 30.7146C116.924 30.6268 117.391 30.1309 117.581 29.6609C117.771 29.1856 117.894 28.4514 118.068 27.9089C118.242 27.3666 117.653 27.5937 117.756 26.948C117.827 26.4985 118.017 25.7904 118.207 25.3152C118.397 24.8404 118.71 25.0365 119.058 24.6853C119.298 24.4383 119.645 23.9715 119.648 23.9675C119.648 23.9675 119.176 23.1974 118.812 21.4978C118.616 20.5781 118.215 20.3479 118.202 20.3406ZM94.947 29.4226C94.9624 29.7894 95.5473 30.6785 96.1628 30.7664C96.132 30.2962 95.4753 29.5569 94.947 29.4226ZM109.329 29.4226C108.806 29.5569 108.144 30.2962 108.113 30.7664C108.728 30.6785 109.313 29.7894 109.329 29.4226ZM89.1775 30.0632C88.9689 30.0632 88.8811 30.2513 88.8796 30.2595C89.1029 30.5714 89.5672 30.6763 89.5769 30.6785C89.6123 30.3319 89.189 30.0702 89.1775 30.0632ZM115.103 30.0632C115.092 30.0698 114.668 30.3316 114.704 30.6785C114.714 30.676 115.173 30.5661 115.401 30.2546C115.401 30.2546 115.314 30.0632 115.103 30.0632ZM114.144 29.6814C114.13 29.6913 113.642 30.0338 113.642 30.4665C113.652 30.4601 114.012 30.2197 114.472 29.9802C114.471 29.9668 114.434 29.6965 114.144 29.6814ZM90.1364 29.6755C89.843 29.6959 89.8035 29.9681 89.8025 29.9753C90.2589 30.2179 90.6226 30.4552 90.6384 30.4607C90.638 30.0288 90.1406 29.6785 90.1364 29.6755ZM77.9392 30.115C77.9546 30.2699 78.2164 30.5849 78.3396 30.3943C78.5088 30.1308 77.9392 30.115 77.9392 30.115ZM126.336 30.115C126.323 30.1154 125.769 30.1338 125.936 30.3943C126.059 30.5846 126.32 30.2699 126.336 30.115ZM93.0593 28.4822C92.9977 28.8025 93.4087 29.8363 94.0241 30.074C93.9934 29.6038 93.6132 28.7043 93.0593 28.4822ZM111.216 28.4822C110.662 28.6993 110.282 29.5987 110.252 30.074C110.867 29.8363 111.277 28.8076 111.216 28.4822ZM113.56 28.1726C112.786 28.3482 111.883 29.3039 111.75 29.8826C112.345 29.7325 113.412 28.9835 113.56 28.1726ZM90.7155 28.1677C90.8594 28.9787 91.9261 29.7279 92.5261 29.8777C92.3927 29.3042 91.49 28.3485 90.7155 28.1677ZM109.687 12.7458C109.564 13.0507 109.564 13.3093 109.564 13.3093C108.986 13.2122 108.804 12.8016 108.801 12.7927C108.734 13.0594 108.526 13.326 108.523 13.3298C108.06 13.1623 107.893 12.8353 107.887 12.824C107.887 12.824 104.759 12.8904 102.143 12.8904C99.544 12.8904 96.443 12.8248 96.404 12.824C96.4009 12.83 96.2297 13.1609 95.7673 13.3298C95.76 13.3205 95.5564 13.0565 95.4909 12.7927C95.4909 12.7927 95.311 13.2112 94.7263 13.3093C94.7263 13.3093 94.7263 13.0507 94.6032 12.7458C94.6032 12.7458 94.4952 13.0357 94.0798 13.2165C94.0798 13.2165 94.1574 13.2683 94.3112 13.3044C94.307 13.3113 94.1423 13.5746 93.778 13.697C93.532 14.6836 94.7262 14.6834 94.1775 15.8406C94.1696 15.8351 93.9832 15.7055 93.7624 15.6853C93.8086 16.3931 94.7314 16.44 94.6443 17.3337C94.6349 17.3372 94.2185 17.4885 93.7419 17.4324C93.7489 17.4464 93.9414 17.8249 94.4646 18.3874C94.4646 18.3874 94.2085 18.7856 93.4597 18.6667C93.4616 18.6715 93.5707 18.9331 93.9265 19.2556C93.9265 19.2556 93.8137 19.3999 93.6345 19.4929C93.6345 19.4929 93.675 21.7764 93.7058 23.4451C93.7673 26.2555 94.7677 29.7996 102.148 29.7996C109.529 29.7995 110.534 26.2606 110.591 23.4451C110.626 21.7712 110.662 19.4929 110.662 19.4929C110.472 19.3999 110.359 19.2556 110.359 19.2556C110.708 18.9344 110.823 18.6735 110.826 18.6667C110.077 18.7855 109.821 18.3874 109.821 18.3874C110.343 17.8259 110.536 17.4477 110.544 17.4324C110.067 17.4891 109.641 17.3337 109.641 17.3337C109.554 16.44 110.477 16.3931 110.523 15.6853C110.301 15.7058 110.114 15.8368 110.108 15.8406C109.56 14.6836 110.754 14.6834 110.509 13.697C110.147 13.574 109.977 13.3086 109.974 13.3044C110.13 13.2741 110.208 13.2188 110.211 13.2165C109.8 13.0357 109.687 12.7458 109.687 12.7458ZM7.7175 29.6814L8.64426 29.7263V2.64526L7.7175 2.59936V29.6814ZM11.0329 29.6814C20.4701 29.6814 25.9021 24.9486 25.9021 16.2332C25.902 9.7445 22.2191 5.24438 18.3982 3.6687C16.0954 2.74405 13.705 2.60522 11.0329 2.60522V29.6814ZM39.1814 2.59936V29.6814H40.1101V2.59936H39.1814ZM53.5368 2.59448V29.6814L54.4704 29.6755V2.59448H53.5368ZM150.285 2.6101L134.78 29.6755H135.868L151.378 2.6101H150.285ZM161.895 29.6755H162.816V2.6101L161.895 2.60522V29.6755ZM189.084 2.6101V29.6755H190.019V2.6101H189.084ZM208.744 2.6101V29.6755H209.676V2.6101H208.744ZM77.1755 28.6999C77.1742 28.7183 77.1405 29.2779 77.8161 29.5574C78.288 29.7485 78.3598 29.0454 77.7136 28.8904C77.3579 28.8045 77.1831 28.7044 77.1755 28.6999ZM127.1 28.6999C127.097 28.7018 126.922 28.8034 126.561 28.8904C125.921 29.0454 125.987 29.748 126.459 29.5574C127.134 29.278 127.102 28.7187 127.1 28.6999ZM20.3269 3.11108C24.6967 5.29124 28.4743 10.1665 28.4743 16.2419C28.4743 21.5269 25.6662 26.5248 20.281 29.0769L20.3728 29.2624C26.5428 26.669 29.4021 21.155 29.4021 16.2419C29.4021 9.89265 25.3475 5.10508 20.4187 2.97143L20.3269 3.11108ZM101.923 14.782L100.871 15.8767L100.276 15.2986L100.604 14.9578L100.399 14.7556L99.8347 15.3396L101.938 17.3855L102.502 16.8015L102.297 16.6003L101.968 16.9412L101.266 16.2595L102.317 15.1638L103.907 16.7087L101.178 19.5554L100.189 18.5945L100.738 18.0212L100.399 17.6902L99.6296 18.491L102.107 20.904C102.107 20.904 102.246 20.8471 102.415 20.6716C102.584 20.496 102.8 20.5113 102.836 20.7283C102.872 20.9452 103.005 21.2449 103.005 21.2449C103.005 21.2449 103.214 21.1002 103.338 21.363C103.368 21.4198 103.445 21.498 103.522 21.5652C103.994 21.3585 104.512 21.2449 105.061 21.2449C107.169 21.2449 108.872 22.9234 108.872 24.9949C108.872 27.0665 107.164 28.7458 105.061 28.7458C102.958 28.7458 101.256 27.0665 101.256 24.9949C101.256 24.3907 101.404 23.8125 101.666 23.3064C101.625 23.2652 101.589 23.2389 101.553 23.2234C101.29 23.1062 101.421 22.8933 101.425 22.8874C101.414 22.8832 101.119 22.7635 100.907 22.738C100.692 22.7122 100.671 22.4947 100.841 22.3191C101.008 22.1452 101.059 22.0015 101.06 21.9988L95.8962 16.9773C95.6296 16.719 95.8342 16.2955 96.0495 16.0681C96.2701 15.8408 96.66 15.598 96.9216 15.8562L98.7165 17.6023L99.4812 16.8015L99.1423 16.4714L98.5935 17.0447L97.6042 16.0837L100.333 13.2371L101.923 14.782ZM105.071 21.7976C103.271 21.7979 101.814 23.2289 101.814 25.0007C101.814 26.7725 103.271 28.2085 105.071 28.2087C106.871 28.2087 108.329 26.7726 108.329 25.0007C108.329 23.2339 106.871 21.7976 105.071 21.7976ZM105.071 22.3396C106.569 22.3396 107.78 23.5284 107.78 25.0007C107.78 26.4678 106.563 27.6609 105.071 27.6609C103.579 27.6606 102.369 26.4728 102.369 25.0007C102.369 23.5285 103.574 22.3398 105.071 22.3396ZM92.2185 25.6052C92.0133 25.8278 91.6957 26.9587 92.029 27.532C92.3059 27.459 92.6182 26.2973 92.2185 25.6052ZM112.057 25.6052C111.657 26.2975 111.97 27.4597 112.247 27.532C112.58 26.9588 112.263 25.8281 112.057 25.6052ZM105.964 27.1082C105.036 26.6589 104.198 27.0982 104.179 27.1082C104.197 27.1152 105.146 27.4918 105.964 27.1082ZM90.0691 24.6443C90.0079 24.9653 90.4958 26.4419 91.3161 26.8396C91.2853 26.3695 90.9615 25.2332 90.0691 24.6443ZM114.212 24.6443C113.314 25.2332 112.99 26.3694 112.965 26.8396C113.78 26.4471 114.273 24.9705 114.212 24.6443ZM105.077 23.533C104.302 23.533 103.8 23.0067 103.467 23.3835C103.092 23.7142 103.594 24.2206 103.594 25.0007C103.594 25.7755 103.082 26.2714 103.456 26.6072C103.789 26.9791 104.297 26.4726 105.071 26.4724C105.845 26.4724 106.349 26.9999 106.682 26.6228C107.056 26.2922 106.553 25.7856 106.553 25.0056C106.553 24.2255 107.067 23.7347 106.692 23.404C106.359 23.0271 105.851 23.5328 105.077 23.533ZM105.071 23.9568C105.656 23.9568 106.134 24.4221 106.134 25.0007C106.133 25.5741 105.656 26.0437 105.071 26.0437C104.487 26.0434 104.01 25.5791 104.009 25.0007C104.009 24.4223 104.487 23.957 105.071 23.9568ZM107.225 24.1013C106.779 25.0363 107.216 25.8807 107.225 25.8992C107.229 25.8888 107.608 24.9286 107.225 24.1013ZM102.918 24.0964C102.533 24.9282 102.918 25.8943 102.918 25.8943C102.923 25.8843 103.366 25.0413 102.918 24.0964ZM105.071 24.3855C104.728 24.3857 104.446 24.6599 104.446 25.0007C104.446 25.3414 104.728 25.6147 105.071 25.615C105.415 25.615 105.697 25.3416 105.697 25.0007C105.697 24.6649 105.42 24.3855 105.071 24.3855ZM91.8239 21.6628C91.4444 22.0038 90.8745 23.5229 91.2077 24.0964C91.6027 23.8743 92.1009 22.3086 91.8239 21.6628ZM112.452 21.6628C112.175 22.3137 112.672 23.879 113.067 24.0964C113.4 23.523 112.831 22.0038 112.452 21.6628ZM89.613 21.0173C89.5566 21.3428 89.8491 22.6494 90.7107 23.1248C90.6849 22.6492 90.4795 21.5183 89.613 21.0173ZM114.663 21.0173C113.796 21.5183 113.591 22.6492 113.56 23.1248C114.427 22.6493 114.719 21.3429 114.663 21.0173ZM105.964 22.8874C105.146 22.5093 104.199 22.8798 104.179 22.8874C104.196 22.8963 105.035 23.3373 105.964 22.8874ZM102.681 21.1882C102.569 21.0746 102.42 21.1983 102.23 21.3894C102.035 21.5856 101.692 21.957 101.533 22.1277C101.41 22.2568 101.394 22.3554 101.451 22.4226C101.548 22.5254 101.65 22.4023 101.773 22.5515C101.906 22.7116 101.615 22.8356 101.973 23.0525C101.979 23.0439 102.39 22.4183 103.256 21.8181C103.133 21.4825 103.005 21.704 102.856 21.5544C102.708 21.4047 102.794 21.3018 102.681 21.1882ZM98.1267 16.073L98.6042 16.533L99.1882 15.9236L100.019 16.7292L98.7019 18.1033L96.8191 16.2751C96.5832 16.0478 96.45 16.2438 96.3474 16.3523C96.1424 16.5691 96.1217 16.6929 96.2751 16.8425L101.317 21.7458L101.861 21.1824L99.0857 18.4802L100.404 17.1062L101.322 17.9998L100.759 18.5837L101.153 18.9665L103.317 16.7136L102.297 15.7224L101.789 16.2537L102.005 16.4607L102.292 16.1609L102.943 16.7917L101.932 17.8455L99.3884 15.3708L100.399 14.3171L101.019 14.9216L100.732 15.2205L100.907 15.3914L101.415 14.864L100.312 13.7898L98.1267 16.073ZM113.677 18.3308C113.093 18.9816 113.18 20.3345 113.385 20.7947C113.944 20.2778 113.929 18.7492 113.677 18.3308ZM90.5974 18.3259C90.3411 18.7449 90.3314 20.2733 90.8904 20.7898C91.0954 20.3349 91.182 18.9819 90.5974 18.3259ZM92.8806 18.6667C92.6549 18.7081 92.6394 18.9509 92.6394 18.9509C92.9414 19.2195 93.3519 19.2092 93.3669 19.2087C93.1661 18.8399 92.8921 18.6736 92.8806 18.6667ZM111.395 18.6667C111.388 18.6713 111.11 18.8369 110.913 19.2087C110.913 19.2087 111.328 19.2245 111.641 18.9509C111.641 18.9509 111.626 18.7081 111.395 18.6667ZM93.4851 17.6902C93.1109 17.8246 93.2031 18.1912 93.198 18.1912C93.6656 18.5188 94.0025 18.2939 94.0085 18.2898C93.6854 18.0005 93.4851 17.6902 93.4851 17.6902ZM110.79 17.6902C110.785 17.698 110.58 18.0092 110.261 18.2898C110.261 18.2898 110.6 18.5165 111.072 18.1912C111.074 18.1834 111.165 17.823 110.79 17.6902ZM110.682 16.4714C110.671 16.4746 110.273 16.5859 109.98 17.0134C109.991 17.0192 110.366 17.2098 110.831 16.8894C110.831 16.8894 110.954 16.5748 110.682 16.4714ZM93.5935 16.4656C93.3302 16.5727 93.4411 16.8815 93.4441 16.8845C93.9108 17.2065 94.2875 17.0128 94.2956 17.0085C94.0032 16.582 93.6069 16.4693 93.5935 16.4656ZM93.5525 14.6062C93.2608 14.6062 93.2942 14.9587 93.2956 14.9724C93.6533 15.1145 93.922 15.3716 93.9314 15.3806C93.9564 14.8838 93.5668 14.6159 93.5525 14.6062ZM110.728 14.6062C110.714 14.6156 110.324 14.8885 110.349 15.3806C110.359 15.3713 110.623 15.1194 110.98 14.9724C110.982 14.9582 111.015 14.6062 110.728 14.6062ZM90.8796 12.6218C90.9206 13.1384 90.7461 13.6658 90.7409 13.6658L91.7419 14.823C91.9162 15.0294 92.0234 15.0296 92.0388 14.8386C92.0952 14.1053 92.3105 13.9135 92.5515 13.8308C92.7925 13.7482 92.8749 13.7329 92.8083 13.449C91.8603 13.5205 91.6643 12.7891 91.6599 12.7722C91.1932 12.7206 90.8796 12.6218 90.8796 12.6218ZM113.39 12.6218C113.385 12.6237 113.078 12.721 112.611 12.7722C112.608 12.7849 112.412 13.5155 111.462 13.449C111.39 13.738 111.478 13.7482 111.718 13.8308C111.965 13.9135 112.18 14.105 112.231 14.8386C112.247 15.0245 112.355 15.0244 112.529 14.823L113.529 13.6658C113.528 13.6632 113.355 13.1372 113.39 12.6218ZM93.2185 12.7722C92.8848 12.864 92.9206 13.076 92.9216 13.0818C93.3934 13.5001 93.7986 13.2576 93.7986 13.2576C93.3575 13.0431 93.2215 12.7783 93.2185 12.7722ZM111.062 12.7722C111.06 12.7776 110.924 13.0428 110.482 13.2576C110.482 13.2576 110.887 13.5001 111.359 13.0818C111.36 13.0756 111.39 12.8639 111.062 12.7722ZM89.4382 10.783C89.4382 10.783 89.4539 10.9942 89.3415 11.0925C89.3415 11.0925 89.8593 11.7443 89.8747 12.199C89.8903 12.6534 90.2751 13.0564 90.2751 13.0564C90.2779 13.0514 90.8092 12.0815 89.4382 10.783ZM114.837 10.783C113.462 12.0848 114.001 13.0564 114.001 13.0564C114.001 13.0564 114.385 12.6534 114.401 12.199C114.422 11.7495 114.934 11.0925 114.934 11.0925C114.822 10.9943 114.837 10.783 114.837 10.783ZM91.4743 10.6335C91.4612 10.6434 91.173 10.867 91.4187 11.3669C91.4187 11.3669 91.2439 11.4651 91.1618 11.3826C91.1607 11.3939 91.1231 11.7541 90.9616 12.0896C90.9616 12.0896 91.1771 12.1728 91.5154 12.24C91.8487 12.3071 91.6183 11.9503 92.1462 11.7488C92.4386 11.6351 92.4031 11.8992 92.28 12.0232C92.162 12.1476 91.9469 12.8499 92.5515 12.9998C92.5515 12.9998 92.66 12.6483 92.9831 12.5398C92.7934 12.3073 92.9008 12.1723 93.1316 12.2136C93.3623 12.2549 93.3364 11.8832 93.239 11.6404C93.0905 11.2637 93.3876 11.4132 93.5876 11.697C93.5942 11.6888 93.9174 11.2917 94.5163 11.532C94.5258 11.5294 95.0626 11.3848 95.4236 11.615C95.4236 11.615 95.8291 11.439 96.2751 11.5886L95.9929 10.9636C95.9795 10.9496 95.5504 10.5098 94.8083 10.8708C94.7997 10.8628 94.3705 10.4677 93.6345 10.9226C93.6345 10.9226 93.0292 10.5819 92.6804 11.2742C92.6342 11.362 92.5004 11.4648 92.2595 11.2996C91.9518 11.0929 91.4743 10.6335 91.4743 10.6335ZM112.801 10.6335C112.787 10.6466 112.32 11.1009 112.016 11.2996C111.776 11.4647 111.642 11.3619 111.595 11.2742C111.247 10.5819 110.641 10.9226 110.641 10.9226C109.898 10.4629 109.467 10.8708 109.467 10.8708C108.715 10.5079 108.285 10.9551 108.277 10.9636L107.995 11.5886C108.441 11.4388 108.846 11.615 108.846 11.615C109.206 11.3857 109.734 11.528 109.749 11.532C110.349 11.2932 110.672 11.6839 110.682 11.697C110.882 11.4079 111.18 11.2583 111.031 11.6404C110.934 11.8832 110.909 12.2549 111.139 12.2136C111.37 12.1726 111.477 12.3075 111.288 12.5398C111.616 12.6483 111.724 12.9998 111.718 12.9998C112.324 12.85 112.108 12.1473 111.985 12.0232C111.862 11.8992 111.827 11.6351 112.119 11.7488C112.647 11.9554 112.416 12.3071 112.755 12.24C113.093 12.1728 113.308 12.0896 113.308 12.0896C113.152 11.7536 113.109 11.3928 113.108 11.3826C113.028 11.4579 112.86 11.3707 112.852 11.3669C113.108 10.8522 112.803 10.6351 112.801 10.6335ZM96.0652 11.9763C95.8754 11.8524 95.6599 11.9763 95.6599 11.9763C95.8478 12.3856 95.9001 12.8405 95.9011 12.8494C96.2395 12.4568 96.0652 11.9815 96.0652 11.9763ZM108.616 11.9763C108.616 11.9763 108.4 11.8526 108.211 11.9763C108.211 11.9763 108.036 12.4567 108.375 12.8494C108.376 12.8394 108.433 12.385 108.616 11.9763ZM95.2292 11.9089C95.0424 11.792 94.7661 11.8808 94.7575 11.8835C94.8755 12.24 94.9577 12.824 94.9577 12.824C95.5217 12.39 95.2292 11.9141 95.2292 11.9089ZM109.523 11.8884C109.514 11.8853 109.238 11.7929 109.051 11.9148C109.043 11.928 108.762 12.3962 109.318 12.824C109.318 12.824 109.4 12.2397 109.523 11.8884ZM94.3884 11.9148C94.1491 11.7148 93.8287 11.9523 93.8239 11.9558C94.0137 12.3897 93.9724 12.7827 93.9724 12.7878C94.6092 12.6249 94.3948 11.9349 94.3884 11.9148ZM110.452 11.9509C110.452 11.9509 110.128 11.7076 109.887 11.9089C109.887 11.9089 109.657 12.6167 110.303 12.782C110.302 12.7693 110.27 12.3827 110.452 11.9509ZM102.137 11.5115C99.1322 11.5115 98.2702 12.0388 98.2702 12.0388C98.2702 12.0388 99.1168 12.116 102.137 12.116C105.158 12.116 106.01 12.0388 106.01 12.0388C106.01 12.0388 105.148 11.5115 102.137 11.5115ZM102.137 10.7361C98.9987 10.7361 96.8648 11.5889 96.6032 11.7078C96.3421 11.8215 96.3838 12.1 96.7478 11.9812C97.1132 11.8618 98.9234 11.1297 102.137 11.1296C105.352 11.1296 107.163 11.8621 107.528 11.9812C107.892 12.1 107.933 11.8266 107.672 11.7078C107.409 11.5886 105.275 10.7361 102.137 10.7361ZM89.49 9.39819C89.49 9.39819 89.5357 9.75517 89.2331 9.781C89.2375 9.79128 89.6687 10.802 90.5564 11.4958C90.4436 10.8658 90.6385 10.7625 90.2439 10.1687C89.9413 9.7089 89.49 9.39819 89.49 9.39819ZM114.786 9.39819C114.786 9.39819 114.335 9.7089 114.032 10.1687C113.637 10.7626 113.831 10.8657 113.718 11.4958C114.602 10.8054 115.038 9.80101 115.042 9.781C114.739 9.75495 114.786 9.39819 114.786 9.39819ZM96.363 10.9792L96.614 11.4441C96.6652 11.3924 96.696 11.3252 96.696 11.2478C96.6959 11.0982 96.5731 10.9746 96.4245 10.9744C96.4041 10.9744 96.3834 10.9742 96.363 10.9792ZM107.851 10.9744C107.703 10.9744 107.58 11.0981 107.58 11.2478C107.58 11.3253 107.611 11.3924 107.662 11.4441L107.918 10.9792C107.897 10.9742 107.877 10.9744 107.851 10.9744ZM97.2702 10.6492C97.1216 10.6493 96.9987 10.7729 96.9987 10.9226C96.9988 11.0723 97.1165 11.1959 97.2702 11.196C97.4189 11.196 97.5426 11.0724 97.5427 10.9226C97.5427 10.7728 97.419 10.6492 97.2702 10.6492ZM107.01 10.6492C106.862 10.6492 106.738 10.7728 106.738 10.9226C106.738 11.0724 106.862 11.196 107.01 11.196C107.159 11.1959 107.282 11.0723 107.282 10.9226C107.282 10.7729 107.159 10.6493 107.01 10.6492ZM98.2087 10.4109C98.0601 10.4111 97.9372 10.5356 97.9372 10.6853C97.9375 10.8348 98.0603 10.9586 98.2087 10.9587C98.3573 10.9587 98.4809 10.8349 98.4812 10.6853C98.4812 10.5355 98.3574 10.4109 98.2087 10.4109ZM106.072 10.4109C105.923 10.4109 105.8 10.5355 105.8 10.6853C105.8 10.8349 105.923 10.9587 106.072 10.9587C106.22 10.9585 106.343 10.8348 106.343 10.6853C106.343 10.5356 106.221 10.4111 106.072 10.4109ZM102.133 8.75268C102.127 8.7589 101.457 9.46558 100.599 9.57885C99.5362 9.72674 98.8226 9.19038 98.8044 9.17651C98.8024 9.18304 98.5786 9.88523 97.5427 10.199C96.6083 10.4803 95.8142 10.0886 95.7986 10.0808L96.2546 10.7624C96.2546 10.7624 99.158 9.64624 102.128 9.64624C105.107 9.64627 108.01 10.7624 108.01 10.7624L108.467 10.0808C108.447 10.0908 107.66 10.4793 106.723 10.199C105.694 9.88739 105.467 9.19216 105.462 9.17651C105.462 9.17651 104.748 9.72351 103.666 9.57885C102.809 9.46499 102.133 8.75268 102.133 8.75268ZM92.4343 5.01733C92.4343 5.01733 92.306 5.32747 92.5163 5.63745C92.5163 5.63745 92.4236 5.76648 92.2595 5.78198C92.3928 6.55691 92.131 6.76932 92.2234 7.21362C92.216 7.2188 92.1055 7.2938 91.9519 7.24389C92.0339 7.73468 91.8595 8.02976 92.0339 8.67553C92.0296 8.67847 91.8874 8.77246 91.7107 8.74194C91.5978 9.35672 91.9671 9.54834 91.7107 10.158C91.7114 10.159 91.9374 10.4686 92.4187 10.7419C92.4187 10.7419 93.0544 10.1479 93.6648 10.4373C93.6648 10.4373 94.3215 10.0343 94.8601 10.4373C94.8601 10.4373 95.0548 10.2716 95.3933 10.3542C95.3933 10.3542 94.9575 9.78604 95.0857 9.01635C95.0857 9.01635 94.2749 8.23077 93.6286 7.25952C92.9877 6.28843 92.8086 5.50809 92.4343 5.01733ZM111.842 5.01245C111.467 5.50325 111.287 6.28346 110.646 7.25464C110 8.22576 109.19 9.01147 109.19 9.01147C109.318 9.78099 108.887 10.3494 108.887 10.3494C109.216 10.2729 109.41 10.4271 109.416 10.4314C109.949 10.0287 110.611 10.4314 110.611 10.4314C111.216 10.1401 111.846 10.7255 111.857 10.7361C112.336 10.4592 112.562 10.1574 112.565 10.1531C112.309 9.54862 112.678 9.35184 112.565 8.73706C112.386 8.76805 112.242 8.66967 112.242 8.66967C112.416 8.02427 112.242 7.72985 112.319 7.23413C112.16 7.28579 112.047 7.20288 112.047 7.20288C112.144 6.76377 111.888 6.55195 112.016 5.7771C111.86 5.76189 111.763 5.6372 111.759 5.63257C111.968 5.3298 111.843 5.01662 111.842 5.01245ZM99.1941 10.1736C99.0454 10.1736 98.9217 10.2973 98.9216 10.447C98.9216 10.5968 99.0453 10.7214 99.1941 10.7214C99.3478 10.7213 99.4655 10.5968 99.4655 10.447C99.4654 10.2974 99.3426 10.1737 99.1941 10.1736ZM105.082 10.1736C104.933 10.1736 104.81 10.2973 104.81 10.447C104.81 10.5968 104.933 10.7214 105.082 10.7214C105.23 10.7214 105.353 10.5968 105.353 10.447C105.353 10.2973 105.23 10.1736 105.082 10.1736ZM100.174 10.029C100.025 10.029 99.9011 10.1527 99.9011 10.3025C99.9011 10.4523 100.025 10.5759 100.174 10.5759C100.322 10.5758 100.445 10.4574 100.445 10.3025C100.445 10.1528 100.322 10.0291 100.174 10.029ZM104.102 10.029C103.954 10.029 103.831 10.1527 103.831 10.3025C103.831 10.4523 103.954 10.5759 104.102 10.5759C104.256 10.5759 104.379 10.4574 104.374 10.3025C104.374 10.1527 104.251 10.0291 104.102 10.029ZM101.163 9.95092C101.014 9.95118 100.891 10.0757 100.891 10.2253C100.891 10.3749 101.014 10.4985 101.163 10.4988C101.311 10.4988 101.435 10.375 101.435 10.2253C101.435 10.0755 101.312 9.95092 101.163 9.95092ZM103.117 9.95092C102.968 9.95119 102.845 10.0757 102.845 10.2253C102.846 10.3749 102.968 10.4985 103.117 10.4988C103.266 10.4988 103.389 10.375 103.389 10.2253C103.389 10.0755 103.266 9.95092 103.117 9.95092ZM102.137 9.92553C101.989 9.92573 101.866 10.0494 101.866 10.199C101.866 10.3487 101.989 10.4732 102.137 10.4734C102.286 10.4734 102.41 10.3488 102.41 10.199C102.41 10.0493 102.286 9.92553 102.137 9.92553ZM89.8288 8.39135C89.6202 8.69889 89.6641 9.05184 89.6648 9.05737C90.4954 9.58941 90.4796 10.0187 90.8796 10.4578C90.8796 10.4578 91.1977 9.22311 89.8288 8.39135ZM114.452 8.39135C113.078 9.21795 113.401 10.4578 113.401 10.4578C113.801 10.0238 113.785 9.59463 114.611 9.05737C114.612 9.05058 114.66 8.69832 114.452 8.39135ZM102.133 7.75073C102.123 7.76921 101.59 8.76463 100.599 8.96948C99.4146 9.21746 98.6091 8.31323 98.6091 8.31323C98.6091 8.31323 98.3114 9.40916 97.2702 9.63647C96.4859 9.80677 95.9526 9.51764 95.7575 9.42456C95.5627 9.33161 95.4856 9.54816 95.6648 9.66186C96.3931 10.0958 98.0862 10.1838 98.6862 8.71655C98.6975 8.72706 99.3975 9.37665 100.481 9.25366C101.396 9.15124 102.119 8.24769 102.133 8.2312C102.143 8.24398 102.872 9.15079 103.789 9.25366C104.881 9.37765 105.585 8.71655 105.585 8.71655C106.185 10.1836 107.877 10.0958 108.605 9.66186C108.79 9.54825 108.708 9.33186 108.513 9.42456C108.318 9.51755 107.784 9.80696 107.005 9.63647C105.964 9.40897 105.667 8.31323 105.667 8.31323C105.667 8.31323 104.856 9.21728 103.672 8.96948C102.679 8.76443 102.141 7.76622 102.133 7.75073ZM107.348 7.05835C107.579 6.60889 106.938 6.21596 106.533 6.58276C105.512 7.50744 105.82 8.97435 106.959 9.3103C108.092 9.64094 109.185 8.87105 109.334 7.81714C109.426 7.16653 108.621 6.88308 108.411 7.40991C108.257 7.77119 108.774 7.85879 108.774 7.57007C108.774 7.28082 109.036 7.36812 109.026 7.57983C108.98 8.50459 108.082 9.33653 107.061 9.00073C106.036 8.66487 106.097 7.43056 106.795 6.80542C107.061 6.56777 107.179 6.83642 107.061 6.96557C106.898 7.15136 107.21 7.32642 107.348 7.05835ZM97.7419 6.57788C97.3367 6.21645 96.6964 6.60364 96.9323 7.04272C97.0708 7.30576 97.3778 7.13577 97.2195 6.94995C97.1066 6.82596 97.2194 6.55731 97.4861 6.78979C98.1833 7.41491 98.2397 8.6492 97.2195 8.9851C96.1937 9.32091 95.3008 8.48896 95.2546 7.56421C95.2446 7.35259 95.5066 7.26525 95.5066 7.55444C95.5069 7.8485 96.0235 7.75569 95.8698 7.39428C95.6544 6.8777 94.8499 7.16142 94.9421 7.81225C95.0908 8.86603 96.1828 9.64091 97.3161 9.30542C98.4547 8.96961 98.7626 7.50263 97.7419 6.57788ZM90.2751 7.14038C90.321 7.69439 90.1486 7.96857 90.1462 7.97241C90.5257 8.5097 91.1521 9.01147 91.1521 9.01147C91.3111 7.82841 90.8137 7.74483 90.2751 7.14038ZM114.001 7.14038C113.462 7.74483 112.965 7.82841 113.124 9.01147C113.124 9.01147 113.755 8.5097 114.13 7.97241C114.13 7.97241 113.955 7.69833 114.001 7.14038ZM101.681 5.86499C101.107 5.10042 100.384 5.63226 100.748 6.19018C100.897 6.37617 101.168 6.22619 101.071 6.05053C100.897 5.74068 101.159 5.632 101.369 5.91089C101.907 6.62895 101.646 8.00373 100.599 8.30346C99.6095 8.59277 98.9473 7.80701 98.7986 7.40405C98.6499 6.99584 98.666 6.22655 98.9275 6.2937C99.1114 6.34038 98.9273 6.54188 99.0759 6.5935C99.3835 6.69658 99.5525 6.13377 99.1423 6.00464C98.7322 5.87559 98.4915 6.16942 98.3991 6.44311C98.1376 7.22838 98.8707 8.93863 100.522 8.62866C102.066 8.33419 102.184 6.53157 101.681 5.86499ZM103.533 6.19018C103.897 5.63227 103.174 5.10043 102.599 5.86499C102.097 6.53155 102.215 8.33937 103.759 8.62866C105.41 8.93863 106.143 7.22838 105.882 6.44311C105.784 6.16947 105.549 5.87579 105.134 6.00464C104.723 6.12861 104.892 6.69663 105.205 6.5935C105.353 6.54704 105.169 6.34037 105.353 6.2937C105.615 6.22656 105.631 7.00099 105.482 7.40405C105.333 7.80701 104.671 8.58761 103.681 8.30346C102.635 8.00375 102.373 6.62896 102.912 5.91089C103.122 5.63202 103.379 5.7407 103.21 6.05053C103.112 6.22619 103.384 6.37617 103.533 6.19018ZM88.7771 6.85132C88.536 7.46093 89.0544 8.0144 89.0544 8.0144L88.9157 8.20483C89.0696 8.77828 89.4228 8.60777 89.4177 8.24096C89.3971 7.24926 88.7771 6.85132 88.7771 6.85132ZM115.499 6.85132C115.499 6.85132 114.873 7.25441 114.857 8.24096C114.852 8.60777 115.206 8.77828 115.36 8.20483L115.221 8.0144C115.221 8.0144 115.74 7.45576 115.499 6.85132ZM92.3005 3.7312C92.3042 3.73657 92.7581 4.40077 93.1208 5.11596C93.49 5.83398 93.542 6.32957 94.4958 7.70874C94.4984 7.68655 94.6119 6.7276 95.3318 6.74292C95.506 6.3762 95.2446 6.06146 94.9216 6.14917C94.7677 6.1905 94.665 6.09199 94.7829 5.906C94.9726 5.60633 94.9369 4.92409 94.3318 4.62964C94.3318 4.62964 94.834 5.79283 94.1364 6.4851C94.128 6.48321 93.7523 6.39402 93.7624 5.7146C93.7728 4.86746 94.1059 4.03547 93.3982 3.82885C93.3982 3.82885 93.5413 4.1551 93.4489 4.56323C93.4128 4.70733 93.2542 4.67112 93.2644 4.42358C93.2746 4.1756 92.9827 3.63304 92.3005 3.7312ZM111.975 3.7312C111.293 3.63304 111 4.1756 111.01 4.42358C111.021 4.67124 110.862 4.70237 110.826 4.56323C110.734 4.1551 110.883 3.82885 110.883 3.82885C110.175 4.03547 110.508 4.86746 110.518 5.7146C110.528 6.39269 110.154 6.48287 110.144 6.4851C109.447 5.79283 109.949 4.62964 109.949 4.62964C109.339 4.91893 109.308 5.60634 109.498 5.906C109.621 6.09199 109.513 6.1905 109.359 6.14917C109.031 6.0614 108.77 6.37614 108.944 6.74292C109.669 6.72782 109.778 7.68745 109.78 7.70874C110.739 6.32986 110.79 5.83381 111.154 5.11596C111.518 4.39269 111.975 3.7312 111.975 3.7312ZM113.832 5.7976C112.703 6.29943 112.834 7.61333 112.837 7.63647C113.221 7.04776 114.001 6.99621 114.13 6.38159C113.986 6.38159 113.856 6.26046 113.847 6.25268C113.934 6.04236 113.833 5.80099 113.832 5.7976ZM90.4441 5.79272C90.441 5.80013 90.3428 6.03838 90.4284 6.24682C90.4284 6.24682 90.2898 6.37671 90.1462 6.37671C90.2747 6.99625 91.0544 7.04277 91.4441 7.63159C91.4449 7.62411 91.5843 6.29252 90.4441 5.79272ZM88.9509 5.59643C88.6077 6.47934 89.2282 6.56755 89.782 7.40405C89.987 6.02999 88.9509 5.59643 88.9509 5.59643ZM115.324 5.59643C115.305 5.60469 114.29 6.0432 114.493 7.40405C115.047 6.57235 115.667 6.48483 115.324 5.59643ZM87.7048 5.28589C87.5715 5.36867 87.4386 5.97295 87.8181 6.19507C88.3361 6.48954 88.4284 6.65014 88.4284 6.65014C88.4292 6.64867 88.7816 5.97295 88.2644 5.67358C87.9413 5.4876 87.7048 5.28589 87.7048 5.28589ZM116.576 5.28589C116.576 5.28589 116.339 5.4876 116.016 5.67358C115.493 5.97326 115.847 6.65014 115.847 6.65014C115.847 6.65014 115.945 6.48437 116.458 6.19507C116.837 5.97287 116.704 5.36875 116.576 5.28589ZM87.3054 6.45874C87.5053 6.52576 87.654 6.49487 87.654 6.49487C87.5239 6.4142 87.4914 6.29919 87.49 6.2937L87.3054 6.45874ZM116.791 6.2937C116.789 6.29914 116.752 6.41418 116.627 6.49487C116.627 6.49487 116.775 6.52578 116.975 6.45874L116.791 6.2937ZM96.1013 1.57202C96.0923 1.58323 95.4191 2.42723 96.1374 2.95581C96.2552 3.04367 96.1831 3.23511 96.0241 3.16284C95.7633 3.04949 95.6245 2.87471 95.6237 2.87378C95.6163 2.88762 95.3743 3.34629 95.7986 3.51928C97.2879 4.12859 97.2351 4.87999 97.2341 4.89331C97.2123 4.89744 96.2837 5.06745 95.6501 4.07202C95.4706 4.66089 95.6188 5.13125 96.2136 5.29663C96.393 5.34308 96.4241 5.49772 96.2605 5.6062C96.0092 5.76635 96.019 6.41221 96.5935 6.49487C96.6024 6.48299 97.1652 5.74051 98.0759 6.39135C98.081 6.37034 98.2911 5.53041 99.1062 5.59643C99.5216 5.22963 99.3164 4.35141 98.5984 4.40307C98.9675 3.84526 98.8194 3.0964 98.2351 3.01342C98.2403 3.03987 98.4566 4.1672 97.7419 4.73901C97.7419 4.73901 97.1221 3.90636 97.6862 2.83178C97.6873 2.81408 97.7146 2.26752 97.2859 2.14038C97.2843 2.15697 97.2367 2.63997 97.0554 2.87866C96.999 2.95099 96.9323 2.82668 96.9734 2.59936C97.0294 2.29961 96.7009 1.67545 96.1013 1.57202ZM108.164 1.56616C107.569 1.66967 107.236 2.2949 107.293 2.59448C107.334 2.82142 107.267 2.94534 107.211 2.87378C107.026 2.63096 106.979 2.13452 106.979 2.13452C106.547 2.25761 106.579 2.81802 106.58 2.8269C107.138 3.89089 106.535 4.71704 106.523 4.73315C105.8 4.15453 106.031 3.00757 106.031 3.00757C105.446 3.0902 105.297 3.84447 105.661 4.39721C104.964 4.35115 104.754 5.22936 105.169 5.60132C105.994 5.52899 106.2 6.39721 106.2 6.39721C107.102 5.74714 107.663 6.47495 107.676 6.48999C108.251 6.40734 108.262 5.76157 108.01 5.60132C107.846 5.49804 107.877 5.33832 108.056 5.29175C108.656 5.13161 108.805 4.65598 108.621 4.06714C107.981 5.07182 107.041 4.88938 107.036 4.88842C107.036 4.88842 106.97 4.12918 108.472 3.5144C108.903 3.33866 108.641 2.86792 108.641 2.86792C108.641 2.86792 108.508 3.0443 108.241 3.15796C108.082 3.22994 108.011 3.0387 108.129 2.95092C108.851 2.41879 108.164 1.56616 108.164 1.56616ZM118.396 1.50952C117.663 1.57154 117.052 1.89721 117.052 1.89721C117.351 2.62542 116.737 2.89646 116.719 2.90405C116.94 3.56533 116.622 3.88647 116.622 3.88647C117.058 4.52696 116.873 5.06421 116.873 5.06421C117.198 5.43796 116.974 6.00429 116.97 6.0144C117.467 6.65722 117.943 6.30742 117.955 6.29858C117.934 6.28693 117.16 5.84129 117.489 4.47534C117.725 3.49376 118.304 2.9353 118.304 2.9353C118.304 2.9353 118.053 2.66687 117.704 2.68237C117.355 2.69781 117.304 2.49672 117.904 2.21264C118.581 1.89243 118.581 2.21205 118.596 2.56323C118.776 2.74921 118.816 2.90478 118.545 3.19409C117.391 4.41842 117.555 5.92173 118.514 5.97339C119.473 6.02503 119.499 5.63716 119.505 5.64233C118.012 5.82831 118.094 5.16726 118.437 4.39233C118.776 3.6174 119.037 3.5868 119.92 3.9226C120.212 4.03602 120.484 3.46803 120.217 3.26635C120.002 3.10108 120.104 2.97694 120.268 2.82202C120.499 2.59987 120.284 2.33078 119.232 2.36694C118.796 2.37723 118.811 2.24821 118.847 2.06225C118.914 1.69552 118.812 1.47852 118.396 1.50952ZM85.8796 1.49975C85.4642 1.46359 85.3608 1.68569 85.4275 2.05249C85.4582 2.23831 85.4784 2.37266 85.0427 2.35717C83.9917 2.32627 83.7768 2.59433 84.0075 2.81128C84.1716 2.96621 84.2736 3.09034 84.0583 3.25561C83.7916 3.45709 84.0587 4.02552 84.3562 3.91186C85.2431 3.57622 85.4999 3.60706 85.8435 4.38159C86.1871 5.15652 86.2686 5.81855 84.7761 5.63257C84.777 5.64351 84.8163 6.01941 85.7614 5.9685C86.7204 5.91663 86.8892 4.41253 85.7302 3.18823C85.4536 2.89915 85.4949 2.74426 85.6794 2.55835C85.6999 2.20707 85.6948 1.8865 86.3718 2.20678C86.9715 2.49079 86.9203 2.6928 86.572 2.67749C86.2232 2.66199 85.9714 2.93042 85.9714 2.93042C85.9714 2.93042 86.5508 3.48816 86.7868 4.46948C87.1202 5.85403 86.32 6.2937 86.32 6.2937C86.32 6.2937 86.8079 6.66563 87.3054 6.00952C87.3054 6.00952 87.0693 5.43646 87.4021 5.05932C87.4021 5.05932 87.2232 4.51606 87.654 3.88061C87.6497 3.8761 87.3425 3.55575 87.5564 2.89917C87.5509 2.89683 86.9274 2.62773 87.2234 1.89233C87.2234 1.89233 86.6128 1.56701 85.8796 1.49975ZM90.4597 4.41284C90.4597 4.66542 90.5672 4.9034 90.572 4.91382C90.413 4.94479 90.1972 4.86792 90.1921 4.86792C90.3358 5.60655 91.2596 5.49305 91.7263 6.38159C91.9857 4.84474 90.4849 4.41986 90.4597 4.41284ZM113.821 4.40796C113.794 4.41544 112.295 4.84567 112.55 6.37671C113.016 5.48295 113.939 5.60083 114.083 4.86206C114.079 4.86345 113.861 4.94437 113.704 4.91382C113.709 4.90189 113.816 4.66469 113.821 4.40796ZM88.9665 4.20678C88.9153 5.11043 89.1566 5.33268 89.987 5.89038C90.11 4.86765 89.4896 4.67686 88.9665 4.20678ZM115.308 4.20678C114.79 4.67659 114.17 4.86796 114.288 5.89038C115.119 5.33249 115.36 5.11059 115.308 4.20678ZM102.137 0.827878C102.117 0.840308 101.19 1.42433 101.748 2.15503C101.861 2.29968 101.748 2.37277 101.609 2.24878C101.491 2.14544 101.307 1.93371 101.194 2.01635C100.999 2.15073 101.066 2.43443 101.435 2.75464C102.174 3.39182 101.904 4.10969 101.897 4.12866C101.897 4.12866 100.692 4.01529 100.866 2.62573C100.45 2.90471 100.22 3.67942 100.784 4.03589C100.876 4.09789 100.958 4.22695 100.763 4.26831C100.338 4.36126 100.133 5.00659 100.532 5.30639C100.968 5.04296 101.671 5.05373 102.137 5.87475C102.609 5.05366 103.307 5.03799 103.743 5.30639C104.143 5.00681 103.938 4.36154 103.508 4.26831C103.313 4.22181 103.395 4.09271 103.487 4.03589C104.046 3.67944 103.82 2.90486 103.405 2.62573C103.578 4.00336 102.385 4.12749 102.374 4.12866C102.368 4.11478 102.094 3.39417 102.836 2.75464C103.205 2.43442 103.271 2.15065 103.076 2.01635C102.958 1.93909 102.779 2.14549 102.661 2.24878C102.522 2.37251 102.415 2.29961 102.522 2.15503C103.086 1.41632 102.137 0.827878 102.137 0.827878ZM94.1364 5.12085C94.0083 5.30172 93.9729 5.71981 94.1062 5.83862C94.2701 5.7298 94.3568 5.31703 94.1364 5.12085ZM110.134 5.12085C109.918 5.31716 110.006 5.73003 110.17 5.83862C110.303 5.71958 110.267 5.30158 110.134 5.12085ZM88.2946 4.37182C87.7716 3.85543 87.6538 4.80536 87.905 4.94507C88.3283 5.17622 88.5741 5.36673 88.5769 5.36889C88.5769 5.36889 88.6434 4.72313 88.2946 4.37182ZM116.371 4.94507C116.622 4.8049 116.503 3.85027 115.98 4.37182C115.632 4.71803 115.699 5.36889 115.699 5.36889C115.707 5.36263 115.957 5.17365 116.371 4.94507ZM118.797 4.92944C118.484 5.16192 118.766 5.35292 118.981 5.27026C118.984 5.26046 119.026 5.07525 118.797 4.92944ZM85.4792 4.92456C85.2433 5.07954 85.2946 5.27054 85.2946 5.26538C85.5152 5.35309 85.797 5.15697 85.4792 4.92456ZM90.1667 3.39038C90.1465 4.08761 91.2803 4.18582 91.8445 4.80053C91.8291 3.36133 90.1666 3.39029 90.1667 3.39038ZM114.114 3.39038C114.114 3.39038 112.452 3.35916 112.436 4.80053C112.995 4.18582 114.129 4.08761 114.114 3.39038ZM95.9314 3.95874C96.0136 4.23253 96.517 4.59391 96.8503 4.60425C96.7067 4.27877 96.275 3.96907 95.9314 3.95874ZM108.349 3.95874C108.006 3.96907 107.569 4.27877 107.43 4.60425C107.764 4.59391 108.267 4.23253 108.349 3.95874ZM89.9724 4.32495C89.9723 3.62764 89.5565 3.05461 88.7771 3.23022C89.0028 4.13412 89.9724 4.32495 89.9724 4.32495ZM115.499 3.23022C114.719 3.05459 114.304 3.62764 114.303 4.32495C114.303 4.32495 115.273 4.13418 115.499 3.23022ZM88.4128 3.32788C88.0692 2.93551 87.726 3.25569 88.0183 3.73608C88.2256 4.0671 88.6318 4.16787 88.6433 4.17065C88.6433 4.17065 88.7513 3.72051 88.4128 3.32788ZM116.253 3.7312C116.55 3.25605 116.201 2.93574 115.863 3.32788C115.524 3.72568 115.632 4.17065 115.632 4.17065C115.632 4.17065 116.048 4.067 116.253 3.7312ZM97.9011 3.31225C97.7216 3.43623 97.686 3.80852 97.8347 4.10815C98.0551 3.82919 98.0549 3.47239 97.9011 3.31225ZM106.375 3.31225C106.226 3.47241 106.226 3.82918 106.441 4.10815C106.59 3.80862 106.559 3.43632 106.375 3.31225ZM103.096 3.05932C102.891 3.08043 102.584 3.42688 102.615 3.76245C102.984 3.73645 103.168 3.20395 103.096 3.05932ZM101.174 3.05444C101.107 3.20436 101.292 3.73593 101.656 3.75659C101.692 3.42608 101.379 3.07513 101.174 3.05444ZM89.9568 2.64135C90.1672 3.31245 91.0386 2.96153 91.572 3.3435C91.2643 2.44492 90.6029 2.75492 89.9568 2.64135ZM114.324 2.64135C113.673 2.75494 113.011 2.44492 112.709 3.3435C113.242 2.96674 114.114 3.31245 114.324 2.64135ZM88.4538 1.9646C88.3463 2.57398 88.6081 2.83248 88.6081 2.83764C89.0747 2.74993 89.5056 2.85327 89.5056 2.85327C89.2491 2.00084 88.4538 1.9646 88.4538 1.9646ZM115.827 1.9646C115.827 1.9646 115.032 2.00084 114.77 2.85327C114.77 2.85327 115.206 2.74475 115.673 2.83764C115.673 2.83764 115.929 2.57397 115.827 1.9646ZM88.1413 2.19702C88.1824 1.94392 87.7564 1.79379 87.5564 2.06225C87.3564 2.33084 87.505 2.81679 88.197 2.80151C88.197 2.80151 88.1004 2.45015 88.1413 2.19702ZM116.724 2.06225C116.524 1.79376 116.098 1.94391 116.139 2.19702C116.18 2.45015 116.084 2.80151 116.084 2.80151C116.776 2.81677 116.924 2.33083 116.724 2.06225ZM91.1364 2.26928C90.5262 1.16912 89.716 2.05645 89.3415 1.95874C89.6646 2.64068 90.5261 2.15563 91.1364 2.26928ZM114.934 1.95874C114.565 2.0569 113.755 1.16888 113.139 2.26928C113.755 2.15569 114.611 2.64065 114.934 1.95874ZM89.9724 1.26147C89.9724 1.26147 89.1362 0.688322 88.49 1.60229C88.49 1.60229 89.0748 2.00541 89.9724 1.26147ZM115.786 1.60229C115.145 0.688122 114.309 1.26147 114.303 1.26147C115.206 2.00541 115.786 1.60229 115.786 1.60229ZM88.6999 0.791745C87.9768 0.471475 87.8226 1.11657 87.4841 1.39038C88.0174 1.67961 88.6688 1.06566 88.6999 0.791745ZM116.791 1.39038C116.453 1.11643 116.304 0.47185 115.576 0.791745C115.612 1.06568 116.258 1.67956 116.791 1.39038ZM87.5818 0.574948C87.0763 0.381506 86.8499 1.01568 86.8435 1.03393L87.1667 1.19409C87.5083 0.925747 87.5791 0.588232 87.5818 0.574948ZM117.432 1.03393C117.427 1.01785 117.2 0.381104 116.693 0.574948C116.695 0.586085 116.761 0.924821 117.109 1.19409L117.432 1.03393Z" fill="#252525"/>
</svg>
