<svg width="357" height="34" viewBox="0 0 357 34" fill="none" xmlns="http://www.w3.org/2000/svg">
<path fill-rule="evenodd" clip-rule="evenodd" d="M124.106 23.9816C124.689 23.9818 125.169 24.4448 125.179 25.0275C125.178 25.6007 124.698 26.0722 124.106 26.0724C123.515 26.0724 123.033 25.6008 123.033 25.0275C123.033 24.4447 123.515 23.9816 124.106 23.9816ZM124.106 24.3976C123.764 24.3976 123.478 24.6755 123.478 25.0177C123.478 25.36 123.755 25.6378 124.106 25.6378C124.448 25.6376 124.735 25.3599 124.735 25.0177C124.735 24.6756 124.458 24.3978 124.106 24.3976Z" fill="currentColor"/>
<path fill-rule="evenodd" clip-rule="evenodd" d="M124.106 22.3624C125.605 22.3626 126.825 23.5475 126.834 25.0275C126.834 26.498 125.614 27.6914 124.106 27.6915C122.599 27.6915 121.378 26.4981 121.378 25.0275C121.378 23.5567 122.599 22.3624 124.106 22.3624ZM124.994 27.1359C124.051 26.6826 123.199 27.1359 123.199 27.1359C123.199 27.1359 124.171 27.5152 124.994 27.1359ZM124.097 23.547C123.32 23.547 122.811 23.0199 122.479 23.3986C122.099 23.7316 122.607 24.2315 122.607 25.0177C122.607 25.8038 122.09 26.2941 122.469 26.6271C122.802 27.0063 123.32 26.4983 124.097 26.4982C124.874 26.4982 125.383 27.0249 125.716 26.6456C126.094 26.3127 125.586 25.8133 125.586 25.0275C125.586 24.2412 126.104 23.7502 125.725 23.4171C125.392 23.0382 124.873 23.547 124.097 23.547ZM121.924 24.1203C121.535 24.9528 121.924 25.9152 121.924 25.9152C121.93 25.9046 122.383 25.0579 121.924 24.1203ZM126.271 24.1203C125.817 25.0638 126.271 25.9152 126.271 25.9152C126.271 25.9152 126.659 24.9528 126.271 24.1203ZM125.003 22.9083C124.176 22.5228 123.222 22.9031 123.209 22.9083C123.209 22.9083 124.06 23.3615 125.003 22.9083Z" fill="currentColor"/>
<path fill-rule="evenodd" clip-rule="evenodd" d="M120.952 14.7863L119.889 15.8878L119.287 15.3136L119.611 14.9718L119.398 14.7687L118.834 15.3507L120.952 17.3956L121.517 16.8126L121.304 16.6095L120.98 16.9513L120.277 16.2667L121.341 15.1749L122.94 16.7199L120.194 19.5695L119.195 18.6076L119.75 18.0333L119.408 17.7101L118.631 18.5148L121.128 20.9201C121.128 20.9201 121.276 20.8643 121.442 20.6886C121.618 20.5129 121.831 20.5315 121.868 20.7443C121.896 20.9626 122.03 21.2523 122.034 21.2619C122.034 21.2619 122.247 21.1142 122.367 21.382C122.418 21.4592 122.481 21.5285 122.553 21.5861C123.034 21.3826 123.552 21.2716 124.106 21.2716C126.224 21.2718 127.935 22.9554 127.953 25.0089C127.953 27.0809 126.233 28.755 124.115 28.755C121.997 28.755 120.278 27.0808 120.277 25.0089C120.277 24.3984 120.425 23.8243 120.693 23.3156C120.656 23.2786 120.619 23.2418 120.582 23.2326C120.314 23.1215 120.453 22.8996 120.453 22.8996C120.453 22.8996 120.148 22.7701 119.926 22.7423C119.713 22.7238 119.695 22.5021 119.861 22.3263C120.028 22.1506 120.083 22.0021 120.083 22.0021L114.876 16.9787C114.608 16.7104 114.821 16.2949 115.033 16.0636C115.246 15.8324 115.644 15.5917 115.912 15.8507L117.725 17.5988L118.501 16.8029L118.159 16.4796L117.604 17.0529L116.605 16.091L119.353 13.2423L120.952 14.7863ZM124.106 21.8078C122.294 21.8078 120.823 23.2509 120.823 25.0177C120.823 26.7938 122.294 28.2277 124.106 28.2277C125.91 28.2275 127.38 26.7937 127.39 25.0177C127.39 23.2418 125.919 21.808 124.106 21.8078ZM121.701 21.216C121.59 21.105 121.442 21.2249 121.248 21.4191C121.054 21.6041 120.702 21.9748 120.545 22.1505C120.416 22.2798 120.397 22.3817 120.462 22.4464C120.554 22.5481 120.666 22.4274 120.786 22.5753C120.916 22.7325 120.62 22.8623 120.998 23.0841C120.998 23.0841 121.406 22.4461 122.284 21.8449C122.155 21.5119 122.025 21.734 121.877 21.5861C121.729 21.4381 121.812 21.327 121.701 21.216ZM117.086 16.091L117.567 16.5539L118.159 15.9435L119.001 16.757L117.679 18.1359L115.782 16.3039C115.551 16.0726 115.412 16.2671 115.311 16.3781C115.098 16.5907 115.08 16.7111 115.246 16.8683L120.305 21.7706L120.851 21.2062L118.058 18.505L119.38 17.1271L120.305 18.0246L119.74 18.6164L120.139 19.005L122.312 16.7482L121.285 15.758L120.776 16.2853L120.989 16.4884L121.285 16.1837L121.941 16.8126L120.925 17.8673L118.362 15.3878L119.38 14.3331L120.009 14.9347L119.713 15.2404L119.889 15.4064L120.397 14.879L119.287 13.8058L117.086 16.091Z" fill="currentColor"/>
<path fill-rule="evenodd" clip-rule="evenodd" d="M107.319 0.0226028L107.403 0.198384C108.112 0.162132 108.561 0.331 108.577 0.337056L108.522 0.633931C109.234 0.569415 109.521 1.05931 109.974 1.14272L109.882 1.35463C110.548 1.75237 110.446 2.26191 111.093 2.61342L110.834 2.881L110.991 3.15932C111.694 3.14082 112.129 3.47377 112.129 3.47377C112.96 3.35504 113.178 4.15569 113.184 4.17592C114.08 4.34248 114.33 5.33225 114.237 5.7394C114.968 5.96141 114.812 6.84096 114.812 6.84096C115.283 7.05395 115.495 7.72892 114.793 8.11733C114.8 8.13509 115.118 8.92728 116.032 8.54311C116.956 8.15496 116.717 7.48939 116.56 7.34975C115.912 7.87693 115.431 7.41427 115.505 6.82241C114.552 6.53822 114.797 5.60862 114.802 5.59194C113.638 4.96867 114.354 3.67325 114.367 3.64956C113.84 3.14078 114.349 2.51088 114.349 2.51088C114.33 1.68776 114.876 0.938618 114.876 0.938618C115.718 1.0774 116.032 1.62319 116.032 1.62319C116.92 1.64186 117.114 2.5392 117.114 2.5392C118.039 2.56707 118.354 3.40853 118.233 4.11147C118.797 4.42598 118.881 5.23084 118.566 5.79506C119.056 6.34998 118.64 7.03412 118.095 7.05288C118.095 7.05288 118.205 7.89451 119.167 7.89467C120.129 7.89467 120.489 6.95111 120.249 6.54409C119.528 6.83992 119.195 6.21177 119.334 5.6476C118.465 4.98157 119.232 4.05581 119.232 4.05581C118.687 3.25103 119.177 2.64075 119.723 2.13198C119.723 1.62167 120.117 1.56044 120.129 1.55874C120.48 0.598725 121.181 0.209796 121.184 0.20815C121.196 0.215158 121.89 0.605421 122.238 1.55874C122.254 1.56068 122.645 1.61511 122.645 2.13198C123.19 2.64073 123.68 3.25108 123.135 4.05581C123.135 4.05581 123.912 4.98157 123.033 5.6476C123.172 6.21179 122.838 6.84004 122.117 6.54409C121.868 6.95104 122.228 7.89436 123.199 7.89467C124.17 7.89467 124.272 7.05288 124.272 7.05288C123.727 7.04354 123.311 6.35931 123.801 5.79506C123.486 5.23079 123.57 4.42596 124.134 4.11147C124.004 3.41772 124.328 2.5762 125.253 2.5392C125.253 2.5392 125.438 1.65149 126.335 1.63295C126.335 1.63295 126.65 1.08714 127.491 0.948384C127.504 0.966233 128.037 1.71615 128.019 2.52944C128.019 2.52944 128.527 3.15933 128 3.66811C128.016 3.69636 128.727 4.98832 127.565 5.61049C127.571 5.6308 127.814 6.56646 126.862 6.84096C126.927 7.43276 126.455 7.89533 125.808 7.36831C125.65 7.50777 125.411 8.18169 126.335 8.56069C127.25 8.93588 127.568 8.15276 127.574 8.13588C126.871 7.7567 127.084 7.07244 127.556 6.85952C127.556 6.85952 127.399 5.98933 128.129 5.75795C128.046 5.35072 128.287 4.35169 129.184 4.19448C129.189 4.17408 129.407 3.3736 130.238 3.49233C130.238 3.49233 130.673 3.1584 131.376 3.1769L131.533 2.89956L131.273 2.63198C131.921 2.28046 131.819 1.78021 132.485 1.37319L132.393 1.1603C132.846 1.06781 133.124 0.577669 133.845 0.651509L133.789 0.355611C133.789 0.355611 134.243 0.17998 134.964 0.216939L135.047 0.0411575C136.12 -0.0513475 136.869 0.106535 137.101 0.929829C137.517 0.96674 138.692 0.522979 138.729 1.79018C140.254 2.01222 140.208 2.53927 140.042 2.89077C139.811 3.38104 140.18 3.3626 139.949 3.75112C139.579 4.38929 139.542 4.50974 139.403 4.45424C139.163 4.37107 139.061 4.89742 138.803 4.80581C138.544 4.72257 138.821 4.25009 138.451 4.17592C138.091 4.11122 137.952 4.57325 138.191 4.68471C138.487 4.82347 138.257 5.06481 138.47 5.13881C138.552 5.16526 138.705 4.98727 138.71 4.98159C138.726 4.99302 139.371 5.45899 139.006 5.92495C138.647 6.39416 137.895 6.45169 137.887 6.45229L138.146 6.74819C139.089 6.57243 139.283 7.08098 139.773 7.67299C139.773 7.67299 139.672 7.79298 139.496 7.77456C140.107 8.46834 140.042 8.89458 140.671 9.36635C140.669 9.37567 140.609 9.59622 140.319 9.57827C140.569 10.05 140.32 10.2073 140.847 10.7531C140.847 10.7531 140.781 10.8927 140.605 10.8927C140.607 10.9123 140.649 11.5854 141.077 12.1505C141.074 12.1581 141.007 12.3249 140.781 12.2706C140.782 12.279 140.92 13.7823 140.994 15.2121C141.068 16.6551 141.115 17.349 142.15 18.7365C143.186 20.124 143.344 20.1704 143.778 21.9279C144.213 23.6855 144.916 24.3147 145.739 24.0001C146.617 23.6669 146.626 22.3442 146.229 21.6505C145.248 19.9394 143.704 19.2177 142.844 16.5353C142.522 15.5437 142.994 14.3423 143.001 14.3244C143.001 14.3244 142.641 12.2794 143.723 12.2609C143.734 12.2413 144.165 11.477 144.722 11.6505C144.736 11.6421 145.242 11.3371 146.09 11.3917C146.09 11.3917 146.266 12.2336 145.933 12.7423C145.933 12.7423 146.34 13.5744 145.425 13.963C145.545 14.1203 145.387 15.1385 144.074 15.0831C144.037 16.341 144.195 17.1645 146.192 19.2179C148.19 21.2621 148.671 23.5931 146.979 24.9806C145.231 26.4235 143.528 25.0548 143.528 25.0548C143.047 25.7394 143.075 26.8772 143.621 26.757C143.945 26.6831 144.019 26.9054 144.194 27.673C144.462 28.8105 144.49 28.8755 143.584 30.6144C143.594 30.6144 144.126 30.612 144.666 30.383C144.667 30.376 144.724 30.0662 144.98 29.8742C144.749 29.3099 145.091 28.6161 145.554 28.5236C146.284 28.3848 146.812 28.0148 146.812 28.0148C146.812 28.0148 147.024 29.208 146.062 29.8371C146.07 29.8354 147.184 29.5999 147.838 30.3927C147.126 30.6333 147.116 31.1418 146.441 31.3175C145.692 31.5115 145.322 30.7619 145.322 30.7619C145.322 30.7619 145.101 30.9201 145.378 31.2892C145.591 31.576 145.581 31.6962 145.239 31.798C142.48 32.6287 139.629 32.4006 139.616 32.3996C139.616 32.3996 140.19 32.714 140.421 33.463C139.228 33.167 137.073 34.0274 135.76 32.1496C135.76 32.1496 134.233 31.7334 132.115 31.3634C132.115 31.3634 132.587 31.641 132.864 32.131C132.848 32.1392 131.004 33.0406 128.61 31.6593C128.499 31.5946 128.333 31.7797 128.509 31.8537C129.514 32.2559 129.751 32.8572 129.757 32.8712C129.744 32.878 127.688 33.9772 125.642 32.631C125.646 32.6444 125.958 33.6509 124.911 34.0001C124.911 34.0001 123.912 33.6298 122.839 33.3986C122.839 33.3986 122.95 33.6669 122.719 33.7687C122.713 33.7677 121.857 33.6274 121.202 32.8624C120.555 33.6302 119.694 33.7687 119.694 33.7687C119.473 33.6577 119.574 33.3986 119.574 33.3986C118.513 33.6274 117.524 33.9925 117.503 34.0001C116.466 33.6512 116.767 32.6458 116.771 32.631C114.728 33.972 112.656 32.8712 112.656 32.8712C112.661 32.8584 112.898 32.2563 113.904 31.8537C114.08 31.7797 113.914 31.5946 113.803 31.6593C111.411 33.0449 109.554 32.1335 109.549 32.131C109.826 31.641 110.298 31.3634 110.298 31.3634C108.18 31.7334 106.653 32.1496 106.653 32.1496C105.34 34.0274 103.185 33.167 101.992 33.463C102.222 32.7195 102.789 32.4041 102.797 32.3996C102.771 32.4015 99.9268 32.6176 97.1738 31.798C96.8318 31.6962 96.8225 31.5667 97.0352 31.2892C97.3215 30.9101 97.0908 30.7619 97.0908 30.7619C97.0908 30.7619 96.7207 31.5116 95.9717 31.3175C95.2965 31.151 95.2868 30.6425 94.5654 30.3927C95.1851 29.5694 96.3047 29.8185 96.3047 29.8185C95.3336 29.1895 95.5459 27.9962 95.5459 27.9962C95.5459 27.9962 96.0639 28.3662 96.8037 28.505C97.2661 28.5975 97.6082 29.2913 97.377 29.8556C97.6319 30.0469 97.6897 30.3549 97.6914 30.3644C98.2371 30.5957 98.7832 30.5958 98.7832 30.5958C97.8769 28.8661 97.9139 28.792 98.1729 27.6544C98.3486 26.8867 98.4224 26.6644 98.7461 26.7384C99.2917 26.8587 99.329 25.7208 98.8389 25.0363C98.8389 25.0363 97.1367 26.3959 95.3887 24.9621C93.6965 23.5745 94.1773 21.2528 96.1748 19.1994C98.1723 17.1459 98.3299 16.3225 98.293 15.0646C96.9797 15.1201 96.8222 14.1017 96.9424 13.9445C96.0319 13.5671 96.4295 12.7323 96.4336 12.7238C96.1008 12.215 96.2764 11.3732 96.2764 11.3732C97.1276 11.3183 97.6351 11.6256 97.6455 11.632C98.2096 11.4563 98.6445 12.2433 98.6445 12.2433C99.7357 12.2527 99.3662 14.3058 99.3662 14.3058C99.3738 14.3251 99.8445 15.5258 99.5234 16.5167C98.6633 19.1994 97.1181 19.9206 96.1377 21.632C95.7401 22.3257 95.7496 23.6484 96.6279 23.9816C97.4511 24.2869 98.1542 23.6577 98.5889 21.9093C99.0235 20.152 99.181 20.1054 100.217 18.7179C101.252 17.3305 101.299 16.6272 101.373 15.1935C101.447 13.7598 101.586 12.2521 101.586 12.2521C101.364 12.3076 101.289 12.132 101.289 12.132C101.717 11.5667 101.76 10.8935 101.761 10.8742C101.591 10.8739 101.517 10.7443 101.512 10.7355C102.039 10.1897 101.799 10.0315 102.039 9.55971C101.75 9.57776 101.69 9.35857 101.688 9.3478C102.316 8.87603 102.251 8.45901 102.861 7.756C102.686 7.77426 102.584 7.65444 102.584 7.65444C103.074 7.06244 103.269 6.55397 104.212 6.72963L104.471 6.43374C104.452 6.43228 103.717 6.37215 103.352 5.90639C102.982 5.43466 103.648 4.96303 103.648 4.96303C103.657 4.97289 103.808 5.14681 103.897 5.12026C104.101 5.05554 103.88 4.80593 104.175 4.66713C104.406 4.55615 104.277 4.09383 103.907 4.15835C103.537 4.22309 103.814 4.7039 103.556 4.78725C103.297 4.87048 103.204 4.34354 102.964 4.43569C102.825 4.49119 102.788 4.36144 102.418 3.73256C102.187 3.3348 102.556 3.36245 102.325 2.87221C102.159 2.52995 102.113 2.00289 103.639 1.77163C103.676 0.504308 104.841 0.948277 105.267 0.911275C105.498 0.097324 106.247 -0.0698323 107.319 0.0226028ZM119.5 32.3439C119.486 32.3468 118.439 32.5586 117.429 32.8341C117.429 32.8341 117.373 33.2042 117.725 33.3615C118.856 32.9751 119.822 32.7989 119.833 32.797C119.833 32.7831 119.826 32.4345 119.5 32.3439ZM122.802 32.3439C122.476 32.4256 122.469 32.783 122.469 32.797C122.469 32.797 123.431 32.973 124.568 33.3615C124.92 33.2042 124.864 32.8341 124.864 32.8341C123.856 32.5566 122.802 32.3439 122.802 32.3439ZM120.896 32.3537C120.896 32.3537 120.305 31.1606 118.918 31.8263C118.944 31.8264 120.231 31.8373 120.268 32.9083L120.896 32.3537ZM123.375 31.8165C122.002 31.1575 121.408 32.3212 121.396 32.3439L122.025 32.9083C122.062 31.8283 123.348 31.8167 123.375 31.8165ZM105.858 32.1408C105.276 31.6783 103.399 32.3808 103.065 32.8341C104.721 33.0098 105.673 32.3813 105.858 32.1408ZM139.228 32.8341C138.894 32.3808 137.017 31.6783 136.435 32.1408C136.62 32.3813 137.563 33.0098 139.228 32.8341ZM116.208 32.3165C115.524 31.7523 114.08 32.1406 113.664 32.5939C114.709 33.0842 115.958 32.5201 116.208 32.3165ZM128.629 32.5939C128.213 32.1314 126.779 31.7523 126.076 32.3165C126.335 32.5202 127.575 33.0841 128.629 32.5939ZM114.903 31.1417C112.869 30.4388 111.805 30.2723 110.104 30.5128L109.826 30.9015C109.826 30.9015 111.649 30.411 113.729 31.1417C116.43 32.0852 117.789 32.363 117.789 32.3722L118.649 32.1593C118.649 32.1593 116.577 31.7245 114.903 31.1417ZM132.181 30.5128C130.479 30.2631 129.415 30.4387 127.38 31.1417C125.718 31.7203 123.664 32.1531 123.635 32.1593L124.494 32.3722C124.494 32.3722 125.863 32.0852 128.563 31.1417C130.644 30.411 132.467 30.8923 132.458 30.9015L132.181 30.5128ZM113.109 31.3175C112.527 30.8551 110.807 31.4466 110.474 31.8537C111.888 32.1681 112.924 31.5581 113.109 31.3175ZM131.819 31.8537C131.486 31.4559 129.766 30.8551 129.184 31.3175C129.369 31.5581 130.405 32.1681 131.819 31.8537ZM121.146 30.633C120.212 30.633 120.342 31.4378 121.146 31.8449C121.951 31.4378 122.081 30.633 121.146 30.633ZM107.311 30.7345C107.311 30.7345 107.024 31.2988 106.274 31.0675C106.261 31.0704 105.264 31.2804 103.454 31.2804C103.195 31.4561 103.223 31.7334 102.964 31.5119C102.585 31.1788 102.232 31.1232 102.232 31.1232C102.226 31.131 102.087 31.3016 102.159 31.4191C102.224 31.5393 101.937 31.5299 101.789 31.3634C101.632 31.1877 101.28 31.0304 101.104 31.0304C100.947 31.2617 100.827 31.3636 100.559 31.2619C99.8006 30.9753 99.7358 31.3817 99.3477 31.2062C98.9592 31.0304 98.6074 31.1601 97.6641 30.9289L97.4697 31.2062C97.4697 31.2062 99.1161 31.965 103.324 31.7892C106.755 31.6412 108.643 31.1046 108.643 31.1046C108.643 31.1046 108.189 31.0859 107.819 30.8732C107.819 30.8732 107.588 30.8917 107.311 30.7345ZM134.992 30.7345C134.72 30.8888 134.492 30.8738 134.483 30.8732C134.118 31.0835 133.67 31.1042 133.66 31.1046C133.681 31.1106 135.556 31.6512 138.969 31.7892C143.154 31.9548 144.805 31.2144 144.832 31.2062L144.639 30.9289C143.695 31.1508 143.343 31.0306 142.955 31.2062C142.567 31.382 142.492 30.9843 141.743 31.2619C141.466 31.3543 141.354 31.2616 141.197 31.0304C141.021 31.0307 140.671 31.1879 140.514 31.3634C140.366 31.5299 140.07 31.5393 140.144 31.4191C140.208 31.3 140.072 31.1265 140.069 31.1232C140.066 31.1237 139.726 31.1803 139.339 31.5119C139.089 31.7246 139.107 31.4562 138.849 31.2804C137.027 31.2804 136.027 31.0675 136.027 31.0675C135.275 31.2968 134.996 30.7431 134.992 30.7345ZM108.383 16.008C107.884 16.942 108.134 17.2015 107.838 17.5714C107.838 17.5714 107.763 17.3858 107.615 17.3673C106.94 18.1351 107.209 18.2098 106.922 18.6076C106.922 18.6076 106.765 18.4874 106.617 18.5333C106.266 18.7276 106.321 19.1713 106.099 19.4396C106.091 19.438 105.922 19.4 105.831 19.2736L105.405 19.8009C105.412 19.8177 105.644 20.3735 106.108 20.9474C107.005 22.0759 107.033 22.2057 107.199 23.0011C107.356 23.8059 107.551 25.4989 107.606 25.8966C107.671 26.2944 107.495 26.5629 107.255 26.9884C106.959 27.5154 106.829 27.5803 106.986 28.255C107.134 28.93 107.135 28.9681 107.458 28.9035C108.762 28.6352 109.114 28.8568 109.826 30.1056C109.831 30.1037 110.125 29.9853 110.52 29.9669C110.506 29.9597 109.131 29.2092 108.929 27.589C108.929 27.589 109.697 27.543 110.612 28.1535C110.611 28.1444 110.564 27.8529 110.437 27.5343C110.437 27.5343 108.392 26.7662 108.559 23.8156C108.559 23.8156 109.243 24.0742 109.789 24.6662C109.788 24.6589 109.715 24.2645 109.696 23.8156C109.682 23.8076 107.691 22.6503 108.06 20.1339C108.072 20.1372 109.182 20.4375 109.743 21.8908L109.715 21.2716C109.715 21.2716 108.125 19.7911 109.466 17.4044C109.484 17.4213 111.124 18.9352 110.029 21.2716L110.058 21.9191C110.058 21.9191 110.381 21.0588 111.084 20.5871C111.096 20.6124 112.034 22.554 110.261 24.9249C110.261 24.9249 110.326 25.4246 110.529 25.9425C110.535 25.9243 110.767 25.23 111.278 24.5363C111.278 24.5363 112.489 26.1924 111.148 28.505C111.148 28.505 111.722 29.2453 111.99 29.9484L112.397 30.0226C112.397 30.0226 111.38 29.19 111.648 27.8673C111.677 27.8735 113.067 28.184 113.461 30.1984L114.044 30.3927C114.044 30.3927 113.229 29.8096 113.275 28.6164C113.275 28.6164 114.789 29.0524 115.786 30.7472C115.629 30.4545 115.405 29.9539 115.616 29.7999C115.644 29.8028 117.077 29.9552 118.066 31.6037C118.066 31.6037 118.252 31.6964 118.511 31.5021C119.177 31.0028 120 31.1876 120 31.1876C119.998 31.182 119.909 30.9161 120.083 30.6232C115.671 30.1884 112.083 28.8475 111.944 23.6398L111.833 19.5226C111.823 19.5189 111.369 19.3445 111.223 19.1066C111.223 19.1066 110.676 19.1622 110.427 18.1447C110.242 17.414 110.279 17.3489 109.835 17.0714C109.391 16.7939 108.799 16.3039 108.383 16.008ZM133.938 15.9894C133.521 16.2854 132.929 16.7754 132.485 17.0529C132.041 17.3304 132.069 17.3954 131.894 18.1261C131.644 19.1437 131.098 19.088 131.098 19.088C130.95 19.3285 130.487 19.504 130.487 19.504L130.377 23.6212C130.238 28.8288 126.64 30.1698 122.238 30.6046C122.412 30.8876 122.314 31.162 122.312 31.1691C122.312 31.1691 123.135 30.9842 123.801 31.4835C124.06 31.6778 124.245 31.5861 124.245 31.5861C125.244 29.927 126.669 29.7838 126.695 29.7814C126.897 29.9278 126.704 30.3883 126.549 30.6847C127.529 29.0425 129.006 28.6064 129.035 28.5978C129.081 29.7911 128.268 30.3742 128.268 30.3742L128.842 30.1798C129.239 28.1447 130.654 27.8488 130.654 27.8488C130.921 29.1669 129.912 29.9984 129.905 30.004L130.321 29.9298C130.58 29.2268 131.163 28.4865 131.163 28.4865C129.834 26.1938 131.013 24.5469 131.033 24.5187C131.535 25.2209 131.776 25.905 131.782 25.924C131.995 25.406 132.051 24.9064 132.051 24.9064C130.276 22.5241 131.217 20.5903 131.228 20.5685C131.93 21.0495 132.254 21.9005 132.254 21.9005L132.282 21.2531C131.172 18.9127 132.837 17.3859 132.837 17.3859C134.178 19.7725 132.587 21.2531 132.587 21.2531L132.56 21.8722C133.117 20.4293 134.215 20.1229 134.242 20.1154C134.612 22.6406 132.605 23.797 132.605 23.797C132.587 24.2468 132.514 24.6417 132.513 24.6476C133.063 24.0701 133.731 23.8018 133.743 23.797C133.899 26.7269 131.894 27.505 131.866 27.5158C131.739 27.8331 131.692 28.1235 131.69 28.1349C132.596 27.531 133.357 27.5696 133.373 27.5705C133.17 29.1985 131.782 29.9484 131.782 29.9484C132.18 29.9669 132.477 30.087 132.495 30.0685C133.189 28.8384 133.54 28.6167 134.854 28.8849C135.167 28.9495 135.177 28.9114 135.325 28.2365C135.482 27.5618 135.352 27.4968 135.057 26.9699C134.816 26.5443 134.65 26.2758 134.705 25.8781C134.77 25.4803 134.955 23.7874 135.121 22.9826C135.278 22.1778 135.316 22.0481 136.213 20.9289C136.671 20.3515 136.912 19.7925 136.916 19.7824L136.49 19.255C136.398 19.3937 136.222 19.421 136.222 19.421C136 19.1528 136.055 18.709 135.704 18.5148C135.565 18.4685 135.398 18.589 135.398 18.589C135.121 18.1912 135.389 18.1166 134.705 17.3488C134.557 17.358 134.483 17.5529 134.483 17.5529C134.187 17.1921 134.437 16.9236 133.938 15.9894ZM116.134 30.4201C116.282 30.8917 116.762 31.4279 117.382 31.5206C117.086 30.7717 116.485 30.5218 116.134 30.4201ZM126.159 30.4201C125.808 30.5218 125.207 30.7717 124.911 31.5206C125.531 31.4372 126.011 30.8917 126.159 30.4201ZM108.837 30.6701C108.855 30.892 108.734 31.1046 108.734 31.1046C109.046 31.0679 109.586 30.9311 109.586 30.9289C109.277 30.6747 108.853 30.6702 108.837 30.6701ZM133.447 30.6701C133.447 30.6701 133.013 30.6699 132.698 30.9289C132.707 30.9311 133.246 31.0679 133.549 31.1046C133.546 31.1006 133.429 30.8989 133.447 30.6701ZM139.736 30.3185C139.728 30.3236 139.34 30.5643 139.422 31.0402C139.422 31.0402 139.653 30.8272 140.069 30.4757C140.069 30.4757 140.032 30.337 139.736 30.3185ZM102.557 30.3087C102.269 30.3267 102.226 30.4585 102.224 30.466C102.636 30.8141 102.867 31.0263 102.871 31.0304C102.954 30.5588 102.547 30.318 102.557 30.3087ZM140.671 30.3742C140.671 30.3742 140.384 30.633 140.439 30.9845C140.444 30.9818 140.737 30.8156 140.967 30.5587C140.967 30.5543 140.963 30.3834 140.671 30.3742ZM101.622 30.3556C101.327 30.3743 101.326 30.5499 101.326 30.5499C101.553 30.8134 101.843 30.9692 101.854 30.9748C101.908 30.6346 101.625 30.3677 101.622 30.3556ZM139.006 24.5919C138.543 25.332 138.423 25.3047 138.034 25.4249C137.646 25.5544 137.72 25.6657 137.396 26.7287C137.212 27.3298 137.941 27.0991 137.757 27.7462C137.618 28.2273 137.396 29.014 137.165 29.7355C136.937 30.4464 136.575 30.6278 136.564 30.633C136.838 30.7513 137.291 30.7265 137.304 30.7257C137.942 28.8386 139.515 28.9308 139.515 28.9308C139.524 30.2703 138.332 30.8547 138.312 30.8732C138.636 30.9471 138.96 30.9201 138.96 30.9201C139.7 29.4955 139.561 28.8938 141.54 29.2638C141.724 28.803 141.817 28.2503 141.817 28.2462C139.931 26.7754 139.422 26.3221 139.329 25.7208C139.237 25.1196 139.006 24.5919 139.006 24.5919ZM105.017 6.82241C104.619 6.88716 104.646 7.1454 104.646 7.26577C104.646 7.38602 104.563 7.4973 104.452 7.35854C104.258 7.11816 103.629 6.95184 103.223 7.55288C103.23 7.55468 103.475 7.61734 103.657 7.58999C103.833 7.56224 103.916 7.70123 103.666 7.83999C102.917 8.25626 102.695 8.88491 102.695 8.88491C102.695 8.88491 103.065 8.82935 103.49 8.46889C103.675 8.31171 103.777 8.48682 103.639 8.71791C103.398 9.11565 102.483 9.20871 102.354 10.1613C102.37 10.1551 102.895 9.96088 103.269 9.59682C103.444 9.42122 103.565 9.54188 103.454 9.76381C103.149 10.3651 102.149 10.4575 102.112 11.549C102.112 11.549 102.51 11.4194 102.89 11.0216C103.075 10.8276 103.231 11.0215 103.019 11.299C102.806 11.5765 102.27 11.8359 102.205 12.4279C102.14 13.02 101.964 15.6934 101.835 16.4796C101.705 17.2659 101.484 18.1725 100.55 19.3009C99.6158 20.4294 99.4863 20.6793 99.1719 21.7706C98.4782 24.1943 97.6084 24.8147 96.5078 24.5001C95.4072 24.1856 94.9816 22.4458 95.8232 21.2062C96.9516 19.5411 100.004 17.0994 98.8662 14.3429C98.8662 14.3429 99.2451 13.7133 98.7734 13.1212C98.769 13.1243 98.6347 13.2176 98.5801 13.3996C98.2842 13.1313 98.5793 12.752 98.1357 12.4005C98.1294 12.4069 97.9787 12.5625 98.0059 12.798C97.6548 12.7051 97.7562 11.8642 96.6562 11.8917C96.5362 12.8625 97.1276 12.6499 97.3496 13.1769C97.3467 13.1762 97.0068 13.0942 96.8594 13.1955C97.0258 13.843 97.4884 13.6401 97.6826 13.9269C97.6826 13.9269 97.4605 13.9355 97.3125 14.1203C97.3125 14.1203 97.5347 14.9348 98.5059 14.6203C98.5121 14.627 98.7732 14.918 98.7002 15.841C98.6262 16.7198 98.4128 17.5339 96.748 19.421C96.1654 20.0871 94.8896 21.4011 94.8896 22.7423C94.8897 23.9911 95.7683 25.1007 96.9336 25.1007C98.4039 25.1006 99.0509 24.0372 99.2451 23.0382C99.3283 22.622 99.7906 22.779 99.7168 23.2599C99.5969 23.9797 99.3207 24.6628 99.3193 24.6662C99.3193 24.6662 99.5137 25.0545 99.6709 25.5539C99.8281 26.0534 99.8101 26.2298 99.6621 26.4611C99.4124 26.8496 99.5877 27.3763 99.1348 27.3117C98.8573 27.2654 98.8575 27.3861 98.7373 27.7931C98.4876 28.6534 98.5425 28.6998 98.709 29.1808C98.8755 29.671 99.1717 30.4383 99.292 30.6789C99.4955 31.0581 99.7083 30.6141 100.115 30.8361C100.457 31.021 100.836 30.8736 100.577 30.5499C100.577 30.5499 100.753 30.4198 100.901 30.6046C100.908 30.5827 101.16 29.8236 101.808 30.1701C101.817 30.1605 102.126 29.8295 102.408 29.9201C102.396 29.9015 102.053 29.4032 100.364 29.9298C100.096 30.0125 99.8656 29.5593 100.235 29.4298C100.229 29.4097 99.9578 28.5232 99.9209 28.3576C99.8839 28.1911 99.8007 28.1354 100.105 27.8859C102.02 26.2763 102.177 26.3683 102.427 25.3693C102.676 24.3702 102.806 24.1942 103.111 23.4357C103.907 21.4562 103.704 20.781 104.277 20.1427C105.448 18.8524 105.864 18.0759 105.867 18.0705C105.867 18.0705 105.969 18.0522 105.997 18.172C106.404 17.8668 106.219 17.5436 106.599 17.2384C106.607 17.2432 106.729 17.3202 106.756 17.5617C107.347 17.1269 107.2 16.3777 107.422 16.091C107.474 16.1202 107.52 16.1605 107.557 16.2081C107.593 16.2557 107.619 16.3102 107.634 16.3683C107.636 16.3641 107.828 16.0351 107.828 15.8878C107.828 15.7398 107.912 15.6466 107.662 15.4523C107.412 15.2489 107.32 15.3328 107.255 15.5548C106.894 15.2588 106.718 14.8325 106.339 14.4533C106.332 14.4563 106.151 14.5331 106.024 14.7687C106.024 14.7687 105.682 14.3151 105.47 13.5382C105.119 13.6029 104.934 13.5378 104.971 13.0665C105.045 12.1785 104.61 11.9653 104.665 10.9015C104.684 10.5222 105.044 10.6519 105.035 10.9572C104.989 11.8081 105.267 11.8173 105.359 12.5665C105.886 11.9103 105.821 12.8256 106.043 13.8244C106.043 13.8244 106.191 13.7692 106.256 13.5382C106.395 13.1035 106.562 13.7691 107.033 14.5831C107.144 14.278 107.172 14.084 107.542 14.5187C107.912 14.9537 109.225 16.0724 110.492 16.9972C110.973 17.3579 110.659 17.6451 110.871 18.089C111.01 18.3943 111.287 18.6261 111.287 18.6261C111.287 18.6261 111.454 18.3298 111.787 18.339C111.787 18.339 111.704 17.7563 112.203 17.5158C112.203 17.5158 111.574 16.7104 112.323 16.1369C111.87 15.9797 111.713 16.0262 112.092 15.3605C112.092 15.3605 111.667 14.9535 112.129 14.4171C111.694 14.1119 111.565 14.5189 111.528 14.9259C111.473 15.4992 111.185 16.0356 110.871 15.7492C110.529 15.4347 108.975 13.816 108.54 13.0851C108.105 12.3543 108.337 11.7893 107.218 10.4757C107.015 10.2353 107.218 10.0043 107.431 10.1984C107.56 10.3094 107.838 10.4298 107.838 10.4298C107.838 10.4298 107.874 9.7454 107.431 9.13491C107.255 8.87594 107.403 8.73719 107.772 9.07924C107.772 9.07924 107.828 8.53345 106.95 7.78432C106.719 7.58089 106.876 7.46959 107.282 7.61733C107.277 7.602 107.107 7.11666 106.562 6.99819C106.007 6.87793 105.84 7.09077 105.812 7.19252C105.794 7.29385 105.591 7.32134 105.581 7.19252C105.572 7.06302 105.414 6.75765 105.017 6.82241ZM103.287 24.5831C103.282 24.594 103.055 25.1163 102.964 25.7111C102.871 26.3216 102.362 26.7658 100.476 28.2365C100.476 28.2365 100.568 28.7916 100.753 29.254C102.732 28.884 102.593 29.4859 103.333 30.9103C103.333 30.9103 103.657 30.9383 103.98 30.8644C103.962 30.8554 102.76 30.2708 102.778 28.9308C102.778 28.9308 104.351 28.8386 104.989 30.7257C105.002 30.7265 105.455 30.7513 105.729 30.633C105.717 30.6275 105.356 30.4458 105.128 29.7355C104.897 29.014 104.675 28.2273 104.536 27.7462C104.361 27.0899 105.081 27.321 104.896 26.7199C104.564 25.6471 104.647 25.5354 104.259 25.4152C103.87 25.2949 103.75 25.3231 103.287 24.5831ZM96.1934 30.1886C95.6478 30.1424 95.3145 30.4386 95.3145 30.4386C95.3145 30.4386 95.6846 30.8361 96.1377 30.8917C96.7574 30.9657 96.739 30.2441 96.1934 30.1886ZM146.1 30.1886C145.563 30.2441 145.545 30.9657 146.155 30.8917C146.608 30.8361 146.979 30.4386 146.979 30.4386C146.979 30.4386 146.645 30.1332 146.1 30.1886ZM137.332 6.77553C136.935 6.71081 136.786 7.01605 136.768 7.14565C136.749 7.27516 136.555 7.24741 136.527 7.14565C136.5 7.04389 136.333 6.83129 135.778 6.95131C135.223 7.07157 135.057 7.57143 135.057 7.57143C135.464 7.42346 135.62 7.53395 135.38 7.73745C134.501 8.47748 134.557 9.03334 134.557 9.03334C134.926 8.69122 135.084 8.83845 134.899 9.08803C134.455 9.69856 134.492 10.3839 134.492 10.3839C134.492 10.3839 134.77 10.2727 134.899 10.1525C135.112 9.95825 135.316 10.1893 135.112 10.4298C134.002 11.7434 134.224 12.3074 133.789 13.0382C133.364 13.7689 131.802 15.3873 131.459 15.7023C131.145 15.9891 130.857 15.4526 130.802 14.879C130.765 14.4814 130.636 14.0654 130.201 14.3703C130.647 14.8976 130.252 15.3 130.238 15.3136C130.617 15.9889 130.46 15.9337 129.997 16.091C130.735 16.6653 130.136 17.4463 130.118 17.4689C130.617 17.7002 130.534 18.2931 130.534 18.2931C130.862 18.275 131.028 18.5702 131.033 18.5792C131.033 18.5792 131.301 18.3482 131.449 18.0431C131.662 17.5991 131.348 17.3028 131.829 16.9513C133.096 16.0263 134.409 14.9066 134.779 14.4718C135.14 14.0375 135.168 14.2321 135.288 14.5373C135.76 13.7327 135.935 13.0573 136.064 13.4914C136.138 13.721 136.275 13.7777 136.277 13.7785C136.499 12.7794 136.435 11.8639 136.962 12.5206C137.045 11.7806 137.322 11.7613 137.285 10.9103C137.276 10.6054 137.637 10.4765 137.655 10.8556C137.701 11.9191 137.267 12.1319 137.351 13.0197C137.388 13.4914 137.202 13.5561 136.851 13.4914C136.64 14.2523 136.302 14.7137 136.296 14.7218C136.166 14.4906 135.981 14.4074 135.981 14.4074C135.602 14.7866 135.435 15.2027 135.065 15.508C135.001 15.2863 134.909 15.2125 134.659 15.4064C134.419 15.6005 134.492 15.6931 134.492 15.841C134.492 15.9797 134.687 16.3224 134.687 16.3224C134.751 16.1103 134.899 16.0451 134.899 16.0451C135.121 16.332 134.974 17.0811 135.565 17.5158C135.593 17.266 135.723 17.1915 135.723 17.1915C136.102 17.4967 135.917 17.8209 136.323 18.1261C136.351 18.0151 136.453 18.0246 136.453 18.0246C136.459 18.0361 136.887 18.8115 138.044 20.0968C138.608 20.735 138.404 21.4104 139.209 23.3898C139.523 24.1576 139.644 24.3243 139.894 25.3234C140.143 26.3128 140.301 26.2298 142.215 27.839C142.52 28.0886 142.437 28.1444 142.4 28.3107C142.364 28.4758 142.09 29.3692 142.086 29.3839C142.455 29.5136 142.233 29.967 141.956 29.8839C140.248 29.3513 139.917 29.8666 139.912 29.8742C140.199 29.7817 140.514 30.1242 140.514 30.1242C141.169 29.7735 141.419 30.5566 141.42 30.5587C141.556 30.3779 141.736 30.4979 141.743 30.5031C141.484 30.8268 141.873 30.9752 142.206 30.7902C142.613 30.5684 142.817 31.0122 143.029 30.633C143.14 30.4294 143.436 29.6613 143.603 29.171C143.769 28.6903 143.824 28.6435 143.574 27.7833C143.454 27.3859 143.454 27.2659 143.177 27.3029C142.715 27.3675 142.899 26.8398 142.649 26.4513C142.511 26.2202 142.483 26.0443 142.641 25.5451C142.796 25.0609 142.987 24.6671 142.992 24.6574C142.992 24.6574 142.715 23.9726 142.595 23.2511C142.512 22.7702 142.983 22.6126 143.066 23.0285C143.261 24.0275 143.899 25.0919 145.369 25.0919C146.534 25.0917 147.413 23.9813 147.413 22.7326C147.413 21.3914 146.136 20.0783 145.554 19.4123C143.889 17.5253 143.677 16.7109 143.603 15.8322C143.519 14.8979 143.797 14.6105 143.797 14.6105C144.761 14.9226 144.986 14.123 144.989 14.1115C144.845 13.9313 144.631 13.9177 144.62 13.9171C144.814 13.6308 145.276 13.8428 145.442 13.1867C145.304 13.0758 144.962 13.1681 144.962 13.1681C145.184 12.6408 145.776 12.8533 145.655 11.882C144.555 11.8544 144.656 12.6951 144.306 12.7882C144.333 12.548 144.176 12.3908 144.176 12.3908C143.732 12.7515 144.037 13.1308 143.731 13.3898C143.686 13.2103 143.546 13.1177 143.538 13.1124C143.07 13.6995 143.439 14.3228 143.445 14.3331C142.308 17.0898 145.36 19.5323 146.488 21.1974C147.33 22.4369 146.904 24.1757 145.804 24.4904C144.703 24.8049 143.833 24.1853 143.14 21.7619C142.825 20.6704 142.696 20.4205 141.762 19.2921C140.828 18.1636 140.606 17.2562 140.477 16.4699C140.347 15.6831 140.171 13.01 140.106 12.4181C140.041 11.8264 139.505 11.5676 139.292 11.2902C139.079 11.0127 139.237 10.8186 139.422 11.0128C139.801 11.4105 140.199 11.5402 140.199 11.5402C140.153 10.4486 139.163 10.3553 138.857 9.75405C138.747 9.54156 138.867 9.4124 139.043 9.58803C139.418 9.95362 139.946 10.148 139.958 10.1525C139.829 9.19044 138.913 9.10689 138.673 8.70913C138.534 8.47802 138.636 8.30243 138.82 8.45913C139.239 8.81377 139.612 8.8742 139.625 8.87612C139.625 8.87612 139.403 8.24649 138.654 7.83022C138.405 7.6916 138.479 7.5528 138.663 7.58022C138.848 7.60797 139.099 7.54311 139.099 7.54311C138.692 6.942 138.062 7.10915 137.896 7.31264C137.785 7.4508 137.702 7.34 137.702 7.21987C137.702 7.09964 137.729 6.84035 137.332 6.77553ZM103.241 29.4396C103.398 30.0777 104.027 30.6508 104.628 30.799C104.498 30.2256 103.842 29.5969 103.241 29.4396ZM104.971 20.3742C104.971 20.3742 104.564 20.5961 104.36 21.5304C103.993 23.2213 103.525 23.9901 103.519 24.0001C103.519 24.0001 103.861 24.4721 104.11 24.7218C104.462 25.0733 104.776 24.879 104.971 25.3507C105.156 25.8224 105.35 26.5346 105.424 26.9787C105.535 27.6261 104.934 27.3952 105.109 27.9406C105.285 28.4771 105.405 29.2178 105.6 29.6896C105.794 30.1705 106.256 30.661 106.423 30.7443C106.716 30.8997 106.873 30.674 106.876 30.6701C106.876 30.6701 106.719 30.1056 107.542 30.4386C107.32 29.9853 107.588 29.5506 108.365 29.7726C108.367 29.7682 108.441 29.5223 108.661 29.4581C108.384 29.2454 108.023 29.2825 107.265 29.4767C106.969 29.5599 106.774 29.4397 106.653 29.0236C106.237 27.5527 106.311 27.4502 106.746 26.7472C107.116 26.1554 107.023 25.9793 106.986 25.5539C106.894 24.629 106.636 23.8058 106.58 23.1583C106.534 22.511 106.423 22.2888 106.146 22.0021C105.311 21.1495 104.977 20.3877 104.971 20.3742ZM137.322 20.3742C137.316 20.3881 136.981 21.1497 136.147 22.0021C135.87 22.2888 135.768 22.511 135.713 23.1583C135.657 23.7965 135.399 24.629 135.307 25.5539C135.26 25.9793 135.177 26.1554 135.547 26.7472C135.991 27.4502 136.065 27.5527 135.64 29.0236C135.529 29.4397 135.324 29.5507 135.028 29.4767C134.27 29.2825 133.909 29.2454 133.632 29.4581C133.852 29.5223 133.926 29.7681 133.928 29.7726C134.705 29.5506 134.973 29.9853 134.751 30.4386C135.574 30.1056 135.417 30.6701 135.417 30.6701C135.419 30.6736 135.577 30.8999 135.87 30.7443C136.027 30.6518 136.499 30.1613 136.693 29.6896C136.888 29.2178 137.008 28.4864 137.184 27.9406C137.359 27.3952 136.767 27.6261 136.869 26.9787C136.968 26.4227 137.119 25.8776 137.322 25.3507C137.516 24.879 137.831 25.0733 138.183 24.7218C138.423 24.4721 138.774 24.0001 138.774 24.0001C138.768 23.9899 138.3 23.2211 137.933 21.5304C137.729 20.5961 137.322 20.3742 137.322 20.3742ZM139.052 29.4396C138.451 29.5969 137.795 30.2256 137.665 30.799C138.266 30.6508 138.895 30.0777 139.052 29.4396ZM113.904 29.4484C113.914 29.8092 114.506 30.6977 115.126 30.7902C115.098 30.3184 114.431 29.5779 113.904 29.4484ZM128.389 29.4484C127.861 29.5779 127.195 30.3184 127.167 30.7902C127.787 30.6977 128.37 29.8184 128.389 29.4484ZM134.196 30.0958C134.196 30.0958 133.762 30.3557 133.799 30.7072C133.803 30.7061 134.272 30.5944 134.502 30.2814C134.502 30.2814 134.409 30.0866 134.196 30.0958ZM108.087 30.0871C107.884 30.0873 107.791 30.2814 107.791 30.2814C108.02 30.5926 108.484 30.6952 108.494 30.6974C108.522 30.346 108.087 30.0871 108.087 30.0871ZM109.049 29.7081C108.753 29.7269 108.716 30.004 108.716 30.004C109.188 30.2446 109.558 30.485 109.558 30.4943C109.558 30.0595 109.049 29.7081 109.049 29.7081ZM133.244 29.6984C133.244 29.6984 132.736 30.0499 132.735 30.4845C132.747 30.4766 133.104 30.2399 133.577 29.9943C133.576 29.9859 133.535 29.7168 133.244 29.6984ZM96.7666 30.1427C96.7852 30.3 97.0536 30.6143 97.1738 30.4201C97.3403 30.1518 96.7666 30.1427 96.7666 30.1427ZM145.526 30.1427C145.526 30.1427 144.953 30.161 145.119 30.4201C145.239 30.6143 145.508 30.3 145.526 30.1427ZM112 28.505C111.945 28.8288 112.351 29.8553 112.971 30.0958C112.943 29.624 112.555 28.7272 112 28.505ZM130.294 28.505C129.739 28.727 129.35 29.6239 129.322 30.0958C129.942 29.8553 130.349 28.8288 130.294 28.505ZM109.641 28.1906C109.789 29.0046 110.862 29.7544 111.463 29.9025C111.333 29.329 110.418 28.3663 109.641 28.1906ZM132.652 28.1906C131.875 28.3663 130.96 29.329 130.83 29.9025C131.431 29.7544 132.504 29.0046 132.652 28.1906ZM128.703 12.7609C128.583 13.0661 128.582 13.3253 128.582 13.3253C127.99 13.2235 127.814 12.8068 127.814 12.8068C127.75 13.075 127.537 13.3439 127.537 13.3439C127.074 13.1711 126.905 12.8461 126.899 12.8351C126.899 12.8351 123.755 12.8995 121.119 12.8996C118.483 12.8996 115.338 12.8351 115.338 12.8351C115.332 12.8474 115.163 13.1805 114.7 13.3439C114.7 13.3439 114.488 13.075 114.423 12.8068C114.423 12.8068 114.247 13.2235 113.655 13.3253C113.655 13.3253 113.655 13.0661 113.535 12.7609C113.535 12.7609 113.424 13.0568 113.008 13.2326C113.078 13.2776 113.157 13.3093 113.239 13.3253C113.239 13.3253 113.072 13.6025 112.702 13.7228C112.452 14.7126 113.664 14.713 113.109 15.8693C113.109 15.8693 112.915 15.7306 112.693 15.7121C112.74 16.4241 113.674 16.4614 113.581 17.3585C113.575 17.3606 113.152 17.5152 112.675 17.4601C112.677 17.4645 112.872 17.8431 113.405 18.4132C113.398 18.4241 113.136 18.809 112.397 18.6906C112.401 18.6989 112.514 18.9637 112.869 19.2824C112.869 19.2824 112.758 19.4213 112.563 19.5138C112.564 19.5292 112.601 21.7953 112.638 23.464C112.693 26.2761 113.702 29.8185 121.138 29.8185C128.573 29.8184 129.591 26.2761 129.646 23.464C129.683 21.8049 129.719 19.53 129.72 19.5138C129.535 19.4213 129.415 19.2733 129.359 19.2824C129.716 18.9622 129.829 18.6964 129.831 18.6906C129.095 18.8087 128.832 18.4267 128.823 18.4132C129.36 17.8397 129.554 17.4601 129.554 17.4601C129.08 17.5148 128.66 17.3632 128.647 17.3585C128.555 16.4614 129.489 16.4148 129.535 15.7121C129.315 15.7304 129.123 15.8665 129.119 15.8693C128.573 14.713 129.775 14.7126 129.525 13.7228C129.159 13.5945 128.993 13.3306 128.989 13.3253C129.142 13.2894 129.225 13.2357 129.229 13.2326C128.819 13.0591 128.706 12.7685 128.703 12.7609ZM95.999 28.7179C95.999 28.7179 95.953 29.2915 96.6465 29.5783C97.1182 29.7725 97.1923 29.0695 96.5449 28.9123C96.175 28.8197 95.999 28.7179 95.999 28.7179ZM146.294 28.7179C146.294 28.7179 146.118 28.8197 145.748 28.9123C145.101 29.0695 145.166 29.7725 145.646 29.5783C146.34 29.2915 146.294 28.7179 146.294 28.7179ZM111.158 25.6281C110.945 25.8501 110.622 26.9789 110.964 27.5617C111.251 27.4872 111.556 26.3217 111.158 25.6281ZM131.135 25.6281C130.737 26.3217 131.052 27.4779 131.329 27.5617C131.662 26.9881 131.338 25.8501 131.135 25.6281ZM108.984 24.6662C108.929 24.9899 109.419 26.4705 110.242 26.8683C110.214 26.3965 109.891 25.2489 108.984 24.6662ZM133.309 24.6662C132.402 25.2489 132.079 26.3965 132.051 26.8683C132.874 26.4705 133.364 24.9899 133.309 24.6662ZM110.76 21.6876C110.371 22.0211 109.799 23.5468 110.141 24.1203C110.538 23.8979 111.037 22.3351 110.76 21.6876ZM131.533 21.6876C131.256 22.3351 131.755 23.8979 132.152 24.1203C132.494 23.5468 131.922 22.0211 131.533 21.6876ZM108.531 21.0304C108.476 21.3541 108.772 22.6678 109.641 23.1398C109.613 22.6772 109.401 21.5391 108.531 21.0304ZM133.762 21.0304C132.892 21.5299 132.68 22.6679 132.652 23.1398C133.531 22.6771 133.817 21.3634 133.762 21.0304ZM109.521 18.3576C109.271 18.7742 109.252 20.3006 109.816 20.8185C110.02 20.356 110.112 19.0051 109.521 18.3576ZM132.772 18.3478C132.181 19.0046 132.273 20.3555 132.477 20.8087C133.04 20.2997 133.022 18.764 132.772 18.3478ZM111.814 18.6906C111.583 18.7276 111.574 18.9777 111.574 18.9777C111.878 19.2441 112.3 19.2366 112.305 19.2365C112.101 18.8479 111.824 18.6906 111.814 18.6906ZM130.469 18.6906C130.457 18.6973 130.188 18.8563 129.979 19.2365C129.995 19.2367 130.402 19.2406 130.71 18.9777C130.71 18.9777 130.7 18.7276 130.469 18.6906ZM112.435 17.7101C112.061 17.8375 112.145 18.1977 112.147 18.2091C112.614 18.5297 112.954 18.315 112.961 18.3107C112.643 18.0293 112.442 17.7213 112.435 17.7101ZM129.858 17.7101C129.851 17.7215 129.649 18.0294 129.332 18.3107C129.339 18.315 129.679 18.5297 130.146 18.2091C130.148 18.1979 130.232 17.8466 129.858 17.7101ZM112.536 16.4884C112.269 16.5896 112.387 16.9018 112.379 16.9142C112.86 17.2379 113.239 17.0343 113.239 17.0343C112.946 16.603 112.542 16.4902 112.536 16.4884ZM129.748 16.4796C129.748 16.4796 129.341 16.5908 129.045 17.0255C129.053 17.0295 129.438 17.2259 129.905 16.9054C129.905 16.9054 130.025 16.5907 129.748 16.4796ZM112.499 14.6203C112.203 14.6203 112.24 14.9904 112.24 14.9904C112.61 15.1384 112.878 15.3976 112.878 15.3976C112.905 14.8926 112.505 14.6242 112.499 14.6203ZM129.794 14.6203C129.788 14.6243 129.387 14.9018 129.415 15.3976C129.415 15.3976 129.683 15.1384 130.053 14.9904C130.053 14.9904 130.09 14.6203 129.794 14.6203ZM109.808 12.6408C109.845 13.1587 109.669 13.6862 109.669 13.6955L110.677 14.8517C110.852 15.0552 110.963 15.0547 110.973 14.8605C111.028 14.1206 111.251 13.9359 111.491 13.8527C111.731 13.7695 111.815 13.7595 111.75 13.4728C110.788 13.5376 110.594 12.7882 110.594 12.7882C110.126 12.7332 109.813 12.6424 109.808 12.6408ZM132.485 12.631C132.485 12.631 132.171 12.7239 131.699 12.7794C131.697 12.788 131.499 13.5284 130.543 13.464C130.478 13.7505 130.552 13.7598 130.802 13.8429C131.051 13.9262 131.265 14.1209 131.32 14.8517C131.33 15.0457 131.441 15.0454 131.616 14.8419L132.624 13.6857C132.62 13.673 132.449 13.1518 132.485 12.631ZM112.157 12.7882C111.825 12.8805 111.861 13.1014 111.852 13.1027C112.332 13.5282 112.739 13.2785 112.739 13.2785C112.296 13.0657 112.157 12.7882 112.157 12.7882ZM130.137 12.7882C130.137 12.7882 130.007 13.0657 129.554 13.2785C129.554 13.2785 129.961 13.519 130.433 13.1027C130.435 13.0909 130.469 12.8782 130.137 12.7882ZM108.355 10.7999C108.356 10.8069 108.372 11.0136 108.254 11.1046C108.254 11.1046 108.771 11.7617 108.79 12.215C108.809 12.6683 109.197 13.0753 109.197 13.0753C109.203 13.0655 109.736 12.0976 108.355 10.7999ZM133.938 10.7999C132.558 12.097 133.09 13.0647 133.096 13.0753C133.096 13.0753 133.484 12.6683 133.503 12.215C133.521 11.7617 134.039 11.1046 134.039 11.1046C133.921 11.0136 133.937 10.8069 133.938 10.7999ZM110.409 10.6515C110.409 10.6515 110.095 10.8649 110.354 11.383C110.354 11.383 110.178 11.4839 110.095 11.4015C110.093 11.4153 110.054 11.7682 109.891 12.1037C109.891 12.1037 110.103 12.1874 110.445 12.2521C110.788 12.3168 110.557 11.9654 111.084 11.7619C111.38 11.6509 111.343 11.9189 111.223 12.0392C111.093 12.1687 110.881 12.8717 111.491 13.0197C111.495 13.0082 111.608 12.6669 111.926 12.5578C111.732 12.3266 111.842 12.1967 112.073 12.2335C112.304 12.2705 112.277 11.9008 112.185 11.6603C112.037 11.281 112.333 11.4292 112.536 11.716C112.536 11.716 112.86 11.3087 113.47 11.549C113.47 11.549 114.016 11.4008 114.386 11.632C114.395 11.628 114.798 11.4583 115.246 11.6046L114.959 10.9757C114.959 10.9757 114.524 10.5129 113.766 10.883C113.754 10.8722 113.321 10.4824 112.582 10.9386C112.574 10.9342 111.969 10.601 111.62 11.2902C111.574 11.3734 111.435 11.4837 111.195 11.3175C110.893 11.1157 110.417 10.6593 110.409 10.6515ZM131.884 10.6515C131.876 10.6593 131.4 11.1157 131.098 11.3175C130.848 11.4837 130.719 11.3826 130.673 11.2902C130.324 10.6006 129.718 10.9345 129.711 10.9386C128.972 10.4824 128.539 10.8723 128.527 10.883C127.769 10.5129 127.334 10.9757 127.334 10.9757L127.047 11.6046C127.495 11.4584 127.898 11.6279 127.907 11.632C128.277 11.4008 128.823 11.549 128.823 11.549C129.433 11.3087 129.757 11.716 129.757 11.716C129.96 11.4292 130.256 11.281 130.108 11.6603C130.016 11.9101 129.989 12.2798 130.22 12.2335C130.451 12.1874 130.561 12.3266 130.367 12.5578C130.685 12.6669 130.798 13.0082 130.802 13.0197C131.412 12.8717 131.191 12.1595 131.07 12.0392C130.95 11.9097 130.913 11.6509 131.209 11.7619C131.736 11.9654 131.505 12.3168 131.848 12.2521C132.18 12.1874 132.402 12.1037 132.402 12.1037C132.239 11.7772 132.2 11.4154 132.198 11.4015C132.115 11.4747 131.939 11.383 131.939 11.383C132.198 10.8649 131.884 10.6515 131.884 10.6515ZM115.033 12.0021C114.848 11.8819 114.626 12.0021 114.626 12.0021C114.811 12.4091 114.866 12.8722 114.866 12.8722C115.199 12.4744 115.024 12.0021 115.033 12.0021ZM127.676 12.0021C127.666 11.9966 127.45 11.8759 127.27 12.0021C127.27 12.0021 127.093 12.4744 127.436 12.8722C127.436 12.8722 127.482 12.4091 127.676 12.0021ZM114.183 11.9279C114.002 11.8102 113.723 11.8968 113.711 11.9005C113.83 12.2573 113.912 12.8312 113.914 12.8439C114.478 12.4091 114.183 11.9279 114.183 11.9279ZM128.582 11.9005C128.57 11.8968 128.291 11.8102 128.11 11.9279C128.11 11.9279 127.806 12.4091 128.379 12.8439C128.381 12.8311 128.463 12.2482 128.582 11.9005ZM113.341 11.9376C113.095 11.737 112.776 11.9683 112.768 11.9748C112.96 12.4056 112.916 12.791 112.915 12.8068C113.567 12.6508 113.344 11.9487 113.341 11.9376ZM129.517 11.965C129.509 11.9597 129.181 11.7272 128.943 11.9279C128.943 11.9279 128.712 12.6313 129.368 12.798C129.368 12.798 129.332 12.409 129.517 11.965ZM121.146 11.5304C118.144 11.5304 117.265 12.0504 117.253 12.0578C117.265 12.0589 118.125 12.1408 121.146 12.1408C124.157 12.1408 125.027 12.059 125.04 12.0578C125.027 12.05 124.158 11.5304 121.146 11.5304ZM121.146 10.7531C117.983 10.7531 115.828 11.6045 115.569 11.7248C115.311 11.845 115.348 12.1223 115.718 12.0021C116.088 11.8815 117.91 11.1515 121.146 11.1515C124.384 11.1515 126.206 11.8818 126.566 12.0021C126.936 12.1223 126.973 11.845 126.714 11.7248C126.454 11.604 124.308 10.7531 121.146 10.7531ZM108.401 9.42104C108.401 9.42104 108.448 9.78242 108.143 9.80092C108.147 9.81238 108.583 10.8226 109.475 11.5216C109.364 10.8834 109.558 10.7814 109.16 10.1896C108.855 9.72707 108.401 9.42104 108.401 9.42104ZM133.882 9.41225C133.874 9.4174 133.427 9.72142 133.124 10.1798C132.726 10.781 132.92 10.8831 132.81 11.5119C133.716 10.8181 134.15 9.80041 134.141 9.79116C133.838 9.7726 133.881 9.41825 133.882 9.41225ZM126.908 10.9943C126.751 10.9944 126.631 11.1237 126.631 11.2716C126.63 11.3081 126.637 11.3446 126.651 11.3781C126.666 11.4115 126.687 11.4416 126.714 11.466L126.974 11.0031C126.955 10.9938 126.927 10.9943 126.908 10.9943ZM115.394 10.9845C115.366 10.9845 115.348 10.9851 115.329 10.9943L115.588 11.4562C115.643 11.4099 115.671 11.3358 115.671 11.2619C115.671 11.1048 115.551 10.9845 115.394 10.9845ZM116.245 10.6613C116.088 10.6613 115.967 10.7906 115.967 10.9386C115.967 11.0122 115.997 11.0829 116.049 11.1349C116.101 11.1868 116.172 11.216 116.245 11.216C116.318 11.2158 116.389 11.1867 116.44 11.1349C116.492 11.0829 116.522 11.0122 116.522 10.9386C116.522 10.7815 116.402 10.6615 116.245 10.6613ZM126.048 10.6613C125.891 10.6615 125.771 10.7907 125.771 10.9386C125.771 11.0864 125.891 11.2157 126.048 11.216C126.205 11.216 126.326 11.0866 126.326 10.9386C126.326 10.7814 126.205 10.6613 126.048 10.6613ZM117.188 10.4201C117.031 10.4201 116.91 10.5504 116.91 10.6984C116.91 10.8555 117.031 10.9757 117.188 10.9757C117.262 10.9756 117.332 10.9463 117.384 10.8947C117.436 10.8427 117.466 10.7718 117.466 10.6984C117.466 10.5413 117.336 10.4203 117.188 10.4201ZM125.104 10.4201C124.947 10.4203 124.827 10.5505 124.827 10.6984C124.827 10.8553 124.948 10.9755 125.104 10.9757C125.262 10.9757 125.383 10.8462 125.383 10.6984C125.383 10.5411 125.262 10.4201 125.104 10.4201ZM121.146 8.78334C121.137 8.79328 120.465 9.49637 119.602 9.60659C118.51 9.74516 117.789 9.19936 117.789 9.19936C117.789 9.19936 117.558 9.90242 116.513 10.2169C115.569 10.5008 114.771 10.1045 114.756 10.0968L115.218 10.7814C115.218 10.7814 118.141 9.66225 121.146 9.66225C124.152 9.66225 127.075 10.7814 127.075 10.7814L127.537 10.0968C127.522 10.1044 126.724 10.5009 125.78 10.2169C124.726 9.91167 124.504 9.19936 124.504 9.19936C124.504 9.19936 123.783 9.74516 122.691 9.60659C121.837 9.49633 121.156 8.79286 121.146 8.78334ZM111.38 5.03627C111.38 5.03627 111.25 5.35117 111.463 5.65639C111.461 5.65892 111.369 5.78651 111.204 5.80483C111.333 6.58135 111.066 6.79423 111.167 7.22866C111.167 7.22866 111.056 7.30322 110.89 7.25698C110.973 7.74716 110.788 8.04312 110.964 8.69057C110.964 8.69057 110.815 8.78278 110.64 8.75502C110.529 9.36556 110.899 9.56976 110.64 10.171C110.643 10.1757 110.866 10.4777 111.353 10.7531C111.372 10.7355 112 10.166 112.61 10.4484C112.625 10.4396 113.282 10.0459 113.812 10.4484C113.816 10.445 114.01 10.283 114.349 10.3654C114.349 10.3654 113.915 9.80096 114.044 9.03334C114.044 9.03334 113.229 8.2468 112.582 7.27553C111.935 6.30423 111.759 5.52655 111.38 5.03627ZM118.187 10.1896C118.029 10.1898 117.909 10.319 117.909 10.4669C117.909 10.5033 117.917 10.5398 117.931 10.5734C117.945 10.6068 117.965 10.6376 117.99 10.6632C118.016 10.689 118.047 10.7089 118.081 10.7228C118.115 10.7366 118.15 10.7442 118.187 10.7443C118.223 10.7443 118.259 10.7367 118.293 10.7228C118.327 10.7089 118.357 10.6889 118.383 10.6632C118.408 10.6375 118.429 10.6069 118.443 10.5734C118.457 10.5398 118.465 10.5033 118.465 10.4669C118.465 10.3097 118.335 10.1896 118.187 10.1896ZM124.115 10.1896C123.958 10.1896 123.838 10.319 123.838 10.4669C123.838 10.6148 123.958 10.7442 124.115 10.7443C124.272 10.7443 124.392 10.6149 124.393 10.4669C124.393 10.3097 124.272 10.1896 124.115 10.1896ZM130.904 5.01772C130.525 5.51724 130.349 6.29448 129.701 7.26577C129.056 8.23316 128.247 9.01729 128.24 9.02358C128.37 9.79137 127.935 10.3556 127.935 10.3556C128.273 10.2732 128.468 10.4352 128.472 10.4386C129.004 10.0352 129.663 10.4323 129.674 10.4386C130.293 10.1428 130.932 10.7443 130.932 10.7443C131.422 10.4668 131.644 10.1613 131.644 10.1613C131.385 9.5602 131.755 9.35665 131.644 8.74623C131.473 8.7731 131.328 8.68664 131.32 8.68178C131.496 8.03425 131.32 7.73749 131.403 7.24721C131.24 7.30167 131.13 7.22287 131.126 7.21987C131.228 6.78513 130.969 6.57239 131.08 5.78627C130.914 5.76777 130.82 5.63784 130.82 5.63784C131.033 5.33257 130.904 5.01772 130.904 5.01772ZM119.167 10.0412C119.01 10.0413 118.89 10.1707 118.89 10.3185C118.89 10.4757 119.01 10.5957 119.167 10.5958C119.324 10.5958 119.444 10.4665 119.444 10.3185C119.444 10.1614 119.324 10.0412 119.167 10.0412ZM123.126 10.0412C122.969 10.0412 122.849 10.1706 122.849 10.3185C122.849 10.3921 122.878 10.4627 122.93 10.5148C122.982 10.5668 123.052 10.5958 123.126 10.5958C123.199 10.5958 123.27 10.5668 123.322 10.5148C123.374 10.4628 123.403 10.392 123.403 10.3185C123.403 10.1615 123.274 10.0413 123.126 10.0412ZM120.166 9.96694C120.009 9.967 119.889 10.0965 119.889 10.2443C119.889 10.3923 120.009 10.5133 120.166 10.5226C120.323 10.5226 120.443 10.4015 120.443 10.2443C120.443 10.0872 120.314 9.96694 120.166 9.96694ZM122.127 9.96694C121.97 9.96694 121.85 10.0965 121.85 10.2443C121.85 10.3923 121.97 10.5226 122.127 10.5226C122.284 10.5226 122.404 10.4015 122.404 10.2443C122.404 10.0873 122.284 9.96699 122.127 9.96694ZM121.146 9.93959C120.989 9.9396 120.869 10.0689 120.869 10.2169C120.869 10.3649 120.989 10.4943 121.146 10.4943C121.304 10.4943 121.424 10.3742 121.424 10.2169C121.424 10.0597 121.304 9.93959 121.146 9.93959ZM133.549 8.41323C132.162 9.23652 132.495 10.4762 132.495 10.4855C132.902 10.0415 132.883 9.61573 133.716 9.07924C133.716 9.07924 133.762 8.71849 133.549 8.41323ZM108.744 8.41323C108.531 8.72774 108.577 9.07924 108.577 9.07924C109.409 9.61561 109.401 10.0411 109.798 10.4757C109.802 10.4612 110.123 9.23165 108.744 8.41323ZM121.138 7.756C121.138 7.756 120.601 8.76492 119.593 8.97768C118.401 9.22713 117.588 8.32269 117.586 8.32045C117.586 8.32045 117.29 9.41243 116.235 9.6437C115.449 9.81011 114.913 9.51414 114.719 9.43081C114.525 9.34758 114.441 9.56 114.626 9.67104C115.357 10.1058 117.068 10.1985 117.669 8.72768C117.669 8.72768 118.381 9.38395 119.481 9.26381C120.416 9.16206 121.146 8.24623 121.146 8.24623C121.146 8.24623 121.877 9.17182 122.812 9.27358C123.921 9.40294 124.624 8.73647 124.624 8.73647C125.225 10.2073 126.936 10.1156 127.667 9.68081C127.852 9.56985 127.769 9.34785 127.565 9.43081C127.362 9.52331 126.825 9.81943 126.039 9.6437C124.985 9.42168 124.688 8.32045 124.688 8.32045C124.683 8.32689 123.87 9.22655 122.682 8.97768C121.683 8.76488 121.138 7.756 121.138 7.756ZM116.717 6.59975C116.31 6.22978 115.663 6.61823 115.894 7.07143C116.032 7.33967 116.346 7.16462 116.18 6.97963C116.069 6.85013 116.18 6.58142 116.448 6.81264C117.151 7.44168 117.206 8.68177 116.18 9.01479C115.144 9.3475 114.248 8.51487 114.201 7.58999C114.192 7.37731 114.46 7.29389 114.46 7.58022C114.46 7.86692 114.987 7.784 114.83 7.4142C114.617 6.89618 113.803 7.1832 113.896 7.83999C114.044 8.8851 115.144 9.66222 116.291 9.32924C117.438 8.99623 117.743 7.52481 116.717 6.59975ZM126.391 7.07143C126.631 6.6183 125.983 6.23028 125.576 6.59096C124.55 7.51599 124.855 8.98641 126.002 9.31948C127.149 9.6525 128.249 8.88478 128.397 7.83022C128.49 7.18277 127.685 6.89621 127.463 7.4142C127.306 7.78399 127.833 7.86691 127.833 7.58022C127.833 7.28465 128.092 7.37731 128.083 7.58999C128.037 8.51498 127.13 9.34779 126.104 9.01479C125.068 8.67246 125.133 7.44165 125.836 6.81264C126.104 6.58181 126.214 6.85017 126.104 6.97963C125.938 7.16453 126.252 7.33954 126.391 7.07143ZM109.197 7.15542C109.243 7.71945 109.067 7.98745 109.067 7.98745C109.447 8.52397 110.076 9.02358 110.076 9.02358C110.243 7.83981 109.734 7.75645 109.197 7.15542ZM133.096 7.15542C132.559 7.75644 132.05 7.83982 132.217 9.02358C132.217 9.02358 132.846 8.52397 133.226 7.98745C133.226 7.98745 133.05 7.71945 133.096 7.15542ZM120.684 5.88784C120.11 5.12041 119.381 5.65619 119.75 6.21108C119.898 6.39609 120.175 6.24817 120.073 6.07241C119.898 5.75838 120.157 5.65683 120.369 5.93374C120.915 6.65527 120.647 8.0342 119.593 8.33022C118.594 8.60771 117.928 7.83001 117.78 7.42299C117.632 7.01601 117.65 6.24924 117.909 6.31362C118.094 6.35062 117.91 6.56326 118.058 6.60952C118.372 6.71088 118.548 6.14645 118.132 6.0353C117.716 5.90579 117.474 6.19333 117.382 6.47085C117.114 7.25731 117.854 8.96782 119.519 8.65346C121.072 8.35745 121.192 6.55387 120.684 5.88784ZM122.543 6.20229C122.913 5.64733 122.182 5.11991 121.618 5.85952C121.11 6.52552 121.23 8.3392 122.783 8.62612C124.448 8.94063 125.188 7.22882 124.92 6.44252C124.827 6.17434 124.587 5.87856 124.171 6.00795C123.755 6.13745 123.921 6.70135 124.235 6.59975C124.383 6.5535 124.199 6.35011 124.384 6.30385C124.652 6.23971 124.661 7.00733 124.513 7.4142C124.365 7.82129 123.699 8.60717 122.7 8.32045C121.646 8.01512 121.378 6.63721 121.924 5.92495C122.137 5.64756 122.395 5.7492 122.22 6.06362C122.118 6.23936 122.395 6.38721 122.543 6.20229ZM107.689 6.86831C107.452 7.47247 107.956 8.01339 107.967 8.02456L107.828 8.21889C107.985 8.79236 108.346 8.62593 108.337 8.256C108.318 7.2662 107.689 6.86831 107.689 6.86831ZM134.604 6.86831C134.604 6.86831 133.975 7.2662 133.956 8.256C133.956 8.62593 134.308 8.79236 134.465 8.21889L134.326 8.03432C134.326 8.03432 134.844 7.47881 134.604 6.86831ZM111.25 3.74135C111.25 3.74135 111.703 4.39872 112.073 5.12026C112.443 5.84168 112.499 6.34084 113.461 7.71889C113.464 7.69487 113.572 6.73871 114.303 6.75698C114.469 6.39636 114.21 6.08195 113.877 6.16518C113.72 6.2114 113.618 6.10985 113.738 5.92495C113.932 5.62896 113.895 4.94465 113.285 4.64858C113.295 4.67179 113.787 5.81148 113.091 6.49819C113.085 6.49687 112.703 6.40972 112.712 5.73061C112.721 4.87957 113.054 4.04643 112.342 3.84292C112.342 3.84292 112.49 4.16734 112.397 4.57436C112.36 4.71294 112.203 4.68512 112.212 4.43569C112.221 4.19518 111.925 3.64885 111.25 3.74135ZM131.062 3.74135C130.368 3.64885 130.081 4.18593 130.09 4.43569C130.099 4.68506 129.942 4.71279 129.905 4.57436C129.813 4.16734 129.961 3.84292 129.961 3.84292C129.249 4.04643 129.582 4.87957 129.591 5.73061C129.6 6.41503 129.211 6.49819 129.211 6.49819C128.514 5.81861 129.01 4.66536 129.018 4.64858C128.407 4.93532 128.369 5.62889 128.563 5.92495C128.684 6.10996 128.582 6.20218 128.425 6.16518C128.092 6.08233 127.824 6.39651 128.009 6.75698C128.739 6.73871 128.848 7.69502 128.851 7.71889C129.803 6.34098 129.859 5.84158 130.229 5.12026C130.598 4.40797 131.062 3.74135 131.062 3.74135ZM109.363 5.81362C109.362 5.81661 109.263 6.05536 109.354 6.26674C109.354 6.26674 109.215 6.39663 109.067 6.39663C109.197 7.01637 109.984 7.06242 110.372 7.65444C110.374 7.63661 110.502 6.30978 109.363 5.81362ZM132.93 5.81362C131.782 6.31892 131.919 7.63645 131.921 7.65444C132.309 7.06245 133.096 7.01628 133.234 6.39663C133.088 6.39652 132.952 6.27013 132.948 6.26674C133.031 6.05534 132.931 5.81646 132.93 5.81362ZM107.865 5.61049C107.514 6.49813 108.142 6.59095 108.697 7.42299C108.91 6.04487 107.865 5.61049 107.865 5.61049ZM134.428 5.61049C134.428 5.61049 133.383 6.04487 133.596 7.42299C134.15 6.59094 134.779 6.49814 134.428 5.61049ZM106.607 5.30483C106.469 5.3881 106.34 5.98892 106.728 6.21108C107.245 6.5071 107.338 6.66518 107.338 6.66518C107.338 6.66518 107.699 5.98956 107.172 5.6935C106.839 5.50849 106.607 5.30483 106.607 5.30483ZM135.686 5.30483C135.686 5.30483 135.445 5.50849 135.121 5.6935C134.603 5.98956 134.955 6.66518 134.955 6.66518C134.955 6.66518 135.048 6.5071 135.565 6.21108C135.953 5.98891 135.824 5.38807 135.686 5.30483ZM106.2 6.47963C106.399 6.55185 106.545 6.51841 106.552 6.51674C106.427 6.43619 106.388 6.32099 106.386 6.31362L106.2 6.47963ZM127.223 1.58608C126.622 1.68793 126.289 2.30819 126.345 2.61342C126.382 2.83518 126.316 2.96472 126.261 2.89077C126.077 2.65139 126.031 2.15524 126.03 2.15053C125.593 2.27798 125.622 2.82646 125.623 2.84389C126.196 3.91695 125.567 4.75014 125.567 4.75014C124.838 4.17784 125.067 3.03432 125.068 3.02944C124.476 3.11269 124.328 3.8621 124.698 4.41713C123.986 4.36163 123.782 5.24978 124.217 5.62905C125.031 5.55581 125.249 6.40625 125.253 6.42397C126.178 5.76738 126.742 6.52651 126.742 6.52651C127.315 6.44318 127.325 5.79524 127.075 5.63784C126.909 5.52684 126.945 5.36965 127.121 5.32338C127.722 5.16615 127.87 4.69456 127.686 4.10268C127.029 5.11087 126.085 4.92592 126.085 4.92592C126.085 4.92592 126.012 4.15755 127.528 3.54702C127.963 3.37116 127.704 2.89956 127.704 2.89956C127.704 2.89956 127.565 3.07566 127.297 3.18667C127.14 3.25135 127.066 3.06632 127.186 2.97377C127.916 2.43725 127.223 1.58608 127.223 1.58608ZM135.907 6.31362C135.905 6.32101 135.866 6.4362 135.741 6.51674C135.748 6.51797 135.894 6.54284 136.093 6.47963L135.907 6.31362ZM115.079 1.56752C115.079 1.56752 114.386 2.42793 115.116 2.95522C115.236 3.04772 115.171 3.24211 115.005 3.16811C114.737 3.0571 114.599 2.881 114.599 2.881C114.599 2.881 114.34 3.3527 114.774 3.52846C116.282 4.14824 116.217 4.90737 116.217 4.90737C116.202 4.91008 115.26 5.08443 114.617 4.08413C114.432 4.676 114.58 5.14803 115.181 5.3146C115.356 5.3701 115.394 5.51804 115.228 5.62905C114.969 5.78631 114.987 6.43349 115.561 6.51674C115.57 6.5045 116.132 5.76389 117.067 6.39663C117.067 6.39663 117.271 5.53611 118.104 5.60073C118.52 5.23073 118.307 4.35254 117.604 4.39858C117.974 3.84358 117.826 3.09421 117.234 3.01088C117.236 3.0206 117.463 4.15126 116.735 4.73159C116.735 4.73159 116.116 3.89925 116.68 2.82631C116.68 2.82631 116.707 2.26149 116.272 2.13198C116.272 2.13198 116.226 2.6317 116.041 2.87221C115.986 2.94583 115.912 2.82577 115.958 2.59487C116.013 2.29885 115.68 1.66928 115.079 1.56752ZM104.767 1.52163C104.351 1.48482 104.249 1.70659 104.313 2.07631C104.338 2.23814 104.355 2.36521 104.068 2.38198H103.565C102.816 2.4116 102.678 2.6409 102.88 2.8351C103.037 2.99236 103.149 3.11293 102.927 3.27944C102.659 3.48292 102.936 4.04637 103.231 3.93569C104.129 3.60268 104.388 3.63966 104.73 4.40737C105.073 5.17516 105.155 5.84139 103.657 5.65639C103.657 5.65639 103.685 6.04531 104.646 5.99917C105.608 5.94366 105.775 4.44433 104.609 3.21401C104.342 2.9275 104.379 2.77003 104.563 2.5851C104.573 2.23374 104.573 1.91016 105.257 2.23354C105.867 2.52024 105.812 2.72362 105.461 2.70522C105.109 2.68672 104.859 2.95522 104.859 2.95522C104.859 2.95522 105.442 3.5108 105.683 4.49135C106.015 5.87861 105.211 6.31362 105.211 6.31362C105.221 6.32086 105.706 6.67641 106.2 6.02651C106.196 6.01681 105.973 5.4494 106.303 5.07338C106.299 5.0629 106.121 4.53054 106.552 3.89858C106.541 3.88768 106.232 3.57241 106.45 2.91811C106.439 2.91314 105.815 2.64323 106.117 1.9103C106.114 1.9087 105.505 1.577 104.767 1.52163ZM137.526 1.52163C136.786 1.58638 136.176 1.90978 136.176 1.90053C136.481 2.64057 135.843 2.90932 135.843 2.90932C136.063 3.56098 135.746 3.88493 135.741 3.88979C136.176 4.52797 135.99 5.0646 135.99 5.0646C136.323 5.44387 136.093 6.01772 136.093 6.01772C136.592 6.67384 137.082 6.30385 137.082 6.30385C137.075 6.29987 136.279 5.86279 136.61 4.48159C136.849 3.50839 137.425 2.95463 137.434 2.94643C137.434 2.94643 137.183 2.67793 136.832 2.69643C136.481 2.71482 136.435 2.51145 137.036 2.22475C137.711 1.90115 137.711 2.22483 137.729 2.57631C137.914 2.76122 137.961 2.91863 137.684 3.20522C136.509 4.43554 136.685 5.94315 137.646 5.9894C138.608 6.04481 138.636 5.65639 138.636 5.65639C137.137 5.84139 137.22 5.18441 137.562 4.40737C137.905 3.63041 138.174 3.60268 139.062 3.93569C139.357 4.04637 139.634 3.48292 139.366 3.27944C139.144 3.11293 139.247 2.99236 139.413 2.8351C139.644 2.61313 139.43 2.34499 138.367 2.38198C137.924 2.39114 137.943 2.26127 137.979 2.07631C138.044 1.70658 137.942 1.48481 137.526 1.52163ZM109.382 4.42592C109.382 4.68243 109.491 4.93015 109.493 4.92592C109.338 4.96234 109.121 4.88155 109.114 4.87905C109.262 5.61908 110.187 5.50861 110.658 6.39663C110.917 4.85179 109.382 4.42592 109.382 4.42592ZM132.911 4.42592C132.911 4.42592 131.376 4.85179 131.635 6.39663C132.106 5.49935 133.031 5.61908 133.179 4.87905C133.172 4.88165 132.954 4.96233 132.8 4.92592C132.8 4.92592 132.911 4.68494 132.911 4.42592ZM107.884 4.2228C107.828 5.12918 108.069 5.35146 108.91 5.90639C109.03 4.88886 108.411 4.69455 107.884 4.2228ZM134.409 4.2228C133.891 4.69455 133.263 4.87961 133.383 5.90639C134.215 5.35145 134.465 5.12918 134.409 4.2228ZM121.155 0.82729C121.142 0.835625 120.198 1.42473 120.758 2.15932C120.869 2.30733 120.758 2.3816 120.619 2.25209C120.499 2.15033 120.314 1.93781 120.203 2.02065C120.009 2.15938 120.074 2.4372 120.443 2.76088C121.193 3.40842 120.906 4.13979 120.906 4.13979C120.906 4.13979 119.686 4.02834 119.861 2.64077C119.445 2.92747 119.214 3.69493 119.777 4.05581C119.87 4.11131 119.953 4.241 119.759 4.28725C119.334 4.38003 119.121 5.02745 119.528 5.32338C119.972 5.0553 120.675 5.06473 121.146 5.88784C121.627 5.07398 122.321 5.05531 122.765 5.32338C123.171 5.02745 122.959 4.38002 122.534 4.28725C122.34 4.241 122.423 4.11131 122.516 4.05581C123.079 3.69493 122.848 2.91822 122.432 2.64077C122.606 4.01698 121.416 4.13791 121.396 4.13979C121.396 4.13979 121.109 3.40841 121.858 2.76088C122.228 2.43712 122.293 2.15941 122.099 2.02065C121.988 1.93839 121.793 2.15049 121.683 2.25209C121.544 2.37228 121.433 2.30731 121.544 2.15932C122.108 1.41937 121.155 0.82729 121.155 0.82729ZM113.091 5.13881C112.952 5.3239 112.924 5.73965 113.054 5.85073C113.22 5.749 113.313 5.33313 113.091 5.13881ZM129.202 5.13881C128.99 5.33313 129.073 5.749 129.239 5.85073C129.369 5.73043 129.331 5.32391 129.202 5.13881ZM107.209 4.38881C106.682 3.87099 106.561 4.82387 106.811 4.96303C107.227 5.18929 107.484 5.37968 107.495 5.38784C107.497 5.37081 107.556 4.7356 107.209 4.38881ZM135.491 4.96303C135.741 4.8243 135.621 3.8714 135.094 4.38881C134.747 4.7353 134.805 5.36977 134.807 5.38784C134.811 5.38426 135.061 5.19211 135.491 4.96303ZM104.36 4.94448C104.134 5.08944 104.173 5.27854 104.175 5.28627C104.397 5.3695 104.684 5.18488 104.36 4.94448ZM137.924 4.94448C137.609 5.17569 137.886 5.3694 138.108 5.28627C138.11 5.28091 138.161 5.09037 137.924 4.94448ZM109.086 3.40834C109.067 4.10204 110.214 4.19502 110.778 4.8146C110.76 3.38086 109.086 3.40834 109.086 3.40834ZM133.207 3.40834C133.207 3.40834 131.533 3.38086 131.515 4.8146C132.079 4.20426 133.226 4.10205 133.207 3.40834ZM114.895 3.9728C114.969 4.25031 115.477 4.61101 115.819 4.62026C115.681 4.29658 115.246 3.98214 114.895 3.9728ZM127.398 3.9728C127.056 3.98216 126.622 4.29659 126.474 4.62026C126.807 4.61101 127.315 4.25031 127.398 3.9728ZM108.892 4.3517C108.891 3.64887 108.475 3.0754 107.689 3.25112C107.909 4.138 108.869 4.33825 108.892 4.3517ZM134.604 3.25112C133.818 3.0754 133.402 3.64887 133.401 4.3517C133.425 4.34695 134.384 4.14662 134.604 3.25112ZM107.319 3.34389C106.977 2.9556 106.626 3.27015 106.922 3.75112C107.133 4.08117 107.544 4.18394 107.551 4.18569C107.551 4.18569 107.662 3.74166 107.319 3.34389ZM135.361 3.75112C135.667 3.27009 135.315 2.95537 134.964 3.34389C134.624 3.73895 134.731 4.17977 134.732 4.18569C134.732 4.18569 135.149 4.08386 135.361 3.75112ZM116.883 3.32534C116.698 3.45485 116.661 3.82522 116.818 4.12124C117.031 3.84372 117.031 3.49185 116.883 3.32534ZM125.41 3.32534C125.262 3.49185 125.262 3.84372 125.475 4.12124C125.632 3.82522 125.595 3.45485 125.41 3.32534ZM120.176 3.07534C120.102 3.22334 120.286 3.75065 120.656 3.77846C120.693 3.44568 120.388 3.10342 120.176 3.07534ZM122.108 3.07534C121.905 3.09383 121.59 3.44551 121.627 3.77846C121.997 3.75071 122.182 3.22335 122.108 3.07534ZM108.873 2.65932C109.086 3.32531 109.965 2.98332 110.501 3.36245C110.196 2.46515 109.53 2.77033 108.873 2.65932ZM133.42 2.65932C132.763 2.77033 132.097 2.46515 131.792 3.36245C132.328 2.98331 133.207 3.33456 133.42 2.65932ZM107.356 1.98452C107.256 2.58855 107.509 2.84849 107.514 2.85366C107.978 2.76257 108.407 2.86893 108.42 2.87221C108.152 2.02117 107.356 1.98452 107.356 1.98452ZM134.937 1.98452C134.937 1.98452 134.132 2.02117 133.873 2.87221C133.885 2.86908 134.315 2.7625 134.779 2.85366C134.784 2.84898 135.037 2.58017 134.937 1.98452ZM107.042 2.21499C107.079 1.95617 106.654 1.80828 106.45 2.07631C106.247 2.34457 106.404 2.83502 107.098 2.81655C107.097 2.81224 107.005 2.4632 107.042 2.21499ZM135.843 2.07631C135.639 1.80829 135.214 1.96541 135.251 2.21499C135.288 2.4632 135.196 2.81224 135.195 2.81655C135.889 2.83502 136.046 2.34457 135.843 2.07631ZM110.066 2.28042C109.447 1.17961 108.633 2.07651 108.263 1.97475C108.586 2.65001 109.447 2.16946 110.066 2.28042ZM134.039 1.97475C133.66 2.07635 132.846 1.17969 132.235 2.28042C132.846 2.16941 133.715 2.65002 134.039 1.97475ZM108.892 1.28139C108.884 1.27592 108.048 0.71216 107.403 1.62319C107.417 1.63241 107.996 2.02144 108.892 1.28139ZM134.89 1.62319C134.245 0.71216 133.409 1.27592 133.401 1.28139C134.297 2.02144 134.876 1.63241 134.89 1.62319ZM135.907 1.4103C135.565 1.1327 135.408 0.485164 134.687 0.808735C134.714 1.08624 135.371 1.70624 135.907 1.4103ZM107.606 0.808735C106.876 0.485172 106.728 1.13271 106.386 1.4103C106.922 1.69699 107.579 1.08624 107.606 0.808735ZM106.487 0.587056C105.969 0.392847 105.738 1.04995 105.738 1.04995L106.062 1.20717C106.422 0.938909 106.487 0.587056 106.487 0.587056ZM136.555 1.04995C136.555 1.04995 136.324 0.392847 135.806 0.587056C135.87 0.837185 136.021 1.05692 136.231 1.20717L136.555 1.04995Z" fill="currentColor"/>
<path fill-rule="evenodd" clip-rule="evenodd" d="M330.332 1.14858L346.297 21.5265L346.384 5.25991C346.384 2.54704 345.653 2.33607 343.619 1.84389C343.482 1.58611 343.486 1.39853 343.619 1.14858H351.208C351.337 1.34779 351.368 1.62517 351.208 1.84389C349.095 2.32434 348.439 2.61329 348.439 5.22573V32.2296L347.822 32.6388L327.255 6.51772L327.276 27.379C327.276 29.9076 327.888 30.2981 330.063 30.7628C330.178 30.9989 330.185 31.2156 330.063 31.4601H322.462C322.281 31.2155 322.318 30.97 322.462 30.7628C324.651 30.262 325.215 29.9293 325.215 27.379V5.22573C325.215 2.58985 324.505 2.31653 322.452 1.8517C322.298 1.62515 322.306 1.3594 322.452 1.14467L330.332 1.14858ZM346.297 26.9943V25.4249L328.519 2.76674H327.357L346.297 26.9943Z" fill="currentColor"/>
<path fill-rule="evenodd" clip-rule="evenodd" d="M180.07 1.00014C180.073 1.00033 181.997 1.1476 183.992 1.1476H188.464C188.613 1.34399 188.617 1.64095 188.464 1.8517C186.53 2.22032 185.716 2.67624 185.716 4.87514V27.5548C185.716 29.9658 186.44 30.3467 188.487 30.7658C188.619 31.0426 188.619 31.1776 188.487 31.4669H177.235C177.09 31.2186 177.11 30.9234 177.235 30.7658C179.34 30.3361 180.007 29.8738 180.007 27.5373V5.82045L169.616 32.0043H169.2L158.019 8.01967V27.59C158.019 29.8742 158.695 30.3285 160.786 30.7736C160.929 31.0237 160.914 31.2535 160.786 31.4601H153.191C153.082 31.2575 153.051 31.0197 153.191 30.7736C155.297 30.3245 155.958 29.871 155.958 27.59V4.99624C155.958 2.6596 155.195 2.23061 153.195 1.8478C153.078 1.6187 153.059 1.44544 153.195 1.1476H158.019C159.255 1.1476 161.137 1.00014 161.137 1.00014L171.255 23.0285C171.303 22.9087 179.84 1.56754 180.07 1.00014ZM182.413 29.8331H183.349V2.76674H182.413V29.8331ZM169.621 27.1466L170.042 26.0539L159.272 2.76674H158.144L169.621 27.1466Z" fill="currentColor"/>
<path fill-rule="evenodd" clip-rule="evenodd" d="M237.478 0.640767C240.436 0.640815 242.678 1.60268 243.937 1.60268C244.864 1.60259 245.048 1.23446 245.239 0.929829H245.622C245.632 0.960285 247.544 7.00029 248.672 10.6281C248.519 10.8749 248.372 10.9296 248.059 10.8117C246.959 8.61229 243.249 2.70277 238.302 2.42788H237.478C231.294 2.42788 225.152 7.37599 225.152 16.5851C225.153 22.9077 228.683 30.4669 237.34 30.4669C239.676 30.4669 242.699 29.9173 242.699 24.6945V21.8869C242.699 19.3751 242.105 18.9698 239.938 18.5089C239.78 18.2655 239.769 18.0487 239.938 17.8126H251.179C251.324 18.0041 251.316 18.3715 251.179 18.5089C249.031 18.9492 248.418 19.3634 248.418 21.8869V31.4669H247.769L245.448 28.9552C245.191 29.1189 244.922 29.3064 244.634 29.507C243.23 30.4854 240.841 32.254 236.652 32.254C225.522 32.2539 219.431 24.9692 219.431 16.5851C219.431 8.20069 224.901 0.640767 237.478 0.640767ZM230.057 3.25209C227.171 3.93934 221.692 8.75024 221.692 16.4474C221.692 24.007 226.346 28.5429 230.469 30.0548C226.758 27.8557 222.715 23.8696 222.715 16.4474C222.715 9.02514 227.583 4.62659 230.057 3.25209ZM245.09 25.7833L246.03 26.7853V19.6085H245.09V25.7833Z" fill="currentColor"/>
<path fill-rule="evenodd" clip-rule="evenodd" d="M5.05176 1.00014C6.38523 1.09313 8.41114 1.13979 9.65234 1.13979H24.6543V1.37221L8.27246 29.8331H11.1709C18.5819 29.8331 21.7563 27.6058 24.7002 23.2042C24.9257 23.1113 25.2026 23.2508 25.249 23.4367C23.9617 26.1696 22.7675 28.8619 21.752 31.5949C20.0953 31.5019 18.3917 31.4545 16.7402 31.4494H1V31.2169L17.3818 2.76186H15.2227C7.21675 2.76186 5.09832 5.1691 2.29297 9.25014C2.10833 9.34313 1.78444 9.2037 1.73828 9.01772C2.97943 6.28488 4.12858 3.64 5.05176 1.00014ZM4.50488 29.8331H5.59277L21.1025 2.76674H20.0098L4.50488 29.8331Z" fill="currentColor"/>
<path fill-rule="evenodd" clip-rule="evenodd" d="M47.2266 1.00014C48.1959 3.73305 49.3914 6.42468 50.6787 9.06459C50.6786 9.34329 50.3557 9.48285 50.125 9.34389C46.2578 4.5703 43.4054 2.76186 36.502 2.76186H34.9375V15.1398H38.9434C42.3489 15.1398 44.2368 14.2096 46.2627 11.4767C46.5395 11.3839 46.7702 11.5237 46.8164 11.756L44.8828 16.0187L46.8164 20.2853C46.7651 20.559 46.4934 20.6525 46.2627 20.5597C44.2368 17.8268 42.3489 16.9015 38.9434 16.9015H34.9375V29.8331H36.7793C43.2211 29.8331 47.3141 28.6756 50.9043 23.3908C51.135 23.303 51.4117 23.3904 51.458 23.6691C50.1707 26.2625 48.9701 28.9084 48.0059 31.5949C47.0878 31.5019 45.2013 31.4552 44.2832 31.4552H26.4756C26.3371 31.2692 26.3371 30.943 26.4756 30.757C28.9114 30.292 29.2344 29.548 29.2344 27.3732V5.22085C29.2344 3.04081 28.9115 2.30202 26.4756 1.83706C26.3371 1.65108 26.3371 1.32578 26.4756 1.13979H43.498C44.3289 1.13979 46.534 1.09312 47.2266 1.00014ZM31.6201 29.8331H32.541V2.76674L31.6201 2.76186V29.8331Z" fill="currentColor"/>
<path fill-rule="evenodd" clip-rule="evenodd" d="M286.344 1.00014C287.677 1.09313 289.703 1.13979 290.944 1.13979H305.946V1.37221L289.565 29.8331H292.463C299.874 29.8331 303.048 27.6058 305.992 23.2042C306.218 23.1113 306.495 23.2508 306.541 23.4367C305.254 26.1696 304.059 28.8619 303.043 31.5949C301.387 31.5019 299.684 31.4545 298.032 31.4494H282.292V31.2169L298.674 2.76186H296.515C288.509 2.76186 286.39 5.16887 283.584 9.25014C283.399 9.34301 283.077 9.20366 283.03 9.01772C284.272 6.28488 285.421 3.63999 286.344 1.00014ZM285.797 29.8331H286.885L302.395 2.76674H301.302L285.797 29.8331Z" fill="currentColor"/>
<path fill-rule="evenodd" clip-rule="evenodd" d="M216.756 27.4171C217.718 30.0284 218.305 30.3127 220.414 30.758C220.551 30.9337 220.57 31.2574 220.414 31.4591H208.09C207.942 31.2146 207.946 30.996 208.09 30.7619C210.772 30.2618 211.539 29.3413 210.852 27.4171L208.517 20.4337H198.397C198.382 20.4781 196.891 24.988 196.1 27.3839C195.305 29.7916 196.695 30.3595 198.856 30.758C198.988 30.9767 199.004 31.1756 198.856 31.4669H190.074C189.934 31.2694 189.918 30.9922 190.074 30.7658C192.074 30.3325 192.675 30.0253 193.752 27.3839L202.011 3.88588C202.353 2.99415 201.853 2.86539 201.004 2.86538L200.827 2.55581L207.168 0.114399L216.756 27.4171ZM204.868 3.22573L214.265 29.8331H215.258L205.735 2.86538L204.868 3.22573ZM198.946 18.6466H207.878L203.383 5.88002L198.946 18.6466Z" fill="currentColor"/>
<path fill-rule="evenodd" clip-rule="evenodd" d="M64.8955 1.14467C65.034 1.33066 65.034 1.65595 64.8955 1.84194C62.4596 2.30688 62.1367 3.04584 62.1367 5.22573V27.379C62.1367 29.5537 62.4596 30.2979 64.8955 30.7628C65.034 30.954 65.034 31.2741 64.8955 31.4601H53.6689C53.5305 31.2741 53.5305 30.9488 53.6689 30.7628C56.1048 30.2979 56.4277 29.5537 56.4277 27.379V5.22573C56.4277 3.04586 56.1099 2.30688 53.6689 1.84194C53.5305 1.65595 53.5305 1.33066 53.6689 1.14467H64.8955ZM58.8096 29.8331H59.7451V2.76674H58.8096V29.8331Z" fill="currentColor"/>
<path fill-rule="evenodd" clip-rule="evenodd" d="M88.2734 1.00502C89.2838 3.64478 90.4374 6.24341 91.7246 8.79018C91.7246 9.02266 91.4019 9.16247 91.166 9.06948C87.581 4.20307 84.7242 2.76681 81.7803 2.76674V27.379C81.7803 29.5589 82.0981 30.2979 84.5391 30.7628C84.6775 31.0005 84.6775 31.2276 84.5391 31.4601H73.3125C73.174 31.2741 73.174 30.9488 73.3125 30.7628C75.7536 30.2979 76.0771 29.5537 76.0771 27.379V2.76674C73.1332 2.76674 70.373 4.20289 66.6904 9.06948C66.4596 9.1622 66.1367 9.02255 66.1367 8.79018C67.4291 6.19683 68.6247 3.60354 69.5889 1.00502C70.6967 1.098 73.8706 1.14466 74.9736 1.14467H82.8877C84.5443 1.14467 86.663 1.09802 88.2734 1.00502ZM78.4697 29.8331H79.4004V2.76674H78.4697V29.8331Z" fill="currentColor"/>
<path fill-rule="evenodd" clip-rule="evenodd" d="M319.671 1.14467C319.81 1.33066 319.81 1.65595 319.671 1.84194C317.235 2.30689 316.912 3.0459 316.912 5.22573V27.379C316.912 29.5537 317.235 30.2979 319.671 30.7628C319.81 30.954 319.81 31.2741 319.671 31.4601H308.444C308.306 31.2741 308.306 30.9488 308.444 30.7628C310.88 30.2979 311.203 29.5538 311.203 27.379V5.22573C311.203 3.04581 310.886 2.30688 308.444 1.84194C308.306 1.65595 308.306 1.33064 308.444 1.14467H319.671ZM313.585 29.8331H314.521V2.76674H313.585V29.8331Z" fill="currentColor"/>
<path fill-rule="evenodd" clip-rule="evenodd" d="M276.846 27.4171C277.808 30.0284 278.395 30.3127 280.504 30.758C280.641 30.9337 280.66 31.2574 280.504 31.4591H268.18C268.032 31.2146 268.036 30.9961 268.18 30.7619C270.862 30.2618 271.629 29.3413 270.942 27.4171L268.607 20.4337H258.487C258.472 20.4781 256.981 24.988 256.19 27.3839C255.395 29.7916 256.786 30.3595 258.946 30.758C259.078 30.9767 259.094 31.1757 258.946 31.4669H250.164C250.024 31.2694 250.008 30.9922 250.164 30.7658C252.164 30.3325 252.767 30.0419 253.842 27.3839L262.101 3.8859C262.443 2.99416 261.943 2.8654 261.094 2.86539L260.917 2.55582L267.258 0.11441L276.846 27.4171ZM264.958 3.22574L274.355 29.8332H275.348L265.826 2.86539L264.958 3.22574ZM259.036 18.6466H267.968L263.473 5.88004L259.036 18.6466Z" fill="currentColor"/>
</svg>
