<svg width="210" height="34" viewBox="0 0 210 34" fill="none" xmlns="http://www.w3.org/2000/svg">
<g clip-path="url(#clip0_2806_5919)">
<path d="M134.651 22.7078C134.651 25.5711 135.482 26.9821 137.557 26.9822C140.586 26.9822 141.375 24.4086 141.375 21.1716V9.96754H147.891V31.3396H141.956L141.707 28.2273H141.624C140.67 29.8873 138.967 31.8377 135.149 31.8377C130.751 31.8375 128.136 29.1815 128.136 22.9568V9.96754H134.651V22.7078ZM171.761 31.3396H166.034L165.536 28.6834H165.453C164.582 30.4263 162.423 31.8376 159.685 31.8377C154.705 31.8377 151.219 28.9321 151.219 21.0886C151.219 13.5774 154.622 9.46949 160.017 9.46949C162.755 9.46956 164.25 10.5479 165.204 11.9587H165.245V0.87867H171.761V31.3396ZM196.785 9.46949C203.176 9.46968 207.201 13.2877 207.201 20.2595C207.201 27.9368 202.926 31.8377 196.245 31.8377C189.398 31.8376 185.746 27.7293 185.746 20.6746C185.746 13.3706 190.726 9.46949 196.785 9.46949ZM6.05176 0.882576C7.38523 0.975565 9.41114 1.02222 10.6523 1.02222H25.6543V1.25465L9.27246 29.7156H12.1709C19.5819 29.7155 22.7563 27.4882 25.7002 23.0867C25.9257 22.9938 26.2025 23.1333 26.249 23.3191C24.9617 26.052 23.7675 28.7444 22.752 31.4773C21.0953 31.3843 19.3917 31.3379 17.7402 31.3328H2V31.0994L18.3818 2.64429H16.2227C8.21681 2.64429 6.09829 5.05159 3.29297 9.13258C3.10833 9.22557 2.78444 9.08614 2.73828 8.90015C3.97943 6.16731 5.12858 3.52244 6.05176 0.882576ZM48.2266 0.882576C49.1959 3.61551 50.3914 6.30709 51.6787 8.94703C51.6787 9.22582 51.3558 9.36535 51.125 9.22633C47.2578 4.45274 44.4054 2.64429 37.502 2.64429H35.9375V15.0222H39.9434C43.3489 15.0222 45.2368 14.0929 47.2627 11.3601C47.5395 11.2672 47.7701 11.4061 47.8164 11.6384L45.8828 15.9011L47.8164 20.1677C47.7651 20.4414 47.4934 20.535 47.2627 20.4421C45.2368 17.7092 43.3489 16.7839 39.9434 16.7839H35.9375V29.7156H37.7793C44.2211 29.7156 48.3141 28.5582 51.9043 23.2732C52.135 23.1855 52.4116 23.2729 52.458 23.5515C51.1707 26.145 49.9701 28.7909 49.0059 31.4773C48.0878 31.3844 46.2013 31.3377 45.2832 31.3377H27.4756C27.3371 31.1517 27.3371 30.8264 27.4756 30.6404C29.9114 30.1755 30.2343 29.4311 30.2344 27.2566V5.10328C30.2344 2.92331 29.9115 2.18445 27.4756 1.71949C27.3371 1.53351 27.3371 1.20821 27.4756 1.02222H44.498C45.3289 1.02222 47.534 0.975553 48.2266 0.882576ZM65.8955 1.02711C66.034 1.21307 66.0339 1.53838 65.8955 1.72437C63.4596 2.18931 63.1368 2.92837 63.1367 5.10816V27.2615C63.1367 29.4363 63.4596 30.1803 65.8955 30.6453C66.034 30.8364 66.034 31.1566 65.8955 31.3425H54.6689C54.5305 31.1566 54.5305 30.8313 54.6689 30.6453C57.1048 30.1803 57.4277 29.4362 57.4277 27.2615V5.10816C57.4277 2.92839 57.1099 2.18931 54.6689 1.72437C54.5305 1.53838 54.5305 1.21308 54.6689 1.02711H65.8955ZM89.2734 0.887459C90.2838 3.5274 91.4373 6.12664 92.7246 8.67359C92.7243 8.90586 92.4018 9.04486 92.166 8.95191C88.5811 4.08557 85.7242 2.64925 82.7803 2.64918V27.2615C82.7803 29.4414 83.0981 30.1803 85.5391 30.6453C85.6775 30.8829 85.6775 31.1101 85.5391 31.3425H74.3125C74.174 31.1566 74.174 30.8313 74.3125 30.6453C76.7536 30.1803 77.0771 29.4363 77.0771 27.2615V2.64918C74.1332 2.64918 71.373 4.08533 67.6904 8.95191C67.4598 9.04463 67.137 8.90576 67.1367 8.67359C68.4292 6.08015 69.6246 3.48607 70.5889 0.887459C71.6967 0.980431 74.8706 1.0271 75.9736 1.02711H83.8877C85.5443 1.02711 87.663 0.980451 89.2734 0.887459ZM126.088 31.3396H119.199L116.875 24.3259H106.334L104.093 31.3396H97.4111L107.454 0.87867H115.837L126.088 31.3396ZM182.479 31.3396H175.922V9.96754H182.479V31.3396ZM21.0098 2.64918L5.50488 29.7156H6.59277L22.1025 2.64918H21.0098ZM32.6201 29.7156H33.541V2.64918L32.6201 2.64429V29.7156ZM59.8096 2.64918V29.7156H60.7451V2.64918H59.8096ZM79.4697 2.64918V29.7156H80.4004V2.64918H79.4697ZM161.718 13.7019C159.394 13.7019 157.982 15.5697 157.982 21.0476C157.982 25.9031 159.228 27.6873 161.594 27.6873C164.291 27.687 165.453 25.0728 165.453 20.6326C165.453 15.5281 164.125 13.7019 161.718 13.7019ZM196.619 14.1589C193.839 14.1589 192.469 16.5241 192.469 20.6326C192.469 24.9071 193.548 27.3142 196.494 27.3142C199.316 27.3142 200.519 24.7413 200.52 20.5086C200.52 16.4418 199.316 14.1592 196.619 14.1589ZM107.745 19.1804H115.422L111.562 7.06226H111.479L107.745 19.1804ZM182.479 6.14918H175.922V0.87867H182.479V6.14918Z" fill="currentColor"/>
</g>
<defs>
<clipPath id="clip0_2806_5919">
<rect width="209.201" height="34" fill="currentColor"/>
</clipPath>
</defs>
</svg>
