<svg width="215" height="40" viewBox="0 0 215 40" fill="none" xmlns="http://www.w3.org/2000/svg">
<path d="M138.323 9.58728C142.556 9.58738 146.208 12.3675 146.208 20.1693C146.208 28.8012 142.266 31.9554 137.493 31.9554C135.169 31.9554 133.094 31.0427 132.181 29.5902H132.098V39.0521H125.707V10.0853H131.559L131.849 12.7406H131.932C133.135 10.8731 135.211 9.58728 138.323 9.58728ZM110.768 0.415405C116.951 0.415405 120.77 3.15472 121.683 9.00623L115.125 10.2924C114.627 7.17996 113.05 5.68593 110.478 5.68591C108.029 5.68591 106.701 6.80633 106.701 8.88123C106.701 11.4126 109.108 12.2011 112.013 12.9066C116.453 14.0271 122.014 15.0649 122.015 21.8705C122.015 28.5935 116.993 31.9554 110.685 31.9554C103.588 31.9553 99.4799 29.0084 98.6084 22.5345L105.539 21.5804C105.996 24.5269 107.075 26.5599 110.893 26.5599C113.632 26.5599 115.125 25.3151 115.125 23.1156C115.125 20.2939 112.387 19.5466 109.191 18.7582C104.792 17.6792 99.5625 16.4343 99.5625 9.54529C99.5626 3.90147 104.169 0.415548 110.768 0.415405ZM170.234 9.58728C177.165 9.58749 180.318 14.3182 179.488 21.9955H166.042C166.084 25.2739 167.163 27.266 170.068 27.266C172.06 27.2659 173.346 26.3528 173.803 24.0707L179.364 24.6097C178.202 30.71 173.72 31.9554 169.819 31.9554C162.557 31.9554 159.361 27.3904 159.361 20.9994C159.361 13.8614 163.511 9.58728 170.234 9.58728ZM203.669 9.58728C210.599 9.58728 213.754 14.318 212.924 21.9955H199.478C199.519 25.2739 200.598 27.266 203.503 27.266C205.495 27.266 206.782 26.353 207.238 24.0707L212.799 24.6097C211.637 30.7102 207.155 31.9554 203.254 31.9554C195.991 31.9554 192.796 27.3904 192.796 20.9994C192.796 13.8614 196.946 9.58729 203.669 9.58728ZM6.25293 1.00037C7.5864 1.09336 9.61231 1.14001 10.8535 1.14001H25.8555V1.37244L9.47363 29.8334H12.3721C19.7831 29.8333 22.9574 27.606 25.9014 23.2045C26.1269 23.1116 26.4037 23.2511 26.4502 23.4369C25.1628 26.1698 23.9686 28.8622 22.9531 31.5951C21.2965 31.5021 19.5929 31.4557 17.9414 31.4506H2.20117V31.2172L18.583 2.76208H16.4238C8.41798 2.76208 6.29946 5.16938 3.49414 9.25037C3.3095 9.34336 2.98561 9.20393 2.93945 9.01794C4.1806 6.2851 5.32976 3.64023 6.25293 1.00037ZM48.4277 1.00037C49.3971 3.7333 50.5925 6.42488 51.8799 9.06482C51.8799 9.34361 51.5569 9.48314 51.3262 9.34412C47.459 4.57053 44.6066 2.76208 37.7031 2.76208H36.1387V15.14H40.1445C43.55 15.14 45.438 14.2107 47.4639 11.4779C47.7407 11.385 47.9713 11.5239 48.0176 11.7562L46.084 16.0189L48.0176 20.2855C47.9663 20.5592 47.6946 20.6527 47.4639 20.5599C45.438 17.827 43.5501 16.9017 40.1445 16.9017H36.1387V29.8334H37.9805C44.4223 29.8334 48.5153 28.6759 52.1055 23.391C52.3361 23.3033 52.6128 23.3907 52.6592 23.6693C51.3718 26.2628 50.1713 28.9087 49.207 31.5951C48.289 31.5021 46.4025 31.4555 45.4844 31.4554H27.6768C27.5383 31.2695 27.5383 30.9442 27.6768 30.7582C30.1126 30.2932 30.4355 29.5489 30.4355 27.3744V5.22107C30.4355 3.0411 30.1126 2.30224 27.6768 1.83728C27.5383 1.6513 27.5383 1.326 27.6768 1.14001H44.6992C45.5301 1.14001 47.7352 1.09334 48.4277 1.00037ZM66.0967 1.1449C66.2351 1.33086 66.2351 1.65617 66.0967 1.84216C63.6608 2.3071 63.3379 3.04616 63.3379 5.22595V27.3793C63.3379 29.5541 63.6607 30.2981 66.0967 30.7631C66.2352 30.9542 66.2352 31.2743 66.0967 31.4603H54.8701C54.7316 31.2743 54.7316 30.949 54.8701 30.7631C57.306 30.2981 57.6289 29.554 57.6289 27.3793V5.22595C57.6289 3.04618 57.3111 2.3071 54.8701 1.84216C54.7317 1.65617 54.7316 1.33087 54.8701 1.1449H66.0967ZM89.4746 1.00525C90.485 3.64519 91.6384 6.24443 92.9258 8.79138C92.9255 9.02365 92.603 9.16265 92.3672 9.0697C88.7822 4.20337 85.9253 2.76704 82.9814 2.76697V27.3793C82.9815 29.5592 83.2992 30.2981 85.7402 30.7631C85.8787 31.0007 85.8787 31.2278 85.7402 31.4603H74.5137C74.3752 31.2743 74.3752 30.949 74.5137 30.7631C76.9548 30.2981 77.2783 29.5541 77.2783 27.3793V2.76697C74.3343 2.76697 71.5742 4.20312 67.8916 9.0697C67.6609 9.16242 67.3382 9.02355 67.3379 8.79138C68.6304 6.19794 69.8258 3.60386 70.79 1.00525C71.8979 1.09822 75.0718 1.14489 76.1748 1.1449H84.0889C85.7455 1.1449 87.8641 1.09824 89.4746 1.00525ZM156.094 31.4574H149.537V10.0853H156.094V31.4574ZM189.529 31.4574H182.972V0.99646H189.529V31.4574ZM21.2109 2.76697L5.70605 29.8334H6.79395L22.3037 2.76697H21.2109ZM32.8213 29.8334H33.7422V2.76697L32.8213 2.76208V29.8334ZM60.0107 2.76697V29.8334H60.9463V2.76697H60.0107ZM79.6709 2.76697V29.8334H80.6016V2.76697H79.6709ZM136.04 13.8617C133.177 13.862 132.057 16.5176 132.057 20.5844C132.057 25.5644 133.302 27.681 135.709 27.681C138.323 27.6807 139.568 25.2737 139.568 20.2113C139.568 15.7708 138.406 13.8617 136.04 13.8617ZM169.902 13.8197C167.412 13.8197 166.209 15.6458 166.084 18.2601H173.264C173.43 15.148 172.06 13.8199 169.902 13.8197ZM203.337 13.8197C200.847 13.8197 199.643 15.6458 199.519 18.2601H206.698C206.864 15.1478 205.495 13.8197 203.337 13.8197ZM156.094 6.26697H149.537V0.99646H156.094V6.26697Z" fill="currentColor"/>
</svg>
