<svg width="300" height="34" viewBox="0 0 300 34" fill="none" xmlns="http://www.w3.org/2000/svg">
<path d="M246.613 19.5726C246.636 21.6715 247.193 23.2241 248.286 24.2289C249.379 25.2336 250.796 25.7357 252.535 25.7357C254.297 25.758 255.735 25.2668 256.851 24.2621C257.966 23.2573 258.523 21.6938 258.523 19.5726L258.557 1.01794H265.783V19.4056C265.783 22.152 265.215 24.4745 264.077 26.3724C262.976 28.2105 261.342 29.6705 259.394 30.559C257.246 31.4728 254.935 31.9437 252.602 31.9437C250.268 31.9437 247.958 31.4727 245.811 30.559C243.85 29.6601 242.205 28.1895 241.093 26.3392C239.955 24.4636 239.387 22.152 239.387 19.4056V1.01794H246.613V19.5726ZM115.937 0.348017C119.059 0.348023 121.735 0.92814 123.966 2.08923C126.081 3.12819 127.882 4.7122 129.185 6.67809C130.395 8.55146 131.141 10.6873 131.359 12.9076H124.066C123.781 11.0556 122.858 9.36158 121.457 8.11852C120.074 6.93517 118.223 6.34319 115.903 6.34313C114.394 6.3232 112.91 6.72927 111.621 7.51501C110.327 8.32028 109.292 9.48397 108.644 10.8646C107.893 12.5014 107.526 14.2888 107.572 16.0892C107.511 17.9343 107.878 19.769 108.644 21.4486C109.278 22.8309 110.304 23.9964 111.595 24.8002C112.885 25.604 114.384 26.0108 115.903 25.9701C118.223 25.97 120.107 25.3895 121.49 24.1615C122.908 22.8994 123.842 21.1821 124.133 19.305H131.46C131.234 21.5133 130.488 23.6366 129.285 25.5013C127.984 27.5055 126.17 29.1249 124.032 30.1908C121.802 31.3517 119.125 31.932 116.003 31.932C112.814 31.9319 110.026 31.2619 107.64 29.9222C105.299 28.6149 103.383 26.6617 102.119 24.2953C100.782 21.7821 100.103 18.9705 100.146 16.1234C100.105 13.3124 100.773 10.5361 102.086 8.05114C103.346 5.69382 105.249 3.74246 107.572 2.42419C109.981 1.0398 112.769 0.348017 115.937 0.348017ZM282.945 0.348017C285.644 0.348017 287.919 0.794712 289.771 1.68786C291.478 2.45491 292.946 3.66995 294.02 5.20446C295.02 6.67045 295.641 8.36274 295.826 10.1283H288.7C288.187 7.09171 286.236 5.57272 282.846 5.57263C281.195 5.57263 279.968 5.90767 279.165 6.57751C278.8 6.8513 278.503 7.20482 278.294 7.61071C278.085 8.01683 277.971 8.46567 277.961 8.92224C277.937 9.35405 278.016 9.78534 278.19 10.181C278.365 10.5768 278.63 10.9259 278.965 11.1996C279.634 11.7354 280.86 12.1486 282.645 12.4388L286.325 13.0082C289.648 13.4994 292.202 14.5263 293.986 16.0892C295.771 17.6522 296.629 19.7741 296.629 22.4535C296.648 24.2214 296.097 25.9486 295.057 27.3773C294.008 28.8285 292.492 29.9445 290.507 30.7259C288.522 31.5074 286.146 31.8988 283.381 31.8988C279.188 31.9211 275.931 30.9388 273.611 28.9515C271.292 26.9643 270.021 24.2396 269.798 20.7787H276.823C277.024 22.6543 277.626 24.106 278.63 25.1332C279.634 26.1602 281.195 26.6732 283.313 26.6732C285.276 26.6732 286.726 26.3273 287.663 25.6351C288.06 25.3613 288.391 25.0022 288.632 24.5843C288.873 24.1664 289.018 23.7001 289.057 23.2191C289.095 22.738 289.026 22.2541 288.854 21.8031C288.683 21.3522 288.413 20.9452 288.064 20.6117C287.395 19.9865 286.202 19.5398 284.484 19.2718L280.437 18.6019C277.069 18.0437 274.649 17.0159 273.177 15.5199C271.705 14.0239 270.969 12.0145 270.969 9.49157C270.951 7.83793 271.455 6.22057 272.407 4.8695C273.476 3.41454 274.922 2.27954 276.589 1.58727C278.595 0.725591 280.763 0.303071 282.945 0.348017ZM6.05176 0.852899C7.38523 0.945889 9.41114 0.992545 10.6523 0.992548H25.6543V1.22497L9.27246 29.6859H12.1709C19.5819 29.6858 22.7563 27.4585 25.7002 23.057C25.9257 22.9641 26.2025 23.1037 26.249 23.2894C24.9618 26.0221 23.7674 28.714 22.752 31.4466C21.0953 31.3537 19.3917 31.3073 17.7402 31.3021H2V31.0697L18.3818 2.61462H16.2227C8.2168 2.61462 6.09829 5.0219 3.29297 9.1029C3.10833 9.19589 2.78444 9.05646 2.73828 8.87048C3.97941 6.13767 5.12859 3.49272 6.05176 0.852899ZM48.2266 0.852899C49.1959 3.58577 50.3914 6.27747 51.6787 8.91735C51.6786 9.19603 51.3557 9.33559 51.125 9.19665C47.2578 4.42312 44.4054 2.61462 37.502 2.61462H35.9375V14.9925H39.9434C43.3489 14.9925 45.2368 14.0624 47.2627 11.3295C47.5394 11.2367 47.7702 11.3765 47.8164 11.6088L45.8828 15.8715L47.8164 20.1381C47.7651 20.4117 47.4934 20.5052 47.2627 20.4125C45.2368 17.6796 43.3489 16.7543 39.9434 16.7543H35.9375V29.6859H37.7793C44.2211 29.6859 48.3141 28.5284 51.9043 23.2435C52.135 23.1558 52.4116 23.2432 52.458 23.5218C51.1707 26.1152 49.9701 28.7603 49.0059 31.4466C48.0877 31.3537 46.2013 31.308 45.2832 31.308H27.4756C27.3372 31.122 27.3371 30.7957 27.4756 30.6097C29.9114 30.1448 30.2344 29.4008 30.2344 27.2259V5.0736C30.2344 2.89367 29.9114 2.15477 27.4756 1.68981C27.3372 1.50382 27.3371 1.17851 27.4756 0.992548H44.498C45.3289 0.992546 47.534 0.945875 48.2266 0.852899ZM165.518 31.3295H157.622L155.28 24.7982H142.132L139.79 31.3295H132.464L144.508 1.01794H153.44L165.518 31.3295ZM224.792 1.01794C226.588 1.03897 228.36 1.41932 229.986 2.18981C231.569 2.94922 232.912 4.13127 233.867 5.60583C234.818 7.10591 235.306 8.85377 235.271 10.6302C235.312 12.4238 234.836 14.1911 233.9 15.7211C232.957 17.1891 231.609 18.3526 230.02 19.0707C228.192 19.899 226.204 20.3111 224.198 20.2767H216.737V31.3295H209.511V1.01794H224.792ZM65.8955 0.997431C66.034 1.18339 66.0339 1.5087 65.8955 1.6947C63.4596 2.15963 63.1368 2.89869 63.1367 5.07849V27.2318C63.1367 29.4065 63.4596 30.1507 65.8955 30.6156C66.0339 30.8067 66.0339 31.1269 65.8955 31.3129H54.6689C54.5305 31.1269 54.5305 30.8016 54.6689 30.6156C57.1048 30.1507 57.4277 29.4065 57.4277 27.2318V5.07849C57.4277 2.89871 57.1099 2.15963 54.6689 1.6947C54.5305 1.5087 54.5305 1.18339 54.6689 0.997431H65.8955ZM89.2734 0.857782C90.2837 3.4975 91.4374 6.09619 92.7246 8.64294C92.7246 8.87541 92.4019 9.01522 92.166 8.92224C88.5811 4.05589 85.7242 2.61957 82.7803 2.6195V27.2318C82.7803 29.4116 83.0981 30.1507 85.5391 30.6156C85.6775 30.8532 85.6775 31.0804 85.5391 31.3129H74.3125C74.1741 31.1269 74.1741 30.8016 74.3125 30.6156C76.7535 30.1507 77.0771 29.4065 77.0771 27.2318V2.6195C74.1332 2.6195 71.3729 4.05572 67.6904 8.92224C67.4596 9.01497 67.1367 8.87531 67.1367 8.64294C68.4291 6.04963 69.6247 3.45626 70.5889 0.857782C71.6967 0.950754 74.8706 0.99742 75.9736 0.997431H83.8877C85.5443 0.997431 87.663 0.950774 89.2734 0.857782ZM186.227 17.0941L191.847 0.983759H202.687V31.2963H195.561L195.828 6.7113L190.308 21.9847H181.677L176.022 6.54431L176.257 31.2963H169.164V0.983759H180.271L186.227 17.0941ZM5.50488 29.6859H6.59277L22.1025 2.6195H21.0098L5.50488 29.6859ZM32.6201 29.6859H33.541V2.6195L32.6201 2.61462V29.6859ZM59.8096 29.6859H60.7451V2.6195H59.8096V29.6859ZM79.4697 29.6859H80.4004V2.6195H79.4697V29.6859ZM143.872 19.6068H153.574L148.656 6.47692L143.872 19.6068ZM223.295 6.54431H216.737V14.9174H223.295C224.678 14.9173 225.793 14.5487 226.641 13.8119C227.063 13.4286 227.396 12.9567 227.615 12.43C227.835 11.9033 227.937 11.3343 227.912 10.764C227.89 9.42443 227.454 8.38658 226.606 7.64977C225.673 6.89104 224.496 6.49795 223.295 6.54431Z" fill="currentColor"/>
</svg>
