<svg aria-hidden="true" width="224" height="34" viewBox="0 0 224 34" fill="none" xmlns="http://www.w3.org/2000/svg">
<path d="M29.4017 16.2418C29.4017 21.1548 26.5427 26.6688 20.3727 29.2618L20.2807 29.0768C25.6657 26.5238 28.4737 21.5268 28.4737 16.2418C28.4737 10.1658 24.6967 5.29182 20.3267 3.11182L20.4187 2.97182C25.3477 5.10482 29.4017 9.89182 29.4017 16.2418ZM18.3977 3.66882C22.2187 5.24482 25.9017 9.74482 25.9017 16.2328C25.9017 24.9488 20.4697 29.6808 11.0327 29.6808V2.60482C13.7047 2.60482 16.0957 2.74482 18.3977 3.66882ZM8.64471 29.7268L7.71671 29.6808V2.59982L8.64471 2.64482V29.7268ZM31.8817 16.2328C31.8817 10.2508 28.1527 4.73282 22.9067 2.59982C20.0547 1.44182 16.6027 0.982822 12.5497 0.982822H2.10371C2.03606 1.08553 2 1.20583 2 1.32882C2 1.45181 2.03606 1.57211 2.10371 1.67482C4.77571 2.27882 5.32971 3.06482 5.32971 5.52382V26.7618C5.32971 29.5928 4.95971 30.0058 2.29371 30.6108C2.22599 30.7126 2.18986 30.8321 2.18986 30.9543C2.18986 31.0766 2.22599 31.1961 2.29371 31.2978H13.7517C24.2397 31.2978 31.8817 25.4178 31.8817 16.2328ZM40.1097 29.6808H39.1817V2.59982H40.1097V29.6808ZM42.4987 27.2268V5.06382C42.4987 2.88382 42.8217 2.14482 45.2587 1.67982C45.3264 1.57711 45.3624 1.45681 45.3624 1.33382C45.3624 1.21083 45.3264 1.09053 45.2587 0.987822H34.0297C33.9621 1.09053 33.926 1.21083 33.926 1.33382C33.926 1.45681 33.9621 1.57711 34.0297 1.67982C36.4717 2.14482 36.7897 2.88382 36.7897 5.06382V27.2268C36.7897 29.4018 36.4657 30.1458 34.0297 30.6108C33.962 30.7126 33.9259 30.8321 33.9259 30.9543C33.9259 31.0766 33.962 31.1961 34.0297 31.2978H45.2567C45.3244 31.1961 45.3606 31.0766 45.3606 30.9543C45.3606 30.8321 45.3244 30.7126 45.2567 30.6108C42.8207 30.1458 42.4987 29.4018 42.4987 27.2268ZM54.4707 29.6758L53.5367 29.6808V2.59482H54.4707V29.6748V29.6758ZM69.9227 31.4378C70.8867 28.7508 72.0827 26.1058 73.3747 23.5128C73.3287 23.2328 73.0567 23.1458 72.8257 23.2328C69.2357 28.5228 65.1377 29.6808 58.6957 29.6808H56.8547V16.7398H60.8597C64.2657 16.7398 66.1527 17.6698 68.1797 20.4028C68.4097 20.4958 68.6867 20.4028 68.7327 20.1228L66.7997 15.8568L68.7327 11.5948C68.6867 11.3628 68.4557 11.2228 68.1787 11.3158C66.1527 14.0538 64.2707 14.9788 60.8597 14.9788H56.8547V2.59482H58.4187C65.3227 2.59482 68.1737 4.40282 72.0407 9.18082C72.2717 9.32082 72.5947 9.18082 72.5947 8.90182C71.3027 6.26182 70.1077 3.57582 69.1437 0.837822C68.4507 0.930822 66.2457 0.977822 65.4137 0.977822H48.3927C48.3251 1.08053 48.289 1.20083 48.289 1.32382C48.289 1.44681 48.3251 1.56711 48.3927 1.66982C50.8337 2.12982 51.1527 2.87382 51.1527 5.05382V27.2168C51.1527 29.3918 50.8287 30.1358 48.3927 30.6008C48.3251 30.7035 48.289 30.8238 48.289 30.9468C48.289 31.0698 48.3251 31.1901 48.3927 31.2928H66.1957C67.1187 31.2978 69.0057 31.3448 69.9237 31.4378H69.9227ZM105.446 24.9998C105.447 24.9184 105.463 24.8379 105.495 24.763C105.527 24.6881 105.573 24.6202 105.632 24.5632C105.69 24.5061 105.758 24.4611 105.834 24.4307C105.91 24.4003 105.99 24.385 106.072 24.3858C106.236 24.3845 106.394 24.4484 106.511 24.5635C106.628 24.6786 106.695 24.8356 106.697 24.9998C106.696 25.0812 106.679 25.1617 106.648 25.2367C106.616 25.3117 106.57 25.3797 106.512 25.4368C106.454 25.4939 106.385 25.539 106.309 25.5695C106.234 25.6001 106.153 25.6155 106.072 25.6148C105.99 25.6156 105.91 25.6004 105.834 25.5699C105.758 25.5395 105.69 25.4945 105.632 25.4375C105.573 25.3805 105.527 25.3126 105.495 25.2376C105.463 25.1627 105.447 25.0812 105.446 24.9998ZM105.01 24.9998C105.01 25.5798 105.487 26.0438 106.072 26.0438C106.656 26.0438 107.133 25.5738 107.133 24.9998C107.133 24.4218 106.656 23.9568 106.072 23.9568C105.487 23.9568 105.01 24.4218 105.01 24.9998ZM103.917 25.8938C103.917 25.8938 103.533 24.9278 103.917 24.0958C104.369 25.0458 103.917 25.8938 103.917 25.8938ZM104.594 25.0008C104.594 24.2208 104.092 23.7138 104.466 23.3828C104.8 23.0058 105.302 23.5328 106.077 23.5328C106.851 23.5328 107.359 23.0268 107.692 23.4038C108.067 23.7338 107.554 24.2258 107.554 25.0058C107.554 25.7858 108.056 26.2918 107.682 26.6228C107.349 26.9998 106.846 26.4728 106.072 26.4728C105.297 26.4728 104.789 26.9788 104.456 26.6068C104.081 26.2708 104.594 25.7758 104.594 25.0008ZM105.179 27.1078C105.179 27.1078 106.025 26.6538 106.964 27.1078C106.138 27.4958 105.179 27.1078 105.179 27.1078ZM106.964 22.8878C106.025 23.3418 105.179 22.8878 105.179 22.8878C105.179 22.8878 106.138 22.5048 106.964 22.8878ZM108.226 24.1008C108.61 24.9328 108.226 25.8988 108.226 25.8988C108.226 25.8988 107.774 25.0458 108.226 24.1008ZM103.369 25.0008C103.369 26.4728 104.579 27.6608 106.072 27.6608C107.564 27.6608 108.78 26.4678 108.78 25.0008C108.78 23.5278 107.569 22.3398 106.072 22.3398C104.574 22.3398 103.369 23.5288 103.369 25.0008ZM97.3467 16.3518C97.4497 16.2438 97.5827 16.0468 97.8187 16.2748L99.7007 18.1038L101.02 16.7288L100.189 15.9228L99.6037 16.5328L99.1267 16.0728L101.312 13.7898L102.415 14.8638L101.907 15.3908L101.732 15.2208L102.02 14.9208L101.399 14.3168L100.389 15.3708L102.933 17.8448L103.943 16.7908L103.292 16.1608L103.004 16.4608L102.789 16.2538L103.297 15.7218L104.317 16.7138L102.153 18.9658L101.758 18.5838L102.322 17.9998L101.404 17.1068L100.086 18.4808L102.861 21.1828L102.317 21.7458L97.2757 16.8428C97.1217 16.6928 97.1417 16.5688 97.3467 16.3528V16.3518ZM102.533 22.1278C102.692 21.9578 103.035 21.5858 103.23 21.3888C103.42 21.1988 103.569 21.0738 103.681 21.1878C103.794 21.3008 103.707 21.4048 103.856 21.5548C104.005 21.7048 104.133 21.4818 104.256 21.8178C103.384 22.4218 102.974 23.0528 102.974 23.0528C102.615 22.8358 102.907 22.7118 102.774 22.5518C102.651 22.4018 102.548 22.5258 102.451 22.4218C102.394 22.3548 102.409 22.2568 102.533 22.1278ZM102.815 24.9998C102.815 23.2278 104.271 21.7968 106.072 21.7968C107.872 21.7968 109.328 23.2338 109.328 24.9998C109.328 26.7728 107.872 28.2088 106.072 28.2088C104.271 28.2088 102.815 26.7728 102.815 24.9998ZM97.0497 16.0678C96.8337 16.2948 96.6297 16.7188 96.8957 16.9778L102.061 21.9978C102.061 21.9978 102.009 22.1428 101.84 22.3188C101.671 22.4948 101.691 22.7118 101.907 22.7378C102.122 22.7638 102.425 22.8878 102.425 22.8878C102.425 22.8878 102.286 23.1038 102.553 23.2228C102.595 23.2429 102.634 23.2711 102.666 23.3058C102.396 23.8283 102.255 24.4078 102.256 24.9958C102.256 27.0658 103.958 28.7458 106.061 28.7458C108.164 28.7458 109.872 27.0658 109.872 24.9958C109.872 22.9238 108.169 21.2448 106.061 21.2448C105.531 21.2435 105.008 21.3525 104.523 21.5648C104.451 21.5071 104.389 21.439 104.338 21.3628C104.215 21.0998 104.005 21.2448 104.005 21.2448C104.005 21.2448 103.871 20.9448 103.835 20.7278C103.799 20.5108 103.584 20.4948 103.415 20.6708C103.245 20.8468 103.107 20.9038 103.107 20.9038L100.63 18.4908L101.399 17.6908L101.738 18.0208L101.189 18.5938L102.179 19.5548L104.907 16.7088L103.317 15.1638L102.266 16.2588L102.969 16.9408L103.297 16.6008L103.502 16.8008L102.938 17.3848L100.835 15.3398L101.399 14.7558L101.604 14.9568L101.276 15.2978L101.871 15.8768L102.922 14.7818L101.332 13.2368L98.6037 16.0838L99.5937 17.0438L100.143 16.4708L100.481 16.8008L99.7167 17.6018L97.9217 15.8558C97.6597 15.5978 97.2697 15.8408 97.0497 16.0678ZM129.213 22.7068C129.213 23.9518 128.341 25.0668 127.182 25.0668C125.725 25.0668 125.084 24.0028 124.889 23.0068C124.807 22.5868 124.341 22.7428 124.423 23.2278C124.541 23.9458 124.812 24.6338 124.812 24.6338C124.812 24.6338 124.618 25.0258 124.464 25.5268C124.31 26.0228 124.335 26.2038 124.479 26.4308C124.725 26.8238 124.546 27.3508 124.997 27.2838C125.269 27.2428 125.274 27.3668 125.387 27.7698C125.633 28.6368 125.582 28.6738 125.413 29.1598C125.243 29.6448 124.951 30.4148 124.838 30.6158C124.628 30.9978 124.423 30.5488 124.017 30.7758C123.684 30.9618 123.299 30.8178 123.561 30.4868C123.561 30.4868 123.382 30.3528 123.238 30.5388C123.238 30.5388 122.992 29.7528 122.34 30.1048C122.34 30.1048 122.027 29.7638 121.74 29.8568C121.74 29.8568 122.069 29.3348 123.771 29.8718C124.043 29.9598 124.269 29.5048 123.905 29.3758C123.905 29.3758 124.176 28.4718 124.218 28.3018C124.253 28.1318 124.335 28.0848 124.033 27.8318C122.13 26.2198 121.976 26.3078 121.73 25.3158C121.484 24.3188 121.361 24.1478 121.053 23.3888C120.258 21.4088 120.458 20.7328 119.894 20.0978C118.735 18.8008 118.319 18.0258 118.319 18.0258C118.319 18.0258 118.217 18.0108 118.191 18.1288C117.786 17.8288 117.971 17.4988 117.591 17.1988C117.591 17.1988 117.458 17.2768 117.432 17.5298C116.847 17.0958 116.991 16.3468 116.77 16.0628C116.77 16.0628 116.627 16.1298 116.56 16.3368C116.56 16.3368 116.365 15.9958 116.365 15.8508C116.365 15.7058 116.288 15.6128 116.534 15.4168C116.781 15.2208 116.873 15.2978 116.94 15.5198C117.304 15.2198 117.473 14.8018 117.853 14.4198C117.853 14.4198 118.037 14.4978 118.165 14.7348C118.165 14.7348 118.504 14.2748 118.714 13.4998C119.063 13.5678 119.248 13.4998 119.212 13.0298C119.135 12.1368 119.561 11.9298 119.509 10.8658C119.494 10.4828 119.13 10.6178 119.145 10.9168C119.186 11.7698 118.909 11.7848 118.822 12.5288C118.304 11.8728 118.365 12.7928 118.145 13.7888C118.145 13.7888 118.006 13.7328 117.935 13.4998C117.801 13.0658 117.637 13.7378 117.165 14.5498C117.047 14.2498 117.022 14.0478 116.658 14.4818C116.293 14.9158 114.986 16.0368 113.729 16.9618C113.247 17.3178 113.56 17.6118 113.349 18.0518C113.206 18.3518 112.934 18.5888 112.934 18.5888C112.934 18.5888 112.765 18.2888 112.436 18.2988C112.436 18.2988 112.513 17.7108 112.021 17.4728C112.021 17.4728 112.647 16.6728 111.903 16.0988C112.36 15.9438 112.519 15.9958 112.139 15.3238C112.139 15.3238 112.554 14.9158 112.098 14.3788C112.529 14.0788 112.662 14.4868 112.698 14.8898C112.749 15.4688 113.037 16.0058 113.349 15.7168C113.688 15.4018 115.237 13.7898 115.668 13.0568C116.098 12.3218 115.878 11.7588 116.981 10.4468C117.186 10.2038 116.986 9.97682 116.77 10.1728C116.637 10.2928 116.365 10.4058 116.365 10.4058C116.365 10.4058 116.329 9.72382 116.77 9.10882C116.95 8.85582 116.796 8.71582 116.432 9.05682C116.432 9.05682 116.381 8.50482 117.252 7.76082C117.488 7.55882 117.329 7.44582 116.924 7.59082C116.924 7.59082 117.093 7.08882 117.642 6.97482C118.191 6.85682 118.355 7.06782 118.386 7.17182C118.412 7.27482 118.607 7.30582 118.617 7.17182C118.627 7.10999 118.65 7.05099 118.685 6.9985C118.719 6.94601 118.764 6.90115 118.816 6.86672C118.869 6.8323 118.928 6.80903 118.99 6.79838C119.051 6.78773 119.115 6.78993 119.176 6.80482C119.566 6.87182 119.54 7.12982 119.54 7.24882C119.54 7.36882 119.622 7.47682 119.735 7.34182C119.93 7.10982 120.555 6.93882 120.961 7.53882C120.961 7.53882 120.714 7.60582 120.53 7.57482C120.345 7.54882 120.273 7.68782 120.52 7.82282C121.258 8.24082 121.484 8.87082 121.484 8.87082C121.484 8.87082 121.109 8.81482 120.689 8.45282C120.504 8.29782 120.407 8.46882 120.545 8.70082C120.781 9.09382 121.694 9.18682 121.822 10.1418C121.822 10.1418 121.289 9.94582 120.909 9.57882C120.735 9.40882 120.617 9.52782 120.725 9.74882C121.022 10.3538 122.012 10.4468 122.053 11.5318C122.053 11.5318 121.663 11.4018 121.284 11.0098C121.099 10.8138 120.945 11.0098 121.156 11.2838C121.366 11.5578 121.899 11.8208 121.961 12.4098C122.027 12.9998 122.197 15.6748 122.325 16.4598C122.458 17.2458 122.679 18.1498 123.602 19.2808C124.525 20.4078 124.659 20.6608 124.971 21.7458C125.659 24.1738 126.52 24.7888 127.613 24.4738C128.705 24.1578 129.126 22.4278 128.29 21.1828C127.172 19.5188 124.135 17.0808 125.269 14.3218C125.269 14.3218 124.889 13.6918 125.361 13.1018C125.361 13.1018 125.505 13.1958 125.556 13.3758C125.854 13.1128 125.556 12.7358 125.997 12.3788C125.997 12.3788 126.151 12.5338 126.131 12.7718C126.479 12.6788 126.377 11.8418 127.469 11.8678C127.587 12.8388 127.003 12.6278 126.777 13.1538C126.777 13.1538 127.115 13.0608 127.259 13.1698C127.09 13.8258 126.633 13.6138 126.438 13.9028C126.438 13.9028 126.659 13.9188 126.802 14.0998C126.802 14.0998 126.582 14.9158 125.618 14.5998C125.618 14.5998 125.346 14.8898 125.423 15.8198C125.495 16.6978 125.71 17.5098 127.362 19.3998C127.946 20.0508 129.213 21.3688 129.213 22.7068ZM119.514 5.97282C118.555 5.92182 118.391 4.41782 119.545 3.19282C119.817 2.90482 119.776 2.74982 119.596 2.56282C119.581 2.21282 119.581 1.89182 118.904 2.21282C118.304 2.49582 118.355 2.69782 118.704 2.68282C119.053 2.66682 119.304 2.93582 119.304 2.93582C119.304 2.93582 118.724 3.49282 118.489 4.47482C118.155 5.85982 118.955 6.29882 118.955 6.29882C118.955 6.29882 118.473 6.66582 117.971 6.01482C117.971 6.01482 118.201 5.44082 117.873 5.06382C117.873 5.06382 118.058 4.52682 117.622 3.88582C117.622 3.88582 117.94 3.56582 117.719 2.90382C117.719 2.90382 118.355 2.63582 118.053 1.89682C118.053 1.89682 118.663 1.57182 119.396 1.50982C119.812 1.47882 119.914 1.69582 119.848 2.06182C119.812 2.24782 119.796 2.37782 120.232 2.36682C121.284 2.33082 121.499 2.59982 121.268 2.82182C121.104 2.97682 121.002 3.10082 121.217 3.26582C121.484 3.46782 121.212 4.03582 120.92 3.92182C120.037 3.58582 119.776 3.61682 119.437 4.39182C119.094 5.16682 119.012 5.82882 120.504 5.64182C120.499 5.63682 120.473 6.02482 119.514 5.97282ZM119.981 5.27082C119.766 5.35282 119.484 5.16182 119.796 4.92982C120.032 5.07982 119.981 5.27082 119.981 5.27082ZM118.432 1.03382L118.109 1.19382C117.755 0.920822 117.694 0.573822 117.694 0.573822C118.206 0.377822 118.432 1.03382 118.432 1.03382ZM117.791 1.39082C117.258 1.68082 116.611 1.06482 116.575 0.790822C117.304 0.470822 117.453 1.11682 117.791 1.39082ZM116.786 1.60282C116.786 1.60282 116.206 2.00582 115.304 1.26182C115.309 1.26182 116.145 0.687822 116.786 1.60182V1.60282ZM115.934 1.95882C115.611 2.64082 114.755 2.15482 114.139 2.26882C114.755 1.16882 115.565 2.05682 115.934 1.95882ZM115.324 2.64082C115.114 3.31282 114.242 2.96582 113.708 3.34382C114.011 2.44382 114.673 2.75382 115.324 2.64082ZM115.114 3.39082C115.129 4.08782 113.996 4.18582 113.437 4.80082C113.452 3.35882 115.114 3.39082 115.114 3.39082ZM113.242 8.66982C113.242 8.66982 113.385 8.76782 113.565 8.73682C113.678 9.35182 113.308 9.54782 113.565 10.1528C113.565 10.1528 113.339 10.4568 112.857 10.7358C112.857 10.7358 112.221 10.1368 111.611 10.4318C111.611 10.4318 110.949 10.0288 110.416 10.4318C110.416 10.4318 110.221 10.2718 109.887 10.3488C109.887 10.3488 110.318 9.78082 110.19 9.01082C110.19 9.01082 111 8.22582 111.647 7.25382C112.288 6.28382 112.467 5.50382 112.842 5.01182C112.842 5.01182 112.97 5.32682 112.76 5.63182C112.76 5.63182 112.857 5.76182 113.016 5.77682C112.888 6.55182 113.144 6.76382 113.047 7.20282C113.047 7.20282 113.16 7.28482 113.319 7.23282C113.242 7.72982 113.416 8.02382 113.242 8.66982ZM112.975 3.73082C112.975 3.73082 112.519 4.39182 112.154 5.11582C111.79 5.83382 111.739 6.32982 110.78 7.70882C110.78 7.70882 110.677 6.72782 109.944 6.74282C109.769 6.37582 110.031 6.06082 110.359 6.14882C110.513 6.18982 110.621 6.09182 110.498 5.90582C110.308 5.60582 110.339 4.91882 110.949 4.62982C110.949 4.62982 110.446 5.79182 111.144 6.48482C111.144 6.48482 111.529 6.40182 111.518 5.71482C111.508 4.86782 111.175 4.03482 111.883 3.82882C111.883 3.82882 111.734 4.15482 111.826 4.56282C111.862 4.70282 112.021 4.67082 112.011 4.42282C112 4.17482 112.293 3.63282 112.975 3.73082ZM111.17 5.83982C111.006 5.73082 110.918 5.31782 111.134 5.12182C111.267 5.30182 111.303 5.72182 111.17 5.83982ZM110.334 7.81882C110.185 8.87182 109.092 9.64182 107.959 9.31182C106.82 8.97582 106.513 7.50882 107.533 6.58382C107.938 6.21682 108.58 6.60982 108.349 7.05882C108.21 7.32782 107.897 7.15182 108.062 6.96582C108.179 6.83682 108.062 6.56782 107.795 6.80582C107.097 7.43082 107.036 8.66582 108.062 9.00182C109.082 9.33682 109.98 8.50582 110.026 7.58082C110.036 7.36882 109.775 7.28082 109.775 7.57082C109.775 7.85982 109.257 7.77182 109.41 7.41082C109.621 6.88282 110.426 7.16782 110.334 7.81882ZM108.431 4.60482C108.569 4.27982 109.005 3.96982 109.349 3.95882C109.267 4.23282 108.764 4.59482 108.431 4.60482ZM107.2 6.39682C107.2 6.39682 106.995 5.52882 106.169 5.60082C105.754 5.22882 105.964 4.35082 106.661 4.39782C106.297 3.84482 106.446 3.08982 107.031 3.00782C107.031 3.00782 106.8 4.15482 107.523 4.73282C107.523 4.73282 108.144 3.90182 107.579 2.82682C107.579 2.82682 107.543 2.25882 107.979 2.13482C107.979 2.13482 108.026 2.63082 108.21 2.87382C108.267 2.94582 108.333 2.82182 108.292 2.59382C108.236 2.29382 108.569 1.66982 109.164 1.56582C109.164 1.56582 109.851 2.41882 109.128 2.95082C109.01 3.03882 109.082 3.22982 109.241 3.15782C109.508 3.04382 109.641 2.86782 109.641 2.86782C109.641 2.86782 109.903 3.33782 109.472 3.51382C107.969 4.12882 108.036 4.88782 108.036 4.88782C108.036 4.88782 108.98 5.07382 109.621 4.06682C109.805 4.65582 109.657 5.13082 109.057 5.29082C108.877 5.33782 108.846 5.49782 109.01 5.60082C109.262 5.76082 109.251 6.40682 108.677 6.48982C108.682 6.49982 108.118 5.73582 107.2 6.39682ZM107.441 4.10782C107.226 3.82882 107.226 3.47282 107.374 3.31282C107.559 3.43682 107.59 3.80882 107.441 4.10782ZM106.133 6.00382C106.548 5.87482 106.784 6.16982 106.882 6.44382C107.143 7.22882 106.41 8.93882 104.759 8.62882C103.215 8.33882 103.097 6.53082 103.599 5.86482C104.174 5.09982 104.897 5.63182 104.533 6.18982C104.384 6.37582 104.112 6.22582 104.21 6.04982C104.379 5.73982 104.123 5.63182 103.912 5.91082C103.374 6.62882 103.635 8.00382 104.682 8.30282C105.671 8.58682 106.333 7.80682 106.482 7.40382C106.631 7.00082 106.615 6.22582 106.354 6.29382C106.169 6.33982 106.354 6.54682 106.205 6.59382C105.892 6.69682 105.723 6.12782 106.133 6.00382ZM102.174 3.05382C102.379 3.07482 102.692 3.42582 102.656 3.75682C102.292 3.73682 102.107 3.20382 102.174 3.05382ZM103.615 3.76182C103.584 3.42582 103.892 3.07982 104.097 3.05882C104.169 3.20382 103.984 3.73582 103.615 3.76182ZM104.743 5.30682C104.307 5.03782 103.61 5.05382 103.138 5.87482C102.671 5.05382 101.968 5.04282 101.532 5.30682C101.132 5.00682 101.338 4.36082 101.763 4.26782C101.958 4.22782 101.876 4.09782 101.784 4.03582C101.22 3.67882 101.45 2.90482 101.866 2.62582C101.691 4.01582 102.897 4.12882 102.897 4.12882C102.897 4.12882 103.184 3.39982 102.435 2.75482C102.066 2.43482 101.999 2.14982 102.194 2.01482C102.307 1.93282 102.492 2.14482 102.61 2.24782C102.748 2.37182 102.861 2.29982 102.748 2.15482C102.184 1.41682 103.138 0.827822 103.138 0.827822C103.138 0.827822 104.087 1.41682 103.522 2.15482C103.415 2.29982 103.522 2.37182 103.661 2.24782C103.779 2.14482 103.958 1.93782 104.076 2.01582C104.271 2.14982 104.205 2.43382 103.835 2.75482C103.086 3.39982 103.374 4.12882 103.374 4.12882C103.374 4.12882 104.579 4.00982 104.405 2.62582C104.82 2.90482 105.046 3.67882 104.487 4.03582C104.394 4.09282 104.312 4.22182 104.507 4.26782C104.938 4.36082 105.143 5.00782 104.743 5.30682ZM102.681 5.86482C103.184 6.53082 103.066 8.33482 101.522 8.62882C99.8707 8.93882 99.1367 7.22882 99.3987 6.44282C99.4907 6.16982 99.7317 5.87482 100.143 6.00382C100.553 6.13382 100.384 6.69682 100.076 6.59382C99.9267 6.54182 100.112 6.33982 99.9267 6.29382C99.6647 6.22582 99.6497 6.99582 99.7987 7.40382C99.9477 7.80682 100.609 8.59282 101.599 8.30382C102.645 8.00382 102.907 6.62882 102.368 5.91082C102.158 5.63182 101.897 5.74082 102.071 6.05082C102.168 6.22582 101.897 6.37582 101.748 6.19082C101.384 5.63182 102.107 5.10082 102.681 5.86482ZM97.8497 4.60482C97.5157 4.59382 97.0137 4.23182 96.9317 3.95782C97.2747 3.96782 97.7057 4.27882 97.8497 4.60482ZM100.107 5.59582C99.2807 5.52882 99.0757 6.39182 99.0757 6.39182C98.1577 5.73582 97.5927 6.49482 97.5927 6.49482C97.0187 6.41182 97.0087 5.76682 97.2597 5.60582C97.4237 5.49782 97.3927 5.34282 97.2137 5.29582C96.6187 5.13082 96.4697 4.66082 96.6497 4.07182C97.2897 5.07882 98.2347 4.89382 98.2347 4.89382C98.2347 4.89382 98.3007 4.13382 96.7987 3.51882C96.3677 3.34382 96.6237 2.87282 96.6237 2.87282C96.6237 2.87282 96.7627 3.04882 97.0237 3.16282C97.1837 3.23482 97.2537 3.04382 97.1367 2.95582C96.4137 2.42382 97.1007 1.57182 97.1007 1.57182C97.7007 1.67482 98.0287 2.29982 97.9727 2.59982C97.9317 2.82682 97.9987 2.95082 98.0547 2.87882C98.2397 2.63582 98.2847 2.13882 98.2847 2.13882C98.7217 2.26882 98.6847 2.83182 98.6847 2.83182C98.1217 3.90682 98.7417 4.73882 98.7417 4.73882C99.4657 4.15882 99.2347 3.01282 99.2347 3.01282C99.8187 3.09582 99.9677 3.84482 99.5987 4.40282C100.317 4.35082 100.522 5.22882 100.107 5.59582ZM98.8347 4.10782C98.6847 3.80782 98.7217 3.43682 98.9007 3.31282C99.0547 3.47282 99.0547 3.82882 98.8347 4.10782ZM98.7417 6.57782C99.7627 7.50182 99.4547 8.96982 98.3167 9.30482C97.1827 9.64082 96.0907 8.86582 95.9417 7.81182C95.8497 7.16182 96.6547 6.87682 96.8697 7.39382C97.0237 7.75582 96.5057 7.84882 96.5057 7.55382C96.5057 7.26382 96.2447 7.35282 96.2547 7.56382C96.3007 8.48882 97.1927 9.32082 98.2187 8.98482C99.2387 8.64882 99.1827 7.41482 98.4857 6.78982C98.2187 6.55682 98.1057 6.82582 98.2187 6.94982C98.3787 7.13582 98.0697 7.30582 97.9317 7.04282C97.6957 6.60282 98.3367 6.21582 98.7417 6.57782ZM96.3317 6.74282C95.6027 6.72682 95.4957 7.70882 95.4957 7.70882C94.5417 6.32882 94.4907 5.83382 94.1207 5.11582C93.7567 4.39782 93.3007 3.73082 93.3007 3.73082C93.9827 3.63282 94.2747 4.17482 94.2647 4.42282C94.2547 4.67082 94.4127 4.70782 94.4487 4.56282C94.5417 4.15482 94.3987 3.82882 94.3987 3.82882C95.1057 4.03582 94.7727 4.86782 94.7617 5.71482C94.7517 6.40182 95.1367 6.48482 95.1367 6.48482C95.8337 5.79182 95.3317 4.62982 95.3317 4.62982C95.9367 4.92382 95.9717 5.60582 95.7827 5.90582C95.6647 6.09182 95.7677 6.18982 95.9207 6.14882C96.2437 6.06082 96.5067 6.37582 96.3317 6.74282ZM95.1057 5.83882C94.9727 5.71982 95.0087 5.30182 95.1357 5.12082C95.3567 5.31682 95.2697 5.73082 95.1057 5.83882ZM93.2597 5.78182C93.3098 5.77567 93.3582 5.75969 93.4022 5.73481C93.4461 5.70993 93.4847 5.67663 93.5157 5.63682C93.3057 5.32682 93.4337 5.01682 93.4337 5.01682C93.8077 5.50782 93.9877 6.28782 94.6287 7.25982C95.0579 7.88955 95.5454 8.47748 96.0847 9.01582C95.9567 9.78582 96.3927 10.3538 96.3927 10.3538C96.0547 10.2718 95.8597 10.4368 95.8597 10.4368C95.3207 10.0338 94.6647 10.4368 94.6647 10.4368C94.0547 10.1468 93.4177 10.7418 93.4177 10.7418C92.9357 10.4678 92.7107 10.1578 92.7107 10.1578C92.9667 9.54782 92.5977 9.35782 92.7107 8.74182C92.8907 8.77282 93.0337 8.67482 93.0337 8.67482C92.8587 8.02882 93.0337 7.73482 92.9517 7.24482C93.1107 7.29482 93.2237 7.21282 93.2237 7.21282C93.1307 6.76882 93.3927 6.55682 93.2587 5.78282L93.2597 5.78182ZM92.8437 4.80082C92.2797 4.18582 91.1457 4.08782 91.1667 3.39082C91.1617 3.39082 92.8287 3.35882 92.8437 4.80082ZM92.5717 3.34382C92.0387 2.96082 91.1667 3.31282 90.9567 2.64082C91.6027 2.75482 92.2647 2.44482 92.5717 3.34382ZM92.1357 2.26882C91.5257 2.15482 90.6637 2.64082 90.3407 1.95882C90.7157 2.05682 91.5257 1.16882 92.1357 2.26882ZM90.9717 1.26182C90.0747 2.00582 89.4897 1.60182 89.4897 1.60182C90.1357 0.687822 90.9717 1.26182 90.9717 1.26182ZM89.6997 0.791822C89.6697 1.06482 89.0177 1.67982 88.4837 1.39082C88.8227 1.11682 88.9767 0.471822 89.6997 0.791822ZM88.5817 0.574822C88.5817 0.574822 88.5147 0.920822 88.1667 1.19482L87.8427 1.03482C87.8427 1.03482 88.0687 0.377822 88.5817 0.574822ZM88.2227 1.89182C87.9257 2.63082 88.5557 2.89882 88.5557 2.89882C88.3407 3.56082 88.6537 3.88082 88.6537 3.88082C88.2227 4.51582 88.4027 5.05882 88.4027 5.05882C88.0687 5.43582 88.3047 6.00882 88.3047 6.00882C87.8067 6.66582 87.3197 6.29382 87.3197 6.29382C87.3197 6.29382 88.1197 5.85382 87.7867 4.46982C87.5507 3.48782 86.9707 2.92982 86.9707 2.92982C86.9707 2.92982 87.2227 2.66182 87.5707 2.67682C87.9207 2.69282 87.9707 2.49082 87.3707 2.20682C86.6947 1.88682 86.6997 2.20682 86.6787 2.55782C86.4947 2.74382 86.4537 2.89882 86.7307 3.18782C87.8897 4.41282 87.7207 5.91582 86.7607 5.96782C85.8017 6.01982 85.7767 5.63182 85.7767 5.63182C87.2687 5.81782 87.1867 5.15682 86.8427 4.38182C86.4997 3.60682 86.2427 3.57582 85.3557 3.91182C85.0577 4.02582 84.7917 3.45682 85.0577 3.25582C85.2737 3.08982 85.1707 2.96582 85.0077 2.81182C84.7757 2.59482 84.9917 2.32582 86.0427 2.35682C86.4787 2.37182 86.4587 2.23782 86.4277 2.05182C86.3607 1.68482 86.4637 1.46282 86.8787 1.49882C87.6127 1.56582 88.2227 1.89182 88.2227 1.89182ZM86.4787 4.92482C86.7967 5.15682 86.5147 5.35282 86.2947 5.26482C86.2947 5.27082 86.2427 5.07882 86.4787 4.92482ZM86.5407 7.32682C86.6527 7.46082 86.7357 7.35282 86.7357 7.23382C86.7357 7.11482 86.7097 6.85182 87.0997 6.78982C87.1606 6.77461 87.224 6.77216 87.2858 6.78261C87.3477 6.79307 87.4068 6.81621 87.4593 6.85059C87.5118 6.88496 87.5566 6.92982 87.5909 6.98235C87.6252 7.03488 87.6483 7.09394 87.6587 7.15582C87.6737 7.29082 87.8687 7.25982 87.8887 7.15582C87.9147 7.05282 88.0847 6.84082 88.6327 6.95982C88.793 6.99574 88.9419 7.07067 89.0663 7.17795C89.1907 7.28523 89.2867 7.42155 89.3457 7.57482C88.9407 7.42982 88.7817 7.54382 89.0227 7.74482C89.8947 8.49482 89.8427 9.04182 89.8427 9.04182C89.4787 8.70082 89.3257 8.84582 89.5047 9.09382C89.9457 9.70782 89.9097 10.3898 89.9097 10.3898C89.9097 10.3898 89.6377 10.2708 89.5047 10.1578C89.2897 9.96682 89.0897 10.1878 89.2947 10.4318C90.4027 11.7438 90.1767 12.3068 90.6077 13.0408C91.0377 13.7738 92.5877 15.3858 92.9257 15.7008C93.2387 15.9908 93.5257 15.4528 93.5767 14.8748C93.6127 14.4718 93.7467 14.0628 94.1767 14.3628C93.7207 14.8998 94.1367 15.3088 94.1367 15.3088C93.7567 15.9748 93.9157 15.9228 94.3727 16.0838C93.6287 16.6618 94.2537 17.4578 94.2537 17.4578C93.7617 17.6948 93.8387 18.2838 93.8387 18.2838C93.5107 18.2688 93.3417 18.5738 93.3417 18.5738C93.3417 18.5738 93.0697 18.3358 92.9257 18.0358C92.7157 17.5968 93.0287 17.3028 92.5457 16.9458C91.2897 16.0208 89.9817 14.8998 89.6177 14.4658C89.2537 14.0328 89.2277 14.2288 89.1097 14.5338C88.6437 13.7168 88.4737 13.0508 88.3397 13.4838C88.2737 13.7168 88.1297 13.7738 88.1297 13.7738C87.9097 12.7768 87.9767 11.8578 87.4537 12.5138C87.3607 11.7638 87.0897 11.7538 87.1307 10.9018C87.1457 10.6018 86.7807 10.4678 86.7657 10.8498C86.7157 11.9138 87.1457 12.1208 87.0637 13.0148C87.0227 13.4848 87.2067 13.5518 87.5557 13.4848C87.7657 14.2598 88.1047 14.7198 88.1047 14.7198C88.2377 14.4818 88.4177 14.4038 88.4177 14.4038C88.7977 14.7868 88.9667 15.2048 89.3307 15.5038C89.3967 15.2828 89.4897 15.2048 89.7357 15.4018C89.9817 15.5978 89.9057 15.6908 89.9057 15.8358C89.9057 15.9798 89.7097 16.3208 89.7097 16.3208C89.6437 16.1088 89.5047 16.0468 89.5047 16.0468C89.2847 16.3368 89.4277 17.0858 88.8377 17.5148C88.8127 17.2668 88.6847 17.1838 88.6847 17.1838C88.3047 17.4838 88.4897 17.8138 88.0847 18.1138C88.0587 17.9948 87.9507 18.0098 87.9507 18.0098C87.9507 18.0098 87.5357 18.7848 86.3767 20.0818C85.8117 20.7178 86.0117 21.3938 85.2167 23.3728C84.9097 24.1328 84.7867 24.3028 84.5397 25.2998C84.2937 26.2968 84.1347 26.2038 82.2367 27.8158C81.9397 28.0688 82.0167 28.1158 82.0527 28.2858C82.0887 28.4558 82.3657 29.3608 82.3657 29.3608C82.0017 29.4898 82.2217 29.9448 82.4987 29.8568C84.2017 29.3188 84.5297 29.8408 84.5297 29.8408C84.2427 29.7478 83.9297 30.0888 83.9297 30.0888C83.2787 29.7378 83.0317 30.5228 83.0317 30.5228C82.8887 30.3368 82.7087 30.4708 82.7087 30.4708C82.9707 30.7968 82.5857 30.9408 82.2527 30.7608C81.8477 30.5388 81.6427 30.9828 81.4327 30.6008C81.3247 30.3988 81.0267 29.6288 80.8577 29.1438C80.6877 28.6578 80.6377 28.6218 80.8827 27.7538C81.0007 27.3508 81.0007 27.2268 81.2727 27.2678C81.7247 27.3358 81.5447 26.8078 81.7907 26.4158C81.9347 26.1888 81.9607 26.0078 81.8067 25.5118C81.7093 25.2061 81.591 24.9074 81.4527 24.6178C81.4527 24.6178 81.7247 23.9358 81.8427 23.2128C81.9197 22.7268 81.4577 22.5728 81.3757 22.9908C81.1807 23.9878 80.5447 25.0518 79.0827 25.0518C77.9237 25.0518 77.0527 23.9358 77.0527 22.6918C77.0527 21.3528 78.3187 20.0358 78.8987 19.3738C80.5497 17.4888 80.7657 16.6728 80.8367 15.7938C80.9137 14.8638 80.6417 14.5748 80.6417 14.5748C79.6777 14.8898 79.4577 14.0738 79.4577 14.0738C79.6007 13.8878 79.8217 13.8778 79.8217 13.8778C79.6267 13.5878 79.1707 13.7998 79.0017 13.1438C79.1447 13.0408 79.4827 13.1288 79.4827 13.1288C79.2627 12.6068 78.6777 12.8128 78.7907 11.8418C79.8827 11.8158 79.7807 12.6528 80.1347 12.7458C80.1276 12.675 80.1354 12.6035 80.1574 12.5359C80.1794 12.4682 80.2153 12.4059 80.2627 12.3528C80.7037 12.7048 80.4057 13.0868 80.7037 13.3508C80.7547 13.1648 80.8987 13.0768 80.8987 13.0768C81.3657 13.6658 80.9907 14.2958 80.9907 14.2958C82.1247 17.0498 79.0937 19.4878 77.9707 21.1558C77.1337 22.4018 77.5547 24.1328 78.6467 24.4478C79.7397 24.7628 80.6007 24.1478 81.2887 21.7198C81.5957 20.6298 81.7287 20.3818 82.6527 19.2558C83.5757 18.1288 83.7967 17.2258 83.9297 16.4348C84.0577 15.6498 84.2277 12.9738 84.2937 12.3848C84.3607 11.7948 84.8937 11.5318 85.0997 11.2578C85.3097 10.9848 85.1557 10.7878 84.9707 10.9848C84.5907 11.3768 84.2007 11.5058 84.2007 11.5058C84.2377 10.4158 85.2277 10.3278 85.5307 9.72382C85.6377 9.50182 85.5247 9.38282 85.3457 9.55382C84.9657 9.91982 84.4327 10.1168 84.4327 10.1168C84.5657 9.16082 85.4727 9.06682 85.7097 8.67482C85.8477 8.44282 85.7497 8.26682 85.5657 8.42682C85.1457 8.79382 84.7707 8.84582 84.7707 8.84582C84.7707 8.84582 84.9907 8.21582 85.7357 7.79582C85.9817 7.65682 85.9047 7.52282 85.7197 7.54882C85.5347 7.57482 85.2897 7.51282 85.2897 7.51282C85.7197 6.91882 86.3467 7.08882 86.5407 7.32682ZM83.4627 30.5338C83.4627 30.5338 83.4627 30.3578 83.7607 30.3418C83.7607 30.3418 84.0377 30.6058 83.9867 30.9568C83.9867 30.9568 83.6887 30.7978 83.4627 30.5338ZM81.4987 31.1838C81.8837 31.3598 81.9497 30.9568 82.6987 31.2358C82.9707 31.3338 83.0837 31.2358 83.2377 31.0088C83.4117 31.0088 83.7607 31.1638 83.9147 31.3388C84.0627 31.5048 84.3507 31.5148 84.2787 31.3908C84.2067 31.2668 84.3457 31.0908 84.3457 31.0908C84.3457 31.0908 84.6937 31.1428 85.0787 31.4788C85.3297 31.6958 85.3047 31.4268 85.5657 31.2518C87.3757 31.2518 88.3657 31.0398 88.3657 31.0398C89.1157 31.2668 89.3917 30.7098 89.3917 30.7098C89.6687 30.8638 89.8947 30.8488 89.8947 30.8488C90.2587 31.0598 90.7107 31.0758 90.7107 31.0758C90.7107 31.0758 88.8487 31.6178 85.4377 31.7578C81.2627 31.9278 79.6267 31.1788 79.6267 31.1788L79.8167 30.8998C80.7657 31.1328 81.1137 31.0088 81.4987 31.1838ZM85.1867 32.8118C85.5197 32.3568 87.3767 31.6548 87.9607 32.1138C87.7767 32.3568 86.8377 32.9868 85.1867 32.8118ZM90.1767 30.0628C90.1767 30.0628 90.6127 30.3268 90.5767 30.6778C90.5767 30.6778 90.1047 30.5748 89.8797 30.2598C89.8797 30.2538 89.9667 30.0628 90.1767 30.0628ZM85.3667 29.4228C85.9667 29.5778 86.6067 30.2078 86.7407 30.7808C86.1407 30.6308 85.5207 30.0578 85.3667 29.4228ZM84.6787 30.2908C84.6787 30.2908 85.0787 30.5328 84.9917 31.0088C84.9917 31.0088 84.7657 30.7968 84.3447 30.4458C84.3507 30.4458 84.3867 30.3058 84.6787 30.2908ZM82.8937 29.2368C82.7087 28.7718 82.6167 28.2188 82.6167 28.2188C84.4837 26.7468 84.9967 26.3018 85.0887 25.6978C85.1817 25.0928 85.4117 24.5668 85.4117 24.5668C85.8737 25.3048 85.9917 25.2738 86.3767 25.3978C86.7607 25.5218 86.6837 25.6358 87.0067 26.6998C87.1917 27.3048 86.4637 27.0718 86.6477 27.7228C86.7817 28.2028 87.0077 28.9888 87.2327 29.7118C87.4627 30.4348 87.8277 30.6108 87.8277 30.6108C87.5507 30.7348 87.0947 30.7038 87.0947 30.7038C86.4637 28.8178 84.8987 28.9058 84.8987 28.9058C84.8837 30.2548 86.0937 30.8378 86.0937 30.8378C85.7707 30.9158 85.4537 30.8848 85.4537 30.8848C84.7247 29.4688 84.8637 28.8648 82.8937 29.2368ZM90.7507 29.4328C90.5257 29.4998 90.4537 29.7478 90.4537 29.7478C89.6797 29.5308 89.4177 29.9598 89.6377 30.4148C88.8227 30.0838 88.9767 30.6418 88.9767 30.6418C88.9767 30.6418 88.8167 30.8688 88.5257 30.7138C88.3657 30.6268 87.8997 30.1358 87.7097 29.6598C87.5197 29.1848 87.3967 28.4508 87.2227 27.9088C87.0477 27.3668 87.6377 27.5938 87.5357 26.9488C87.4362 26.3916 87.2849 25.8449 87.0837 25.3158C86.8937 24.8458 86.5817 25.0358 86.2327 24.6858C86.0224 24.4577 85.8254 24.2176 85.6427 23.9668C85.6427 23.9668 86.1097 23.1968 86.4787 21.4968C86.6787 20.5628 87.0887 20.3398 87.0887 20.3398C87.0887 20.3398 87.4227 21.1098 88.2537 21.9678C88.5307 22.2518 88.6377 22.4738 88.6897 23.1248C88.7407 23.7758 89.0027 24.5978 89.0897 25.5268C89.1297 25.9458 89.2127 26.1268 88.8437 26.7158C88.4077 27.4178 88.3407 27.5218 88.7557 28.9938C88.8737 29.4118 89.0637 29.5258 89.3657 29.4488C90.1057 29.2568 90.4687 29.2208 90.7507 29.4328ZM90.8027 29.9758C90.8027 29.9758 90.8387 29.6958 91.1357 29.6758C91.1357 29.6758 91.6387 30.0268 91.6387 30.4608C91.6387 30.4658 91.2687 30.2238 90.8027 29.9758ZM90.8177 31.0808C90.8177 31.0808 90.9407 30.8688 90.9207 30.6418C90.9207 30.6418 91.3567 30.6418 91.6697 30.9048C91.6697 30.9048 91.1307 31.0448 90.8177 31.0808ZM90.6127 21.0168C91.4797 21.5178 91.6847 22.6498 91.7107 23.1248C90.8487 22.6498 90.5567 21.3428 90.6127 21.0168ZM91.8897 20.7898C91.3307 20.2728 91.3407 18.7438 91.5977 18.3258C92.1827 18.9818 92.0947 20.3358 91.8897 20.7898ZM92.8237 21.6628C93.0997 22.3088 92.6027 23.8738 92.2077 24.0958C91.8747 23.5228 92.4437 22.0038 92.8237 21.6628ZM92.3157 26.8398C91.4957 26.4418 91.0077 24.9638 91.0697 24.6438C91.9617 25.2328 92.2847 26.3698 92.3157 26.8398ZM91.8897 30.0578C91.1977 28.8338 90.8487 28.6118 89.5457 28.8748C89.2277 28.9418 89.2227 28.9058 89.0737 28.2288C88.9257 27.5528 89.0437 27.4908 89.3407 26.9588C89.5817 26.5348 89.7507 26.2658 89.6897 25.8688C89.6327 25.4708 89.4387 23.7758 89.2797 22.9748C89.1197 22.1748 89.0847 22.0498 88.1917 20.9248C87.7307 20.3398 87.4897 19.7768 87.4897 19.7768L87.9147 19.2448C88.0017 19.3798 88.1767 19.4048 88.1767 19.4048C88.3967 19.1418 88.3407 18.6918 88.6897 18.5008C88.8377 18.4548 88.9967 18.5738 88.9967 18.5738C89.2787 18.1758 89.0127 18.1038 89.6897 17.3338C89.8387 17.3488 89.9097 17.5398 89.9097 17.5398C90.2027 17.1738 89.9567 16.9048 90.4537 15.9748C90.8637 16.2698 91.4537 16.7598 91.8897 17.0388C92.3257 17.3188 92.2947 17.3848 92.4747 18.1138C92.7257 19.1368 93.2647 19.0738 93.2647 19.0738C93.4127 19.3068 93.8697 19.4878 93.8697 19.4878L93.9777 23.5998C94.1107 28.8078 97.6807 30.1508 102.056 30.5848C101.881 30.8798 101.979 31.1528 101.979 31.1528C101.979 31.1528 101.163 30.9668 100.507 31.4688C100.25 31.6648 100.06 31.5718 100.06 31.5718C99.0647 29.9028 97.6297 29.7738 97.6297 29.7738C97.4197 29.9288 97.6347 30.4198 97.7927 30.7138C97.8397 30.7868 97.8807 30.8638 97.9267 30.9418C97.9267 30.9418 97.8647 30.8428 97.7927 30.7138C96.8087 29.0298 95.3007 28.5958 95.3007 28.5958C95.2547 29.7898 96.0647 30.3678 96.0647 30.3678L95.4907 30.1768C95.0957 28.1418 93.6947 27.8468 93.6947 27.8468C93.4287 29.1698 94.4387 30.0008 94.4387 30.0008L94.0287 29.9238C93.7667 29.2158 93.1927 28.4828 93.1927 28.4828C94.5257 26.1678 93.3257 24.5148 93.3257 24.5148C92.8127 25.2228 92.5767 25.9198 92.5767 25.9198C92.3717 25.3978 92.3157 24.8968 92.3157 24.8968C94.0897 22.5048 93.1307 20.5568 93.1307 20.5568C92.4287 21.0328 92.1107 21.8848 92.1107 21.8848L92.0797 21.2388C93.1767 18.8938 91.5257 17.3748 91.5257 17.3748C90.1917 19.7618 91.7767 21.2388 91.7767 21.2388L91.8077 21.8588C91.2487 20.3968 90.1357 20.1028 90.1357 20.1028C89.7717 22.6238 91.7617 23.7758 91.7617 23.7758C91.7767 24.2308 91.8487 24.6278 91.8487 24.6278C91.2997 24.0398 90.6327 23.7758 90.6327 23.7758C90.4747 26.7258 92.4947 27.4908 92.4947 27.4908C92.6287 27.8208 92.6697 28.1108 92.6697 28.1108C91.7617 27.5008 90.9977 27.5468 90.9977 27.5468C91.2027 29.1698 92.5777 29.9238 92.5777 29.9238C92.1827 29.9438 91.8897 30.0578 91.8897 30.0578ZM93.2187 25.6048C93.6187 26.2968 93.3057 27.4598 93.0287 27.5318C92.6947 26.9578 93.0127 25.8268 93.2187 25.6048ZM93.5257 29.8768C92.9257 29.7268 91.8587 28.9778 91.7157 28.1668C92.4897 28.3478 93.3927 29.3038 93.5257 29.8768ZM94.0597 28.4828C94.6127 28.7048 94.9927 29.6028 95.0237 30.0728C94.4077 29.8358 93.9977 28.8028 94.0597 28.4828ZM95.9467 29.4228C96.4747 29.5568 97.1317 30.2958 97.1627 30.7658C96.5467 30.6778 95.9627 29.7898 95.9467 29.4228ZM98.1567 30.3988C98.5067 30.5028 99.1067 30.7498 99.3987 31.5048C98.7887 31.4168 98.3047 30.8688 98.1567 30.3988ZM91.8947 30.8688L92.1717 30.4818C93.8597 30.2388 94.9217 30.4148 96.9367 31.1118C98.6037 31.6908 100.661 32.1298 100.661 32.1298L99.8087 32.3418C99.8087 32.3418 98.4497 32.0618 95.7727 31.1168C93.7107 30.3838 91.8947 30.8688 91.8947 30.8688ZM92.5417 31.8298C92.8697 31.4268 94.5777 30.8328 95.1567 31.2928C94.9767 31.5358 93.9517 32.1448 92.5417 31.8298ZM98.2347 32.2898C97.9827 32.4968 96.7467 33.0598 95.7057 32.5688C96.1207 32.1138 97.5517 31.7268 98.2347 32.2898ZM99.4447 32.8118C100.455 32.5318 101.497 32.3208 101.497 32.3208C101.825 32.4088 101.825 32.7758 101.825 32.7758C101.825 32.7758 100.871 32.9508 99.7367 33.3388C99.3937 33.1838 99.4447 32.8118 99.4447 32.8118ZM100.927 31.7988C102.302 31.1328 102.892 32.3258 102.892 32.3258L102.266 32.8888C102.23 31.7988 100.927 31.7988 100.927 31.7988ZM103.138 31.8148C102.343 31.4118 102.209 30.6048 103.138 30.6048C104.066 30.6048 103.933 31.4118 103.138 31.8148ZM103.389 32.3208C103.389 32.3208 103.979 31.1328 105.353 31.7938C105.353 31.7938 104.051 31.7938 104.015 32.8788L103.389 32.3208ZM104.451 32.7758C104.451 32.7758 104.451 32.4088 104.779 32.3208C104.779 32.3208 105.825 32.5328 106.831 32.8108C106.831 32.8108 106.882 33.1788 106.533 33.3388C105.852 33.1051 105.156 32.917 104.451 32.7758ZM106.466 32.3418L105.615 32.1298C105.615 32.1298 107.672 31.6898 109.339 31.1118C111.354 30.4098 112.416 30.2338 114.103 30.4818L114.38 30.8688C114.38 30.8688 112.57 30.3838 110.503 31.1168C107.82 32.0568 106.466 32.3418 106.466 32.3418ZM108.041 32.2898C108.728 31.7268 110.154 32.1098 110.57 32.5688C109.528 33.0588 108.292 32.4968 108.041 32.2898ZM111.118 31.2928C111.698 30.8328 113.406 31.4268 113.734 31.8298C112.329 32.1448 111.303 31.5358 111.118 31.2928ZM115.663 21.0168C115.719 21.3428 115.427 22.6498 114.56 23.1248C114.591 22.6498 114.796 21.5178 115.663 21.0168ZM113.452 21.6628C113.832 22.0038 114.401 23.5228 114.067 24.0958C113.673 23.8788 113.175 22.3138 113.452 21.6628ZM114.678 18.3308C114.929 18.7488 114.944 20.2788 114.385 20.7948C114.18 20.3348 114.093 18.9818 114.678 18.3308ZM115.211 24.6438C115.273 24.9688 114.78 26.4468 113.965 26.8398C113.991 26.3698 114.314 25.2328 115.211 24.6438ZM113.247 27.5318C112.97 27.4598 112.657 26.2968 113.057 25.6048C113.262 25.8268 113.58 26.9578 113.247 27.5318ZM114.56 28.1718C114.411 28.9838 113.344 29.7318 112.749 29.8818C112.883 29.3038 113.785 28.3478 114.56 28.1718ZM112.216 28.4818C112.277 28.8078 111.867 29.8358 111.252 30.0738C111.282 29.5978 111.662 28.6978 112.216 28.4818ZM110.328 29.4218C110.313 29.7888 109.728 30.6778 109.113 30.7658C109.144 30.2958 109.805 29.5558 110.328 29.4218ZM108.118 30.3988C107.974 30.8688 107.487 31.4168 106.877 31.5048C107.169 30.7498 107.769 30.5028 108.118 30.3988ZM112.395 18.6668C112.626 18.7078 112.642 18.9508 112.642 18.9508C112.329 19.2248 111.913 19.2088 111.913 19.2088C112.113 18.8318 112.395 18.6668 112.395 18.6668ZM112.072 18.1908C111.6 18.5168 111.262 18.2898 111.262 18.2898C111.585 18.0048 111.79 17.6898 111.79 17.6898C112.17 17.8248 112.072 18.1908 112.072 18.1908ZM111.831 16.8898C111.359 17.2148 110.98 17.0128 110.98 17.0128C111.277 16.5788 111.683 16.4708 111.683 16.4708C111.954 16.5738 111.831 16.8898 111.831 16.8898ZM111.98 14.9728C111.616 15.1228 111.349 15.3808 111.349 15.3808C111.324 14.8798 111.729 14.6058 111.729 14.6058C112.021 14.6058 111.98 14.9728 111.98 14.9728ZM112.36 13.0818C111.888 13.4998 111.482 13.2578 111.482 13.2578C111.929 13.0408 112.062 12.7718 112.062 12.7718C112.395 12.8648 112.36 13.0818 112.36 13.0818ZM96.7567 9.42382C96.9517 9.51682 97.4857 9.80682 98.2697 9.63582C99.3117 9.40882 99.6097 8.31382 99.6097 8.31382C99.6097 8.31382 100.414 9.21782 101.599 8.96982C102.599 8.76282 103.133 7.74982 103.133 7.74982C103.133 7.74982 103.671 8.76282 104.671 8.96982C105.856 9.21782 106.666 8.31382 106.666 8.31382C106.666 8.31382 106.964 9.40882 108.005 9.63582C108.785 9.80582 109.318 9.51682 109.513 9.42382C109.708 9.33082 109.79 9.54782 109.605 9.66182C108.877 10.0958 107.184 10.1838 106.584 8.71582C106.584 8.71582 105.882 9.37782 104.789 9.25382C103.866 9.14982 103.133 8.23082 103.133 8.23082C103.133 8.23082 102.404 9.15082 101.481 9.25382C100.389 9.37782 99.6857 8.71682 99.6857 8.71682C99.0857 10.1838 97.3927 10.0958 96.6657 9.66182C96.4857 9.54782 96.5627 9.33182 96.7567 9.42382ZM93.9207 13.0818C93.9207 13.0818 93.8807 12.8648 94.2187 12.7718C94.2187 12.7718 94.3517 13.0408 94.7987 13.2578C94.7987 13.2578 94.3927 13.4998 93.9207 13.0818ZM94.2957 14.9718C94.2957 14.9718 94.2537 14.6058 94.5517 14.6058C94.5517 14.6058 94.9567 14.8748 94.9317 15.3808C94.9317 15.3808 94.6597 15.1158 94.2957 14.9718ZM94.5927 16.4658C94.5927 16.4658 94.9977 16.5738 95.2957 17.0078C95.2957 17.0078 94.9157 17.2098 94.4437 16.8838C94.4437 16.8898 94.3257 16.5738 94.5927 16.4658ZM94.8227 11.9558C94.8227 11.9558 95.1467 11.7128 95.3877 11.9138C95.3877 11.9138 95.6177 12.6218 94.9727 12.7868C94.9727 12.7818 95.0127 12.3898 94.8227 11.9558ZM95.9567 12.8238C95.9567 12.8238 95.8747 12.2398 95.7567 11.8838C95.7567 11.8838 96.0387 11.7898 96.2287 11.9088C96.2287 11.9138 96.5217 12.3888 95.9567 12.8238ZM96.9007 12.8498C96.9007 12.8498 96.8497 12.3898 96.6597 11.9758C96.6597 11.9758 96.8747 11.8518 97.0647 11.9758C97.0647 11.9818 97.2397 12.4558 96.9007 12.8488V12.8498ZM108.918 10.9798L108.662 11.4438C108.623 11.4059 108.596 11.3573 108.585 11.3042C108.574 11.2511 108.579 11.1959 108.599 11.1456C108.619 11.0952 108.654 11.052 108.699 11.0215C108.744 10.9909 108.796 10.9743 108.851 10.9738C108.877 10.9738 108.898 10.9748 108.918 10.9798ZM97.2547 10.7618L96.7987 10.0798C96.7987 10.0798 97.5987 10.4828 98.5417 10.1998C99.5827 9.88382 99.8037 9.17582 99.8037 9.17582C99.8037 9.17582 100.522 9.72882 101.599 9.57882C102.461 9.46582 103.133 8.75282 103.133 8.75282C103.133 8.75282 103.81 9.46582 104.666 9.57882C105.748 9.72382 106.461 9.17582 106.461 9.17582C106.461 9.17582 106.682 9.88382 107.723 10.1988C108.672 10.4828 109.467 10.0798 109.467 10.0798L109.01 10.7618C109.01 10.7618 106.107 9.64582 103.128 9.64582C100.158 9.64582 97.2547 10.7618 97.2547 10.7618ZM97.3627 10.9788C97.3827 10.9738 97.4027 10.9738 97.4237 10.9738C97.4778 10.9746 97.5305 10.9913 97.5752 11.0219C97.6199 11.0525 97.6545 11.0955 97.6748 11.1457C97.6951 11.1959 97.7001 11.251 97.6892 11.304C97.6784 11.357 97.6521 11.4057 97.6137 11.4438L97.3627 10.9788ZM98.2697 11.1958C98.2339 11.1958 98.1984 11.1887 98.1653 11.1749C98.1322 11.1611 98.1022 11.1409 98.077 11.1154C98.0518 11.0899 98.0319 11.0597 98.0185 11.0265C98.005 10.9932 97.9983 10.9577 97.9987 10.9218C97.9987 10.7718 98.1217 10.6488 98.2707 10.6488C98.4187 10.6488 98.5417 10.7728 98.5417 10.9228C98.5417 11.0728 98.4187 11.1958 98.2697 11.1958ZM99.2087 10.9588C99.1365 10.958 99.0674 10.9289 99.0165 10.8776C98.9657 10.8263 98.937 10.7571 98.9367 10.6848C98.9367 10.5348 99.0597 10.4108 99.2087 10.4108C99.2773 10.4167 99.3413 10.4481 99.3879 10.4988C99.4344 10.5496 99.4603 10.6159 99.4603 10.6848C99.4603 10.7537 99.4344 10.8201 99.3879 10.8708C99.3413 10.9215 99.2773 10.953 99.2087 10.9588ZM100.194 10.7208C100.121 10.72 100.052 10.6909 100.002 10.6396C99.9507 10.5883 99.922 10.5191 99.9217 10.4468C99.9217 10.2968 100.045 10.1728 100.194 10.1728C100.343 10.1728 100.466 10.2968 100.466 10.4468C100.466 10.5968 100.348 10.7208 100.194 10.7208ZM101.173 10.5758C101.103 10.5716 101.038 10.541 100.99 10.4901C100.942 10.4393 100.915 10.3721 100.915 10.3023C100.915 10.2325 100.942 10.1653 100.99 10.1145C101.038 10.0637 101.103 10.033 101.173 10.0288C101.322 10.0288 101.445 10.1528 101.445 10.3028C101.445 10.3387 101.438 10.3742 101.425 10.4074C101.411 10.4406 101.391 10.4707 101.366 10.4961C101.34 10.5215 101.31 10.5416 101.277 10.5553C101.244 10.569 101.209 10.576 101.173 10.5758ZM102.163 10.4988C102.09 10.498 102.021 10.4689 101.971 10.4176C101.92 10.3663 101.891 10.2971 101.891 10.2248C101.891 10.0748 102.015 9.95082 102.163 9.95082C102.231 9.95669 102.295 9.9881 102.342 10.0388C102.388 10.0896 102.414 10.1559 102.414 10.2248C102.414 10.2937 102.388 10.3601 102.342 10.4108C102.295 10.4615 102.231 10.493 102.163 10.4988ZM103.138 10.4728C103.065 10.472 102.996 10.4429 102.946 10.3916C102.895 10.3403 102.866 10.2711 102.866 10.1988C102.866 10.0488 102.989 9.92482 103.138 9.92482C103.287 9.92482 103.41 10.0488 103.41 10.1988C103.41 10.3488 103.287 10.4728 103.138 10.4728ZM104.117 10.4988C104.044 10.4988 103.974 10.47 103.923 10.4186C103.872 10.3672 103.843 10.2975 103.843 10.2248C103.843 10.1522 103.872 10.0825 103.923 10.0311C103.974 9.97969 104.044 9.95082 104.117 9.95082C104.185 9.95669 104.249 9.9881 104.296 10.0388C104.342 10.0896 104.368 10.1559 104.368 10.2248C104.368 10.2937 104.342 10.3601 104.296 10.4108C104.249 10.4615 104.185 10.493 104.117 10.4988ZM105.102 10.5758C105.029 10.575 104.96 10.5458 104.91 10.4946C104.859 10.4433 104.83 10.3741 104.83 10.3018C104.83 10.1518 104.953 10.0288 105.102 10.0288C105.251 10.0288 105.374 10.1528 105.374 10.3028C105.375 10.3389 105.369 10.3748 105.355 10.4083C105.342 10.4419 105.322 10.4724 105.297 10.498C105.271 10.5235 105.241 10.5436 105.207 10.557C105.174 10.5704 105.138 10.5768 105.102 10.5758ZM106.082 10.7208C106.009 10.72 105.94 10.6909 105.89 10.6396C105.839 10.5883 105.81 10.5191 105.81 10.4468C105.81 10.2968 105.933 10.1728 106.082 10.1728C106.23 10.1728 106.354 10.2968 106.354 10.4468C106.354 10.5968 106.23 10.7208 106.082 10.7208ZM107.072 10.9588C106.999 10.958 106.93 10.9289 106.88 10.8776C106.829 10.8263 106.8 10.7571 106.8 10.6848C106.8 10.5348 106.923 10.4108 107.072 10.4108C107.144 10.4108 107.214 10.4397 107.265 10.4911C107.317 10.5425 107.346 10.6122 107.346 10.6848C107.346 10.7575 107.317 10.8272 107.265 10.8786C107.214 10.93 107.144 10.9588 107.072 10.9588ZM108.01 11.1958C107.937 11.195 107.868 11.1659 107.818 11.1146C107.767 11.0633 107.738 10.9941 107.738 10.9218C107.738 10.7718 107.861 10.6488 108.01 10.6488C108.159 10.6488 108.282 10.7728 108.282 10.9228C108.282 11.0728 108.159 11.1958 108.01 11.1958ZM103.138 11.5108C106.148 11.5108 107.01 12.0378 107.01 12.0378C107.01 12.0378 106.159 12.1158 103.138 12.1158C100.117 12.1158 99.2707 12.0378 99.2707 12.0378C99.2707 12.0378 100.132 11.5108 103.138 11.5108ZM97.7477 11.9808C97.3827 12.1008 97.3417 11.8208 97.6037 11.7078C97.8647 11.5878 99.9987 10.7358 103.138 10.7358C106.277 10.7358 108.41 11.5888 108.672 11.7078C108.933 11.8268 108.892 12.0998 108.528 11.9818C108.164 11.8618 106.354 11.1288 103.138 11.1288C99.9217 11.1288 98.1117 11.8628 97.7477 11.9818V11.9808ZM109.375 12.8498C109.036 12.4568 109.21 11.9758 109.21 11.9758C109.4 11.8518 109.616 11.9758 109.616 11.9758C109.431 12.3898 109.375 12.8488 109.375 12.8488V12.8498ZM110.318 12.8238C109.754 12.3898 110.052 11.9138 110.052 11.9138C110.241 11.7898 110.523 11.8888 110.523 11.8888C110.4 12.2388 110.318 12.8238 110.318 12.8238ZM111.303 12.7818C110.657 12.6168 110.888 11.9088 110.888 11.9088C111.129 11.7078 111.452 11.9508 111.452 11.9508C111.267 12.3898 111.303 12.7818 111.303 12.7818ZM94.9257 19.2558C94.5667 18.9298 94.4597 18.6658 94.4597 18.6658C95.2087 18.7858 95.4647 18.3878 95.4647 18.3878C94.9317 17.8138 94.7417 17.4318 94.7417 17.4318C95.2237 17.4888 95.6437 17.3338 95.6437 17.3338C95.7317 16.4398 94.8077 16.3938 94.7617 15.6858C94.9877 15.7058 95.1777 15.8408 95.1777 15.8408C95.7267 14.6838 94.5307 14.6838 94.7777 13.6968C95.1467 13.5728 95.3107 13.3038 95.3107 13.3038C95.2298 13.2872 95.1521 13.2575 95.0807 13.2158C95.4957 13.0358 95.6027 12.7458 95.6027 12.7458C95.7267 13.0508 95.7267 13.3088 95.7267 13.3088C96.3107 13.2108 96.4907 12.7928 96.4907 12.7928C96.5567 13.0608 96.7677 13.3298 96.7677 13.3298C97.2337 13.1598 97.4037 12.8238 97.4037 12.8238C97.4037 12.8238 100.527 12.8908 103.143 12.8908C105.759 12.8908 108.887 12.8238 108.887 12.8238C108.887 12.8238 109.051 13.1588 109.523 13.3298C109.523 13.3298 109.734 13.0608 109.8 12.7928C109.8 12.7928 109.98 13.2108 110.564 13.3088C110.564 13.3088 110.564 13.0508 110.688 12.7458C110.688 12.7458 110.8 13.0358 111.211 13.2158C111.211 13.2158 111.134 13.2728 110.975 13.3038C110.975 13.3038 111.144 13.5728 111.508 13.6968C111.754 14.6838 110.559 14.6838 111.108 15.8408C111.108 15.8408 111.298 15.7058 111.524 15.6858C111.477 16.3928 110.554 16.4398 110.641 17.3338C110.641 17.3338 111.067 17.4888 111.544 17.4318C111.544 17.4318 111.354 17.8138 110.821 18.3878C110.821 18.3878 111.077 18.7848 111.826 18.6668C111.826 18.6668 111.713 18.9298 111.359 19.2558C111.359 19.2558 111.472 19.3998 111.662 19.4928C111.662 19.4928 111.626 21.7718 111.59 23.4448C111.534 26.2608 110.529 29.7998 103.148 29.7998C95.7677 29.7998 94.7677 26.2558 94.7057 23.4448L94.6337 19.4928C94.7454 19.4334 94.8445 19.3529 94.9257 19.2558ZM94.3667 19.2088C94.3667 19.2088 93.9467 19.2248 93.6387 18.9508C93.6387 18.9508 93.6547 18.7078 93.8797 18.6668C93.8797 18.6668 94.1617 18.8318 94.3667 19.2088ZM94.4847 17.6898C94.4847 17.6898 94.6847 17.9998 95.0077 18.2898C95.0077 18.2898 94.6697 18.5218 94.1977 18.1908C94.2027 18.1908 94.1107 17.8238 94.4847 17.6898ZM92.4747 10.6328C92.4747 10.6328 92.9517 11.0928 93.2597 11.2998C93.4997 11.4648 93.6337 11.3618 93.6797 11.2738C94.0287 10.5818 94.6337 10.9228 94.6337 10.9228C95.3777 10.4628 95.8087 10.8708 95.8087 10.8708C96.5627 10.5038 96.9927 10.9638 96.9927 10.9638L97.2747 11.5888C96.9965 11.5018 96.6971 11.511 96.4247 11.6148C96.0597 11.3818 95.5157 11.5318 95.5157 11.5318C94.9107 11.2888 94.5877 11.6968 94.5877 11.6968C94.3877 11.4128 94.0897 11.2638 94.2387 11.6408C94.3367 11.8828 94.3617 12.2548 94.1307 12.2138C93.9007 12.1728 93.7927 12.3068 93.9827 12.5388C93.6597 12.6478 93.5517 12.9988 93.5517 12.9988C92.9467 12.8488 93.1617 12.1468 93.2797 12.0228C93.4027 11.8988 93.4387 11.6348 93.1467 11.7488C92.6177 11.9508 92.8487 12.3068 92.5157 12.2388C92.1767 12.1728 91.9617 12.0898 91.9617 12.0898C92.1257 11.7498 92.1617 11.3818 92.1617 11.3818C92.2437 11.4648 92.4177 11.3668 92.4177 11.3668C92.1677 10.8548 92.4747 10.6328 92.4747 10.6328ZM91.1457 6.37582C91.2897 6.37582 91.4277 6.24682 91.4277 6.24682C91.3407 6.03482 91.4437 5.79182 91.4437 5.79182C92.5877 6.29382 92.4437 7.63182 92.4437 7.63182C92.0537 7.04182 91.2737 6.99582 91.1457 6.37582ZM91.1457 7.97282C91.1457 7.97282 91.3207 7.69882 91.2747 7.14082C91.8127 7.74482 92.3107 7.82782 92.1517 9.01082C92.1517 9.01082 91.5257 8.50982 91.1457 7.97282ZM91.8797 12.6228C91.8797 12.6228 92.1927 12.7198 92.6597 12.7718C92.6597 12.7718 92.8497 13.5218 93.8077 13.4488C93.8747 13.7328 93.7927 13.7488 93.5517 13.8308C93.3107 13.9138 93.0947 14.1048 93.0387 14.8388C93.0237 15.0288 92.9157 15.0288 92.7417 14.8228L91.7417 13.6658C91.7457 13.6658 91.9207 13.1388 91.8797 12.6218V12.6228ZM91.8797 10.4578C91.4797 10.0178 91.4947 9.58982 90.6637 9.05782C90.6637 9.05782 90.6177 8.70082 90.8277 8.39082C92.1977 9.22282 91.8797 10.4568 91.8797 10.4568V10.4578ZM90.9867 5.89082C90.1567 5.33282 89.9147 5.11082 89.9667 4.20582C90.4897 4.67582 91.1107 4.86782 90.9867 5.89082ZM90.9717 4.32482C90.9717 4.32482 90.0017 4.13482 89.7767 3.22982C90.5567 3.05382 90.9717 3.62782 90.9717 4.32482ZM89.9517 5.59582C89.9517 5.59582 90.9867 6.02982 90.7817 7.40382C90.2277 6.56682 89.6077 6.47982 89.9517 5.59582ZM90.4387 10.7828C91.8127 12.0848 91.2747 13.0558 91.2747 13.0558C91.2747 13.0558 90.8897 12.6528 90.8747 12.1988C90.8587 11.7438 90.3407 11.0928 90.3407 11.0928C90.4537 10.9948 90.4387 10.7828 90.4387 10.7828ZM90.2337 9.78082C90.5357 9.75482 90.4897 9.39782 90.4897 9.39782C90.4897 9.39782 90.9407 9.70782 91.2437 10.1678C91.6387 10.7618 91.4437 10.8658 91.5567 11.4958C90.6637 10.7988 90.2337 9.78082 90.2337 9.78082ZM90.0537 8.01382C90.0537 8.01382 89.5357 7.46082 89.7767 6.85182C89.7767 6.85182 90.3967 7.24882 90.4177 8.24182C90.4227 8.60782 90.0687 8.77782 89.9147 8.20482L90.0537 8.01382ZM89.4537 1.96382C89.4537 1.96382 90.2487 1.99982 90.5047 2.85282C90.5047 2.85282 90.0747 2.74982 89.6077 2.83682C89.6077 2.83182 89.3457 2.57382 89.4537 1.96382ZM89.4127 3.32782C89.7507 3.72082 89.6427 4.16982 89.6427 4.16982C89.6427 4.16982 89.2277 4.07182 89.0177 3.73582C88.7257 3.25582 89.0687 2.93582 89.4127 3.32782ZM88.9047 4.94482C88.6537 4.80482 88.7717 3.85482 89.2947 4.37182C89.6437 4.72282 89.5767 5.36882 89.5767 5.36882C89.5767 5.36882 89.3307 5.17782 88.9047 4.94482ZM88.6537 6.49482C88.6537 6.49482 88.5047 6.52582 88.3047 6.45882L88.4897 6.29382C88.4897 6.29382 88.5197 6.41182 88.6537 6.49482ZM88.7047 5.28582C88.7047 5.28582 88.9407 5.48782 89.2647 5.67382C89.7817 5.97382 89.4277 6.64982 89.4277 6.64982C89.4277 6.64982 89.3357 6.48982 88.8177 6.19482C88.4377 5.97282 88.5717 5.36882 88.7047 5.28582ZM89.1967 2.80082C88.5047 2.81682 88.3567 2.33082 88.5567 2.06182C88.7567 1.79382 89.1817 1.94382 89.1407 2.19682C89.0997 2.44982 89.1967 2.80082 89.1967 2.80082ZM91.5717 4.91382C91.5717 4.91382 91.4587 4.67082 91.4587 4.41282C91.4587 4.41282 92.9877 4.83182 92.7257 6.38082C92.2587 5.49282 91.3357 5.60582 91.1927 4.86782C91.1977 4.86782 91.4117 4.94482 91.5717 4.91382ZM112.288 12.5398C112.477 12.3068 112.37 12.1728 112.139 12.2138C111.908 12.2548 111.934 11.8838 112.031 11.6408C112.18 11.2578 111.883 11.4078 111.683 11.6968C111.683 11.6968 111.359 11.2888 110.749 11.5318C110.749 11.5318 110.211 11.3818 109.846 11.6148C109.846 11.6148 109.441 11.4388 108.995 11.5888L109.277 10.9638C109.277 10.9638 109.708 10.5038 110.467 10.8708C110.467 10.8708 110.898 10.4628 111.641 10.9218C111.641 10.9218 112.247 10.5818 112.595 11.2738C112.642 11.3618 112.775 11.4638 113.016 11.2998C113.324 11.0978 113.801 10.6328 113.801 10.6328C113.801 10.6328 114.108 10.8498 113.852 11.3668C113.852 11.3668 114.026 11.4598 114.108 11.3818C114.108 11.3818 114.15 11.7488 114.309 12.0898C114.309 12.0898 114.093 12.1728 113.755 12.2398C113.416 12.3068 113.647 11.9558 113.119 11.7498C112.826 11.6348 112.862 11.8988 112.985 12.0228C113.108 12.1468 113.324 12.8498 112.719 12.9988C112.724 12.9988 112.616 12.6478 112.288 12.5388V12.5398ZM114.529 13.6658L113.529 14.8228C113.355 15.0238 113.247 15.0238 113.231 14.8378C113.18 14.1048 112.965 13.9138 112.719 13.8308C112.477 13.7478 112.39 13.7378 112.462 13.4488C113.421 13.5158 113.611 12.7718 113.611 12.7718C114.083 12.7198 114.391 12.6218 114.391 12.6218C114.355 13.1388 114.529 13.6658 114.529 13.6658ZM115.129 7.97282C114.755 8.50982 114.124 9.01082 114.124 9.01082C113.965 7.82782 114.462 7.74482 115.001 7.14082C114.955 7.69882 115.129 7.97282 115.129 7.97282ZM114.847 6.25282C114.847 6.25282 114.98 6.38082 115.129 6.38082C115.001 6.99582 114.221 7.04782 113.837 7.63682C113.837 7.63682 113.693 6.30382 114.832 5.79682C114.832 5.79682 114.934 6.04082 114.847 6.25282ZM114.703 4.91382C114.862 4.94482 115.083 4.86282 115.083 4.86282C114.939 5.60082 114.016 5.48282 113.549 6.37582C113.293 4.83082 114.821 4.40782 114.821 4.40782C114.816 4.67082 114.703 4.91382 114.703 4.91382ZM114.401 10.4568C114.401 10.4568 114.078 9.21682 115.452 8.39082C115.663 8.70082 115.611 9.05682 115.611 9.05682C114.785 9.59482 114.801 10.0238 114.401 10.4568ZM115.304 4.32482C115.304 3.62782 115.719 3.05482 116.499 3.22982C116.273 4.13382 115.304 4.32482 115.304 4.32482ZM116.324 5.59582C116.668 6.48482 116.047 6.57282 115.493 7.40382C115.288 6.02982 116.324 5.59582 116.324 5.59582ZM115.288 5.89082C115.17 4.86782 115.791 4.67682 116.309 4.20582C116.36 5.10982 116.119 5.33282 115.288 5.89082ZM115.77 2.85282C116.032 1.99982 116.827 1.96382 116.827 1.96382C116.929 2.57382 116.673 2.83682 116.673 2.83682C116.206 2.74382 115.77 2.85282 115.77 2.85282ZM116.632 4.16982C116.632 4.16982 116.524 3.72582 116.863 3.32782C117.201 2.93582 117.55 3.25582 117.252 3.73082C117.047 4.06682 116.632 4.16982 116.632 4.16982ZM116.699 5.36882C116.699 5.36882 116.632 4.71782 116.981 4.37182C117.504 3.84982 117.622 4.80582 117.37 4.94482C116.95 5.17782 116.699 5.36882 116.699 5.36882ZM117.14 2.19682C117.099 1.94382 117.524 1.79382 117.724 2.06182C117.924 2.33082 117.776 2.81682 117.083 2.80182C117.083 2.80182 117.181 2.44982 117.14 2.19682ZM117.791 6.29382L117.976 6.45882C117.776 6.52582 117.627 6.49482 117.627 6.49482C117.755 6.41182 117.791 6.29382 117.791 6.29382ZM117.458 6.19482C116.945 6.48482 116.847 6.64982 116.847 6.64982C116.847 6.64982 116.493 5.97282 117.017 5.67382C117.34 5.48782 117.576 5.28582 117.576 5.28582C117.704 5.36882 117.837 5.97182 117.458 6.19482ZM116.222 8.01382L116.36 8.20482C116.206 8.77782 115.852 8.60782 115.857 8.24082C115.873 7.25382 116.499 6.85082 116.499 6.85082C116.74 7.45582 116.222 8.01382 116.222 8.01382ZM115.837 10.7828C115.837 10.7828 115.822 10.9948 115.934 11.0928C115.934 11.0928 115.421 11.7488 115.401 12.1978C115.386 12.6528 115.001 13.0558 115.001 13.0558C115.001 13.0558 114.462 12.0848 115.837 10.7828ZM114.719 11.4958C114.832 10.8658 114.637 10.7618 115.032 10.1678C115.334 9.70782 115.786 9.39782 115.786 9.39782C115.786 9.39782 115.739 9.75482 116.042 9.78082C116.047 9.78082 115.611 10.7988 114.719 11.4958ZM114.385 30.0578C114.385 30.0578 114.093 29.9388 113.698 29.9178C113.698 29.9178 115.078 29.1698 115.278 27.5418C115.278 27.5418 114.514 27.4958 113.606 28.1048C113.606 28.1048 113.652 27.8108 113.78 27.4848C113.78 27.4848 115.801 26.7208 115.642 23.7708C115.642 23.7708 114.97 24.0338 114.426 24.6228C114.426 24.6228 114.498 24.2248 114.514 23.7708C114.514 23.7708 116.509 22.6188 116.14 20.0978C116.14 20.0978 115.027 20.3918 114.467 21.8538L114.498 21.2338C114.498 21.2338 116.083 19.7568 114.75 17.3698C114.75 17.3698 113.098 18.8888 114.196 21.2338L114.165 21.8798C114.165 21.8798 113.842 21.0278 113.139 20.5518C113.139 20.5518 112.185 22.4998 113.96 24.8918C113.96 24.8918 113.898 25.3928 113.698 25.9148C113.698 25.9148 113.462 25.2168 112.949 24.5098C112.949 24.5098 111.749 26.1628 113.083 28.4768C113.083 28.4768 112.508 29.2168 112.247 29.9188L111.836 29.9958C111.836 29.9958 112.852 29.1698 112.58 27.8418C112.58 27.8418 111.18 28.1358 110.785 30.1718L110.211 30.3628C110.211 30.3628 111.021 29.7838 110.975 28.5908C110.975 28.5908 109.472 29.0248 108.487 30.7088C108.415 30.8428 108.354 30.9418 108.354 30.9418C108.395 30.8588 108.441 30.7868 108.487 30.7088C108.641 30.4148 108.862 29.9238 108.646 29.7688C108.646 29.7688 107.21 29.9028 106.215 31.5668C106.215 31.5668 106.03 31.6598 105.774 31.4628C105.118 30.9628 104.297 31.1478 104.297 31.1478C104.297 31.1478 104.394 30.8738 104.22 30.5798C108.595 30.1508 112.165 28.8078 112.298 23.5948L112.406 19.4828C112.406 19.4828 112.862 19.3068 113.011 19.0698C113.011 19.0698 113.549 19.1258 113.801 18.1088C113.98 17.3798 113.944 17.3128 114.385 17.0338C114.821 16.7548 115.411 16.2638 115.822 15.9698C116.319 16.8998 116.073 17.1678 116.36 17.5348C116.36 17.5348 116.432 17.3448 116.581 17.3288C117.258 18.0928 116.991 18.1658 117.273 18.5688C117.273 18.5688 117.432 18.4488 117.581 18.4958C117.93 18.6868 117.873 19.1318 118.094 19.3998C118.094 19.3998 118.268 19.3698 118.355 19.2398L118.781 19.7718C118.781 19.7718 118.545 20.3348 118.078 20.9188C117.186 22.0448 117.155 22.1688 116.991 22.9698C116.832 23.7698 116.642 25.4648 116.581 25.8628C116.524 26.2608 116.693 26.5248 116.929 26.9528C117.227 27.4848 117.35 27.5468 117.196 28.2238C117.047 28.9008 117.042 28.9368 116.724 28.8698C115.427 28.6118 115.078 28.8338 114.385 30.0578ZM114.642 30.4658C114.642 30.0268 115.145 29.6808 115.145 29.6808C115.442 29.6958 115.473 29.9808 115.473 29.9808C115.188 30.1289 114.911 30.2908 114.642 30.4658ZM114.606 30.9058C114.919 30.6418 115.355 30.6418 115.355 30.6418C115.351 30.7948 115.386 30.9463 115.457 31.0818C115.145 31.0448 114.606 30.9058 114.606 30.9058ZM115.529 29.4328C115.806 29.2208 116.17 29.2568 116.919 29.4488C117.217 29.5258 117.411 29.4068 117.529 28.9938C117.945 27.5218 117.878 27.4178 117.442 26.7158C117.078 26.1258 117.16 25.9458 117.201 25.5268C117.288 24.5968 117.55 23.7768 117.601 23.1248C117.653 22.4788 117.76 22.2518 118.037 21.9678C118.868 21.1098 119.201 20.3398 119.201 20.3398C119.201 20.3398 119.612 20.5628 119.812 21.4978C120.176 23.1978 120.648 23.9678 120.648 23.9678C120.648 23.9678 120.299 24.4378 120.058 24.6848C119.709 25.0368 119.396 24.8398 119.207 25.3148C119.005 25.8437 118.854 26.3904 118.755 26.9478C118.653 27.5938 119.243 27.3668 119.068 27.9088C118.894 28.4518 118.771 29.1848 118.581 29.6598C118.391 30.1298 117.924 30.6258 117.765 30.7138C117.468 30.8688 117.314 30.6418 117.314 30.6418C117.314 30.6418 117.468 30.0838 116.652 30.4148C116.868 29.9598 116.611 29.5308 115.837 29.7478C115.822 29.7478 115.755 29.4998 115.529 29.4328ZM115.704 30.6778C115.668 30.3268 116.104 30.0628 116.104 30.0628C116.314 30.0628 116.401 30.2548 116.401 30.2548C116.17 30.5698 115.704 30.6778 115.704 30.6778ZM121.93 30.4458C121.515 30.7958 121.284 31.0088 121.284 31.0088C121.197 30.5328 121.597 30.2908 121.597 30.2908C121.894 30.3058 121.93 30.4458 121.93 30.4458ZM120.909 29.4228C120.756 30.0578 120.135 30.6318 119.535 30.7808C119.668 30.2028 120.314 29.5728 120.909 29.4228ZM119.622 27.7228C119.807 27.0728 119.078 27.3048 119.263 26.6998C119.591 25.6358 119.514 25.5218 119.894 25.3978C120.279 25.2738 120.402 25.3048 120.858 24.5668C120.858 24.5668 121.089 25.0928 121.181 25.6968C121.274 26.3018 121.781 26.7468 123.653 28.2188C123.653 28.2188 123.561 28.7768 123.376 29.2368C121.412 28.8648 121.55 29.4688 120.812 30.8948C120.812 30.8948 120.489 30.9258 120.166 30.8488C120.166 30.8488 121.376 30.2648 121.361 28.9158C121.361 28.9158 119.796 28.8228 119.166 30.7138C119.166 30.7138 118.704 30.7448 118.432 30.6208C118.432 30.6208 118.801 30.4458 119.032 29.7218C119.268 28.9888 119.489 28.2028 119.622 27.7228ZM122.294 30.9568C122.243 30.6058 122.52 30.3418 122.52 30.3418C122.817 30.3578 122.817 30.5338 122.817 30.5338C122.587 30.7968 122.294 30.9568 122.294 30.9568ZM115.56 31.0808C115.56 31.0808 116.011 31.0658 116.375 30.8538C116.375 30.8538 116.601 30.8688 116.878 30.7138C116.878 30.7138 117.155 31.2718 117.904 31.0438C117.904 31.0438 118.894 31.2568 120.704 31.2568C120.966 31.4318 120.94 31.7068 121.191 31.4838C121.576 31.1478 121.925 31.0968 121.925 31.0968C121.925 31.0968 122.063 31.2718 121.992 31.3968C121.925 31.5198 122.207 31.5098 122.356 31.3448C122.51 31.1688 122.858 31.0138 123.033 31.0138C123.187 31.2408 123.299 31.3438 123.571 31.2408C124.32 30.9618 124.387 31.3648 124.771 31.1898C125.156 31.0138 125.505 31.1378 126.438 30.9098L126.628 31.1898C126.628 31.1898 124.992 31.9388 120.822 31.7678C117.422 31.6228 115.56 31.0808 115.56 31.0808ZM118.319 32.1138C118.899 31.6538 120.761 32.3568 121.094 32.8118C119.443 32.9868 118.504 32.3568 118.319 32.1138ZM79.3387 30.3938C79.2167 30.5848 78.9547 30.2698 78.9387 30.1148C78.9387 30.1148 79.5087 30.1308 79.3387 30.3938ZM78.8167 29.5568C78.1287 29.2728 78.1757 28.6998 78.1757 28.6998C78.1757 28.6998 78.3497 28.8028 78.7137 28.8898C79.3597 29.0458 79.2877 29.7478 78.8167 29.5568ZM78.3137 30.8688C77.8627 30.8178 77.4987 30.4148 77.4987 30.4148C77.4987 30.4148 77.8267 30.1148 78.3647 30.1668C78.9037 30.2228 78.9247 30.9418 78.3137 30.8688ZM127.336 30.1148C127.321 30.2698 127.059 30.5848 126.936 30.3938C126.767 30.1308 127.336 30.1148 127.336 30.1148ZM127.562 28.8908C127.926 28.8028 128.1 28.6998 128.1 28.6998C128.1 28.6998 128.146 29.2728 127.459 29.5568C126.987 29.7478 126.92 29.0458 127.562 28.8908ZM127.91 30.1668C128.222 30.1323 128.535 30.2213 128.782 30.4148C128.782 30.4148 128.418 30.8178 127.967 30.8688C127.351 30.9418 127.372 30.2238 127.91 30.1668ZM128.782 24.9638C130.465 23.5738 129.982 21.2498 128.003 19.2038C126.018 17.1528 125.864 16.3308 125.9 15.0708C127.203 15.1228 127.362 14.1098 127.238 13.9498C128.141 13.5618 127.741 12.7258 127.741 12.7258C128.069 12.2188 127.895 11.3768 127.895 11.3768C127.044 11.3248 126.536 11.6408 126.536 11.6408C125.982 11.4648 125.546 12.2548 125.546 12.2548C124.469 12.2708 124.833 14.3218 124.833 14.3218C124.833 14.3218 124.361 15.5308 124.679 16.5278C125.531 19.2088 127.064 19.9278 128.039 21.6418C128.428 22.3298 128.423 23.6568 127.551 23.9878C126.736 24.3028 126.038 23.6728 125.602 21.9208C125.166 20.1698 125.013 20.1178 123.987 18.7338C122.961 17.3488 122.91 16.6468 122.838 15.2098C122.766 13.7738 122.628 12.2658 122.628 12.2658C122.853 12.3168 122.925 12.1418 122.925 12.1418C122.489 11.5628 122.458 10.8818 122.458 10.8818C122.633 10.8818 122.699 10.7418 122.699 10.7418C122.176 10.1988 122.422 10.0388 122.176 9.56882C122.474 9.58382 122.525 9.35682 122.525 9.35682C121.899 8.88682 121.966 8.46282 121.361 7.76582C121.535 7.78082 121.638 7.66282 121.638 7.66282C121.15 7.06782 120.961 6.55682 120.017 6.73782L119.755 6.43782C119.755 6.43782 120.504 6.38682 120.868 5.91082C121.233 5.43582 120.571 4.96582 120.571 4.96582C120.571 4.96582 120.417 5.15182 120.325 5.12082C120.114 5.05382 120.34 4.80582 120.048 4.66582C119.807 4.55282 119.945 4.08782 120.309 4.15982C120.673 4.22682 120.397 4.70182 120.658 4.78982C120.92 4.87782 121.012 4.35082 121.248 4.43882C121.386 4.49082 121.422 4.37182 121.786 3.73582C122.012 3.34382 121.648 3.36882 121.874 2.87882C122.033 2.53282 122.084 2.00582 120.571 1.77282C120.535 0.512822 119.371 0.951822 118.955 0.915822C118.73 0.0938217 117.981 -0.0661783 116.919 0.0218217L116.832 0.196822C116.119 0.160822 115.668 0.336822 115.668 0.336822L115.719 0.636822C115.006 0.568822 114.729 1.05482 114.273 1.14282L114.36 1.35482C113.698 1.75782 113.801 2.26382 113.16 2.61482L113.421 2.87882L113.262 3.15782C112.565 3.14182 112.134 3.47282 112.134 3.47282C111.298 3.34882 111.093 4.17482 111.093 4.17482C110.205 4.33482 109.964 5.33282 110.046 5.73482C109.318 5.96282 109.472 6.84082 109.472 6.84082C109.005 7.05282 108.795 7.73482 109.487 8.11682C109.487 8.11682 109.174 8.92282 108.256 8.54082C107.338 8.15882 107.579 7.48682 107.733 7.34682C108.38 7.87382 108.846 7.41482 108.78 6.82082C109.734 6.54082 109.477 5.59582 109.477 5.59582C110.641 4.96582 109.913 3.65382 109.913 3.65382C110.436 3.14682 109.928 2.51682 109.928 2.51682C109.944 1.69582 109.405 0.940822 109.405 0.940822C108.569 1.08082 108.256 1.62282 108.256 1.62282C107.369 1.63882 107.179 2.53282 107.179 2.53282C106.256 2.56882 105.943 3.41082 106.066 4.10782C105.507 4.42282 105.42 5.22882 105.733 5.78782C105.246 6.34982 105.661 7.03182 106.2 7.04782C106.2 7.04782 106.097 7.88982 105.138 7.88982C104.184 7.88982 103.815 6.94382 104.061 6.54182C104.774 6.84182 105.107 6.20582 104.964 5.64782C105.83 4.98082 105.066 4.05082 105.066 4.05082C105.605 3.24482 105.118 2.63082 104.579 2.12382C104.579 1.59682 104.179 1.54582 104.179 1.54582C103.83 0.584822 103.128 0.196822 103.128 0.196822C103.128 0.196822 102.43 0.584822 102.081 1.54582C102.081 1.54582 101.681 1.59682 101.681 2.12382C101.143 2.63082 100.655 3.24482 101.194 4.05082C101.194 4.05082 100.43 4.98082 101.297 5.64782C101.158 6.20582 101.486 6.83582 102.199 6.54182C102.44 6.94382 102.076 7.88982 101.122 7.88982C100.168 7.88982 100.06 7.04782 100.06 7.04782C100.599 7.03182 101.014 6.34482 100.527 5.78782C100.84 5.22882 100.753 4.42282 100.199 4.10782C100.322 3.40582 100.009 2.56782 99.0857 2.53282C99.0857 2.53282 98.8957 1.63882 98.0087 1.62282C98.0087 1.62282 97.6957 1.08082 96.8597 0.940822C96.8597 0.940822 96.3217 1.69582 96.3367 2.51682C96.3367 2.51682 95.8337 3.14682 96.3517 3.65382C96.3517 3.65382 95.6187 4.96582 96.7877 5.59582C96.7877 5.59582 96.5267 6.54182 97.4857 6.82082C97.4187 7.41482 97.8857 7.86882 98.5317 7.34682C98.6857 7.48682 98.9267 8.15282 98.0087 8.54082C97.0857 8.92782 96.7777 8.11682 96.7777 8.11682C97.4697 7.73482 97.2597 7.04682 96.7927 6.84082C96.7927 6.84082 96.9467 5.96782 96.2187 5.73582C96.3057 5.33282 96.0647 4.33582 95.1727 4.17582C95.1727 4.17582 94.9627 3.35382 94.1307 3.47282C94.1307 3.47282 93.6947 3.13682 93.0027 3.15782L92.8487 2.87782L93.1107 2.61482C92.4647 2.26382 92.5717 1.75782 91.9107 1.35482L91.9977 1.14282C91.5457 1.05482 91.2637 0.563822 90.5507 0.636822L90.6027 0.336822C90.6027 0.336822 90.1497 0.159822 89.4387 0.196822L89.3497 0.0218217C88.2887 -0.0661783 87.5397 0.0888217 87.3137 0.915822C86.8987 0.951822 85.7287 0.512822 85.6987 1.77282C84.1847 1.99982 84.2317 2.52682 84.3957 2.87882C84.6207 3.36882 84.2567 3.34382 84.4827 3.73582C84.8467 4.36582 84.8827 4.49082 85.0207 4.43882C85.2567 4.35082 85.3547 4.87782 85.6107 4.78982C85.8727 4.70182 85.5957 4.22682 85.9607 4.15982C86.3237 4.08782 86.4627 4.55282 86.2207 4.66582C85.9237 4.80582 86.1497 5.05382 85.9447 5.12082C85.8577 5.15082 85.6987 4.96582 85.6987 4.96582C85.6987 4.96582 85.0367 5.43582 85.4007 5.91082C85.7647 6.38082 86.5137 6.43782 86.5137 6.43782L86.2527 6.73782C85.3127 6.56182 85.1187 7.06782 84.6317 7.66282C84.6317 7.66282 84.7337 7.78682 84.9087 7.76582C84.2987 8.46882 84.3697 8.88682 83.7437 9.35682C83.7437 9.35682 83.7957 9.58382 84.0937 9.56882C83.8467 10.0438 84.0937 10.1988 83.5697 10.7418C83.5697 10.7418 83.6367 10.8818 83.8107 10.8818C83.8107 10.8818 83.7747 11.5628 83.3387 12.1418C83.3387 12.1418 83.4107 12.3168 83.6367 12.2658C83.6367 12.2658 83.4977 13.7738 83.4267 15.2098C83.3547 16.6468 83.3027 17.3498 82.2767 18.7338C81.2517 20.1178 81.0927 20.1698 80.6617 21.9208C80.2257 23.6728 79.5337 24.3028 78.7127 23.9878C77.8457 23.6578 77.8357 22.3288 78.2257 21.6418C79.1997 19.9268 80.7287 19.2088 81.5857 16.5278C81.9027 15.5308 81.4307 14.3218 81.4307 14.3218C81.4307 14.3218 81.7947 12.2708 80.7177 12.2548C80.7177 12.2548 80.2817 11.4648 79.7277 11.6408C79.7277 11.6408 79.2257 11.3248 78.3687 11.3768C78.3687 11.3768 78.1947 12.2188 78.5287 12.7248C78.5287 12.7248 78.1287 13.5678 79.0307 13.9498C78.9077 14.1098 79.0667 15.1228 80.3697 15.0708C80.4047 16.3308 80.2467 17.1528 78.2617 19.2038C76.2817 21.2538 75.7997 23.5798 77.4817 24.9638C79.2207 26.4008 80.9077 25.0368 80.9077 25.0368C81.3947 25.7178 81.3587 26.8598 80.8207 26.7368C80.4977 26.6638 80.4207 26.8808 80.2457 27.6458C79.9847 28.7818 79.9487 28.8538 80.8557 30.5898C80.8557 30.5898 80.3177 30.5898 79.7797 30.3628C79.7797 30.3628 79.7277 30.0478 79.4667 29.8568C79.6927 29.2938 79.3537 28.5968 78.8917 28.5078C78.4467 28.4201 78.0225 28.2484 77.6417 28.0018C77.6417 28.0018 77.4307 29.1898 78.3897 29.8258C78.3897 29.8258 77.2767 29.5828 76.6667 30.4038C77.3787 30.6468 77.3897 31.1588 78.0567 31.3338C78.8047 31.5248 79.1687 30.7708 79.1687 30.7708C79.1687 30.7708 79.3947 30.9258 79.1187 31.2978C78.9077 31.5768 78.9127 31.7008 79.2567 31.8038C82.0057 32.6258 84.8417 32.3988 84.8417 32.3988C84.8417 32.3988 84.2677 32.7138 84.0417 33.4678C85.2267 33.1678 87.3647 34.0258 88.6677 32.1558C88.6677 32.1558 90.1807 31.7368 92.2837 31.3698C92.2837 31.3698 91.8167 31.6498 91.5347 32.1398C91.5347 32.1398 93.3817 33.0498 95.7607 31.6648C95.8787 31.5978 96.0377 31.7888 95.8637 31.8558C94.8537 32.2588 94.6277 32.8738 94.6277 32.8738C94.6277 32.8738 96.6787 33.9788 98.7157 32.6308C98.7157 32.6308 98.4027 33.6488 99.4437 33.9998C99.4437 33.9998 100.439 33.6328 101.496 33.4058C101.496 33.4058 101.393 33.6688 101.619 33.7728C101.619 33.7728 102.47 33.6328 103.116 32.8628C103.768 33.6328 104.619 33.7728 104.619 33.7728C104.845 33.6688 104.742 33.4058 104.742 33.4058C105.804 33.6328 106.794 33.9998 106.794 33.9998C107.84 33.6488 107.522 32.6308 107.522 32.6308C109.558 33.9788 111.61 32.8738 111.61 32.8738C111.61 32.8738 111.384 32.2588 110.374 31.8558C110.199 31.7888 110.363 31.5978 110.476 31.6648C112.861 33.0488 114.702 32.1398 114.702 32.1398C114.425 31.6498 113.954 31.3698 113.954 31.3698C116.056 31.7368 117.569 32.1558 117.569 32.1558C118.872 34.0308 121.011 33.1728 122.196 33.4678C122.068 33.0256 121.784 32.6451 121.396 32.3978C121.396 32.3978 124.232 32.6258 126.981 31.8038C127.325 31.7008 127.33 31.5768 127.119 31.2978C126.843 30.9258 127.068 30.7708 127.068 30.7708C127.068 30.7708 127.432 31.5248 128.181 31.3338C128.848 31.1638 128.858 30.6518 129.571 30.4038C128.961 29.5828 127.848 29.8258 127.848 29.8258C128.807 29.1958 128.597 28.0018 128.597 28.0018C128.597 28.0018 128.073 28.3688 127.345 28.5078C126.884 28.5958 126.545 29.2938 126.771 29.8568C126.509 30.0468 126.458 30.3628 126.458 30.3628C125.919 30.5898 125.381 30.5898 125.381 30.5898C126.283 28.8538 126.248 28.7868 125.991 27.6458C125.817 26.8758 125.74 26.6588 125.417 26.7358C124.878 26.8598 124.842 25.7178 125.329 25.0358C125.355 25.0358 127.044 26.3998 128.782 24.9638ZM136.868 29.6758H135.78L151.285 2.60982H152.377L136.868 29.6758ZM153.027 31.4378C154.042 28.7048 155.237 26.0128 156.524 23.2798C156.478 23.0938 156.201 22.9548 155.976 23.0478C153.032 27.4488 149.857 29.6758 142.446 29.6758H139.548L155.929 1.21582V0.981822H140.927C139.686 0.981822 137.66 0.934822 136.327 0.841822C135.404 3.48182 134.255 6.12682 133.014 8.85982C133.06 9.04582 133.383 9.18582 133.567 9.09282C136.373 5.01082 138.491 2.60282 146.497 2.60282H148.657L132.275 31.0598V31.2928H148.016C149.667 31.2978 151.37 31.3448 153.027 31.4378ZM163.816 29.6758H162.895V2.60482L163.816 2.60982V29.6758ZM179.281 31.4378C180.246 28.7508 181.446 26.1058 182.733 23.5128C182.687 23.2328 182.41 23.1458 182.179 23.2328C178.589 28.5188 174.496 29.6758 168.054 29.6758H166.213V16.7448H170.219C173.624 16.7448 175.512 17.6698 177.537 20.4018C177.768 20.4948 178.04 20.4018 178.091 20.1288L176.158 15.8608L178.091 11.5988C178.045 11.3668 177.814 11.2268 177.537 11.3198C175.512 14.0528 173.624 14.9828 170.219 14.9828H166.213V2.60482H167.777C174.681 2.60482 177.532 4.41282 181.4 9.18682C181.63 9.32682 181.953 9.18682 181.953 8.90682C180.666 6.26682 179.471 3.57682 178.502 0.842822C177.809 0.935822 175.604 0.982822 174.773 0.982822H157.75C157.682 1.08657 157.646 1.20762 157.646 1.33132C157.646 1.45502 157.682 1.57607 157.75 1.67982C160.186 2.14482 160.51 2.88382 160.51 5.06382V27.2168C160.51 29.3918 160.186 30.1358 157.75 30.6008C157.682 30.7046 157.646 30.8256 157.646 30.9493C157.646 31.073 157.682 31.1941 157.75 31.2978H175.558C176.476 31.2978 178.363 31.3448 179.281 31.4378ZM191.02 29.6758H190.084V2.60982H191.02V29.6758ZM193.411 27.2218V5.06882C193.411 2.88882 193.735 2.14982 196.171 1.68482C196.238 1.58107 196.274 1.46002 196.274 1.33632C196.274 1.21262 196.238 1.09157 196.171 0.987822H184.944C184.876 1.09134 184.84 1.21248 184.84 1.33632C184.84 1.46016 184.876 1.5813 184.944 1.68482C187.385 2.14982 187.703 2.88882 187.703 5.06882V27.2218C187.703 29.3968 187.38 30.1408 184.944 30.6058C184.876 30.7093 184.84 30.8305 184.84 30.9543C184.84 31.0782 184.876 31.1993 184.944 31.3028H196.171C196.238 31.1991 196.274 31.078 196.274 30.9543C196.274 30.8306 196.238 30.7096 196.171 30.6058C193.735 30.1408 193.411 29.3958 193.411 27.2218ZM210.675 29.6758H209.744V2.60982H210.675V29.6758ZM223 8.63382C221.717 6.09896 220.565 3.50024 219.548 0.847822C217.938 0.940822 215.82 0.987822 214.163 0.987822H206.249C205.146 0.987822 201.972 0.940822 200.864 0.847822C199.899 3.44682 198.704 6.03982 197.412 8.63382C197.412 8.86582 197.735 9.00582 197.966 8.91282C201.648 4.04582 204.408 2.60982 207.352 2.60982V27.2218C207.352 29.3968 207.029 30.1408 204.587 30.6058C204.519 30.7096 204.484 30.8306 204.484 30.9543C204.484 31.078 204.519 31.1991 204.587 31.3028H215.814C215.882 31.1993 215.918 31.0782 215.918 30.9543C215.918 30.8305 215.882 30.7093 215.814 30.6058C213.373 30.1408 213.055 29.4018 213.055 27.2218V2.60982C215.999 2.60982 218.856 4.04582 222.441 8.91282C222.677 9.00582 223 8.86682 223 8.63382Z" fill="currentColor"/>
</svg>
