<svg width="196" height="22" viewBox="0 0 196 22" fill="none" xmlns="http://www.w3.org/2000/svg">
<path d="M13.1725 0.800537C13.475 2.25804 14.4924 5.5037 14.7399 6.3562L17.2702 15.1287L20.9274 2.698C21.0648 2.23086 21.1197 1.956 21.1198 1.73608C21.1198 1.54363 20.9826 1.37873 20.7077 1.37866L19.1403 1.323V0.800537C19.4978 0.828042 20.1851 0.883537 21.1198 0.883545C22.0823 0.883545 22.5779 0.855536 22.9079 0.800537V1.323C22.2754 1.37799 22.1372 1.46067 21.8073 2.53296L17.0221 18.3455C16.7196 19.308 16.473 20.1887 16.363 20.6287H15.9499L11.7702 6.46558L6.6276 20.656H6.27018L1.56705 2.12085C1.42955 1.54337 1.07217 1.323 0.687172 1.323H0.137367V0.800537C0.98981 0.883032 1.81489 0.883545 3.43717 0.883545C4.83943 0.883545 6.10453 0.855517 6.51725 0.800537V1.37866L5.06022 1.43335C4.73022 1.43335 4.64713 1.54327 4.64713 1.79077C4.64713 2.12077 5.03225 3.90854 5.14225 4.32104L7.83756 15.1287L11.9079 4.04565C12.2379 3.11062 12.7605 1.51548 12.9255 0.800537H13.1725ZM52.7155 0.608154C54.778 0.608188 57.3082 1.35034 57.8307 1.35034C57.9957 1.35034 58.2703 1.35046 58.4352 1.323C58.3802 2.2305 58.3806 4.73358 58.5456 6.54858H58.1325C57.8025 2.97373 56.1255 1.1581 53.0182 1.15796C48.9207 1.15796 46.9401 4.21124 46.9401 10.6462C46.9402 16.9159 49.0032 20.1062 53.0456 20.1062C55.9604 20.1061 57.6103 18.5932 58.0778 15.5408H58.4626C58.4076 16.0083 58.2149 18.3182 58.3249 19.5007C56.62 20.1881 54.4754 20.656 52.8805 20.656C48.4255 20.656 43.613 17.3554 43.613 10.6179C43.6131 5.09058 47.5456 0.608154 52.7155 0.608154ZM32.5143 0.580811C37.5743 0.58086 41.3971 5.17346 41.3971 10.7009C41.3971 14.9634 38.8662 20.6287 32.4313 20.6287C27.289 20.6285 23.6315 16.7779 23.6315 10.7556C23.6316 4.23821 28.5544 0.580811 32.5143 0.580811ZM111.18 1.35034L109.805 1.40601C109.448 1.43355 109.256 1.57152 109.256 3.27612V20.6287H108.541L96.0827 3.13843V17.8787C96.0827 19.8033 96.1934 19.858 96.9909 19.8855L98.2282 19.9128V20.408C97.8982 20.408 96.8533 20.3533 95.5885 20.3533C94.5714 20.3533 93.7188 20.4079 93.361 20.408V19.9128L94.5983 19.8855C95.1756 19.8855 95.2858 19.7479 95.2858 17.2732V2.47827C94.9283 1.87334 94.5706 1.32313 93.361 1.323V0.800537C94.2133 0.882998 94.8183 0.883545 96.193 0.883545C97.2105 0.883545 97.9531 0.855536 98.4206 0.800537C98.4756 1.21304 98.6684 1.65304 99.0534 2.17554L108.458 15.5134V3.57788C108.458 1.57117 108.266 1.37874 107.826 1.37866L106.34 1.35034V0.800537C107.083 0.883031 107.798 0.883545 108.953 0.883545C109.943 0.883545 110.493 0.855525 111.18 0.800537V1.35034ZM156.798 0.800537C160.593 0.800537 162.655 2.67085 162.655 5.55835C162.655 8.2258 160.345 9.76593 158.173 10.0134V10.1228C159.355 10.2053 161.473 10.8662 161.775 13.2312C162.105 15.7335 162.023 17.4387 162.243 18.5662C162.463 19.6383 162.986 19.8582 163.398 19.8582C163.728 19.8581 163.976 19.7753 164.251 19.5554V20.0232C163.701 20.3807 162.985 20.6003 162.325 20.6003C160.785 20.6002 159.217 19.5832 159.052 17.0535C158.805 13.286 158.667 12.4881 158.035 11.4431C157.65 10.8108 156.715 10.3982 155.423 10.3982C155.093 10.3982 154.872 10.4262 154.57 10.4812V18.8132C154.57 19.8031 154.79 19.8855 155.257 19.8855L156.578 19.9128V20.408C156.083 20.408 154.076 20.3533 153.251 20.3533C151.986 20.3533 149.952 20.4079 149.648 20.408V19.9128L151.078 19.8855C151.573 19.8855 151.655 19.7757 151.655 18.6208V2.0105C151.655 1.51592 151.6 1.40621 151.188 1.37866L149.703 1.323V0.800537C150.253 0.828038 151.958 0.883545 152.618 0.883545C153.251 0.883533 155.533 0.800545 156.798 0.800537ZM78.1032 1.323L76.5915 1.37866C76.289 1.37866 76.1237 1.57085 76.1237 2.12085V19.281C76.1237 19.7757 76.2611 19.8581 76.5085 19.8582L78.1032 19.9128V20.408C77.5529 20.4079 76.1503 20.3258 74.6657 20.3533C73.4834 20.3808 72.3011 20.3805 71.1188 20.408V19.9128L72.6315 19.8582C73.0437 19.8306 73.154 19.7206 73.154 19.3357V9.65601H64.7936V19.116C64.7936 19.7481 64.9311 19.8306 65.3708 19.8582L66.7741 19.9128V20.408C66.1691 20.408 64.8214 20.3533 63.3366 20.3533C62.2091 20.3533 61.0258 20.3805 59.8708 20.408V19.9128L61.3835 19.8582C61.741 19.8582 61.8239 19.7479 61.8239 18.8679V2.25854C61.8239 1.48895 61.7412 1.37878 61.4391 1.37866L59.8708 1.323V0.800537C60.5033 0.855536 61.7411 0.883545 63.4186 0.883545C64.9311 0.883545 65.2891 0.883038 66.7741 0.800537V1.323L65.2887 1.37866C64.8762 1.40616 64.7936 1.57104 64.7936 2.94604V8.99585H73.154V1.8728C73.1539 1.48825 73.0435 1.3787 72.6589 1.37866L71.1188 1.323V0.800537C71.8887 0.855525 72.8786 0.88354 74.6657 0.883545C76.2051 0.883545 77.7175 0.828047 78.1032 0.800537V1.323ZM90.8727 4.56812H90.487C90.212 2.45076 89.7172 1.4882 86.9948 1.46069L83.9977 1.43335V9.29858H87.0495C87.462 9.29858 87.5173 9.18796 87.5173 8.72046V6.65796H88.1227V12.571H87.5173V10.5359C87.5173 10.0136 87.4623 9.93048 87.1051 9.93042H83.9977V19.6931H87.2702C91.4223 19.693 92.0269 18.4552 92.2194 15.7878H92.6325L92.5495 20.408C91.2292 20.353 87.1047 20.2986 84.5749 20.2986C82.8974 20.2986 82.8694 20.298 78.9919 20.408V19.9128L80.4499 19.8855C80.8347 19.8855 80.9996 19.6933 80.9997 19.281V1.84546C80.9996 1.43341 80.9172 1.35041 80.5602 1.35034L79.0202 1.29565V0.800537C80.1475 0.855527 81.4123 0.910884 83.0895 0.910889C87.1045 0.910889 89.9377 0.855536 90.8727 0.800537V4.56812ZM131.387 1.323L130.012 1.37866C129.517 1.40616 129.407 1.40576 129.517 3.57788L130.287 18.5662C130.342 19.7755 130.397 19.8854 131.002 19.8855L132.24 19.9128V20.408C131.855 20.408 129.985 20.3533 129.132 20.3533C127.098 20.3533 125.942 20.4079 125.392 20.408V19.9128L126.822 19.8855C127.234 19.8855 127.345 19.7758 127.235 17.741L126.548 3.63354L122.037 16.531C121.377 18.4007 121.019 19.638 120.854 20.408H120.524L114.777 3.3855L114.062 17.9333C113.98 19.7755 114.035 19.858 114.639 19.8855L115.795 19.9128V20.408C115.52 20.408 114.364 20.3533 113.594 20.3533C112.797 20.3533 111.972 20.408 111.559 20.408V19.9128L112.604 19.8855C113.182 19.858 113.237 19.7478 113.402 16.4753L114.117 2.31323C113.952 1.73579 113.759 1.4335 113.264 1.40601L111.807 1.323V0.800537C112.467 0.855521 113.265 0.883542 114.639 0.883545C115.684 0.883545 116.427 0.855536 116.977 0.800537L121.79 15.0183L125.777 3.77124C126.162 2.6439 126.299 2.2034 126.299 1.57104C126.299 1.32354 126.272 0.993036 126.245 0.800537C126.767 0.85552 128.005 0.883544 128.527 0.883545C129.022 0.883545 130.947 0.855536 131.387 0.800537V1.323ZM147.33 19.0886C147.55 19.7756 147.797 19.9128 148.676 19.9128H149.09V20.408C148.54 20.408 146.174 20.3533 145.761 20.3533C145.375 20.3533 143.149 20.408 142.434 20.408V19.9128H143.892C144.249 19.9128 144.359 19.8582 144.359 19.6658C144.359 19.4733 144.304 19.2531 144.221 19.0056L142.434 13.781H136.769L135.091 18.3455C134.844 19.0325 134.761 19.3629 134.761 19.5554C134.761 19.8029 134.844 19.858 135.394 19.8855L136.384 19.9128V20.408C135.697 20.408 134.927 20.3533 134.212 20.3533C133.607 20.3533 132.755 20.4079 132.562 20.408V19.9128H132.892C133.552 19.9128 133.8 19.7756 134.157 18.7585L140.757 0.662842H141.142L147.33 19.0886ZM179.48 1.323L178.572 1.35034C177.912 1.37786 177.527 1.46119 176.867 2.25854L171.78 8.4187L178.682 18.7312C179.369 19.7756 179.782 19.9128 180.304 19.9128H180.525V20.408C179.975 20.408 178.902 20.3533 177.307 20.3533C176.455 20.3533 174.447 20.408 173.897 20.408V19.9128L175.08 19.8855C175.355 19.8855 175.548 19.8581 175.548 19.6931C175.547 19.4457 175.382 19.1979 174.942 18.5105L169.717 10.5085V18.9509C169.717 19.7208 169.828 19.8855 170.378 19.8855L171.505 19.9128V20.408C171.201 20.4079 169.14 20.3258 167.958 20.3533C166.913 20.3808 165.455 20.408 164.905 20.408V19.9128L166.088 19.8855C166.802 19.858 166.857 19.6652 166.857 18.5378V2.03784C166.857 1.51571 166.747 1.40616 166.362 1.37866L164.905 1.323V0.800537C166.142 0.883024 166.61 0.883545 168.259 0.883545C169.689 0.883545 170.817 0.855523 171.505 0.800537V1.323L170.102 1.35034C169.827 1.35039 169.717 1.51578 169.717 2.0105V9.82104L175.932 2.20288C176.152 1.928 176.29 1.7357 176.29 1.62573C176.29 1.46076 176.152 1.40616 175.795 1.37866L174.53 1.323V0.800537C175.3 0.855531 175.933 0.883545 177.088 0.883545C178.215 0.883541 178.848 0.855533 179.48 0.800537V1.323ZM194.977 0.800537C194.922 1.59797 194.922 3.35798 194.977 4.59546H194.592C194.345 2.23071 193.547 1.59839 190.825 1.59839H189.065V19.281C189.065 19.7207 189.147 19.8854 189.505 19.8855L191.485 19.9128V20.408C190.99 20.408 189.093 20.3533 187.855 20.3533C186.453 20.3533 184.308 20.4079 183.703 20.408V19.9128L185.655 19.8855C186.012 19.8855 186.094 19.7207 186.094 19.1433V1.59839H185.022C181.777 1.5984 181.062 1.90078 180.54 4.59546H180.155C180.21 3.55037 180.264 1.54296 180.237 0.800537C181.639 0.965531 184.747 1.02124 187.607 1.02124C190.467 1.02124 194.124 0.883039 194.977 0.800537ZM32.4596 1.13062C29.7096 1.13062 26.904 3.49577 26.904 10.7283C26.904 17.5757 29.7917 20.0778 32.5417 20.0779C35.2366 20.0779 38.1246 17.4933 38.1247 10.5085C38.1247 4.43128 35.7869 1.13088 32.4596 1.13062ZM136.962 13.1208H142.242L139.739 5.53101L136.962 13.1208ZM155.423 1.37866C154.653 1.37867 154.57 1.46126 154.57 2.2312V9.84839C154.817 9.87589 155.396 9.90308 155.671 9.90308C158.888 9.90292 159.547 7.8683 159.548 5.88843C159.548 4.56851 159.245 3.41361 158.695 2.58862C158.117 1.73612 157.32 1.37866 155.423 1.37866Z" fill="black"/>
</svg>
