<svg width="81" height="32" viewBox="0 0 81 32" fill="none" xmlns="http://www.w3.org/2000/svg">
<path d="M60.1357 29.0971C61.6601 30.1943 63.8671 30.4 66.6657 29.6686L67.3028 29.5086L67.7579 31.36L67.1208 31.52C65.8921 31.84 64.709 32 63.6396 32C61.8421 32 60.3177 31.5429 59.0663 30.6286C56.5666 28.8162 56.185 25.8357 56.136 25.4534C56.1337 25.4355 56.1322 25.4233 56.1312 25.4171V25.3486L56.1767 13.5771H52.0357L52.1039 6.69714L53.1505 6.88C54.4475 7.06286 55.4031 6.83429 55.9946 6.19429C57.2005 4.89143 56.973 2.03429 56.7682 1.05143L56.6317 0.388571L58.452 0L58.6112 0.64C58.7022 1.09714 59.4531 5.21143 57.3598 7.47429C56.518 8.38857 55.3803 8.84571 53.9469 8.82286L53.9241 11.68H58.0424L57.9741 25.3029C58.0196 25.6229 58.3609 27.8171 60.1357 29.0971Z" fill="#FF5500"/>
<path d="M80.7725 6.94859H76.4722V0.228585H74.6292V8.84573H80.7725V6.94859Z" fill="#FF5500"/>
<path d="M37.7469 29.5771C35.2896 30.2628 32.1952 29.9886 29.92 28.8C28.2818 27.9543 26.9393 26.72 25.9837 25.1428C25.0281 23.5429 24.5275 21.6686 24.482 19.52C24.4365 17.3943 24.8233 15.4971 25.6652 13.8514C26.4843 12.2286 27.6902 10.9257 29.2829 9.98857C30.8756 9.02857 32.7641 8.52571 34.9256 8.47999C37.7469 8.41142 40.0905 9.18857 41.8424 10.8114C43.4351 12.2743 44.9368 14.8114 45.2554 17.3486L28.8278 22.5828C28.7924 22.6006 29.1972 23.3369 29.4004 23.7066C29.4586 23.8124 29.5003 23.8882 29.5104 23.9086C31.0576 26.5828 34.1292 27.2914 37.0188 26.9486C37.1558 26.9256 38.6571 26.6743 38.7253 26.6057L38.202 24.6628L37.5194 24.8457C35.6082 25.3486 32.9233 25.4629 31.6947 23.6571L47.2121 18.72L47.1666 17.9657C46.9163 14.56 45.2098 11.36 43.0938 9.41714C40.9778 7.45142 38.202 6.51428 34.8801 6.58285C32.4 6.65142 30.193 7.24571 28.35 8.36571C26.4615 9.48571 25.0281 11.04 24.027 12.9829C23.0486 14.9029 22.5708 17.12 22.6391 19.5657C22.7073 22.0571 23.2989 24.2514 24.4138 26.1257C25.2556 27.52 26.3933 28.7314 27.7129 29.6457C29.1919 30.6743 30.8983 31.2686 32.6503 31.5657C33.8334 31.7714 35.0393 31.8629 36.2452 31.7486C37.4056 31.6343 38.5205 31.3143 39.5899 30.9029L39.1348 29.0971C38.657 29.3028 38.202 29.4628 37.7469 29.5771Z" fill="#FF5500"/>
<path d="M0 14.08V6.99428H19.9087V8.89142H1.86573V12.0457L14.266 12.1371L2.11601 26.5829C1.91124 26.8114 1.6382 26.9486 1.34242 26.9486C1.13764 26.9486 0.910112 26.8571 0.72809 26.72C0.523315 26.5371 0.386798 26.3086 0.364045 26.0343C0.318539 25.76 0.409551 25.4857 0.56882 25.28L10.125 14.1029L1.86573 14.08H0Z" fill="#FF5500"/>
<path d="M18.7711 12C19.0441 11.9543 19.2944 12.0457 19.4992 12.2057C19.9087 12.5486 19.977 13.1886 19.6129 13.5772L10.3298 24.6172L19.7949 24.64V31.7029H0V29.8057H18.134V26.6743L6.27978 26.6514L18.1112 12.3657C18.2705 12.16 18.498 12.0229 18.7711 12Z" fill="#FF5500"/>
<path d="M78.4745 27.36C77.5643 27.36 76.768 27.1543 76.1082 26.7429C74.9478 26.0114 74.6747 24.8914 74.652 24.7771L74.6292 24.5714V12.1829H76.4722V24.4114C76.6087 24.7314 77.2458 25.8971 79.8851 25.2571L80.5222 25.0971L80.9545 26.9486L80.3174 27.1086C79.6576 27.2686 79.0433 27.36 78.4745 27.36Z" fill="#FF5500"/>
<path d="M80.5677 29.5086L79.9306 29.6686C77.132 30.4 74.925 30.1943 73.4006 29.0971C71.6258 27.8171 71.2846 25.6229 71.239 25.3029L71.3073 11.68H67.189L67.2118 8.82286H67.2801C68.668 8.82286 69.8056 8.36572 70.6247 7.47429C72.718 5.21143 71.9671 1.09714 71.8761 0.64L71.6941 0L69.8739 0.388571L70.0104 1.05143C70.1924 2.03429 70.4427 4.89143 69.2368 6.19429C68.6452 6.83429 67.6896 7.06286 66.3927 6.88L65.3461 6.72L65.2778 13.6H69.4188L69.3733 25.3714V25.44C69.3961 25.7829 69.7601 28.7771 72.3084 30.6514C73.5598 31.5429 75.0843 32 76.8817 32C77.9511 32 79.1115 31.84 80.3629 31.52L81 31.36L80.5677 29.5086Z" fill="#FF5500"/>
<path d="M63.3211 24.32C63.4576 24.64 64.0947 25.8057 66.734 25.1657L67.3483 24.9829L67.7806 26.8343L67.1435 26.9943C66.4837 27.1543 65.8694 27.2457 65.3006 27.2457C64.3904 27.2457 63.5941 27.04 62.9343 26.6286C61.7739 25.8971 61.5008 24.7771 61.4781 24.6629L61.4553 24.4571V12.0686H63.3211V24.32Z" fill="#FF5500"/>
<path fill-rule="evenodd" clip-rule="evenodd" d="M35.0393 10.9714C32.8778 11.0172 31.1486 11.7486 29.9199 13.1657C28.3955 14.9029 28.1452 16.6172 28.1452 18.4229C28.1452 18.9486 28.3045 20.1143 28.3045 20.1143L41.5466 15.8629L41.1598 14.9257C40.0449 12.2743 37.9289 10.9029 35.0393 10.9714ZM30.0337 17.5772C30.193 16.2743 30.6025 15.2229 31.2851 14.4457C32.1725 13.44 33.4466 12.9143 35.0848 12.8686C36.8823 12.8229 38.1109 13.4172 38.9528 14.72L30.0337 17.5772Z" fill="#FF5500"/>
<path fill-rule="evenodd" clip-rule="evenodd" d="M46.7343 22.5828C47.5534 22.2171 48.4635 22.2171 49.3053 22.56C50.1472 22.9028 50.7843 23.5657 51.1711 24.4114C51.5351 25.2571 51.5351 26.1943 51.1938 27.04C50.8525 27.8857 50.1927 28.5486 49.3736 28.9143C48.9413 29.0971 48.509 29.1886 48.0539 29.1886C47.6216 29.1886 47.1893 29.0971 46.7798 28.9371C45.9379 28.5943 45.2781 27.9314 44.9368 27.0857C44.5728 26.24 44.5728 25.3028 44.914 24.4571C45.2553 23.6114 45.9152 22.9486 46.7343 22.5828ZM48.6228 27.1771C49.0096 27.0171 49.2826 26.72 49.4419 26.3314C49.6011 25.9428 49.5784 25.5314 49.4419 25.1428C49.2826 24.7771 48.9868 24.48 48.6228 24.32C48.4407 24.2514 48.236 24.2057 48.0539 24.2057C47.8492 24.2057 47.6444 24.2286 47.4624 24.32C47.0756 24.48 46.8025 24.7771 46.6433 25.1657C46.484 25.5543 46.484 25.9657 46.6433 26.3543C46.8025 26.72 47.0983 27.0171 47.4624 27.1771C47.8492 27.3371 48.2587 27.3371 48.6228 27.1771Z" fill="#FF5500"/>
</svg>
