<svg width="320" height="34" viewBox="0 0 320 34" fill="none" xmlns="http://www.w3.org/2000/svg">
<path fill-rule="evenodd" clip-rule="evenodd" d="M125.032 25.027C125.032 24.4442 125.513 23.9817 126.105 23.9817C126.688 23.9817 127.169 24.4442 127.178 25.027C127.178 25.6005 126.697 26.0723 126.105 26.0723C125.513 26.0723 125.032 25.6005 125.032 25.027ZM125.476 25.0178C125.476 25.36 125.754 25.6376 126.105 25.6376C126.447 25.6376 126.734 25.36 126.734 25.0178C126.734 24.6755 126.457 24.398 126.105 24.398C125.763 24.398 125.476 24.6755 125.476 25.0178Z" fill="currentColor"/>
<path fill-rule="evenodd" clip-rule="evenodd" d="M126.105 22.3629C124.598 22.3629 123.377 23.5562 123.377 25.027C123.377 26.4978 124.598 27.6912 126.105 27.6912C127.613 27.6912 128.834 26.4978 128.834 25.027C128.824 23.5469 127.604 22.3629 126.105 22.3629ZM123.923 25.9151C123.923 25.9151 123.534 24.953 123.923 24.1205C124.385 25.064 123.923 25.9151 123.923 25.9151ZM127.002 22.9086C126.059 23.3619 125.208 22.9086 125.208 22.9086C125.208 22.9086 126.17 22.5201 127.002 22.9086ZM125.199 27.1361C125.199 27.1361 126.05 26.6829 126.993 27.1361C126.17 27.5154 125.199 27.1361 125.199 27.1361ZM127.714 26.6459C127.522 26.8654 127.27 26.7812 126.942 26.6714C126.703 26.5914 126.423 26.4978 126.096 26.4978C125.773 26.4978 125.495 26.5858 125.256 26.6614C124.92 26.7674 124.663 26.8489 124.468 26.6273C124.249 26.4347 124.33 26.1893 124.437 25.8645C124.515 25.6279 124.607 25.3491 124.607 25.0178C124.607 24.6889 124.518 24.4101 124.442 24.1728C124.337 23.8427 124.257 23.5926 124.477 23.3989C124.67 23.1794 124.922 23.2636 125.25 23.3734C125.489 23.4534 125.769 23.5469 126.096 23.5469C126.419 23.5469 126.697 23.4589 126.936 23.3834C127.272 23.2773 127.529 23.1959 127.724 23.4174C127.943 23.6101 127.862 23.8554 127.755 24.1803C127.677 24.4169 127.585 24.6957 127.585 25.027C127.585 25.3559 127.674 25.6347 127.75 25.872C127.855 26.2021 127.935 26.4521 127.714 26.6459ZM128.269 24.1205C128.658 24.953 128.269 25.9151 128.269 25.9151C128.269 25.9151 127.816 25.064 128.269 24.1205Z" fill="currentColor"/>
<path fill-rule="evenodd" clip-rule="evenodd" d="M124.551 21.5858C125.032 21.3823 125.55 21.2713 126.105 21.2713C128.223 21.2713 129.934 22.9549 129.953 25.0085C129.953 27.0806 128.232 28.755 126.114 28.755C123.997 28.755 122.276 27.0806 122.276 25.0085C122.276 24.398 122.424 23.8244 122.692 23.3157C122.655 23.2787 122.618 23.2417 122.581 23.2324C122.313 23.1214 122.452 22.8994 122.452 22.8994C122.452 22.8994 122.147 22.7699 121.925 22.7421C121.712 22.7236 121.694 22.5016 121.86 22.3259C122.027 22.1501 122.082 22.0021 122.082 22.0021L116.875 16.9791C116.607 16.7108 116.82 16.2945 117.032 16.0633C117.245 15.832 117.643 15.5915 117.911 15.8505L119.724 17.5989L120.501 16.8033L120.158 16.4796L119.603 17.0531L118.605 16.091L121.351 13.2419L122.951 14.7867L121.888 15.8875L121.287 15.314L121.61 14.9717L121.398 14.7682L120.833 15.351L122.951 17.3954L123.516 16.8126L123.303 16.6091L122.979 16.9513L122.276 16.2668L123.34 15.1752L124.94 16.7201L122.193 19.5692L121.194 18.6072L121.749 18.0336L121.407 17.7099L120.63 18.5147L123.127 20.9198C123.127 20.9198 123.275 20.8643 123.442 20.6885C123.617 20.5128 123.83 20.5313 123.867 20.744C123.895 20.966 124.034 21.2621 124.034 21.2621C124.034 21.2621 124.246 21.1141 124.366 21.3823C124.417 21.4595 124.479 21.5282 124.551 21.5858ZM117.31 16.3778C117.097 16.5906 117.079 16.7108 117.245 16.8681L122.304 21.7708L122.85 21.2066L120.057 18.5054L121.379 17.1271L122.304 18.0244L121.74 18.6164L122.138 19.0049L124.311 16.7478L123.284 15.758L122.776 16.2853L122.988 16.4888L123.284 16.1835L123.941 16.8126L122.924 17.8671L120.362 15.388L121.379 14.3334L122.008 14.9347L121.712 15.24L121.888 15.4065L122.397 14.8792L121.287 13.8062L119.085 16.091L119.566 16.5536L120.158 15.943L121 16.7571L119.677 18.1354L117.781 16.3038C117.567 16.0894 117.432 16.2406 117.333 16.3523L117.31 16.3778ZM122.598 22.4933C122.656 22.494 122.719 22.4947 122.785 22.5756C122.835 22.6358 122.822 22.692 122.808 22.7508C122.787 22.8456 122.764 22.9474 122.998 23.0844C122.998 23.0844 123.405 22.4461 124.283 21.8448C124.206 21.645 124.128 21.645 124.046 21.645C123.992 21.645 123.935 21.645 123.876 21.5858C123.797 21.5065 123.784 21.4378 123.772 21.3741C123.762 21.3188 123.752 21.2673 123.701 21.2158C123.59 21.1048 123.442 21.2251 123.247 21.4193C123.053 21.6043 122.702 21.9743 122.544 22.1501C122.415 22.2796 122.397 22.3814 122.461 22.4461C122.503 22.4922 122.549 22.4928 122.598 22.4933ZM122.822 25.0178C122.822 26.7939 124.292 28.2277 126.105 28.2277C127.909 28.2277 129.379 26.7939 129.388 25.0178C129.388 23.2417 127.918 21.8078 126.105 21.8078C124.292 21.8078 122.822 23.2509 122.822 25.0178Z" fill="currentColor"/>
<path fill-rule="evenodd" clip-rule="evenodd" d="M148.061 29.8373C149.023 29.2082 148.811 28.0149 148.811 28.0149C148.811 28.0149 148.283 28.3849 147.553 28.5237C147.09 28.6162 146.748 29.31 146.979 29.8743C146.72 30.0685 146.665 30.3831 146.665 30.3831C146.119 30.6143 145.583 30.6143 145.583 30.6143C146.481 28.8915 146.462 28.8118 146.201 27.7044L146.193 27.6727C146.018 26.9049 145.944 26.6829 145.62 26.7569C145.074 26.8771 145.046 25.7393 145.527 25.0548C145.527 25.0548 147.229 26.4238 148.977 24.9808C150.67 23.5932 150.189 21.2621 148.191 19.2177C146.193 17.1641 146.036 16.3408 146.073 15.0827C147.386 15.1382 147.544 14.1207 147.423 13.9634C148.339 13.5749 147.932 12.7424 147.932 12.7424C148.265 12.2336 148.089 11.3918 148.089 11.3918C147.229 11.3363 146.72 11.6508 146.72 11.6508C146.156 11.475 145.722 12.2613 145.722 12.2613C144.64 12.2798 145 14.3242 145 14.3242C145 14.3242 144.519 15.536 144.843 16.5351C145.382 18.217 146.191 19.1281 146.96 19.9955C147.418 20.5116 147.862 21.0122 148.228 21.6506C148.626 22.3444 148.616 23.6672 147.738 24.0002C146.915 24.3147 146.212 23.6857 145.777 21.9281C145.394 20.3809 145.227 20.1598 144.485 19.1825C144.385 19.0496 144.273 18.9027 144.149 18.7367C143.113 17.3491 143.067 16.6553 142.993 15.2122C142.919 13.7784 142.781 12.2706 142.781 12.2706C143.012 12.3261 143.076 12.1503 143.076 12.1503C142.642 11.5768 142.605 10.8923 142.605 10.8923C142.781 10.8923 142.845 10.7535 142.845 10.7535C142.521 10.4183 142.491 10.2296 142.457 10.0246C142.436 9.89588 142.414 9.76069 142.318 9.57868C142.614 9.59719 142.67 9.36592 142.67 9.36592C142.319 9.10269 142.184 8.85385 142.027 8.56478C141.903 8.33577 141.765 8.08151 141.495 7.77484C141.671 7.79334 141.772 7.67308 141.772 7.67308C141.697 7.58202 141.629 7.49293 141.563 7.408C141.205 6.94091 140.943 6.59934 140.145 6.74803L139.886 6.45201C139.886 6.45201 140.644 6.39651 141.005 5.92474C141.375 5.45296 140.709 4.98119 140.709 4.98119C140.709 4.98119 140.552 5.1662 140.468 5.13844C140.371 5.10442 140.367 5.03522 140.362 4.95689C140.357 4.86482 140.351 4.76014 140.191 4.68517C139.95 4.57416 140.089 4.11164 140.45 4.17639C140.652 4.21675 140.661 4.37541 140.67 4.52484C140.677 4.64941 140.684 4.76757 140.801 4.80543C140.933 4.85262 141.025 4.73852 141.114 4.62646C141.2 4.51885 141.285 4.41312 141.402 4.45391C141.52 4.50073 141.564 4.42248 141.797 4.01369C141.841 3.93788 141.89 3.85071 141.948 3.75087C142.061 3.56095 142.031 3.46829 141.997 3.36591C141.961 3.25886 141.922 3.14119 142.041 2.89057C142.207 2.53905 142.253 2.01178 140.727 1.78976C140.698 0.777601 139.943 0.857045 139.428 0.911213C139.298 0.924869 139.183 0.936918 139.1 0.929468C138.868 0.106174 138.119 -0.051085 137.046 0.04142L136.963 0.217179C136.242 0.180177 135.789 0.355937 135.789 0.355937L135.844 0.651953C135.394 0.605786 135.117 0.779225 134.862 0.938697C134.708 1.03485 134.562 1.12593 134.392 1.16073L134.484 1.37349C134.155 1.57498 134.013 1.79915 133.876 2.0168C133.736 2.23881 133.6 2.45406 133.273 2.63156L133.532 2.89982L133.375 3.17734C132.672 3.15884 132.237 3.49186 132.237 3.49186C131.395 3.3716 131.183 4.19489 131.183 4.19489C130.286 4.35215 130.045 5.35121 130.128 5.75823C129.398 5.98949 129.555 6.85904 129.555 6.85904C129.083 7.0718 128.871 7.75634 129.573 8.13561C129.573 8.13561 129.259 8.9404 128.334 8.56113C127.409 8.18186 127.65 7.50657 127.807 7.36781C128.454 7.89509 128.926 7.43257 128.861 6.84054C129.823 6.56302 129.564 5.61022 129.564 5.61022C130.739 4.98119 129.999 3.66762 129.999 3.66762C130.526 3.15884 130.017 2.5298 130.017 2.5298C130.036 1.70651 129.49 0.947969 129.49 0.947969C128.649 1.08673 128.334 1.63251 128.334 1.63251C127.437 1.65101 127.252 2.53905 127.252 2.53905C126.327 2.57606 126.003 3.41785 126.133 4.11164C125.569 4.42616 125.486 5.23095 125.8 5.79523C125.31 6.35951 125.726 7.04405 126.272 7.0533C126.272 7.0533 126.17 7.89509 125.199 7.89509C124.228 7.89509 123.867 6.95154 124.117 6.54452C124.838 6.84054 125.171 6.2115 125.032 5.64722C125.911 4.98119 125.134 4.05614 125.134 4.05614C125.68 3.25134 125.19 2.64081 124.644 2.13203C124.644 1.60475 124.237 1.5585 124.237 1.5585C123.886 0.59645 123.183 0.207929 123.183 0.207929C123.183 0.207929 122.48 0.59645 122.128 1.5585C122.128 1.5585 121.721 1.614 121.721 2.13203C121.176 2.64081 120.686 3.25134 121.231 4.05614C121.231 4.05614 120.464 4.98119 121.333 5.64722C121.194 6.2115 121.527 6.84054 122.249 6.54452C122.489 6.95154 122.128 7.89509 121.166 7.89509C120.205 7.89509 120.094 7.0533 120.094 7.0533C120.639 7.0348 121.055 6.35026 120.565 5.79523C120.88 5.23095 120.797 4.42616 120.232 4.11164C120.353 3.4086 120.038 2.56681 119.113 2.53905C119.113 2.53905 118.919 1.64176 118.031 1.62326C118.031 1.62326 117.717 1.07748 116.875 0.938718C116.875 0.938718 116.329 1.68801 116.348 2.5113C116.348 2.5113 115.839 3.14034 116.366 3.64911C116.366 3.64911 115.627 4.96269 116.801 5.59172C116.801 5.59172 116.542 6.53527 117.504 6.82204C117.43 7.41407 117.911 7.87659 118.558 7.34931C118.716 7.48807 118.956 8.15411 118.031 8.54263C117.106 8.93115 116.792 8.11711 116.792 8.11711C117.495 7.72858 117.282 7.0533 116.81 6.84054C116.81 6.84054 116.968 5.96174 116.237 5.73973C116.329 5.3327 116.08 4.3429 115.183 4.17639C115.183 4.17639 114.97 3.3531 114.128 3.47335C114.128 3.47335 113.694 3.14034 112.991 3.15884L112.833 2.88132L113.092 2.61306C112.767 2.4362 112.631 2.21953 112.491 1.99722C112.353 1.77768 112.212 1.55263 111.881 1.35499L111.973 1.14223C111.799 1.11025 111.65 1.01822 111.491 0.920652C111.237 0.76422 110.96 0.593571 110.521 0.633452L110.577 0.337436C110.577 0.337436 110.124 0.161676 109.402 0.198678L109.319 0.022919C108.246 -0.069586 107.497 0.0969229 107.266 0.910967C107.18 0.918445 107.064 0.906276 106.933 0.892556C106.415 0.838393 105.667 0.760072 105.638 1.77126C104.112 2.00253 104.158 2.5298 104.325 2.87207C104.443 3.1222 104.404 3.2375 104.369 3.34325C104.335 3.44479 104.304 3.53753 104.417 3.73237C104.484 3.84565 104.54 3.94272 104.587 4.02544C104.804 4.40205 104.849 4.48092 104.963 4.43541C105.082 4.38956 105.165 4.49593 105.25 4.60477C105.336 4.71556 105.424 4.82892 105.555 4.78693C105.672 4.74909 105.679 4.62909 105.687 4.50335C105.695 4.35242 105.704 4.19322 105.906 4.15789C106.276 4.09314 106.406 4.55566 106.174 4.66667C106.013 4.74235 106.006 4.85105 105.999 4.94474C105.994 5.02283 105.989 5.09051 105.897 5.11994C105.804 5.14769 105.647 4.96268 105.647 4.96268C105.647 4.96268 104.981 5.43446 105.351 5.90624C105.721 6.37801 106.47 6.43351 106.47 6.43351L106.211 6.72953C105.413 6.58084 105.151 6.92206 104.793 7.38914C104.728 7.47418 104.659 7.56339 104.584 7.65458C104.584 7.65458 104.685 7.77484 104.861 7.75634C104.593 8.06495 104.455 8.31831 104.332 8.54536C104.174 8.83554 104.039 9.08274 103.687 9.34742C103.687 9.34742 103.742 9.57868 104.038 9.56018C103.947 9.73889 103.925 9.87247 103.904 9.99913C103.87 10.2068 103.838 10.396 103.511 10.735C103.511 10.735 103.585 10.8738 103.761 10.8738C103.761 10.8738 103.724 11.5583 103.289 12.1318C103.289 12.1318 103.363 12.3076 103.585 12.2521C103.585 12.2521 103.446 13.7599 103.372 15.1937C103.298 16.6276 103.252 17.3306 102.216 18.7182C102.092 18.8842 101.981 19.0311 101.88 19.164C101.139 20.1413 100.971 20.3624 100.588 21.9096C100.154 23.6579 99.4506 24.287 98.6275 23.9817C97.7489 23.6487 97.7396 22.3259 98.1373 21.6321C98.503 20.9937 98.9472 20.4931 99.4051 19.977C100.175 19.1096 100.983 18.1985 101.522 16.5166C101.846 15.5175 101.365 14.3057 101.365 14.3057C101.365 14.3057 101.735 12.2521 100.644 12.2428C100.644 12.2428 100.209 11.4565 99.6449 11.6323C99.6449 11.6323 99.1362 11.3178 98.2761 11.3733C98.2761 11.3733 98.1003 12.2151 98.4333 12.7239C98.4333 12.7239 98.0264 13.5656 98.942 13.9449C98.8217 14.1022 98.979 15.1197 100.292 15.0642C100.329 16.3223 100.172 17.1456 98.1743 19.1992C96.1766 21.2528 95.6957 23.5747 97.3882 24.9623C99.1362 26.3961 100.838 25.0363 100.838 25.0363C101.328 25.7208 101.291 26.8586 100.745 26.7384C100.422 26.6644 100.348 26.8864 100.172 27.6542L100.16 27.7055C99.9122 28.7946 99.8899 28.8923 100.782 30.5958C100.782 30.5958 100.237 30.5958 99.6911 30.3646C99.6911 30.3646 99.6356 30.05 99.3766 29.8558C99.6079 29.2915 99.2657 28.5977 98.8032 28.5052C98.0633 28.3664 97.5454 27.9964 97.5454 27.9964C97.5454 27.9964 97.3327 29.1897 98.3038 29.8188C98.3038 29.8188 97.1847 29.569 96.5651 30.3923C96.9192 30.5149 97.1017 30.6999 97.2756 30.8762C97.456 31.0591 97.6271 31.2326 97.9709 31.3174C98.72 31.5116 99.0899 30.7623 99.0899 30.7623C99.0899 30.7623 99.3212 30.9103 99.0344 31.2896C98.8217 31.5671 98.831 31.6966 99.1732 31.7984C101.939 32.6217 104.796 32.3997 104.796 32.3997C104.796 32.3997 104.223 32.7142 103.992 33.4635C104.342 33.3765 104.775 33.3893 105.246 33.4032C106.378 33.4366 107.725 33.4763 108.653 32.1499C108.653 32.1499 110.179 31.7336 112.297 31.3636C112.297 31.3636 111.825 31.6411 111.548 32.1314C111.548 32.1314 113.407 33.0472 115.802 31.6596C115.913 31.5949 116.08 31.7799 115.904 31.8539C114.887 32.2609 114.655 32.8714 114.655 32.8714C114.655 32.8714 116.727 33.9722 118.771 32.6309C118.771 32.6309 118.457 33.6485 119.502 34C119.502 34 120.501 33.63 121.573 33.3987C121.573 33.3987 121.472 33.6577 121.694 33.7687C121.694 33.7687 122.554 33.63 123.201 32.8622C123.858 33.63 124.718 33.7687 124.718 33.7687C124.949 33.667 124.838 33.3987 124.838 33.3987C125.911 33.63 126.91 34 126.91 34C127.964 33.6485 127.64 32.6309 127.64 32.6309C129.694 33.9815 131.756 32.8714 131.756 32.8714C131.756 32.8714 131.525 32.2609 130.508 31.8539C130.332 31.7799 130.498 31.5949 130.609 31.6596C133.014 33.0472 134.864 32.1314 134.864 32.1314C134.586 31.6411 134.115 31.3636 134.115 31.3636C136.232 31.7336 137.759 32.1499 137.759 32.1499C138.686 33.4763 140.034 33.4366 141.166 33.4032C141.636 33.3893 142.069 33.3765 142.42 33.4635C142.189 32.7142 141.615 32.3997 141.615 32.3997C141.615 32.3997 144.473 32.6309 147.238 31.7984C147.581 31.6966 147.59 31.5764 147.377 31.2896C147.1 30.9196 147.322 30.7623 147.322 30.7623C147.322 30.7623 147.692 31.5116 148.441 31.3174C148.783 31.2283 148.954 31.0537 149.132 30.8718C149.306 30.6948 149.486 30.5109 149.837 30.3923C149.181 29.5968 148.061 29.8373 148.061 29.8373ZM98.1373 30.8918C97.6842 30.8363 97.3142 30.4386 97.3142 30.4386C97.3142 30.4386 97.6472 30.1425 98.1928 30.1888C98.7385 30.2443 98.757 30.9658 98.1373 30.8918ZM98.646 29.5783C97.9524 29.2915 97.9986 28.718 97.9986 28.718C97.9986 28.718 98.1743 28.8197 98.5443 28.9122C99.1917 29.0695 99.1177 29.7725 98.646 29.5783ZM99.1732 30.4201C99.0529 30.6143 98.7847 30.2998 98.7662 30.1425C98.7662 30.1425 99.3397 30.1518 99.1732 30.4201ZM141.097 7.54357C141.097 7.54357 140.848 7.60833 140.663 7.58058C140.478 7.55282 140.404 7.69158 140.653 7.83034C141.402 8.24661 141.624 8.87565 141.624 8.87565C141.624 8.87565 141.245 8.82014 140.82 8.45937C140.635 8.30212 140.533 8.47787 140.672 8.70914C140.756 8.84761 140.921 8.94797 141.107 9.06056C141.455 9.27138 141.873 9.52508 141.957 10.1522C141.957 10.1522 141.421 9.95795 141.042 9.58793C140.866 9.41218 140.746 9.54168 140.857 9.75444C140.971 9.97937 141.181 10.1331 141.401 10.2946C141.77 10.5647 142.169 10.8566 142.198 11.5398C142.198 11.5398 141.8 11.4103 141.421 11.0125C141.236 10.8183 141.079 11.0125 141.291 11.29C141.353 11.3703 141.442 11.449 141.538 11.5347C141.775 11.7452 142.059 11.9978 142.105 12.4186C142.127 12.6205 142.162 13.0647 142.204 13.5935C142.285 14.6148 142.39 15.9524 142.475 16.4703C142.605 17.2566 142.827 18.1631 143.761 19.2917C144.695 20.4203 144.824 20.67 145.139 21.7616C145.833 24.1852 146.702 24.805 147.803 24.4905C148.903 24.176 149.329 22.4369 148.487 21.1973C148.237 20.8288 147.893 20.4222 147.521 19.9826C146.213 18.4359 144.558 16.48 145.444 14.3334C145.444 14.3334 145.065 13.7044 145.537 13.1124C145.537 13.1124 145.685 13.2049 145.731 13.3899C145.869 13.2726 145.882 13.1306 145.896 12.9769C145.913 12.7912 145.932 12.5882 146.175 12.3908C146.175 12.3908 146.332 12.5481 146.304 12.7886C146.424 12.7571 146.491 12.6383 146.571 12.4967C146.726 12.223 146.929 11.8638 147.655 11.8821C147.73 12.4915 147.525 12.6348 147.307 12.7872C147.178 12.8777 147.044 12.9714 146.961 13.1679C146.961 13.1679 147.303 13.0754 147.442 13.1864C147.338 13.5948 147.12 13.667 146.924 13.7321C146.804 13.7717 146.692 13.8087 146.619 13.9172C146.619 13.9172 146.841 13.9264 146.989 14.1114C146.989 14.1114 146.767 14.9255 145.796 14.611C145.796 14.611 145.518 14.8977 145.601 15.832C145.675 16.7108 145.888 17.5249 147.553 19.412C147.601 19.4672 147.654 19.5269 147.711 19.5907C148.338 20.2961 149.412 21.5028 149.412 22.7329C149.412 23.9817 148.533 25.0918 147.368 25.0918C145.897 25.0918 145.259 24.028 145.065 23.0289C144.982 22.6126 144.51 22.7699 144.593 23.2509C144.713 23.9725 144.991 24.657 144.991 24.657C144.991 24.657 144.797 25.0548 144.64 25.545C144.482 26.0446 144.51 26.2203 144.649 26.4516C144.743 26.5981 144.775 26.7644 144.804 26.9111C144.851 27.1536 144.888 27.343 145.176 27.3026C145.423 27.2696 145.45 27.3617 145.538 27.6639C145.549 27.7007 145.561 27.7405 145.574 27.7837C145.807 28.5869 145.774 28.6805 145.633 29.081C145.623 29.1094 145.612 29.1394 145.601 29.1712C145.435 29.6615 145.139 30.4293 145.028 30.6328C144.915 30.8349 144.804 30.8032 144.664 30.7632C144.541 30.728 144.395 30.6864 144.205 30.7901C143.872 30.9751 143.483 30.8271 143.742 30.5033C143.742 30.5033 143.557 30.3738 143.419 30.5588C143.419 30.5588 143.169 29.7725 142.512 30.124C142.512 30.124 142.198 29.7818 141.911 29.8743C141.911 29.8743 142.235 29.347 143.955 29.8835C144.233 29.9668 144.455 29.5135 144.085 29.384C144.085 29.384 144.362 28.4775 144.399 28.3109C144.405 28.2859 144.411 28.2634 144.417 28.2423C144.452 28.1234 144.473 28.0514 144.214 27.8392C143.81 27.4992 143.484 27.2348 143.219 27.0198C142.229 26.217 142.09 26.1038 141.893 25.323C141.697 24.5408 141.581 24.2689 141.389 23.8192C141.336 23.6946 141.276 23.5563 141.208 23.3897C140.829 22.4558 140.673 21.8122 140.556 21.3258C140.425 20.7812 140.341 20.4337 140.043 20.0965C138.878 18.8014 138.452 18.0244 138.452 18.0244C138.452 18.0244 138.35 18.0151 138.323 18.1261C138.114 17.9699 138.061 17.8088 138.008 17.6478C137.957 17.4943 137.907 17.3409 137.722 17.1918C137.722 17.1918 137.592 17.2658 137.564 17.5156C137.188 17.2392 137.111 16.8357 137.047 16.5048C137.011 16.3151 136.979 16.1493 136.898 16.0448C136.898 16.0448 136.75 16.1095 136.686 16.3223C136.686 16.3223 136.491 15.98 136.491 15.8413C136.491 15.8121 136.489 15.7851 136.486 15.759C136.475 15.6528 136.465 15.5624 136.658 15.4065C136.908 15.2122 137 15.2862 137.065 15.5083C137.265 15.3429 137.406 15.145 137.553 14.9381C137.678 14.763 137.807 14.5813 137.98 14.4074C137.98 14.4074 138.165 14.4907 138.295 14.722C138.295 14.722 138.637 14.2594 138.85 13.4916C139.201 13.5564 139.386 13.4916 139.349 13.0199C139.308 12.5812 139.393 12.3073 139.485 12.0142C139.578 11.7139 139.678 11.3935 139.654 10.8553C139.636 10.476 139.275 10.6055 139.285 10.9108C139.306 11.399 139.224 11.6132 139.134 11.8468C139.067 12.0205 138.996 12.2048 138.961 12.5203C138.564 12.0258 138.503 12.4229 138.402 13.0758C138.369 13.2899 138.331 13.5318 138.276 13.7784C138.276 13.7784 138.138 13.7229 138.064 13.4916C137.975 13.1939 137.865 13.4167 137.652 13.8452C137.555 14.0424 137.436 14.2833 137.287 14.537C137.277 14.5123 137.268 14.4884 137.259 14.4655C137.16 14.2044 137.11 14.0725 136.778 14.4722C136.408 14.907 135.095 16.0263 133.828 16.9513C133.538 17.1629 133.537 17.3543 133.535 17.57C133.534 17.7127 133.533 17.8661 133.449 18.0429C133.301 18.3482 133.032 18.5794 133.032 18.5794C133.032 18.5794 132.866 18.2742 132.533 18.2927C132.533 18.2927 132.616 17.7006 132.117 17.4694C132.117 17.4694 132.746 16.6738 131.997 16.091C132.05 16.0728 132.1 16.0573 132.145 16.0433C132.488 15.9368 132.572 15.9108 132.237 15.314C132.237 15.314 132.653 14.907 132.2 14.3704C132.635 14.0652 132.764 14.4814 132.801 14.8792C132.857 15.4527 133.143 15.9893 133.458 15.7025C133.8 15.388 135.363 13.7692 135.789 13.0384C135.942 12.7796 136.014 12.5417 136.092 12.284C136.233 11.814 136.394 11.2781 137.111 10.4297C137.315 10.1892 137.111 9.95795 136.898 10.1522C136.769 10.2725 136.491 10.3835 136.491 10.3835C136.491 10.3835 136.454 9.69894 136.898 9.08841C137.083 8.83864 136.926 8.69064 136.556 9.0329C136.556 9.0329 136.501 8.47788 137.379 7.73783C137.62 7.53432 137.463 7.42332 137.056 7.57133C137.056 7.57133 137.222 7.0718 137.777 6.95154C138.332 6.83128 138.498 7.04405 138.526 7.1458C138.554 7.24756 138.748 7.27531 138.767 7.1458C138.785 7.0163 138.933 6.71103 139.331 6.77578C139.705 6.83679 139.703 7.0702 139.701 7.19758L139.701 7.21981C139.701 7.34006 139.784 7.45107 139.895 7.31231C140.061 7.1088 140.69 6.94229 141.097 7.54357ZM142.965 30.5588C142.734 30.8178 142.438 30.9843 142.438 30.9843C142.383 30.6328 142.67 30.3738 142.67 30.3738C142.965 30.3831 142.965 30.5588 142.965 30.5588ZM141.513 28.9307C141.513 28.9307 139.941 28.8382 139.303 30.7253C139.303 30.7253 138.841 30.7531 138.563 30.6328C138.563 30.6328 138.933 30.4571 139.164 29.7355C139.364 29.1127 139.557 28.4417 139.695 27.9604L139.756 27.7467C139.85 27.418 139.708 27.3157 139.57 27.216C139.435 27.1194 139.304 27.0252 139.396 26.7291C139.469 26.4863 139.523 26.2932 139.565 26.1381C139.709 25.6143 139.734 25.5247 140.034 25.4248C140.07 25.4134 140.105 25.4034 140.137 25.3939C140.448 25.3029 140.586 25.2625 141.005 24.5922C141.005 24.5922 141.236 25.1195 141.328 25.7208C141.421 26.3221 141.93 26.7754 143.816 28.2462C143.816 28.2462 143.724 28.8012 143.539 29.2637C141.881 28.9538 141.709 29.3253 141.262 30.2913C141.176 30.4785 141.079 30.6885 140.959 30.9196C140.959 30.9196 140.635 30.9473 140.311 30.8733C140.311 30.8733 140.318 30.8686 140.331 30.8611C140.489 30.7707 141.522 30.1783 141.513 28.9307ZM139.664 30.7993C139.793 30.2258 140.45 29.5968 141.051 29.4395C140.894 30.0778 140.265 30.6513 139.664 30.7993ZM141.735 30.3183C142.031 30.3368 142.068 30.4756 142.068 30.4756C141.652 30.8271 141.421 31.0398 141.421 31.0398C141.338 30.5588 141.735 30.3183 141.735 30.3183ZM131.719 19.5137C131.719 19.5137 131.682 21.7986 131.645 23.4637C131.59 26.2758 130.572 29.8188 123.136 29.8188C115.7 29.8188 114.692 26.2758 114.637 23.4637C114.6 21.7893 114.563 19.5137 114.563 19.5137C114.757 19.4212 114.868 19.2825 114.868 19.2825C114.507 18.9587 114.396 18.6904 114.396 18.6904C115.146 18.8107 115.405 18.4129 115.405 18.4129C114.868 17.8394 114.674 17.4601 114.674 17.4601C115.155 17.5156 115.58 17.3584 115.58 17.3584C115.631 16.8671 115.374 16.6337 115.123 16.4062C114.916 16.2181 114.713 16.0341 114.692 15.7118C114.914 15.7303 115.109 15.869 115.109 15.869C115.411 15.2395 115.189 14.9527 114.965 14.6624C114.777 14.4194 114.588 14.1739 114.702 13.7229C115.072 13.6027 115.238 13.3251 115.238 13.3251C115.156 13.3091 115.077 13.2777 115.007 13.2326C115.423 13.0569 115.534 12.7609 115.534 12.7609C115.654 13.0661 115.654 13.3251 115.654 13.3251C116.246 13.2234 116.422 12.8071 116.422 12.8071C116.487 13.0754 116.699 13.3436 116.699 13.3436C117.171 13.1771 117.338 12.8349 117.338 12.8349C117.338 12.8349 120.482 12.8996 123.118 12.8996C125.754 12.8996 128.898 12.8349 128.898 12.8349C128.898 12.8349 129.065 13.1679 129.536 13.3436C129.536 13.3436 129.749 13.0754 129.814 12.8071C129.814 12.8071 129.99 13.2234 130.582 13.3251C130.582 13.3251 130.582 13.0661 130.702 12.7609C130.702 12.7609 130.813 13.0569 131.229 13.2326C131.229 13.2326 131.146 13.2881 130.989 13.3251C130.989 13.3251 131.155 13.5934 131.525 13.7229C131.639 14.1745 131.451 14.4201 131.264 14.6635C131.041 14.9535 130.821 15.2403 131.118 15.869C131.118 15.869 131.312 15.7303 131.534 15.7118C131.513 16.0286 131.312 16.2121 131.106 16.4002C130.854 16.6294 130.596 16.8655 130.646 17.3584C130.646 17.3584 131.072 17.5156 131.553 17.4601C131.553 17.4601 131.358 17.8394 130.822 18.4129C130.822 18.4129 131.081 18.8107 131.83 18.6904C131.83 18.6904 131.719 18.9587 131.358 19.2825C131.386 19.2778 131.43 19.3124 131.49 19.3597C131.55 19.4071 131.627 19.4674 131.719 19.5137ZM114.147 18.2094C114.147 18.2094 114.054 17.8394 114.433 17.7099C114.433 17.7099 114.637 18.0244 114.961 18.3112C114.961 18.3112 114.618 18.5332 114.147 18.2094ZM114.304 19.2362C114.304 19.2362 113.879 19.2455 113.573 18.9772C113.573 18.9772 113.583 18.7274 113.814 18.6904C113.823 18.6904 114.1 18.8477 114.304 19.2362ZM110.355 10.7997C111.742 12.1041 111.196 13.0754 111.196 13.0754C111.196 13.0754 110.808 12.6684 110.789 12.2151C110.771 11.7618 110.253 11.105 110.253 11.105C110.373 11.0125 110.355 10.7997 110.355 10.7997ZM110.142 9.8007C110.447 9.78219 110.401 9.42142 110.401 9.42142C110.401 9.42142 110.854 9.72669 111.159 10.1892C111.423 10.5821 111.427 10.7591 111.431 11.0203C111.434 11.1526 111.437 11.3066 111.474 11.5213C110.577 10.8183 110.142 9.8007 110.142 9.8007ZM109.689 6.86829C109.689 6.86829 110.318 7.26606 110.336 8.25586C110.346 8.62588 109.985 8.79239 109.828 8.21886L109.966 8.0246C109.966 8.0246 109.448 7.47882 109.689 6.86829ZM108.607 5.30495C108.607 5.30495 108.838 5.50846 109.171 5.69347C109.698 5.98949 109.337 6.66478 109.337 6.66478C109.337 6.66478 109.245 6.50752 108.727 6.2115C108.339 5.98949 108.468 5.38821 108.607 5.30495ZM108.551 6.51677C108.551 6.51677 108.403 6.55377 108.2 6.47977L108.385 6.31326C108.385 6.31326 108.422 6.43351 108.551 6.51677ZM109.097 2.81657C108.403 2.83507 108.246 2.34479 108.45 2.07653C108.653 1.80827 109.078 1.95627 109.041 2.21529C109.004 2.46505 109.097 2.81657 109.097 2.81657ZM108.81 4.96268C108.561 4.82393 108.681 3.87113 109.208 4.38915C109.559 4.74067 109.495 5.38821 109.495 5.38821C109.495 5.38821 109.236 5.19395 108.81 4.96268ZM108.921 3.75087C108.625 3.26984 108.977 2.95533 109.319 3.34385C109.661 3.74162 109.55 4.18564 109.55 4.18564C109.55 4.18564 109.134 4.08389 108.921 3.75087ZM109.513 2.85357C109.513 2.85357 109.254 2.59456 109.356 1.98402C109.356 1.98402 110.151 2.02103 110.42 2.87207C110.42 2.87207 109.985 2.76107 109.513 2.85357ZM109.883 4.22265C109.989 4.31726 110.098 4.4007 110.205 4.48187C110.629 4.80544 111.006 5.09274 110.91 5.90624C110.068 5.35121 109.828 5.12919 109.883 4.22265ZM110.697 7.42332C110.525 7.16519 110.346 6.97821 110.191 6.81659C109.846 6.45694 109.622 6.22294 109.865 5.61022C109.865 5.61022 110.91 6.04499 110.697 7.42332ZM109.689 3.25134C110.475 3.07558 110.891 3.64911 110.891 4.35215C110.891 4.35215 110.882 4.34871 110.866 4.34402C110.711 4.29948 109.89 4.06312 109.689 3.25134ZM110.577 9.07916C110.577 9.07916 110.531 8.72764 110.743 8.41312C112.131 9.23641 111.798 10.476 111.798 10.476C111.662 10.3276 111.574 10.1804 111.483 10.0294C111.308 9.73792 111.125 9.43263 110.577 9.07916ZM111.381 4.42616C111.381 4.42616 112.917 4.85168 112.658 6.39651C112.425 5.9588 112.083 5.7638 111.777 5.58997C111.463 5.41114 111.188 5.25471 111.113 4.87943C111.113 4.87943 111.335 4.96268 111.492 4.92568C111.492 4.93493 111.381 4.68517 111.381 4.42616ZM111.363 5.81373C112.51 6.31326 112.371 7.65458 112.371 7.65458C112.197 7.38987 111.944 7.23427 111.706 7.08773C111.411 6.90653 111.139 6.73918 111.067 6.39651C111.215 6.39651 111.354 6.267 111.354 6.267C111.261 6.05424 111.363 5.81373 111.363 5.81373ZM111.196 7.15505C111.316 7.28895 111.434 7.39715 111.543 7.49755C111.926 7.848 112.204 8.10326 112.075 9.02365C112.075 9.02365 111.446 8.52413 111.067 7.9876C111.067 7.9876 111.243 7.71933 111.196 7.15505ZM111.807 12.6406C111.807 12.6406 112.121 12.7331 112.593 12.7886C112.593 12.7886 112.787 13.5379 113.749 13.4731C113.81 13.7432 113.74 13.7671 113.531 13.8385L113.49 13.8524C113.25 13.9357 113.028 14.1207 112.972 14.8607C112.963 15.055 112.852 15.055 112.676 14.8515L111.668 13.6952C111.668 13.6952 111.67 13.6873 111.674 13.6751C111.703 13.5732 111.84 13.1032 111.807 12.6406ZM113.49 13.0199C112.88 12.8719 113.092 12.1688 113.222 12.0393C113.342 11.9191 113.379 11.6508 113.083 11.7618C112.81 11.8671 112.741 12.012 112.689 12.1184C112.642 12.2176 112.61 12.2833 112.445 12.2521C112.103 12.1873 111.89 12.1041 111.89 12.1041C112.057 11.7618 112.094 11.401 112.094 11.401C112.177 11.4843 112.353 11.3825 112.353 11.3825C112.094 10.8645 112.408 10.6517 112.408 10.6517C112.408 10.6517 112.889 11.1143 113.194 11.3178C113.435 11.4843 113.573 11.3733 113.62 11.29C113.971 10.5962 114.581 10.9385 114.581 10.9385C115.331 10.476 115.765 10.883 115.765 10.883C116.524 10.513 116.958 10.9755 116.958 10.9755L117.245 11.6045C116.792 11.4565 116.385 11.6323 116.385 11.6323C116.015 11.401 115.469 11.549 115.469 11.549C114.859 11.3085 114.535 11.7155 114.535 11.7155C114.332 11.4288 114.036 11.2808 114.184 11.66C114.276 11.9006 114.304 12.2706 114.073 12.2336C113.842 12.1966 113.731 12.3261 113.925 12.5573C113.601 12.6684 113.49 13.0199 113.49 13.0199ZM135.178 4.87943C135.103 5.25316 134.831 5.40748 134.518 5.58426C134.212 5.75753 133.867 5.95236 133.634 6.39651C133.375 4.85168 134.91 4.42616 134.91 4.42616C134.91 4.68517 134.799 4.92568 134.799 4.92568C134.956 4.96268 135.178 4.87943 135.178 4.87943ZM137.25 2.21529C137.213 1.96552 137.638 1.80827 137.842 2.07653C138.045 2.34479 137.888 2.83507 137.194 2.81657C137.194 2.81657 137.287 2.46505 137.25 2.21529ZM137.564 6.2115C137.046 6.50752 136.954 6.66478 136.954 6.66478C136.954 6.66478 136.602 5.98949 137.12 5.69347C137.444 5.50846 137.685 5.30495 137.685 5.30495C137.823 5.38821 137.953 5.98949 137.564 6.2115ZM137.906 6.31326L138.091 6.47977C137.888 6.54452 137.74 6.51677 137.74 6.51677C137.869 6.43351 137.906 6.31326 137.906 6.31326ZM136.806 5.38821C136.806 5.38821 136.741 4.74067 137.093 4.38915C137.62 3.87113 137.74 4.82393 137.49 4.96268C137.056 5.19395 136.806 5.38821 136.806 5.38821ZM137.361 3.75087C137.148 4.08389 136.732 4.18564 136.732 4.18564C136.732 4.18564 136.621 3.74162 136.963 3.34385C137.315 2.95533 137.666 3.26984 137.361 3.75087ZM136.778 2.85357C136.306 2.76107 135.872 2.87207 135.872 2.87207C136.131 2.02103 136.935 1.98402 136.935 1.98402C137.037 2.58531 136.778 2.85357 136.778 2.85357ZM136.464 8.21886C136.306 8.79239 135.955 8.62588 135.955 8.25586C135.974 7.26606 136.602 6.86829 136.602 6.86829C136.843 7.47882 136.325 8.03385 136.325 8.03385L136.464 8.21886ZM136.038 11.105C136.038 11.105 135.52 11.7618 135.502 12.2151C135.483 12.6684 135.095 13.0754 135.095 13.0754C135.095 13.0754 134.549 12.1041 135.937 10.7997C135.937 10.7997 135.918 11.0125 136.038 11.105ZM134.808 11.512C134.846 11.3004 134.848 11.1484 134.851 11.017C134.855 10.758 134.859 10.5789 135.123 10.18C135.428 9.71744 135.881 9.41217 135.881 9.41217C135.881 9.41217 135.835 9.77294 136.14 9.79144C136.149 9.8007 135.715 10.8183 134.808 11.512ZM135.594 7.42332C135.382 6.04499 136.427 5.61022 136.427 5.61022C136.669 6.22294 136.445 6.45694 136.1 6.8166C135.946 6.97822 135.766 7.1652 135.594 7.42332ZM136.602 3.25134C136.38 4.15789 135.4 4.35215 135.4 4.35215C135.4 3.64911 135.816 3.07558 136.602 3.25134ZM136.408 4.22265C136.464 5.12919 136.214 5.35121 135.382 5.90624C135.286 5.09318 135.661 4.80792 136.078 4.49017C136.188 4.40663 136.3 4.32085 136.408 4.22265ZM135.548 8.41312C135.761 8.71839 135.715 9.07916 135.715 9.07916C135.17 9.43029 134.989 9.73388 134.816 10.0262C134.724 10.1806 134.634 10.3318 134.494 10.4852L134.493 10.4798C134.473 10.3898 134.209 9.20764 135.548 8.41312ZM134.623 13.6859L133.615 14.8422C133.439 15.0457 133.328 15.0457 133.319 14.8515C133.264 14.1207 133.051 13.9264 132.801 13.8432L132.767 13.8319C132.545 13.7584 132.481 13.7372 132.542 13.4639C133.504 13.5286 133.698 12.7794 133.698 12.7794C134.17 12.7239 134.484 12.6313 134.484 12.6313C134.448 13.1586 134.623 13.6859 134.623 13.6859ZM135.224 7.9876C134.845 8.52413 134.216 9.02365 134.216 9.02365C134.087 8.10326 134.365 7.848 134.748 7.49755C134.857 7.39716 134.975 7.28895 135.095 7.15505C135.049 7.71933 135.224 7.9876 135.224 7.9876ZM133.92 7.65458C133.92 7.65458 133.772 6.32251 134.928 5.81373C134.928 5.81373 135.03 6.05424 134.947 6.267C134.947 6.267 135.086 6.39651 135.234 6.39651C135.157 6.73823 134.884 6.9056 134.589 7.08623C134.349 7.23321 134.095 7.38897 133.92 7.65458ZM133.883 10.6517C133.883 10.6517 134.198 10.8645 133.939 11.3825C133.939 11.3825 134.115 11.475 134.198 11.401C134.198 11.401 134.235 11.7711 134.401 12.1041C134.401 12.1041 134.179 12.1873 133.846 12.2521C133.681 12.2833 133.65 12.2176 133.602 12.1184C133.551 12.012 133.481 11.8671 133.208 11.7618C132.912 11.6508 132.949 11.9098 133.069 12.0393C133.19 12.1596 133.412 12.8719 132.801 13.0199C132.801 13.0199 132.69 12.6684 132.367 12.5573C132.561 12.3261 132.45 12.1873 132.219 12.2336C131.987 12.2798 132.015 11.9098 132.108 11.66C132.256 11.2808 131.96 11.4288 131.756 11.7155C131.756 11.7155 131.432 11.3085 130.822 11.549C130.822 11.549 130.276 11.401 129.906 11.6323C129.906 11.6323 129.499 11.4565 129.046 11.6045L129.333 10.9755C129.333 10.9755 129.768 10.513 130.526 10.883C130.526 10.883 130.961 10.476 131.71 10.9385C131.71 10.9385 132.32 10.5962 132.672 11.29C132.718 11.3825 132.847 11.4843 133.097 11.3178C133.402 11.1143 133.883 10.6517 133.883 10.6517ZM131.414 15.3972C131.386 14.8977 131.793 14.6202 131.793 14.6202C132.089 14.6202 132.052 14.9902 132.052 14.9902C131.682 15.1382 131.414 15.3972 131.414 15.3972ZM131.904 16.9051C131.432 17.2288 131.044 17.0253 131.044 17.0253C131.34 16.5906 131.747 16.4796 131.747 16.4796C132.024 16.5906 131.904 16.9051 131.904 16.9051ZM131.553 13.2789C132.006 13.0661 132.135 12.7886 132.135 12.7886C132.478 12.8811 132.431 13.1031 132.431 13.1031C131.96 13.5194 131.553 13.2789 131.553 13.2789ZM131.368 12.7979C130.711 12.6313 130.942 11.9283 130.942 11.9283C131.183 11.7248 131.516 11.9653 131.516 11.9653C131.331 12.4093 131.368 12.7979 131.368 12.7979ZM130.582 11.9006C130.461 12.2521 130.378 12.8441 130.378 12.8441C129.805 12.4093 130.11 11.9283 130.11 11.9283C130.295 11.8081 130.582 11.9006 130.582 11.9006ZM129.675 12.0023C129.481 12.4093 129.435 12.8719 129.435 12.8719C129.093 12.4741 129.268 12.0023 129.268 12.0023C129.453 11.8728 129.675 12.0023 129.675 12.0023ZM123.146 11.1513C120.166 11.1513 118.385 11.7705 117.832 11.9627C117.785 11.9793 117.746 11.9928 117.717 12.0023C117.347 12.1226 117.31 11.8451 117.569 11.7248C117.828 11.6045 119.983 10.7535 123.146 10.7535C126.309 10.7535 128.454 11.6045 128.713 11.7248C128.972 11.8451 128.935 12.1226 128.565 12.0023C128.539 11.9937 128.506 11.9818 128.465 11.9673C127.935 11.7806 126.149 11.1513 123.146 11.1513ZM127.039 12.0578C127.039 12.0578 126.179 12.1411 123.146 12.1411C120.103 12.1411 119.252 12.0578 119.252 12.0578C119.252 12.0578 120.121 11.5305 123.146 11.5305C126.179 11.5305 127.039 12.0578 127.039 12.0578ZM117.328 10.994C117.347 10.9848 117.365 10.9848 117.393 10.9848C117.55 10.9848 117.67 11.105 117.67 11.2623C117.67 11.3363 117.643 11.4103 117.587 11.4565L117.328 10.994ZM117.966 10.9385C117.966 10.7905 118.087 10.661 118.244 10.661C118.401 10.661 118.521 10.7812 118.521 10.9385C118.521 11.0121 118.492 11.0827 118.44 11.1347C118.388 11.1868 118.317 11.216 118.244 11.216C118.17 11.216 118.1 11.1868 118.048 11.1347C117.996 11.0827 117.966 11.0121 117.966 10.9385ZM118.91 10.698C118.91 10.55 119.03 10.4205 119.187 10.4205C119.335 10.4205 119.465 10.5407 119.465 10.698C119.465 10.7716 119.435 10.8422 119.383 10.8942C119.331 10.9463 119.261 10.9755 119.187 10.9755C119.03 10.9755 118.91 10.8553 118.91 10.698ZM119.909 10.4667C119.909 10.3187 120.029 10.1892 120.186 10.1892C120.334 10.1892 120.464 10.3095 120.464 10.4667C120.464 10.5032 120.456 10.5393 120.442 10.5729C120.428 10.6066 120.408 10.6372 120.382 10.663C120.357 10.6887 120.326 10.7092 120.292 10.7231C120.259 10.7371 120.223 10.7442 120.186 10.7442C120.15 10.7442 120.114 10.7371 120.08 10.7231C120.046 10.7092 120.016 10.6887 119.99 10.663C119.964 10.6372 119.944 10.6066 119.93 10.5729C119.916 10.5393 119.909 10.5032 119.909 10.4667ZM120.889 10.3187C120.889 10.1707 121.009 10.0412 121.166 10.0412C121.324 10.0412 121.444 10.1615 121.444 10.3187C121.444 10.4667 121.324 10.5962 121.166 10.5962C121.009 10.5962 120.889 10.476 120.889 10.3187ZM121.888 10.2447C121.888 10.0967 122.008 9.96721 122.165 9.96721C122.313 9.96721 122.443 10.0875 122.443 10.2447C122.443 10.402 122.323 10.5222 122.165 10.5222C122.008 10.513 121.888 10.3927 121.888 10.2447ZM122.868 10.217C122.868 10.069 122.988 9.93945 123.146 9.93945C123.303 9.93945 123.423 10.0597 123.423 10.217C123.423 10.3742 123.303 10.4945 123.146 10.4945C122.988 10.4945 122.868 10.365 122.868 10.217ZM123.849 10.2447C123.849 10.0967 123.969 9.96721 124.126 9.96721C124.283 9.96721 124.403 10.0875 124.403 10.2447C124.403 10.402 124.283 10.5222 124.126 10.5222C123.969 10.5222 123.849 10.3927 123.849 10.2447ZM124.847 10.3187C124.847 10.1707 124.968 10.0412 125.125 10.0412C125.273 10.0412 125.402 10.1615 125.402 10.3187C125.402 10.3923 125.373 10.4629 125.321 10.515C125.269 10.567 125.198 10.5962 125.125 10.5962C125.051 10.5962 124.981 10.567 124.929 10.515C124.877 10.4629 124.847 10.3923 124.847 10.3187ZM125.837 10.4667C125.837 10.3187 125.957 10.1892 126.114 10.1892C126.272 10.1892 126.392 10.3095 126.392 10.4667C126.392 10.6147 126.272 10.7442 126.114 10.7442C125.957 10.7442 125.837 10.6147 125.837 10.4667ZM126.827 10.698C126.827 10.55 126.947 10.4205 127.104 10.4205C127.261 10.4205 127.382 10.5407 127.382 10.698C127.382 10.846 127.261 10.9755 127.104 10.9755C126.947 10.9755 126.827 10.8553 126.827 10.698ZM128.047 10.661C128.205 10.661 128.325 10.7812 128.325 10.9385C128.325 11.0865 128.205 11.216 128.047 11.216C127.89 11.216 127.77 11.0865 127.77 10.9385C127.77 10.7905 127.89 10.661 128.047 10.661ZM128.713 11.4658C128.686 11.4414 128.665 11.4114 128.65 11.3778C128.636 11.3443 128.629 11.308 128.63 11.2715C128.63 11.1235 128.75 10.994 128.908 10.994C128.926 10.994 128.954 10.994 128.972 11.0033L128.713 11.4658ZM123.146 9.66194C120.14 9.66194 117.217 10.7812 117.217 10.7812L116.755 10.0967C116.755 10.0967 117.559 10.5037 118.512 10.217C119.557 9.90245 119.788 9.19941 119.788 9.19941C119.788 9.19941 120.51 9.74519 121.601 9.60644C122.471 9.49543 123.146 8.78314 123.146 8.78314C123.146 8.78314 123.83 9.49543 124.69 9.60644C125.782 9.74519 126.503 9.19941 126.503 9.19941C126.503 9.19941 126.725 9.9117 127.779 10.217C128.732 10.5037 129.536 10.0967 129.536 10.0967L129.074 10.7812C129.074 10.7812 126.151 9.66194 123.146 9.66194ZM129.666 9.68044C128.935 10.1152 127.224 10.2077 126.623 8.73689C126.623 8.73689 125.92 9.40292 124.81 9.27342C123.876 9.17166 123.146 8.24661 123.146 8.24661C123.146 8.24661 122.415 9.16241 121.481 9.26417C120.38 9.38442 119.668 8.72764 119.668 8.72764C119.067 10.1985 117.356 10.106 116.625 9.67119C116.44 9.56018 116.524 9.34742 116.718 9.43068C116.735 9.43817 116.756 9.4474 116.779 9.45786C117.011 9.5635 117.519 9.79495 118.235 9.64344C119.289 9.41217 119.585 8.32062 119.585 8.32062C119.585 8.32062 120.399 9.22716 121.592 8.9774C122.6 8.76464 123.136 7.75634 123.136 7.75634C123.136 7.75634 123.682 8.76464 124.681 8.9774C125.874 9.22716 126.688 8.32062 126.688 8.32062C126.688 8.32062 126.984 9.42142 128.038 9.64344C128.767 9.80633 129.281 9.564 129.514 9.454C129.533 9.44531 129.549 9.43745 129.564 9.43068C129.768 9.34742 129.851 9.56943 129.666 9.68044ZM116.866 12.8719C116.866 12.8719 116.81 12.4093 116.625 12.0023C116.625 12.0023 116.847 11.8821 117.032 12.0023C117.032 12.0023 117.033 12.0101 117.036 12.0244C117.06 12.122 117.156 12.5251 116.866 12.8719ZM115.913 12.8441C115.913 12.8441 115.83 12.2613 115.71 11.9006C115.71 11.9006 115.996 11.8081 116.181 11.9283C116.181 11.9283 116.477 12.4093 115.913 12.8441ZM114.766 11.9746C114.766 11.9746 115.09 11.7341 115.34 11.9376C115.34 11.9376 115.571 12.6498 114.914 12.8071L114.915 12.8022C114.919 12.755 114.95 12.3854 114.766 11.9746ZM114.156 12.7886C114.156 12.7886 114.295 13.0661 114.739 13.2789C114.739 13.2789 114.332 13.5286 113.851 13.1031C113.851 13.1031 113.852 13.1015 113.852 13.0984C113.853 13.0963 113.853 13.0936 113.853 13.0903C113.857 13.0418 113.871 12.8678 114.156 12.7886ZM114.498 14.6202C114.498 14.6202 114.905 14.8885 114.877 15.3972C114.877 15.3972 114.609 15.1382 114.239 14.9902C114.239 14.9902 114.202 14.6202 114.498 14.6202ZM114.535 16.4888C114.535 16.4888 114.942 16.5998 115.238 17.0346C115.238 17.0346 114.859 17.2381 114.378 16.9143C114.379 16.9128 114.377 16.9031 114.374 16.8874C114.358 16.8076 114.311 16.5739 114.535 16.4888ZM131.331 18.3112C131.654 18.0244 131.858 17.7099 131.858 17.7099C132.237 17.8486 132.145 18.2094 132.145 18.2094C131.673 18.5332 131.331 18.3112 131.331 18.3112ZM132.468 18.6904C132.699 18.7274 132.709 18.9772 132.709 18.9772C132.394 19.2455 131.978 19.2362 131.978 19.2362C132.191 18.8477 132.468 18.6904 132.468 18.6904ZM140.108 5.28645C139.886 5.36971 139.608 5.17545 139.923 4.94418C140.163 5.09219 140.108 5.28645 140.108 5.28645ZM139.525 1.5215C139.941 1.4845 140.043 1.70651 139.978 2.07653C139.941 2.26154 139.923 2.39105 140.367 2.3818C141.43 2.34479 141.643 2.61306 141.412 2.83507C141.245 2.99233 141.144 3.11259 141.365 3.27909C141.634 3.48261 141.356 4.04689 141.06 3.93588C140.172 3.60286 139.904 3.63061 139.562 4.40766C139.22 5.1847 139.137 5.84148 140.635 5.65647C140.635 5.65647 140.607 6.04499 139.645 5.98949C138.683 5.94324 138.508 4.43541 139.682 3.20509C139.96 2.91832 139.913 2.76107 139.728 2.57606L139.727 2.55129C139.71 2.20966 139.694 1.90839 139.035 2.22454C138.434 2.5113 138.48 2.71481 138.831 2.69631C139.183 2.67781 139.433 2.94608 139.433 2.94608C139.433 2.94608 138.85 3.50111 138.609 4.48166C138.276 5.86923 139.081 6.30401 139.081 6.30401C139.081 6.30401 138.591 6.67403 138.091 6.01724C138.091 6.01724 138.323 5.44371 137.99 5.06444C137.99 5.06444 138.175 4.52791 137.74 3.88963C137.74 3.88963 138.064 3.56586 137.842 2.90907C137.842 2.90907 138.48 2.64081 138.175 1.90077C138.175 1.90077 138.19 1.89548 138.218 1.88283C138.369 1.81484 138.901 1.5761 139.525 1.5215ZM138.554 1.04972L138.23 1.20698C138.02 1.05673 137.869 0.837328 137.805 0.587199C138.323 0.392939 138.554 1.04972 138.554 1.04972ZM137.906 1.41049C137.37 1.70651 136.713 1.08673 136.686 0.809211C137.217 0.570855 137.442 0.858931 137.661 1.13824C137.739 1.23828 137.816 1.33732 137.906 1.41049ZM136.889 1.62326C136.889 1.62326 136.306 2.03028 135.4 1.28099C135.4 1.28099 136.242 0.707456 136.889 1.62326ZM136.038 1.97477C135.825 2.42068 135.373 2.36241 134.915 2.30333C134.679 2.27294 134.442 2.24233 134.235 2.28004C134.661 1.51137 135.186 1.71696 135.594 1.87635C135.77 1.94523 135.924 2.00548 136.038 1.97477ZM135.419 2.65931C135.293 3.05705 134.937 3.09858 134.556 3.14302C134.29 3.17403 134.011 3.20647 133.791 3.36235C134.018 2.69549 134.444 2.69284 134.917 2.68989C135.081 2.68887 135.25 2.68782 135.419 2.65931ZM135.206 3.4086C135.217 3.82154 134.815 4.02475 134.369 4.25034C134.066 4.40376 133.742 4.56753 133.513 4.81468C133.532 3.38085 135.206 3.4086 135.206 3.4086ZM133.125 7.21981C133.125 7.21981 133.236 7.30306 133.402 7.24756C133.367 7.45377 133.378 7.62562 133.389 7.80371C133.405 8.04903 133.421 8.30621 133.319 8.68139C133.319 8.68139 133.467 8.77389 133.643 8.74614C133.692 9.01722 133.647 9.20807 133.603 9.38911C133.549 9.61582 133.499 9.82716 133.643 10.1615C133.643 10.1615 133.421 10.4667 132.931 10.7442C132.931 10.7442 132.293 10.143 131.673 10.439C131.673 10.439 131.007 10.032 130.471 10.439C130.471 10.439 130.276 10.2725 129.934 10.3557C129.934 10.3557 130.369 9.79144 130.239 9.02365C130.239 9.02365 131.053 8.23736 131.701 7.26606C132.049 6.74368 132.261 6.27749 132.441 5.88044C132.596 5.53934 132.728 5.249 132.903 5.01819C132.903 5.01819 133.032 5.33271 132.82 5.63797C132.82 5.63797 132.912 5.76748 133.079 5.78598C133.018 6.21294 133.067 6.4708 133.108 6.68692C133.143 6.8688 133.171 7.02112 133.125 7.21981ZM131.201 5.13844C131.331 5.32345 131.368 5.73048 131.238 5.85073C131.072 5.74898 130.989 5.33271 131.201 5.13844ZM130.424 6.16525C130.582 6.20225 130.683 6.10975 130.563 5.92474C130.369 5.62872 130.406 4.93493 131.016 4.64817C131.016 4.64817 130.508 5.81373 131.21 6.49827C131.21 6.49827 131.599 6.41501 131.59 5.73048C131.587 5.5179 131.565 5.30648 131.543 5.10573C131.479 4.50277 131.425 3.99605 131.96 3.84337C131.96 3.84337 131.812 4.16714 131.904 4.57416C131.941 4.71292 132.098 4.68517 132.089 4.43541C132.08 4.18564 132.367 3.64911 133.06 3.74162C133.06 3.74162 132.598 4.40766 132.228 5.11994C132.118 5.33321 132.037 5.52709 131.951 5.72999C131.747 6.21356 131.521 6.74841 130.85 7.71933C130.85 7.71933 130.748 6.73878 130.008 6.75728C129.823 6.39651 130.091 6.082 130.424 6.16525ZM128.39 7.0718C128.251 7.34006 127.936 7.1643 128.103 6.97929C128.214 6.84979 128.103 6.58152 127.835 6.81278C127.132 7.44182 127.067 8.67213 128.103 9.0144C129.13 9.34742 130.036 8.51488 130.082 7.58983C130.091 7.37706 129.832 7.28456 129.832 7.58058C129.832 7.86734 129.305 7.78409 129.462 7.41407C129.684 6.89604 130.489 7.1828 130.397 7.83034C130.249 8.8849 129.148 9.65269 128.001 9.31967C126.854 8.98665 126.549 7.51582 127.576 6.59077C127.983 6.23 128.63 6.61852 128.39 7.0718ZM127.409 3.32535C127.594 3.45485 127.631 3.82487 127.474 4.12089C127.261 3.84337 127.261 3.49186 127.409 3.32535ZM126.697 4.41691C126.327 3.86188 126.475 3.11259 127.067 3.02933C127.067 3.02933 126.836 4.17639 127.567 4.74992C127.567 4.74992 128.195 3.91738 127.622 2.84432C127.622 2.84432 127.585 2.28004 128.029 2.15053C128.029 2.15053 128.075 2.65006 128.26 2.89057C128.316 2.96458 128.38 2.83507 128.343 2.61306C128.288 2.30779 128.621 1.68801 129.222 1.58625C129.222 1.58625 129.916 2.4373 129.185 2.97383C129.065 3.06633 129.139 3.25134 129.296 3.18659C129.564 3.07558 129.703 2.89982 129.703 2.89982C129.703 2.89982 129.962 3.3716 129.527 3.54736C128.01 4.15789 128.084 4.92568 128.084 4.92568C128.084 4.92568 129.028 5.11069 129.684 4.10239C129.869 4.69442 129.721 5.1662 129.12 5.32345C128.945 5.36971 128.908 5.52697 129.074 5.63797C129.324 5.79523 129.314 6.44276 128.741 6.52602C128.741 6.52602 128.177 5.76748 127.252 6.42426C127.252 6.42426 127.039 5.55472 126.216 5.62872C125.782 5.24945 125.985 4.3614 126.697 4.41691ZM129.398 3.97288C129.315 4.2504 128.806 4.61117 128.473 4.62042C128.621 4.29665 129.056 3.98213 129.398 3.97288ZM124.542 6.20225C124.394 6.38726 124.117 6.23925 124.218 6.06349C124.394 5.74898 124.135 5.64722 123.923 5.92474C123.377 6.63702 123.645 8.01535 124.699 8.32062C125.698 8.60738 126.364 7.82109 126.512 7.41407C126.66 7.00705 126.651 6.23925 126.383 6.30401C126.285 6.32839 126.29 6.3965 126.296 6.46222C126.3 6.52115 126.305 6.57816 126.235 6.60002C125.92 6.70178 125.754 6.1375 126.17 6.00799C126.586 5.87848 126.827 6.1745 126.919 6.44276C127.187 7.22906 126.447 8.9404 124.783 8.62588C123.229 8.33912 123.109 6.52602 123.617 5.85998C124.182 5.11994 124.912 5.64722 124.542 6.20225ZM121.758 4.2874C121.953 4.24115 121.869 4.11164 121.777 4.05614C121.213 3.69537 121.444 2.92758 121.86 2.64081C121.684 4.02838 122.905 4.13939 122.905 4.13939C122.905 4.13939 123.192 3.4086 122.443 2.76107C122.073 2.4373 122.008 2.15978 122.202 2.02103C122.293 1.95305 122.433 2.08242 122.547 2.18758C122.572 2.21121 122.596 2.23362 122.618 2.25229C122.757 2.3818 122.868 2.30779 122.757 2.15978C122.193 1.41974 123.155 0.827712 123.155 0.827712C123.155 0.827712 124.108 1.41974 123.543 2.15978C123.432 2.30779 123.543 2.37255 123.682 2.25229C123.696 2.23932 123.712 2.22454 123.728 2.20881C123.841 2.1011 124.001 1.94839 124.098 2.02103C124.292 2.15978 124.228 2.4373 123.858 2.76107C123.109 3.4086 123.395 4.13939 123.395 4.13939C123.395 4.13939 124.607 4.02838 124.431 2.64081C124.847 2.91832 125.079 3.69537 124.514 4.05614C124.422 4.11164 124.339 4.24115 124.533 4.2874C124.958 4.3799 125.171 5.02744 124.764 5.32345C124.32 5.05519 123.627 5.07369 123.146 5.88773C122.674 5.06444 121.971 5.05519 121.527 5.32345C121.12 5.02744 121.333 4.3799 121.758 4.2874ZM122.175 3.07558C122.387 3.10333 122.692 3.4456 122.655 3.77862C122.286 3.75087 122.101 3.22359 122.175 3.07558ZM123.627 3.77862C123.59 3.4456 123.904 3.09408 124.108 3.07558C124.182 3.22359 123.997 3.75087 123.627 3.77862ZM120.057 6.60927C119.987 6.58739 119.991 6.52822 119.996 6.46803C120.001 6.40102 120.006 6.33275 119.909 6.31326C119.65 6.2485 119.631 7.0163 119.779 7.42332C119.927 7.83034 120.593 8.60738 121.592 8.32987C122.646 8.03385 122.914 6.65553 122.369 5.93399C122.156 5.65647 121.897 5.75823 122.073 6.07274C122.175 6.2485 121.897 6.39651 121.749 6.2115C121.379 5.65647 122.11 5.11994 122.683 5.88773C123.192 6.55377 123.072 8.35762 121.518 8.65363C119.853 8.96815 119.113 7.25681 119.381 6.47052C119.474 6.193 119.714 5.90624 120.131 6.03574C120.547 6.14675 120.371 6.71103 120.057 6.60927ZM118.882 3.32535C119.03 3.49186 119.03 3.84337 118.817 4.12089C118.66 3.82487 118.697 3.45485 118.882 3.32535ZM117.559 6.51677C116.986 6.43351 116.968 5.78598 117.227 5.62872C117.393 5.51771 117.356 5.36971 117.18 5.3142C116.579 5.14769 116.431 4.67592 116.616 4.08389C117.264 5.09219 118.216 4.90718 118.216 4.90718C118.216 4.90718 118.281 4.14864 116.773 3.52886C116.339 3.3531 116.598 2.88132 116.598 2.88132C116.598 2.88132 116.736 3.05708 117.005 3.16809C117.171 3.24209 117.236 3.04783 117.116 2.95533C116.385 2.42805 117.079 1.56775 117.079 1.56775C117.68 1.66951 118.013 2.29854 117.957 2.59456C117.911 2.82582 117.985 2.94608 118.04 2.87207C118.225 2.63156 118.272 2.13203 118.272 2.13203C118.706 2.26154 118.679 2.82582 118.679 2.82582C118.114 3.89888 118.734 4.73142 118.734 4.73142C119.465 4.14864 119.233 3.01083 119.233 3.01083C119.825 3.09408 119.973 3.84337 119.603 4.3984C120.306 4.35215 120.519 5.23095 120.103 5.60097C119.27 5.53622 119.067 6.39651 119.067 6.39651C118.124 5.75823 117.559 6.51677 117.559 6.51677ZM116.894 3.97288C117.245 3.98213 117.68 4.29665 117.818 4.62042C117.476 4.61117 116.968 4.2504 116.894 3.97288ZM116.829 7.41407C116.986 7.78409 116.459 7.86734 116.459 7.58058C116.459 7.29381 116.191 7.37706 116.2 7.58983C116.246 8.51488 117.143 9.34742 118.179 9.0144C119.206 8.68139 119.15 7.44182 118.447 6.81278C118.179 6.58152 118.068 6.84979 118.179 6.97929C118.346 7.1643 118.031 7.34006 117.892 7.0718C117.661 6.61852 118.309 6.23 118.716 6.60002C119.742 7.52507 119.437 8.9959 118.29 9.32892C117.143 9.66194 116.043 8.8849 115.895 7.83959C115.802 7.18281 116.616 6.89604 116.829 7.41407ZM115.09 5.13844C115.312 5.33271 115.22 5.74898 115.053 5.85073C114.924 5.73973 114.951 5.32345 115.09 5.13844ZM114.211 4.43541C114.202 4.68517 114.359 4.71292 114.396 4.57416C114.489 4.16714 114.341 3.84337 114.341 3.84337C114.875 3.99605 114.821 4.50277 114.757 5.10573C114.736 5.30648 114.713 5.5179 114.711 5.73048C114.702 6.41501 115.09 6.49827 115.09 6.49827C115.793 5.80448 115.284 4.64817 115.284 4.64817C115.895 4.94418 115.932 5.62872 115.737 5.92474C115.617 6.10975 115.719 6.2115 115.876 6.16525C116.209 6.082 116.468 6.39651 116.302 6.75728C115.562 6.73878 115.46 7.71933 115.46 7.71933C114.779 6.74362 114.552 6.20829 114.347 5.72284C114.262 5.52253 114.181 5.33071 114.073 5.11994C113.703 4.3984 113.25 3.74162 113.25 3.74162C113.925 3.64911 114.221 4.19489 114.211 4.43541ZM112.889 7.25681C113.055 7.30306 113.166 7.22906 113.166 7.22906C113.121 7.0338 113.15 6.88332 113.184 6.7064C113.225 6.48937 113.275 6.23255 113.203 5.80448C113.37 5.78598 113.462 5.65647 113.462 5.65647C113.25 5.35121 113.379 5.03669 113.379 5.03669C113.556 5.2651 113.688 5.55576 113.845 5.89931C114.024 6.29315 114.236 6.75656 114.581 7.27531C115.229 8.24661 116.043 9.0329 116.043 9.0329C115.913 9.8007 116.348 10.365 116.348 10.365C116.006 10.2817 115.811 10.4482 115.811 10.4482C115.275 10.0412 114.609 10.4482 114.609 10.4482C113.99 10.1615 113.351 10.7535 113.351 10.7535C112.861 10.476 112.639 10.1707 112.639 10.1707C112.783 9.83641 112.733 9.62506 112.679 9.39836C112.635 9.21731 112.59 9.02647 112.639 8.75539C112.815 8.78314 112.963 8.69064 112.963 8.69064C112.861 8.31651 112.88 8.05973 112.898 7.81503C112.911 7.6362 112.924 7.46382 112.889 7.25681ZM112.778 4.81468C112.547 4.56149 112.22 4.39629 111.914 4.24215C111.471 4.01897 111.074 3.81897 111.085 3.4086C111.085 3.4086 112.759 3.38085 112.778 4.81468ZM112.5 3.36235C112.279 3.20609 112 3.17231 111.734 3.14003C111.353 3.09395 110.998 3.05094 110.873 2.65931C111.041 2.68782 111.211 2.68887 111.374 2.68989C111.848 2.69284 112.274 2.69549 112.5 3.36235ZM112.066 2.28004C111.855 2.24225 111.616 2.27307 111.38 2.30352C110.923 2.36253 110.476 2.4202 110.262 1.97477C110.373 2.00532 110.524 1.94584 110.698 1.87741C111.103 1.71788 111.632 1.50967 112.066 2.28004ZM110.891 1.28099C109.985 2.03028 109.402 1.62326 109.402 1.62326C110.05 0.707456 110.891 1.28099 110.891 1.28099ZM109.606 0.809211C109.578 1.08673 108.921 1.69726 108.385 1.41049C108.475 1.33702 108.552 1.2376 108.63 1.13715C108.846 0.858193 109.068 0.571176 109.606 0.809211ZM108.487 0.587199C108.487 0.587199 108.422 0.938718 108.061 1.20698L107.737 1.04972C107.737 1.04972 107.969 0.392939 108.487 0.587199ZM106.359 4.94418C106.683 5.1847 106.396 5.36971 106.174 5.28645C106.174 5.28645 106.128 5.09219 106.359 4.94418ZM105.656 5.65647C107.155 5.84148 107.072 5.17545 106.729 4.40766C106.387 3.63986 106.128 3.60286 105.231 3.93588C104.935 4.04689 104.658 3.48261 104.926 3.27909C105.148 3.11259 105.037 2.99233 104.88 2.83507C104.648 2.61306 104.861 2.34479 105.925 2.3818C106.359 2.4003 106.341 2.26154 106.313 2.07653C106.248 1.70651 106.35 1.4845 106.766 1.5215C107.506 1.577 108.117 1.91002 108.117 1.91002C107.811 2.65006 108.45 2.91832 108.45 2.91832C108.228 3.58436 108.551 3.89888 108.551 3.89888C108.117 4.53716 108.302 5.07369 108.302 5.07369C107.969 5.45296 108.2 6.02649 108.2 6.02649C107.7 6.68328 107.21 6.31326 107.21 6.31326C107.21 6.31326 108.015 5.87848 107.682 4.49091C107.441 3.51036 106.859 2.95533 106.859 2.95533C106.859 2.95533 107.109 2.68706 107.46 2.70556C107.811 2.72406 107.867 2.52055 107.256 2.23379C106.58 1.91391 106.572 2.2261 106.563 2.57264L106.563 2.58531C106.378 2.77032 106.341 2.92758 106.609 3.21434C107.774 4.44466 107.608 5.94324 106.646 5.99874C105.684 6.04499 105.656 5.65647 105.656 5.65647ZM100.708 29.1805C100.697 29.1486 100.687 29.1186 100.677 29.0902C100.536 28.6898 100.503 28.5962 100.736 27.7929C100.749 27.75 100.76 27.7103 100.771 27.6736C100.859 27.3625 100.886 27.2705 101.134 27.3119C101.416 27.3522 101.454 27.1629 101.503 26.9205C101.533 26.7737 101.567 26.6074 101.661 26.4608C101.809 26.2296 101.828 26.0538 101.67 25.5543C101.513 25.0548 101.319 24.6662 101.319 24.6662C101.319 24.6662 101.596 23.9817 101.717 23.2602C101.791 22.7791 101.328 22.6219 101.245 23.0382C101.051 24.0372 100.403 25.101 98.9327 25.101C97.7674 25.101 96.8888 23.991 96.8888 22.7421C96.8888 21.5121 97.9621 20.3053 98.5896 19.5999C98.6463 19.5362 98.6994 19.4765 98.7477 19.4212C100.412 17.5341 100.625 16.7201 100.699 15.8413C100.773 14.907 100.505 14.6202 100.505 14.6202C99.5339 14.9347 99.3119 14.1207 99.3119 14.1207C99.4599 13.9357 99.6819 13.9264 99.6819 13.9264C99.6082 13.8177 99.4959 13.7794 99.3759 13.7385C99.1794 13.6716 98.9621 13.5976 98.8587 13.1956C99.0067 13.0939 99.3489 13.1771 99.3489 13.1771C99.2662 12.9807 99.1322 12.887 99.0027 12.7965C98.7847 12.644 98.5798 12.5007 98.6553 11.8913C99.3804 11.873 99.5836 12.2323 99.7384 12.5059C99.8185 12.6476 99.8857 12.7663 100.006 12.7979C99.9778 12.5573 100.135 12.4001 100.135 12.4001C100.38 12.5941 100.4 12.7966 100.418 12.9842C100.433 13.1365 100.446 13.279 100.579 13.3991C100.634 13.2141 100.773 13.1216 100.773 13.1216C101.245 13.7137 100.866 14.3427 100.866 14.3427C101.751 16.4893 100.097 18.4451 98.7884 19.9919C98.4165 20.4315 98.0726 20.8381 97.8229 21.2066C96.9812 22.4461 97.4067 24.1852 98.5073 24.4997C99.6079 24.8143 100.477 24.1945 101.171 21.7708C101.485 20.6793 101.615 20.4295 102.549 19.301C103.483 18.1724 103.705 17.2658 103.834 16.4796C103.92 15.9615 104.025 14.6244 104.106 13.603L104.106 13.6017C104.147 13.0734 104.182 12.6297 104.204 12.4278C104.25 12.0071 104.535 11.7545 104.772 11.544C104.868 11.4583 104.957 11.3796 105.018 11.2993C105.231 11.0218 105.074 10.8275 104.889 11.0218C104.51 11.4195 104.112 11.549 104.112 11.549C104.135 10.8654 104.536 10.5736 104.907 10.3033C105.128 10.142 105.339 9.98838 105.453 9.76369C105.564 9.54168 105.444 9.42142 105.268 9.59719C104.889 9.96721 104.352 10.1615 104.352 10.1615C104.437 9.54099 104.854 9.28535 105.202 9.07265C105.388 8.95873 105.554 8.85713 105.638 8.71839C105.777 8.48712 105.675 8.31137 105.49 8.46863C105.065 8.82939 104.695 8.8849 104.695 8.8849C104.695 8.8849 104.917 8.25586 105.666 7.83959C105.915 7.70083 105.832 7.56207 105.656 7.58983C105.472 7.61758 105.222 7.55282 105.222 7.55282C105.629 6.95154 106.258 7.11805 106.452 7.35856C106.563 7.49732 106.646 7.38632 106.646 7.26606L106.646 7.24383C106.644 7.11645 106.641 6.88304 107.016 6.82204C107.414 6.75728 107.571 7.06255 107.58 7.19205C107.589 7.32156 107.793 7.29381 107.811 7.19205C107.839 7.0903 108.006 6.87754 108.561 6.99779C109.115 7.11805 109.282 7.61758 109.282 7.61758C108.875 7.46957 108.718 7.58058 108.949 7.78409C109.828 8.53338 109.772 9.07916 109.772 9.07916C109.402 8.73689 109.254 8.87565 109.43 9.13466C109.874 9.74519 109.837 10.4297 109.837 10.4297C109.837 10.4297 109.559 10.3095 109.43 10.1985C109.217 10.0042 109.014 10.2355 109.217 10.476C109.941 11.3253 110.1 11.8614 110.239 12.3318C110.316 12.5889 110.386 12.8264 110.54 13.0846C110.974 13.8154 112.528 15.4342 112.87 15.7488C113.185 16.0355 113.472 15.499 113.527 14.9255C113.564 14.5185 113.694 14.1114 114.128 14.4167C113.666 14.9532 114.091 15.3602 114.091 15.3602C113.754 15.9535 113.841 15.9816 114.185 16.0918C114.227 16.1053 114.273 16.1201 114.322 16.1373C113.573 16.7108 114.202 17.5156 114.202 17.5156C113.703 17.7561 113.786 18.3389 113.786 18.3389C113.453 18.3297 113.287 18.6257 113.287 18.6257C113.287 18.6257 113.009 18.3944 112.87 18.0891C112.786 17.9123 112.785 17.7604 112.784 17.6189C112.782 17.405 112.781 17.2147 112.491 16.9976C111.224 16.0725 109.911 14.9532 109.541 14.5184C109.198 14.1151 109.149 14.2531 109.055 14.5189C109.048 14.5396 109.04 14.5611 109.032 14.5832C108.885 14.3288 108.767 14.0888 108.671 13.8924C108.459 13.4604 108.351 13.239 108.255 13.5379C108.191 13.7692 108.043 13.8247 108.043 13.8247C107.988 13.5779 107.95 13.3362 107.917 13.122C107.817 12.4691 107.755 12.072 107.358 12.5666C107.319 12.2514 107.248 12.0671 107.181 11.8961C107.09 11.6606 107.008 11.45 107.035 10.957C107.044 10.6517 106.683 10.5222 106.665 10.9015C106.636 11.4465 106.736 11.7681 106.831 12.0716C106.921 12.3605 107.006 12.633 106.97 13.0661C106.933 13.5379 107.118 13.6026 107.469 13.5379C107.682 14.3149 108.024 14.7682 108.024 14.7682C108.154 14.5277 108.339 14.4537 108.339 14.4537C108.513 14.6282 108.644 14.8126 108.771 14.9896C108.919 15.1972 109.06 15.3947 109.254 15.5545C109.319 15.3325 109.411 15.2492 109.661 15.4528C109.859 15.6068 109.848 15.6969 109.835 15.8014C109.831 15.8286 109.828 15.8569 109.828 15.8875C109.828 16.0355 109.633 16.3685 109.633 16.3685C109.619 16.3102 109.592 16.2555 109.556 16.2077C109.519 16.16 109.473 16.1203 109.421 16.091C109.34 16.1955 109.308 16.3614 109.272 16.551C109.208 16.882 109.131 17.2855 108.755 17.5619C108.727 17.3121 108.598 17.2381 108.598 17.2381C108.412 17.3871 108.362 17.5405 108.311 17.694C108.258 17.855 108.205 18.0161 107.996 18.1724C107.969 18.0521 107.867 18.0706 107.867 18.0706C107.867 18.0706 107.451 18.8477 106.276 20.1428C105.97 20.4838 105.885 20.8353 105.752 21.3908C105.635 21.8749 105.481 22.514 105.111 23.4359C105.038 23.6169 104.975 23.7647 104.918 23.8984C104.737 24.3252 104.617 24.6086 104.426 25.3693C104.231 26.1524 104.092 26.2648 103.119 27.0522C102.85 27.2692 102.519 27.5376 102.105 27.8854C101.846 28.0976 101.867 28.1696 101.902 28.2886C101.908 28.3096 101.914 28.3322 101.92 28.3572C101.957 28.5237 102.234 29.4303 102.234 29.4303C101.865 29.5598 102.096 30.013 102.364 29.9298C104.084 29.3932 104.408 29.9205 104.408 29.9205C104.121 29.828 103.807 30.1703 103.807 30.1703C103.15 29.8188 102.9 30.6051 102.9 30.6051C102.752 30.4201 102.577 30.5496 102.577 30.5496C102.836 30.8733 102.456 31.0213 102.114 30.8363C101.924 30.7325 101.776 30.7743 101.652 30.8095C101.51 30.8496 101.399 30.881 101.291 30.6791C101.171 30.4386 100.875 29.6708 100.708 29.1805ZM106.535 27.7467L106.597 27.9607C106.735 28.442 106.928 29.1129 107.127 29.7355C107.358 30.4571 107.728 30.6328 107.728 30.6328C107.451 30.7531 106.988 30.7253 106.988 30.7253C106.35 28.8382 104.778 28.9307 104.778 28.9307C104.759 30.2813 105.98 30.8641 105.98 30.8641C105.656 30.9381 105.333 30.9103 105.333 30.9103C105.213 30.6791 105.116 30.4695 105.029 30.2822C104.582 29.3162 104.41 28.9446 102.752 29.2545C102.567 28.792 102.475 28.2369 102.475 28.2369C104.362 26.7661 104.87 26.3221 104.963 25.7116C105.055 25.1103 105.287 24.583 105.287 24.583C105.705 25.2533 105.843 25.2937 106.154 25.3847C106.172 25.3899 106.19 25.3952 106.209 25.4008C106.225 25.4055 106.241 25.4104 106.258 25.4155C106.552 25.5066 106.575 25.5924 106.714 26.0945C106.759 26.2555 106.815 26.4594 106.896 26.7199C106.987 27.0157 106.858 27.11 106.725 27.2077C106.588 27.3085 106.446 27.413 106.535 27.7467ZM106.628 30.7993C106.026 30.6513 105.398 30.0778 105.24 29.4395C105.841 29.5968 106.498 30.2258 106.628 30.7993ZM104.87 31.0306C104.87 31.0306 104.639 30.8178 104.223 30.4663C104.223 30.4663 104.26 30.3276 104.556 30.309C104.556 30.309 104.557 30.3124 104.562 30.3166C104.566 30.3197 104.571 30.3238 104.577 30.3289C104.658 30.3958 104.941 30.6297 104.87 31.0306ZM103.853 30.9751C103.853 30.9751 103.557 30.8178 103.326 30.5496C103.326 30.5496 103.326 30.3738 103.622 30.3553C103.622 30.3553 103.627 30.3622 103.635 30.3719C103.691 30.4362 103.901 30.6777 103.853 30.9751ZM105.065 32.8344C105.398 32.3812 107.275 31.6781 107.858 32.1406C107.673 32.3812 106.72 33.0102 105.065 32.8344ZM105.324 31.7891C101.115 31.9649 99.4691 31.2063 99.4691 31.2063L99.6634 30.9288C100.147 31.0473 100.475 31.0711 100.732 31.0898C100.977 31.1075 101.157 31.1206 101.347 31.2063C101.514 31.2819 101.621 31.2498 101.749 31.2113C101.919 31.1604 102.126 31.0983 102.558 31.2618C102.826 31.3636 102.947 31.2618 103.104 31.0306C103.28 31.0306 103.631 31.1878 103.788 31.3636C103.936 31.5301 104.223 31.5394 104.158 31.4191C104.084 31.2989 104.232 31.1231 104.232 31.1231C104.232 31.1231 104.584 31.1786 104.963 31.5116C105.13 31.6547 105.178 31.5903 105.26 31.4793C105.305 31.4181 105.361 31.3428 105.453 31.2803C107.275 31.2803 108.274 31.0676 108.274 31.0676C109.023 31.2989 109.31 30.7346 109.31 30.7346C109.587 30.8918 109.818 30.8733 109.818 30.8733C110.188 31.0861 110.641 31.1046 110.641 31.1046C110.641 31.1046 108.755 31.6411 105.324 31.7891ZM109.791 30.2813C109.791 30.2813 109.883 30.087 110.087 30.087C110.087 30.087 110.521 30.346 110.494 30.6976C110.494 30.6976 110.022 30.5958 109.791 30.2813ZM110.364 29.7725C109.587 29.5505 109.319 29.9853 109.541 30.4386C108.718 30.1055 108.875 30.6698 108.875 30.6698C108.875 30.6698 108.718 30.9011 108.422 30.7438C108.255 30.6606 107.793 30.1703 107.599 29.6893C107.488 29.4203 107.401 29.0641 107.315 28.7082C107.249 28.4399 107.184 28.1715 107.109 27.9409C107.022 27.6728 107.123 27.5922 107.235 27.5029C107.352 27.4103 107.479 27.3083 107.423 26.9789C107.349 26.5348 107.155 25.8226 106.97 25.3508C106.859 25.0816 106.709 25.0292 106.535 24.9686C106.405 24.923 106.261 24.8727 106.11 24.7217C105.86 24.472 105.518 24.0002 105.518 24.0002C105.518 24.0002 105.989 23.2324 106.359 21.5303C106.563 20.596 106.97 20.374 106.97 20.374C106.97 20.374 107.303 21.1418 108.144 22.0021C108.422 22.2889 108.533 22.5109 108.579 23.1584C108.605 23.4634 108.676 23.8074 108.754 24.1827C108.842 24.6041 108.937 25.065 108.986 25.5543C108.991 25.6146 108.998 25.6698 109.004 25.722C109.04 26.038 109.063 26.2394 108.746 26.7476L108.735 26.7649C108.31 27.4524 108.24 27.5646 108.653 29.0232C108.773 29.4395 108.967 29.5598 109.263 29.4765C110.022 29.2822 110.383 29.2452 110.66 29.458C110.438 29.5228 110.364 29.7725 110.364 29.7725ZM110.734 31.1046C110.734 31.1046 110.854 30.8918 110.836 30.6698C110.836 30.6698 111.27 30.6698 111.585 30.9288C111.594 30.9288 111.048 31.0676 110.734 31.1046ZM110.715 30.0038C110.715 30.0038 110.752 29.7263 111.048 29.7078C111.048 29.7078 111.557 30.0593 111.557 30.4941C111.557 30.4848 111.187 30.2443 110.715 30.0038ZM109.458 28.903C109.142 28.9662 109.134 28.9324 108.996 28.3018L108.986 28.2554C108.851 27.6755 108.927 27.5458 109.139 27.1868C109.174 27.1278 109.212 27.0626 109.254 26.9881L109.306 26.8971C109.519 26.5226 109.666 26.2652 109.606 25.8966C109.592 25.8009 109.571 25.6303 109.544 25.4152C109.459 24.7359 109.318 23.6123 109.199 23.0012C109.032 22.2056 109.004 22.0761 108.107 20.9475C107.636 20.3648 107.404 19.8005 107.404 19.8005L107.83 19.2732C107.922 19.4027 108.098 19.4397 108.098 19.4397C108.188 19.3306 108.233 19.1925 108.277 19.0538C108.342 18.8516 108.408 18.6484 108.616 18.5332C108.764 18.4869 108.921 18.6072 108.921 18.6072C109.031 18.4551 109.059 18.3504 109.09 18.2362C109.141 18.0515 109.198 17.8419 109.615 17.3676C109.763 17.3861 109.837 17.5711 109.837 17.5711C109.97 17.4043 109.993 17.2601 110.023 17.0664C110.06 16.8303 110.108 16.5209 110.383 16.0078C110.539 16.1189 110.72 16.2573 110.908 16.4017C111.222 16.6418 111.557 16.8982 111.835 17.0716C112.224 17.315 112.243 17.3947 112.367 17.9039C112.384 17.9752 112.404 18.0549 112.426 18.1446C112.676 19.1622 113.222 19.1067 113.222 19.1067C113.37 19.3472 113.832 19.523 113.832 19.523L113.943 23.6394C114.082 28.8475 117.67 30.1888 122.082 30.6236C121.906 30.9196 121.999 31.1878 121.999 31.1878C121.999 31.1878 121.176 31.0028 120.51 31.5024C120.251 31.6966 120.066 31.6041 120.066 31.6041C119.067 29.939 117.615 29.8003 117.615 29.8003C117.418 29.9433 117.598 30.3857 117.75 30.6824C116.754 29.0399 115.275 28.6162 115.275 28.6162C115.229 29.8095 116.043 30.3923 116.043 30.3923L115.46 30.198C115.062 28.1629 113.647 27.8669 113.647 27.8669C113.379 29.1897 114.396 30.0223 114.396 30.0223L113.99 29.9483C113.721 29.2452 113.148 28.5052 113.148 28.5052C114.489 26.1926 113.277 24.5367 113.277 24.5367C112.759 25.2398 112.528 25.9428 112.528 25.9428C112.325 25.4248 112.26 24.9253 112.26 24.9253C114.045 22.5386 113.083 20.5868 113.083 20.5868C112.38 21.0586 112.057 21.9188 112.057 21.9188L112.029 21.2713C113.129 18.9217 111.465 17.4046 111.465 17.4046C110.124 19.7912 111.714 21.2713 111.714 21.2713L111.742 21.8911C111.178 20.4295 110.059 20.1335 110.059 20.1335C109.689 22.6589 111.696 23.8152 111.696 23.8152C111.714 24.2685 111.788 24.6662 111.788 24.6662C111.243 24.0742 110.558 23.8152 110.558 23.8152C110.392 26.7661 112.436 27.5339 112.436 27.5339C112.565 27.8577 112.611 28.1537 112.611 28.1537C111.696 27.5431 110.928 27.5894 110.928 27.5894C111.132 29.2175 112.519 29.9668 112.519 29.9668C112.121 29.9853 111.825 30.1055 111.825 30.1055C111.113 28.8567 110.762 28.6347 109.458 28.903ZM119.381 31.5209C118.762 31.4284 118.281 30.8918 118.133 30.4201C118.484 30.5218 119.086 30.7716 119.381 31.5209ZM117.125 30.7901C116.505 30.6976 115.913 29.8095 115.904 29.4488C116.431 29.5783 117.097 30.3183 117.125 30.7901ZM114.97 30.0963C114.35 29.8558 113.943 28.829 113.999 28.5052C114.554 28.7272 114.942 29.6245 114.97 30.0963ZM113.462 29.902C112.861 29.754 111.788 29.0047 111.64 28.1907C112.417 28.3664 113.333 29.3285 113.462 29.902ZM113.157 25.6283C113.555 26.3221 113.25 27.4876 112.963 27.5617C112.621 26.9789 112.944 25.8503 113.157 25.6283ZM112.242 26.8679C111.418 26.4701 110.928 24.99 110.984 24.6662C111.89 25.249 112.214 26.3961 112.242 26.8679ZM111.816 20.818C111.252 20.3 111.27 18.7737 111.52 18.3574C112.112 19.0049 112.02 20.3555 111.816 20.818ZM112.14 24.1205C111.798 23.5469 112.371 22.0206 112.759 21.6876C113.037 22.3351 112.537 23.8985 112.14 24.1205ZM111.64 23.1399C110.771 22.6681 110.475 21.3546 110.531 21.0308C111.4 21.5396 111.613 22.6774 111.64 23.1399ZM112.473 31.8539C112.806 31.4469 114.526 30.8548 115.109 31.3174C114.924 31.5579 113.888 32.1684 112.473 31.8539ZM115.664 32.5939C116.08 32.1406 117.522 31.7521 118.207 32.3164C117.957 32.5199 116.709 33.0842 115.664 32.5939ZM115.728 31.1416C113.647 30.4108 111.825 30.9011 111.825 30.9011L112.103 30.5126C113.805 30.272 114.868 30.4386 116.903 31.1416C118.577 31.7244 120.649 32.1591 120.649 32.1591L119.788 32.3719C119.788 32.3719 119.757 32.3629 119.695 32.3478C119.345 32.2632 118.019 31.9421 115.728 31.1416ZM119.724 33.3617C119.372 33.2045 119.428 32.8344 119.428 32.8344C120.445 32.5569 121.499 32.3442 121.499 32.3442C121.832 32.4367 121.832 32.7974 121.832 32.7974C121.832 32.7974 120.861 32.9732 119.724 33.3617ZM122.267 32.9084C122.23 31.8261 120.917 31.8261 120.917 31.8261C122.304 31.1601 122.896 32.3534 122.896 32.3534L122.267 32.9084ZM123.146 30.6328C124.08 30.6328 123.95 31.4376 123.146 31.8446C122.341 31.4376 122.212 30.6328 123.146 30.6328ZM124.024 32.9084L123.395 32.3442C123.395 32.3442 123.987 31.1508 125.375 31.8169C125.375 31.8169 124.061 31.8169 124.024 32.9084ZM126.568 33.3617C125.43 32.9732 124.468 32.7974 124.468 32.7974C124.468 32.7974 124.468 32.4274 124.801 32.3442C124.801 32.3442 125.856 32.5569 126.864 32.8344C126.864 32.8344 126.919 33.2045 126.568 33.3617ZM130.628 32.5939C129.573 33.0842 128.334 32.5199 128.075 32.3164C128.778 31.7521 130.212 32.1314 130.628 32.5939ZM131.183 31.3174C131.765 30.8548 133.486 31.4561 133.819 31.8539C132.404 32.1684 131.368 31.5579 131.183 31.3174ZM130.563 31.1416C127.862 32.0851 126.494 32.3719 126.494 32.3719L125.634 32.1591C125.634 32.1591 127.705 31.7244 129.379 31.1416C131.414 30.4386 132.478 30.2628 134.179 30.5126L134.456 30.9006C134.427 30.8818 132.622 30.4186 130.563 31.1416ZM126.91 31.5209C127.206 30.7716 127.807 30.5218 128.158 30.4201C128.01 30.8918 127.53 31.4376 126.91 31.5209ZM129.167 30.7901C129.194 30.3183 129.86 29.5783 130.387 29.4488C130.369 29.8188 129.786 30.6976 129.167 30.7901ZM131.321 30.0963C131.349 29.6245 131.738 28.7272 132.293 28.5052C132.348 28.829 131.941 29.8558 131.321 30.0963ZM134.651 28.1907C134.503 29.0047 133.43 29.754 132.829 29.902C132.958 29.3285 133.874 28.3664 134.651 28.1907ZM133.134 25.6283C133.338 25.8503 133.661 26.9881 133.328 27.5617C133.051 27.4784 132.736 26.3221 133.134 25.6283ZM133.782 29.9483C133.782 29.9483 135.169 29.199 135.372 27.5709C135.372 27.5709 134.605 27.5246 133.689 28.1352C133.689 28.1352 133.735 27.8392 133.865 27.5154C133.865 27.5154 135.9 26.7476 135.742 23.7967C135.742 23.7967 135.067 24.065 134.512 24.6477C134.512 24.6477 134.586 24.25 134.605 23.7967C134.605 23.7967 136.612 22.6404 136.242 20.115C136.242 20.115 135.123 20.411 134.558 21.8726L134.586 21.2528C134.586 21.2528 136.177 19.7727 134.836 17.3861C134.836 17.3861 133.171 18.9124 134.281 21.2528L134.253 21.9003C134.253 21.9003 133.93 21.0493 133.227 20.5683C133.227 20.5683 132.265 22.5109 134.05 24.9068C134.05 24.9068 133.994 25.4063 133.782 25.9243C133.782 25.9243 133.541 25.2305 133.032 24.5182C133.032 24.5182 131.821 26.1741 133.162 28.4867C133.162 28.4867 132.579 29.2267 132.32 29.9298L131.904 30.0038C131.904 30.0038 132.921 29.1712 132.653 27.8484C132.653 27.8484 131.238 28.1444 130.841 30.1795L130.267 30.3738C130.267 30.3738 131.081 29.791 131.035 28.5977C131.035 28.5977 129.556 29.019 128.566 30.6499C128.717 30.3534 128.888 29.9225 128.695 29.7818C128.695 29.7818 127.252 29.9113 126.244 31.5856C126.244 31.5856 126.059 31.6781 125.8 31.4839C125.134 30.9843 124.311 31.1693 124.311 31.1693C124.311 31.1693 124.413 30.8918 124.237 30.6051C128.639 30.1703 132.237 28.829 132.376 23.6209L132.487 19.5045C132.487 19.5045 132.949 19.3287 133.097 19.0882C133.097 19.0882 133.643 19.1437 133.893 18.1261C133.91 18.0526 133.926 17.9858 133.94 17.9248L133.941 17.923C134.068 17.38 134.086 17.3024 134.484 17.0531C134.762 16.8797 135.097 16.6233 135.411 16.3831C135.599 16.2388 135.78 16.1004 135.937 15.9893C136.21 16.5018 136.259 16.8139 136.296 17.0508C136.326 17.2457 136.349 17.3897 136.482 17.5526C136.482 17.5526 136.556 17.3584 136.704 17.3491C137.132 17.8295 137.188 18.0383 137.237 18.2247C137.267 18.3363 137.294 18.4398 137.398 18.5887C137.398 18.5887 137.564 18.4684 137.703 18.5147C137.912 18.6299 137.977 18.8331 138.042 19.0353C138.086 19.174 138.131 19.3121 138.221 19.4212C138.221 19.4212 138.397 19.3935 138.489 19.2547L138.915 19.782C138.915 19.782 138.674 20.3463 138.212 20.929C137.315 22.0484 137.278 22.1779 137.12 22.9827C137.007 23.5301 136.885 24.4886 136.799 25.1707L136.798 25.172C136.758 25.492 136.725 25.7511 136.704 25.8781C136.651 26.2564 136.799 26.5176 137.021 26.9084L137.056 26.9696C137.097 27.044 137.136 27.1092 137.171 27.1683C137.382 27.5273 137.459 27.657 137.324 28.2369C137.176 28.9122 137.167 28.9492 136.852 28.8845C135.539 28.6162 135.187 28.8382 134.494 30.0685C134.487 30.0749 134.448 30.0648 134.383 30.048C134.259 30.0162 134.042 29.9604 133.782 29.9483ZM135.308 24.6662C135.363 24.99 134.873 26.4701 134.05 26.8679C134.078 26.3961 134.401 25.249 135.308 24.6662ZM134.152 24.1205C133.754 23.8985 133.254 22.3351 133.532 21.6876C133.92 22.0206 134.494 23.5469 134.152 24.1205ZM134.771 18.3482C135.021 18.7644 135.039 20.3 134.475 20.8088C134.272 20.3555 134.179 19.0049 134.771 18.3482ZM134.651 23.1399C134.679 22.6681 134.891 21.5303 135.761 21.0308C135.816 21.3638 135.53 22.6774 134.651 23.1399ZM134.697 30.9288C135.012 30.6698 135.446 30.6698 135.446 30.6698C135.428 30.9011 135.548 31.1046 135.548 31.1046C135.243 31.0676 134.697 30.9288 134.697 30.9288ZM134.734 30.4848C134.734 30.05 135.243 29.6985 135.243 29.6985C135.539 29.717 135.576 29.9945 135.576 29.9945C135.095 30.2443 134.734 30.4848 134.734 30.4848ZM137.028 29.4765C137.324 29.5505 137.527 29.4395 137.638 29.0232C138.061 27.5629 137.991 27.4522 137.555 26.7626L137.546 26.7476C137.22 26.2266 137.246 26.0279 137.288 25.6977L137.288 25.6962C137.294 25.6517 137.3 25.6047 137.305 25.5543C137.355 25.0623 137.451 24.5965 137.538 24.1721C137.616 23.7987 137.686 23.4572 137.712 23.1584C137.768 22.5109 137.869 22.2889 138.147 22.0021C138.989 21.1418 139.322 20.374 139.322 20.374C139.322 20.374 139.728 20.596 139.932 21.5303C140.302 23.2324 140.774 24.0002 140.774 24.0002C140.774 24.0002 140.422 24.472 140.182 24.7217C140.031 24.8727 139.887 24.923 139.756 24.9686C139.582 25.0292 139.432 25.0816 139.322 25.3508C139.119 25.8777 138.967 26.4229 138.868 26.9789C138.817 27.3075 138.944 27.4098 139.058 27.5021C139.17 27.5918 139.269 27.6721 139.183 27.9409C139.108 28.1719 139.044 28.4359 138.98 28.6994C138.892 29.0588 138.805 29.4171 138.693 29.6893C138.498 30.161 138.027 30.6513 137.87 30.7438C137.574 30.9011 137.416 30.6698 137.416 30.6698C137.416 30.6698 137.574 30.1055 136.75 30.4386C136.972 29.9853 136.704 29.5505 135.927 29.7725C135.927 29.7725 135.853 29.5228 135.631 29.458C135.909 29.2452 136.269 29.2822 137.028 29.4765ZM136.501 30.2813C136.269 30.5958 135.798 30.7068 135.798 30.7068C135.761 30.3553 136.195 30.0963 136.195 30.0963C136.408 30.087 136.501 30.2813 136.501 30.2813ZM138.434 32.1406C139.016 31.6781 140.894 32.3812 141.227 32.8344C139.562 33.0102 138.619 32.3812 138.434 32.1406ZM140.968 31.7891C137.537 31.6504 135.659 31.1046 135.659 31.1046C135.659 31.1046 136.112 31.0861 136.482 30.8733C136.482 30.8733 136.713 30.8918 136.991 30.7346C136.991 30.7346 137.268 31.2989 138.027 31.0676C138.027 31.0676 139.026 31.2803 140.848 31.2803C140.939 31.3424 140.996 31.4159 141.042 31.4758C141.127 31.5855 141.176 31.6493 141.338 31.5116C141.726 31.1786 142.068 31.1231 142.068 31.1231C142.068 31.1231 142.207 31.2989 142.142 31.4191C142.068 31.5394 142.364 31.5301 142.512 31.3636C142.67 31.1878 143.021 31.0306 143.197 31.0306C143.354 31.2618 143.465 31.3544 143.742 31.2618C144.167 31.1045 144.375 31.1642 144.546 31.2135C144.677 31.251 144.786 31.2824 144.954 31.2063C145.147 31.119 145.331 31.1048 145.583 31.0853C145.838 31.0656 146.163 31.0405 146.637 30.9288L146.831 31.2063C146.831 31.2063 146.828 31.2077 146.821 31.2103C146.676 31.2688 144.996 31.9485 140.968 31.7891ZM147.118 30.4201C146.952 30.161 147.525 30.1425 147.525 30.1425C147.507 30.2998 147.238 30.6143 147.118 30.4201ZM147.747 28.9122C148.117 28.8197 148.293 28.718 148.293 28.718C148.293 28.718 148.339 29.2915 147.645 29.5783C147.164 29.7725 147.1 29.0695 147.747 28.9122ZM148.154 30.8918C147.544 30.9658 147.562 30.2443 148.098 30.1888C148.644 30.1333 148.977 30.4386 148.977 30.4386C148.977 30.4386 148.607 30.8363 148.154 30.8918Z" fill="currentColor"/>
<path fill-rule="evenodd" clip-rule="evenodd" d="M66.507 30.4848C65.5266 30.4848 63.8989 29.5413 63.8989 28.0704L63.9081 4.27815C63.9081 2.80732 65.6099 1.87302 66.359 1.87302C66.6272 1.87302 66.655 1.20698 66.359 1.20698H55.7693C55.4733 1.20698 55.5103 1.87302 55.7693 1.87302C56.5184 1.87302 58.2202 2.79807 58.2202 4.27815V28.0612C58.2202 29.532 56.7497 30.4756 55.7693 30.4756C55.5103 30.4756 55.3994 31.2248 55.7693 31.2248H66.507C66.8769 31.2341 66.7659 30.4848 66.507 30.4848ZM61.7069 29.458C61.7069 29.569 61.6144 29.6615 61.5127 29.6615H60.7728C60.6618 29.6615 60.5694 29.569 60.5694 29.458V3.02933C60.5694 2.91832 60.6618 2.83507 60.7728 2.83507H61.5127C61.6237 2.83507 61.7069 2.92757 61.7069 3.02933V29.458Z" fill="currentColor"/>
<path fill-rule="evenodd" clip-rule="evenodd" d="M38.9645 2.82582C44.4397 2.82582 48.8143 4.88868 51.6444 9.23641C51.8109 9.48618 52.2271 9.35667 52.1346 9.11616C51.9959 8.76464 48.8328 1.21623 48.8328 1.21623H26.9135C26.6176 1.21623 26.6546 1.88227 26.9135 1.88227C28.0881 1.88227 29.9379 3.16809 29.9379 4.63891V26.9326C29.9379 29.0695 28.5321 30.4848 26.9135 30.4848C26.6546 30.4848 26.6176 31.2341 26.9135 31.2341H48.8976L52.0606 23.7227C52.1716 23.4359 51.7554 23.1492 51.5704 23.5099C50.3311 25.8873 45.6698 29.6615 39.5379 29.6615H35.3021V17.0993H40.8882C44.5507 17.0993 46.4004 19.6617 46.9091 20.374C47.1496 20.707 47.6582 20.5775 47.464 20.1705C47.279 19.7635 45.5218 16.276 45.5218 16.276C45.5218 16.276 47.279 12.7886 47.464 12.3816C47.649 11.9746 47.2513 11.7803 47.0386 12.1411C46.8259 12.5018 44.116 15.3417 40.2963 15.3417H35.2928V2.82582H38.9645ZM33.2119 29.458C33.2119 29.569 33.1194 29.6615 33.0176 29.6615H32.2778C32.1668 29.6615 32.0835 29.569 32.0835 29.458V3.02933C32.0835 2.91832 32.176 2.83507 32.2778 2.83507H33.0176C33.1286 2.83507 33.2119 2.92757 33.2119 3.02933V29.458Z" fill="currentColor"/>
<path fill-rule="evenodd" clip-rule="evenodd" d="M23.8522 23.4359C22.9921 25.064 18.0718 29.6615 11.6533 29.6615H7.28793L24.5274 1.21623H8.28678C6.34457 1.21623 4.48559 1.05897 4.48559 1.05897C4.48559 1.05897 1.47053 7.95984 1.19307 8.55187C0.998853 8.9774 1.43354 9.18091 1.70175 8.72763C2.52488 7.34006 6.13185 2.82582 13.355 2.82582H17.036L0 31.2341H20.7447C20.7447 31.2341 24.0742 23.9447 24.2314 23.5747C24.3887 23.2047 24.028 23.1029 23.8522 23.4359ZM4.42085 29.6615H3.51448C3.4035 29.6615 3.37575 29.569 3.44049 29.458L19.4406 3.02008C19.5054 2.90907 19.6534 2.82582 19.7551 2.82582H20.6615C20.7724 2.82582 20.8002 2.91832 20.7355 3.02008L4.7353 29.458C4.67056 29.569 4.53183 29.6615 4.42085 29.6615Z" fill="currentColor"/>
<path fill-rule="evenodd" clip-rule="evenodd" d="M94.3824 8.78314C94.3362 8.67981 94.043 8.07535 93.6446 7.25379C92.6876 5.28038 91.1231 2.05435 90.9141 1.51225C90.714 0.978304 90.3645 1.06075 89.9944 1.14808C89.8515 1.18179 89.7055 1.21623 89.5638 1.21623H72.7406C72.5995 1.21623 72.4541 1.18279 72.3118 1.15004C71.941 1.06472 71.5908 0.984136 71.3903 1.51225C71.0943 2.28929 68.4307 8.66288 68.2735 9.0144C68.1162 9.36592 68.6527 9.66193 68.9209 9.17166C70.077 7.08105 73.9891 2.82582 78.2805 2.82582V28.0612C78.2805 29.532 76.81 30.4756 75.8296 30.4756C75.5706 30.4756 75.4597 31.2248 75.8296 31.2248H86.5673C86.9372 31.2248 86.8262 30.4756 86.5673 30.4756C85.5869 30.4756 83.9592 29.532 83.9592 28.0612V2.82582C88.1118 2.82582 92.3384 6.91454 93.7257 8.9404C94.0402 9.40292 94.5396 9.13466 94.3824 8.78314ZM81.7765 29.458C81.7765 29.569 81.684 29.6615 81.5823 29.6615H80.8424C80.7314 29.6615 80.6481 29.569 80.6481 29.458V3.02933C80.6481 2.91832 80.7406 2.83507 80.8424 2.83507H81.5823C81.6932 2.83507 81.7765 2.92757 81.7765 3.02933V29.458Z" fill="currentColor"/>
<path fill-rule="evenodd" clip-rule="evenodd" d="M306.814 2.82582C312.29 2.82582 316.664 4.88868 319.494 9.23641C319.661 9.48618 320.086 9.35667 319.984 9.11616C319.846 8.76464 316.683 1.21623 316.683 1.21623H294.763C294.467 1.21623 294.504 1.88227 294.763 1.88227C295.938 1.88227 297.788 3.16809 297.788 4.63891V26.9326C297.788 29.0695 296.382 30.4848 294.763 30.4848C294.504 30.4848 294.467 31.2341 294.763 31.2341H316.747L319.91 23.7227C320.031 23.4359 319.605 23.1492 319.42 23.5099C318.181 25.8873 313.51 29.6615 307.388 29.6615H303.152V17.0993H308.738C312.401 17.0993 314.25 19.6617 314.759 20.374C314.999 20.707 315.508 20.5775 315.314 20.1705C315.129 19.7635 313.372 16.276 313.372 16.276C313.372 16.276 315.129 12.7886 315.314 12.3816C315.499 11.9746 315.101 11.7803 314.888 12.1411C314.676 12.5018 311.966 15.3417 308.146 15.3417H303.143V2.82582H306.814ZM301.062 29.458C301.062 29.569 300.979 29.6615 300.868 29.6615H300.128C300.017 29.6615 299.933 29.569 299.933 29.458V3.02933C299.933 2.91832 300.017 2.83507 300.128 2.83507H300.868C300.979 2.83507 301.062 2.92757 301.062 3.02933V29.458Z" fill="currentColor"/>
<path fill-rule="evenodd" clip-rule="evenodd" d="M257.408 30.4848C256.428 30.4848 254.8 29.5413 254.8 28.0704L254.809 4.2874C254.809 2.81657 256.511 1.88227 257.26 1.88227C257.519 1.88227 257.556 1.21623 257.26 1.21623H246.661C246.365 1.21623 246.402 1.88227 246.661 1.88227C247.42 1.88227 249.112 2.80732 249.112 4.2874V28.0704C249.112 29.5413 247.642 30.4848 246.661 30.4848C246.402 30.4848 246.291 31.2341 246.661 31.2341H257.399C257.769 31.2341 257.667 30.4848 257.408 30.4848ZM252.608 29.458C252.608 29.569 252.516 29.6615 252.405 29.6615H251.665C251.554 29.6615 251.471 29.569 251.471 29.458V3.02933C251.471 2.91832 251.563 2.83507 251.665 2.83507H252.405C252.516 2.83507 252.608 2.92757 252.608 3.02933V29.458Z" fill="currentColor"/>
<path fill-rule="evenodd" clip-rule="evenodd" d="M291.915 1.21623H282.722C282.426 1.21623 282.463 1.88227 282.722 1.88227C284.867 1.88227 286.292 2.89057 286.292 7.93209V22.0576L268.83 1.21623H260.497C260.201 1.21623 260.238 1.88227 260.497 1.88227C261.977 1.88227 265.196 3.57511 265.196 6.08199V23.0197C265.196 29.2452 264.15 30.4848 261.903 30.4848C261.644 30.4848 261.533 31.2341 261.903 31.2341H270.68C271.05 31.2341 270.939 30.4848 270.68 30.4848C268.22 30.4848 267.23 29.2452 267.23 23.0197L267.239 7.62682L288.345 32.1869L288.336 7.93209C288.336 2.95532 289.871 1.88227 291.915 1.88227C292.174 1.88227 292.211 1.21623 291.915 1.21623ZM286.449 25.8873C286.449 26.1648 285.617 26.0631 285.515 25.9521L265.935 2.95532C265.843 2.84432 265.852 2.79807 265.963 2.79807H267.008C267.156 2.79807 267.313 2.97382 267.406 3.08483L286.347 25.3045C286.44 25.4155 286.458 25.5358 286.458 25.7023L286.449 25.8873Z" fill="currentColor"/>
<path fill-rule="evenodd" clip-rule="evenodd" d="M217.759 1.21623H208.566C208.27 1.21623 208.307 1.88227 208.566 1.88227C210.712 1.88227 212.145 2.89057 212.145 7.93209V22.0576L194.675 1.21623H186.342C186.046 1.21623 186.083 1.88227 186.342 1.88227C187.821 1.88227 191.04 3.57511 191.04 6.08199V23.0197C191.04 29.2452 190.004 30.4848 187.747 30.4848C187.488 30.4848 187.377 31.2341 187.747 31.2341H196.524C196.894 31.2341 196.783 30.4848 196.524 30.4848C194.064 30.4848 193.075 29.2452 193.075 23.0197L193.084 7.62682L214.189 32.1869V7.93209C214.189 2.95532 215.725 1.88227 217.759 1.88227C218.018 1.88227 218.055 1.21623 217.759 1.21623ZM212.256 25.9521C212.256 26.2296 211.424 26.1278 211.322 26.0168L191.78 2.95532C191.687 2.84432 191.697 2.79807 191.808 2.79807H192.853C193.001 2.79807 193.158 2.97382 193.25 3.08483L212.145 25.3693C212.238 25.4803 212.256 25.6005 212.256 25.7671V25.9521Z" fill="currentColor"/>
<path fill-rule="evenodd" clip-rule="evenodd" d="M170.175 0.485441C163.155 0.485441 154.517 5.78598 154.517 16.4703C154.517 25.8318 160.436 31.6411 169.962 31.6411C182.318 31.6411 185.907 22.5386 185.907 16.2113C185.907 7.32156 179.1 0.485441 170.175 0.485441ZM157.319 16.6923C157.319 9.1069 162.11 3.33459 164.885 2.76106C162.425 4.17639 158.42 9.45842 158.568 16.6923C158.707 23.4637 160.778 26.5626 163.803 29.3192C160.778 27.4321 157.319 24.25 157.319 16.6923ZM160.945 16.276C160.945 6.74803 165.606 2.00252 170.156 2.00252C175.622 2.00252 179.572 6.47976 179.572 15.7765C179.572 25.2953 175.003 29.9113 170.221 29.9113C165.356 29.9113 160.945 26.9141 160.945 16.276ZM175.548 29.3192C178.009 27.9039 181.93 23.0659 181.865 15.832C181.801 8.90339 179.664 5.51771 176.64 2.76106C179.664 4.64817 183.123 8.27436 183.123 15.832C183.123 23.4174 178.323 28.7365 175.548 29.3192Z" fill="currentColor"/>
<path fill-rule="evenodd" clip-rule="evenodd" d="M244.83 23.1769C243.591 25.5543 239.096 29.6615 232.973 29.6615H229.459L229.468 4.27815C229.468 2.80732 231.447 1.87302 232.196 1.87302C232.455 1.87302 232.492 1.20698 232.196 1.20698H220.913C220.617 1.20698 220.654 1.87302 220.913 1.87302C222.088 1.87302 223.937 3.15883 223.937 4.62966V26.5071C223.937 29.347 222.254 30.4848 220.636 30.4848C220.377 30.4848 220.34 31.2341 220.636 31.2341H242.333C242.333 31.2341 245.2 23.6764 245.32 23.3897C245.44 23.1029 245.015 22.8161 244.83 23.1769ZM227.285 29.458C227.285 29.569 227.193 29.6615 227.091 29.6615H226.351C226.24 29.6615 226.157 29.569 226.157 29.458V3.02933C226.157 2.91832 226.25 2.83507 226.351 2.83507H227.091C227.202 2.83507 227.285 2.92757 227.285 3.02933V29.458Z" fill="currentColor"/>
</svg>
