<svg width="223" height="22" viewBox="0 0 223 22" fill="none" xmlns="http://www.w3.org/2000/svg">
<path d="M109.468 0.800415C109.771 2.25791 110.788 5.50358 111.036 6.35608L113.566 15.1285L117.223 2.69788C117.361 2.23068 117.416 1.95589 117.416 1.73596C117.416 1.54346 117.279 1.37854 117.004 1.37854L115.436 1.32288V0.800415C115.794 0.827912 116.481 0.883406 117.416 0.883423C118.378 0.883423 118.874 0.855414 119.204 0.800415V1.32288C118.571 1.37787 118.433 1.4606 118.103 2.53284L113.319 18.3453C113.016 19.3078 112.769 20.1885 112.659 20.6285H112.246L108.066 6.46545L102.923 20.6559H102.566L97.8639 2.12073C97.7264 1.54345 97.3688 1.32304 96.984 1.32288H96.4332V0.800415C97.2857 0.882916 98.1115 0.883423 99.734 0.883423C101.136 0.883417 102.4 0.855372 102.813 0.800415V1.37854L101.356 1.43323C101.026 1.43323 100.944 1.54324 100.944 1.79065C100.944 2.12065 101.328 3.90842 101.438 4.32092L104.133 15.1285L108.204 4.04553C108.534 3.1105 109.056 1.51535 109.221 0.800415H109.468ZM210.227 0.800415C210.2 1.46041 210.035 6.41124 210.062 9.07874L210.117 17.3561C210.117 19.2808 210.393 19.9957 211.163 19.9957C211.382 19.9957 211.547 19.9407 211.795 19.8033V20.2155C211.41 20.518 210.942 20.6559 210.392 20.6559C209.512 20.6559 208.577 20.3256 208.027 19.5006C207.23 20.353 206.075 20.6012 205.003 20.6012C202.473 20.6012 200.41 18.5382 200.41 15.0182C200.41 11.3607 202.802 9.05042 205.91 9.05042C206.735 9.05042 207.422 9.24366 207.78 9.43616L207.753 2.5885C207.753 1.5435 207.587 1.29553 206.982 1.29553H206.185V0.800415C206.928 0.855403 208.055 0.910761 208.852 0.910767C209.21 0.910767 210.007 0.827923 210.227 0.800415ZM123.485 9.10608C126.07 9.10628 128.682 10.866 128.682 14.8531C128.682 18.593 126.125 20.6283 123.32 20.6285C120.432 20.6285 118.232 18.1528 118.232 14.9078C118.232 11.5256 120.433 9.10608 123.485 9.10608ZM136.058 9.07874C137.983 9.07874 139.826 10.096 139.826 11.526C139.826 12.0207 139.551 12.3227 139.167 12.3229C138.617 12.3229 138.369 12.1306 138.011 11.0856C137.681 10.1506 137.076 9.54553 135.976 9.54553C134.134 9.54554 133.034 11.4708 133.034 14.6608C133.034 18.0158 134.271 20.0231 136.306 20.0231C138.066 20.023 139.276 18.3731 139.496 17.2731H139.744V18.6207C138.864 19.8032 137.489 20.6285 135.784 20.6285C133.886 20.6285 130.558 19.2804 130.558 15.0729C130.558 11.8557 133.061 9.07903 136.058 9.07874ZM158.476 9.07874C160.924 9.07874 162.711 10.7831 162.712 13.6979H155.809C155.782 14.3029 155.782 14.4961 155.782 14.7711C155.782 18.3458 156.854 19.9957 158.944 19.9957C160.236 19.9957 161.722 18.978 162.354 17.108H162.546V18.401C161.694 19.5559 160.291 20.6012 158.311 20.6012C155.369 20.601 153.279 18.3733 153.279 14.9362C153.279 11.2238 155.946 9.07895 158.476 9.07874ZM182.055 9.07874C184.503 9.07874 186.29 10.7831 186.291 13.6979H179.388C179.361 14.3029 179.361 14.4961 179.361 14.7711C179.361 18.3458 180.433 19.9957 182.523 19.9957C183.816 19.9957 185.301 18.978 185.933 17.108H186.126V18.401C185.273 19.5559 183.87 20.6012 181.89 20.6012C178.948 20.601 176.858 18.3733 176.858 14.9362C176.858 11.2238 179.525 9.07895 182.055 9.07874ZM218.123 9.07874C220.57 9.07878 222.358 10.7832 222.358 13.6979H215.455C215.427 14.3029 215.427 14.4961 215.427 14.7711C215.427 18.3459 216.5 19.9957 218.59 19.9957C219.883 19.9955 221.367 18.9779 222 17.108H222.193V18.401C221.34 19.556 219.938 20.6012 217.958 20.6012C215.015 20.6012 212.926 18.3734 212.925 14.9362C212.925 11.2237 215.593 9.07874 218.123 9.07874ZM67.7955 9.10608C68.8953 9.10613 69.775 9.32603 70.4898 9.82092C71.0948 10.2334 71.5074 10.9757 71.5074 12.2955V18.6754C71.5074 19.5554 71.7279 19.8854 72.2779 19.8854C72.6903 19.8853 73.0482 19.6653 73.4605 19.3629V19.9137C72.828 20.3262 72.0847 20.5729 71.3697 20.5729C70.5999 20.5728 69.94 20.2431 69.4176 19.6656C68.7576 20.3256 67.9872 20.5729 66.9146 20.5729C64.6874 20.5727 63.3121 19.3903 63.3121 17.4655C63.3123 15.4032 64.8252 14.1657 67.3824 14.1656C68.0424 14.1656 68.7026 14.3031 69.2525 14.5231V12.6256C69.2525 10.5634 68.7301 9.57301 67.3004 9.57288C66.6129 9.57288 65.5396 10.0133 65.3746 11.3883C65.2921 12.2132 64.8797 12.4606 64.4947 12.4606C64.1099 12.4604 63.8073 12.1582 63.8072 11.7184C63.8072 10.3434 65.7055 9.10608 67.7955 9.10608ZM3.26914 0.647095C4.132 0.707252 5.44267 0.736938 6.2457 0.736938H15.9527V0.887329L5.35313 19.3033H7.22813C12.0236 19.3033 14.0781 17.8624 15.983 15.0143C16.1288 14.9545 16.3073 15.0447 16.3375 15.1647C15.5046 16.9329 14.7319 18.6748 14.0748 20.443C13.003 20.3828 11.9011 20.3536 10.8326 20.3502H0.647072V20.1998L11.2467 1.78674H9.8502C4.66971 1.78674 3.29834 3.34511 1.48301 5.98596C1.36355 6.04565 1.15469 5.95563 1.12461 5.83557C1.92774 4.0672 2.67178 2.35529 3.26914 0.647095ZM30.5582 0.647095C31.1854 2.4153 31.9587 4.15682 32.7916 5.86487C32.7916 6.04538 32.5825 6.13579 32.4332 6.04553C29.931 2.95698 28.0856 1.78674 23.6188 1.78674H22.607V9.79651H25.1988C27.4023 9.7965 28.6234 9.19461 29.9342 7.42639C30.1134 7.36622 30.2627 7.45663 30.2926 7.60706L29.0416 10.3649L30.2926 13.1256C30.2594 13.3028 30.0835 13.3635 29.9342 13.3033C28.6233 11.535 27.4024 10.9362 25.1988 10.9362H22.607V19.3033H23.7984C27.9666 19.3033 30.6151 18.5549 32.9381 15.1354C33.0873 15.0786 33.2664 15.1349 33.2965 15.3151C32.4636 16.993 31.687 18.7049 31.0631 20.443C30.4692 20.3828 29.2481 20.3532 28.6539 20.3531H17.1314C17.0418 20.2328 17.0418 20.0223 17.1314 19.902C18.7074 19.6011 18.9166 19.1196 18.9166 17.7125V3.37854C18.9166 1.968 18.7074 1.48995 17.1314 1.18909C17.0418 1.06874 17.0418 0.857281 17.1314 0.736938H28.1461C28.6839 0.736927 30.11 0.70723 30.5582 0.647095ZM86.7496 9.10608C88.372 9.10614 89.7467 10.1512 89.7467 12.0211C89.7467 12.7362 89.6647 14.1383 89.6646 15.0182V19.1158C89.6647 19.8033 89.7748 19.9137 90.3248 19.9137H90.984V20.4078C89.7469 20.3803 89.5543 20.3531 88.6744 20.3531C87.437 20.3532 87.2166 20.4078 85.9791 20.4078V19.9137H86.859C87.1065 19.9137 87.1899 19.8578 87.2174 19.7203C87.3272 19.525 87.3824 17.629 87.3824 15.7057C87.3824 12.7632 87.3542 11.4981 86.9967 10.7281C86.7217 10.1784 86.3096 9.90306 85.6773 9.90295C85.0174 9.90295 84.2469 10.5082 83.6969 11.4156V18.8961C83.6969 19.8033 83.7795 19.9137 84.3844 19.9137H84.8795V20.4078C83.8345 20.3528 83.4766 20.3531 82.5416 20.3531C81.4419 20.3531 81.3588 20.3528 79.984 20.4078V19.9137H80.6998C81.3595 19.9137 81.4146 19.8581 81.4146 19.1432V12.983C81.4146 12.0481 81.2497 11.1678 81.0572 10.7828C80.6998 10.1505 80.3418 9.87561 79.7369 9.87561C79.132 9.87565 78.17 10.5908 77.7574 11.4156V19.1158C77.7574 19.8583 77.8399 19.9137 78.4449 19.9137H78.9674V20.4078L76.2721 20.3531C75.4472 20.3257 75.1445 20.4078 73.9898 20.4078V19.9137H74.8424C75.1171 19.9136 75.2267 19.8304 75.3092 19.693C75.3641 19.583 75.3647 19.473 75.3922 19.3356C75.4197 19.0059 75.4742 19.3344 75.4742 14.358C75.4742 13.6706 75.4748 13.12 75.3648 10.2604C75.3648 10.123 75.337 9.98525 75.2271 9.9303C75.1442 9.87533 74.4301 9.79366 74.1549 9.79358V9.27112C74.6222 9.40849 75.227 9.46348 75.8316 9.4635C76.4366 9.4635 77.3448 9.35358 77.7848 9.10608L77.9215 9.2428C77.784 9.62772 77.7291 10.0681 77.7291 10.3981V10.7008C78.2791 9.95833 79.2694 9.10613 80.7818 9.10608C82.1842 9.10608 83.0647 9.71049 83.6422 10.7828C84.3297 9.76556 85.4023 9.10608 86.7496 9.10608ZM144.014 0.800415C143.904 1.46039 143.849 3.99057 143.849 6.98792V10.6461C144.372 9.98612 145.472 9.05042 147.012 9.05042C148.085 9.05046 148.882 9.38084 149.514 10.0406C150.174 10.7831 150.45 11.6637 150.422 13.2037L150.367 19.0055C150.367 19.8303 150.45 19.9137 151.082 19.9137H151.632V20.4078H151.357L150.588 20.3805C150.313 20.3805 149.735 20.3532 148.91 20.3531C147.92 20.3531 147.48 20.4078 146.875 20.4078H146.545V19.9137H147.397C147.947 19.9137 148.03 19.8033 148.03 18.7311L148.057 14.7711C148.057 13.2036 147.919 11.9928 147.617 11.3053C147.287 10.5632 146.709 10.0954 145.802 10.0953C145.032 10.0953 144.317 10.5636 143.849 11.3336V18.9781C143.849 19.7206 144.042 19.9137 144.317 19.9137H145.088V20.4078H144.812C144.235 20.4078 143.822 20.3531 142.639 20.3531C141.292 20.3532 140.879 20.4078 140.384 20.4078H140.054V19.9137H140.797C141.457 19.9136 141.54 19.7756 141.54 18.566V2.53284C141.54 1.43323 141.429 1.29553 140.742 1.29553H140.275V0.800415L140.467 0.828735C141.127 0.85623 141.292 0.883423 142.227 0.883423C143.052 0.883421 143.712 0.855384 144.014 0.800415ZM170.915 9.10608C171.822 9.10608 172.565 9.38082 173.17 9.84827C173.884 10.4257 174.214 11.1407 174.214 12.4606C174.214 13.6981 174.16 15.4586 174.16 16.6686V19.2809C174.16 19.8031 174.242 19.9136 174.764 19.9137H175.397V20.4078C174.132 20.3803 173.912 20.3532 172.95 20.3531C171.795 20.3531 171.657 20.4078 170.447 20.4078V19.9137H171.134C171.794 19.9137 171.878 19.7482 171.878 18.4557V13.0934C171.878 11.0034 171.245 9.87561 169.897 9.87561C169.072 9.87571 168 10.6735 167.615 11.361V19.1979C167.615 19.8029 167.725 19.9137 168.33 19.9137H168.879V20.4078C168.412 20.4078 167.615 20.3532 166.35 20.3531C165.306 20.3531 164.15 20.4078 163.793 20.4078V19.9137H164.424C164.864 19.9137 165.058 19.8032 165.168 19.6656C165.305 19.4722 165.333 18.1243 165.333 15.2106C165.333 10.9215 165.25 10.1511 165.057 9.98596C164.975 9.90348 164.48 9.8211 163.958 9.79358V9.27112C164.398 9.38106 165.03 9.4635 165.525 9.4635C166.267 9.46347 167.12 9.32602 167.642 9.10608L167.753 9.21545C167.67 9.51791 167.615 9.93065 167.615 10.3981V10.5905C168.687 9.54563 169.622 9.1061 170.915 9.10608ZM194.494 9.10608C195.401 9.10608 196.144 9.38082 196.749 9.84827C197.464 10.4257 197.794 11.1407 197.794 12.4606C197.794 13.6981 197.739 15.4586 197.739 16.6686V19.2809C197.739 19.8031 197.821 19.9136 198.343 19.9137H198.976V20.4078C197.711 20.3803 197.491 20.3532 196.529 20.3531C195.374 20.3531 195.236 20.4078 194.026 20.4078V19.9137H194.713C195.373 19.9137 195.457 19.7482 195.457 18.4557V13.0934C195.457 11.0034 194.824 9.87561 193.476 9.87561C192.651 9.87571 191.579 10.6735 191.194 11.361V19.1979C191.194 19.8029 191.304 19.9137 191.909 19.9137H192.459V20.4078C191.991 20.4078 191.194 20.3532 189.929 20.3531C188.885 20.3531 187.73 20.4078 187.372 20.4078V19.9137H188.004C188.444 19.9137 188.637 19.8032 188.747 19.6656C188.884 19.4722 188.912 18.1243 188.912 15.2106C188.912 10.9215 188.829 10.1511 188.636 9.98596C188.554 9.90348 188.059 9.8211 187.537 9.79358V9.27112C187.977 9.38106 188.609 9.4635 189.104 9.4635C189.846 9.46347 190.699 9.32602 191.221 9.10608L191.332 9.21545C191.249 9.51791 191.194 9.93065 191.194 10.3981V10.5905C192.266 9.54563 193.201 9.1061 194.494 9.10608ZM41.9918 0.740845C42.0811 0.861179 42.0812 1.07174 41.9918 1.19202C40.4154 1.49287 40.2057 1.97084 40.2057 3.38147V17.7155C40.2057 19.1228 40.4154 19.6041 41.9918 19.9049C42.0813 20.0284 42.081 20.2357 41.9918 20.3561H34.7271C34.6376 20.2357 34.6376 20.0252 34.7271 19.9049C36.3031 19.604 36.5123 19.1227 36.5123 17.7155V3.38147C36.5123 1.97096 36.3065 1.49287 34.7271 1.19202C34.6375 1.07167 34.6375 0.861187 34.7271 0.740845H41.9918ZM57.1178 0.650024C57.7715 2.35818 58.5182 4.04012 59.3512 5.68811C59.3512 5.83849 59.1425 5.92883 58.9898 5.86877C56.6701 2.71985 54.8215 1.79068 52.9166 1.79065V17.7155C52.9166 19.1261 53.1223 19.604 54.7018 19.9049C54.7913 20.0586 54.7912 20.2057 54.7018 20.3561H47.4371C47.3478 20.2357 47.3476 20.0251 47.4371 19.9049C49.0168 19.6041 49.2262 19.1228 49.2262 17.7155V1.79065C47.3212 1.79065 45.5358 2.71981 43.1529 5.86877C43.0036 5.9289 42.7945 5.83852 42.7945 5.68811C43.6308 4.01 44.404 2.33148 45.0279 0.650024C45.7447 0.710187 47.7985 0.740836 48.5123 0.740845H53.6334C54.7053 0.740844 56.0757 0.710188 57.1178 0.650024ZM123.429 9.54553C121.972 9.54566 120.707 10.7285 120.707 14.4957C120.707 19.1432 122.11 20.1881 123.567 20.1881C125.244 20.1881 126.235 18.2628 126.235 14.9078C126.235 11.5256 125.189 9.54553 123.429 9.54553ZM68.0152 14.6608C66.6127 14.6608 65.733 15.6508 65.733 17.2457C65.733 18.8957 66.5579 19.9137 67.8229 19.9137C68.2628 19.9136 68.8676 19.6656 69.2525 19.1432V15.5406C69.2251 15.266 69.1427 15.0736 69.0055 14.9362C68.813 14.7712 68.4277 14.6608 68.0152 14.6608ZM206.213 9.6012C204.315 9.6012 202.884 11.2784 202.884 14.6334C202.884 18.0983 204.26 19.776 206.213 19.776C207.01 19.7759 207.532 19.3908 207.67 19.1158C207.78 18.8409 207.78 18.5658 207.78 17.9059V10.068C207.422 9.79306 206.79 9.60125 206.213 9.6012ZM12.9479 1.79065L2.91563 19.3033H3.61875L13.6549 1.79065H12.9479ZM20.4596 19.3033H21.0563V1.79065L20.4596 1.78674V19.3033ZM38.0533 1.79065V19.3033H38.6588V1.79065H38.0533ZM50.774 1.79065V19.3033H51.3766V1.79065H50.774ZM158.284 9.57288C156.744 9.57302 156.029 10.8383 155.864 13.1481H159.054C159.934 13.1481 160.209 13.0654 160.292 13.0104C160.374 12.9279 160.429 12.7906 160.429 12.5983C160.429 10.6733 159.576 9.57288 158.284 9.57288ZM181.863 9.57288C180.323 9.57302 179.608 10.8383 179.443 13.1481H182.633C183.513 13.1481 183.788 13.0654 183.871 13.0104C183.953 12.9279 184.008 12.7906 184.008 12.5983C184.008 10.6733 183.155 9.57288 181.863 9.57288ZM217.93 9.57288C216.39 9.57288 215.675 10.8382 215.51 13.1481H218.7C219.579 13.1481 219.854 13.0654 219.937 13.0104C220.02 12.9279 220.075 12.7908 220.075 12.5983C220.075 10.6734 219.223 9.573 217.93 9.57288Z" fill="black"/>
</svg>
