<svg xmlns="http://www.w3.org/2000/svg" width="20" height="22" viewBox="0 0 27 35" fill="none">
<path d="M4.93231 33.1208C4.93231 33.1208 5.16788 33.1208 5.16788 32.8865L22.5508 2.34904V2.11346H21.6112C21.6112 2.11346 21.3756 2.11346 21.3756 2.34904L3.99269 32.8865V33.1208H4.93231ZM26.0737 25.8381C26.3092 25.3696 26.779 25.6038 26.5448 26.0737C26.3092 26.5448 22.785 35 22.785 35H0L18.5567 2.11346H14.5654C6.81288 2.11346 2.82019 7.28269 1.88058 8.925C1.645 9.39615 1.17519 9.16058 1.41077 8.69077C1.64365 7.98673 4.93231 0 4.93231 0C4.93231 0 7.04577 0.234231 9.16058 0.234231H26.779L7.98673 33.1208H12.6848C19.7319 33.1208 25.134 27.7187 26.0737 25.8381Z" fill="currentColor"/>
</svg>