<svg xmlns="http://www.w3.org/2000/svg" width="24" height="24" viewBox="0 0 24 24" fill="none">
<path fill-rule="evenodd" clip-rule="evenodd" d="M5.5592 20.4414L14.8717 3.49662H13.735L4.42249 20.4414H5.5592ZM16.4858 16.7651C16.6173 16.4966 16.8805 16.6309 16.7489 16.8993C16.6173 17.1678 14.6437 22 14.6437 22H1.85608L12.024 3.49662H9.76915C5.42704 3.49662 3.45944 6.16107 2.93312 7.10067C2.80155 7.36913 2.53839 7.2349 2.66997 6.96644C2.80155 6.56376 4.64365 2 4.64365 2H7.15827H17.403L7.27014 20.4414H9.26892C13.2163 20.4414 15.9594 17.8389 16.4858 16.7651ZM18.6304 12.75H15.4915V11.25H18.6304V8.11111H20.1304V11.25H23.2693V12.75H20.1304V15.8889H18.6304V12.75Z" fill="currentColor"/>
</svg>